M48
; DRILL file {KiCad 7.0.5} date Mon Mar 18 15:41:47 2024
; FORMAT={-:-/ absolute / metric / decimal}
; #@! TF.CreationDate,2024-03-18T15:41:47+09:00
; #@! TF.GenerationSoftware,Kicad,Pcbnew,7.0.5
; #@! TF.FileFunction,MixedPlating,1,4
FMAT,2
METRIC
; #@! TA.AperFunction,Plated,PTH,ViaDrill
T1C0.300
; #@! TA.AperFunction,Plated,PTH,ViaDrill
T2C0.350
; #@! TA.AperFunction,Plated,PTH,ViaDrill
T3C0.400
; #@! TA.AperFunction,Plated,PTH,ComponentDrill
T4C0.500
; #@! TA.AperFunction,Plated,PTH,ComponentDrill
T5C0.600
; #@! TA.AperFunction,Plated,PTH,ComponentDrill
T6C0.730
; #@! TA.AperFunction,Plated,PTH,ComponentDrill
T7C0.800
; #@! TA.AperFunction,Plated,PTH,ComponentDrill
T8C0.900
; #@! TA.AperFunction,Plated,PTH,ComponentDrill
T9C1.000
; #@! TA.AperFunction,Plated,PTH,ComponentDrill
T10C1.200
; #@! TA.AperFunction,Plated,PTH,ComponentDrill
T11C1.520
; #@! TA.AperFunction,Plated,PTH,ComponentDrill
T12C2.000
; #@! TA.AperFunction,NonPlated,NPTH,ComponentDrill
T13C0.650
; #@! TA.AperFunction,NonPlated,NPTH,ComponentDrill
T14C2.000
; #@! TA.AperFunction,NonPlated,NPTH,ComponentDrill
T15C2.100
; #@! TA.AperFunction,NonPlated,NPTH,ComponentDrill
T16C2.200
%
G90
G05
T1
X165.8Y-47.29
X165.9Y-95.49
X166.8Y-47.4
X166.9Y-95.6
X168.3Y-49.796
X168.399Y-51.308
X168.4Y-97.996
X168.499Y-99.508
X169.77Y-50.043
X169.87Y-98.243
X170.927Y-46.896
X171.027Y-95.096
X171.483Y-47.3
X171.583Y-95.5
X172.137Y-47.212
X172.237Y-95.412
X174.27Y-47.33
X174.37Y-95.53
X174.55Y-50.7
X174.588Y-51.712
X174.65Y-98.9
X174.688Y-99.912
X175.197Y-50.762
X175.297Y-98.962
X175.3Y-47.395
X175.4Y-95.594
T2
X132.1Y-46.1
X132.1Y-63.0
X132.2Y-94.3
X132.2Y-111.2
X132.3Y-83.5
X132.3Y-85.5
X132.4Y-131.7
X132.4Y-133.7
X132.8Y-72.5
X132.9Y-120.7
X133.3Y-49.3
X133.4Y-97.5
X133.8Y-44.4
X133.8Y-47.9
X133.8Y-61.3
X133.8Y-64.9
X133.9Y-92.6
X133.9Y-96.1
X133.9Y-109.5
X133.9Y-113.1
X134.8Y-83.5
X134.8Y-85.5
X134.9Y-131.7
X134.9Y-133.7
X135.6Y-46.0
X135.6Y-62.9
X135.7Y-94.2
X135.7Y-111.1
X135.8Y-72.5
X135.8Y-77.5
X135.9Y-120.7
X135.9Y-125.7
X136.3Y-68.5
X136.3Y-70.5
X136.4Y-116.7
X136.4Y-118.7
X136.8Y-83.5
X136.8Y-85.5
X136.8Y-87.0
X136.8Y-89.0
X136.9Y-131.7
X136.9Y-133.7
X136.9Y-135.2
X136.9Y-137.2
X137.8Y-48.4
X137.8Y-64.3
X137.9Y-96.6
X137.9Y-112.5
X138.3Y-77.5
X138.4Y-125.7
X138.8Y-68.5
X138.8Y-70.5
X138.8Y-72.5
X138.9Y-116.7
X138.9Y-118.7
X138.9Y-120.7
X139.3Y-83.5
X139.3Y-87.0
X139.3Y-89.0
X139.4Y-131.7
X139.4Y-135.2
X139.4Y-137.2
X140.9Y-80.2
X141.0Y-128.4
X141.3Y-68.5
X141.3Y-70.5
X141.3Y-72.5
X141.4Y-116.7
X141.4Y-118.7
X141.4Y-120.7
X141.6Y-52.2
X141.7Y-100.4
X141.8Y-48.1
X141.9Y-96.3
X142.3Y-87.0
X142.3Y-89.0
X142.4Y-135.2
X142.4Y-137.2
X142.9Y-62.8
X142.9Y-63.7
X142.9Y-64.9
X143.0Y-111.0
X143.0Y-111.9
X143.0Y-113.1
X143.4Y-80.2
X143.5Y-128.4
X143.8Y-68.5
X143.8Y-70.5
X143.9Y-116.7
X143.9Y-118.7
X144.0Y-48.1
X144.1Y-96.3
X144.519Y-55.45
X144.619Y-103.65
X144.8Y-87.0
X144.8Y-89.0
X144.9Y-135.2
X144.9Y-137.2
X145.9Y-80.2
X146.0Y-128.4
X146.3Y-68.5
X146.3Y-70.5
X146.4Y-116.7
X146.4Y-118.7
X146.9Y-64.9
X147.0Y-113.1
X147.3Y-82.5
X147.3Y-84.5
X147.3Y-87.0
X147.3Y-89.0
X147.4Y-130.7
X147.4Y-132.7
X147.4Y-135.2
X147.4Y-137.2
X148.8Y-68.5
X148.8Y-70.5
X148.9Y-116.7
X148.9Y-118.7
X149.8Y-72.5
X149.8Y-84.5
X149.8Y-87.0
X149.8Y-89.0
X149.9Y-120.7
X149.9Y-132.7
X149.9Y-135.2
X149.9Y-137.2
X150.8Y-68.5
X150.8Y-70.5
X150.9Y-116.7
X150.9Y-118.7
X151.1Y-62.8
X151.1Y-63.7
X151.1Y-64.9
X151.2Y-111.0
X151.2Y-111.9
X151.2Y-113.1
X151.8Y-72.5
X151.9Y-120.7
X152.05Y-62.2
X152.15Y-110.4
X152.3Y-87.0
X152.3Y-89.0
X152.4Y-135.2
X152.4Y-137.2
X153.1Y-63.4
X153.1Y-64.2
X153.2Y-59.77
X153.2Y-111.6
X153.2Y-112.4
X153.3Y-68.5
X153.3Y-70.5
X153.3Y-107.971
X153.4Y-116.7
X153.4Y-118.7
X153.63Y-65.139
X153.73Y-113.34
X153.8Y-81.5
X153.9Y-129.7
X154.2Y-63.1
X154.3Y-72.5
X154.3Y-76.0
X154.3Y-78.0
X154.3Y-111.3
X154.4Y-120.7
X154.4Y-124.2
X154.4Y-126.2
X154.43Y-55.649
X154.5Y-44.5
X154.53Y-103.849
X154.6Y-92.7
X154.8Y-49.2
X154.8Y-83.5
X154.8Y-87.0
X154.8Y-89.0
X154.9Y-97.4
X154.9Y-131.7
X154.9Y-135.2
X154.9Y-137.2
X155.4Y-50.7
X155.4Y-62.9
X155.5Y-46.6
X155.5Y-98.9
X155.5Y-111.1
X155.6Y-94.8
X155.9Y-44.5
X156.0Y-92.7
X156.3Y-68.5
X156.4Y-116.7
X156.468Y-58.522
X156.568Y-106.722
X156.8Y-76.0
X156.8Y-78.0
X156.8Y-80.0
X156.9Y-124.2
X156.9Y-126.2
X156.9Y-128.2
X156.93Y-53.95
X157.03Y-102.15
X157.091Y-51.144
X157.191Y-99.344
X157.3Y-73.1
X157.3Y-83.5
X157.3Y-87.0
X157.3Y-89.0
X157.4Y-121.3
X157.4Y-131.7
X157.4Y-135.2
X157.4Y-137.2
X157.442Y-63.133
X157.542Y-111.332
X158.14Y-45.965
X158.24Y-94.165
X158.3Y-57.41
X158.4Y-105.61
X158.46Y-53.67
X158.56Y-101.87
X158.61Y-51.0
X158.71Y-99.2
X158.8Y-68.5
X158.9Y-116.7
X158.98Y-53.0
X159.08Y-101.2
X159.75Y-56.95
X159.8Y-76.0
X159.8Y-78.0
X159.8Y-80.0
X159.8Y-87.0
X159.8Y-89.0
X159.85Y-105.15
X159.9Y-60.294
X159.9Y-124.2
X159.9Y-126.2
X159.9Y-128.2
X159.9Y-135.2
X159.9Y-137.2
X160.0Y-108.495
X160.3Y-83.5
X160.4Y-131.7
X160.7Y-47.1
X160.7Y-52.7
X160.8Y-73.1
X160.8Y-95.3
X160.8Y-100.9
X160.9Y-121.3
X161.623Y-63.265
X161.723Y-111.465
X161.8Y-57.1
X161.8Y-68.5
X161.9Y-49.933
X161.9Y-105.3
X161.9Y-116.7
X162.0Y-98.133
X162.059Y-51.281
X162.09Y-60.32
X162.1Y-52.5
X162.159Y-99.481
X162.19Y-108.52
X162.2Y-100.7
X162.3Y-76.0
X162.3Y-78.0
X162.3Y-80.0
X162.3Y-87.0
X162.3Y-89.0
X162.4Y-124.2
X162.4Y-126.2
X162.4Y-128.2
X162.4Y-135.2
X162.4Y-137.2
X162.8Y-83.5
X162.9Y-131.7
X163.03Y-63.0
X163.13Y-111.2
X163.3Y-44.55
X163.4Y-92.75
X163.57Y-50.71
X163.67Y-98.91
X163.8Y-72.5
X163.9Y-120.7
X163.98Y-61.38
X164.08Y-109.58
X164.3Y-68.5
X164.4Y-116.7
X164.8Y-87.0
X164.8Y-89.0
X164.9Y-135.2
X164.9Y-137.2
X164.92Y-57.85
X165.0Y-50.0
X165.02Y-106.05
X165.1Y-98.2
X165.3Y-72.5
X165.4Y-120.7
X165.59Y-53.04
X165.69Y-101.24
X165.8Y-76.0
X165.8Y-78.0
X165.8Y-80.0
X165.8Y-82.5
X165.8Y-84.5
X165.9Y-124.2
X165.9Y-126.2
X165.9Y-128.2
X165.9Y-130.7
X165.9Y-132.7
X166.0Y-54.483
X166.06Y-51.6
X166.1Y-102.683
X166.16Y-99.8
X166.161Y-50.688
X166.261Y-98.888
X166.3Y-45.4
X166.4Y-93.6
X166.546Y-58.346
X166.6Y-52.3
X166.646Y-106.546
X166.7Y-100.5
X166.909Y-56.507
X166.958Y-57.305
X167.009Y-104.707
X167.058Y-105.505
X167.143Y-50.977
X167.243Y-99.177
X167.3Y-68.5
X167.3Y-89.0
X167.4Y-116.7
X167.4Y-137.2
X167.5Y-60.31
X167.6Y-108.51
X167.8Y-85.0
X167.9Y-133.2
X168.3Y-46.35
X168.3Y-72.5
X168.3Y-76.0
X168.3Y-78.0
X168.3Y-80.0
X168.3Y-82.5
X168.4Y-94.55
X168.4Y-120.7
X168.4Y-124.2
X168.4Y-126.2
X168.4Y-128.2
X168.4Y-130.7
X168.878Y-63.3
X168.978Y-111.5
X169.22Y-56.35
X169.32Y-104.55
X169.4Y-64.1
X169.5Y-112.3
X169.8Y-68.5
X169.8Y-71.0
X169.8Y-87.0
X169.8Y-89.0
X169.9Y-116.7
X169.9Y-119.2
X169.9Y-135.2
X169.9Y-137.2
X170.087Y-61.906
X170.187Y-110.106
X170.8Y-76.0
X170.8Y-84.5
X170.9Y-63.86
X170.9Y-124.2
X170.9Y-132.7
X171.0Y-112.06
X171.611Y-62.211
X171.7Y-44.45
X171.711Y-110.411
X171.8Y-92.65
X172.1Y-68.5
X172.129Y-60.268
X172.2Y-116.7
X172.23Y-108.468
X172.3Y-71.0
X172.3Y-72.5
X172.3Y-85.4
X172.3Y-87.0
X172.3Y-89.0
X172.4Y-119.2
X172.4Y-120.7
X172.4Y-133.6
X172.4Y-135.2
X172.4Y-137.2
X172.8Y-74.0
X172.9Y-122.2
X173.105Y-64.305
X173.14Y-60.087
X173.205Y-112.505
X173.24Y-108.287
X173.3Y-76.0
X173.4Y-124.2
X173.76Y-57.273
X173.86Y-105.473
X173.975Y-61.725
X174.0Y-45.4
X174.075Y-109.925
X174.1Y-93.6
X174.3Y-76.9
X174.4Y-125.1
X174.5Y-71.5
X174.5Y-72.5
X174.5Y-73.6
X174.5Y-74.7
X174.5Y-75.8
X174.6Y-119.7
X174.6Y-120.7
X174.6Y-121.8
X174.6Y-122.9
X174.6Y-124.0
X174.7Y-81.2
X174.7Y-83.2
X174.8Y-68.5
X174.8Y-70.4
X174.8Y-85.4
X174.8Y-87.0
X174.8Y-89.0
X174.8Y-129.4
X174.8Y-131.4
X174.9Y-116.7
X174.9Y-118.6
X174.9Y-133.6
X174.9Y-135.2
X174.9Y-137.2
X175.92Y-50.9
X176.0Y-70.4
X176.02Y-99.1
X176.068Y-55.642
X176.1Y-118.6
X176.168Y-103.842
X176.2Y-75.9
X176.225Y-73.8
X176.242Y-74.712
X176.3Y-124.1
X176.325Y-122.0
X176.342Y-122.912
X176.5Y-45.4
X176.5Y-72.9
X176.6Y-93.6
X176.6Y-121.1
X176.9Y-50.9
X176.92Y-59.475
X177.0Y-70.4
X177.0Y-99.1
X177.02Y-107.675
X177.025Y-62.2
X177.1Y-118.6
X177.114Y-72.388
X177.125Y-110.4
X177.2Y-83.2
X177.214Y-120.588
X177.3Y-68.5
X177.3Y-81.3
X177.3Y-85.4
X177.3Y-87.0
X177.3Y-89.0
X177.3Y-131.4
X177.4Y-116.7
X177.4Y-129.5
X177.4Y-133.6
X177.4Y-135.2
X177.4Y-137.2
X177.7Y-76.2
X177.8Y-124.4
X177.9Y-74.8
X178.0Y-71.0
X178.0Y-123.0
X178.1Y-119.2
X178.9Y-71.9
X179.0Y-120.1
X179.2Y-68.5
X179.2Y-73.1
X179.3Y-65.1
X179.3Y-116.7
X179.3Y-121.3
X179.4Y-113.3
X179.6Y-70.3
X179.7Y-118.5
X179.8Y-83.2
X179.8Y-85.4
X179.8Y-87.0
X179.8Y-89.0
X179.9Y-131.4
X179.9Y-133.6
X179.9Y-135.2
X179.9Y-137.2
X180.8Y-46.7
X180.9Y-94.9
X181.7Y-68.5
X181.7Y-70.5
X181.8Y-72.6
X181.8Y-74.6
X181.8Y-76.8
X181.8Y-78.8
X181.8Y-81.0
X181.8Y-116.7
X181.8Y-118.7
X181.9Y-44.4
X181.9Y-120.8
X181.9Y-122.8
X181.9Y-125.0
X181.9Y-127.0
X181.9Y-129.2
X182.0Y-92.6
X182.235Y-61.179
X182.335Y-109.379
X182.8Y-84.9
X182.8Y-87.0
X182.8Y-89.0
X182.88Y-58.55
X182.9Y-133.1
X182.9Y-135.2
X182.9Y-137.2
X182.98Y-106.75
X183.5Y-51.7
X183.59Y-50.6
X183.6Y-99.9
X183.69Y-98.8
X183.8Y-63.3
X183.9Y-111.5
X184.3Y-68.5
X184.3Y-70.5
X184.3Y-72.6
X184.3Y-74.6
X184.3Y-76.8
X184.3Y-78.8
X184.4Y-116.7
X184.4Y-118.7
X184.4Y-120.8
X184.4Y-122.8
X184.4Y-125.0
X184.4Y-127.0
X185.2Y-82.6
X185.3Y-84.9
X185.3Y-87.0
X185.3Y-89.0
X185.3Y-130.8
X185.4Y-54.5
X185.4Y-133.1
X185.4Y-135.2
X185.4Y-137.2
X185.5Y-102.7
X186.1Y-72.5
X186.1Y-74.6
X186.1Y-76.8
X186.2Y-120.7
X186.2Y-122.8
X186.2Y-125.0
X186.8Y-68.5
X186.8Y-70.5
X186.9Y-116.7
X186.9Y-118.7
X187.2Y-63.4
X187.3Y-111.6
X187.7Y-57.7
X187.7Y-80.4
X187.7Y-82.6
X187.8Y-84.9
X187.8Y-87.0
X187.8Y-89.0
X187.8Y-105.9
X187.8Y-128.6
X187.8Y-130.8
X187.9Y-78.8
X187.9Y-133.1
X187.9Y-135.2
X187.9Y-137.2
X188.0Y-127.0
X188.1Y-72.5
X188.1Y-74.6
X188.2Y-120.7
X188.2Y-122.8
X189.0Y-68.5
X189.0Y-70.5
X189.1Y-116.7
X189.1Y-118.7
X190.3Y-84.9
X190.3Y-87.0
X190.3Y-89.0
X190.4Y-133.1
X190.4Y-135.2
X190.4Y-137.2
X191.5Y-56.3
X191.5Y-68.5
X191.5Y-70.5
X191.6Y-53.9
X191.6Y-104.5
X191.6Y-116.7
X191.6Y-118.7
X191.7Y-44.4
X191.7Y-102.1
X191.8Y-74.2
X191.8Y-92.6
X191.9Y-122.4
X192.0Y-77.0
X192.1Y-63.1
X192.1Y-125.2
X192.2Y-111.3
X193.8Y-44.4
X193.8Y-47.9
X193.8Y-61.4
X193.8Y-64.9
X193.9Y-92.6
X193.9Y-96.1
X193.9Y-109.6
X193.9Y-113.1
X194.9Y-59.8
X194.9Y-71.9
X195.0Y-108.0
X195.0Y-120.1
X195.4Y-73.4
X195.5Y-121.6
X195.55Y-46.0
X195.6Y-63.0
X195.65Y-94.2
X195.7Y-111.2
X204.44Y-58.6
X204.54Y-91.44
X204.54Y-124.44
X205.14Y-57.0
X205.24Y-89.84
X205.24Y-122.84
X205.315Y-64.65
X205.415Y-97.49
X205.415Y-130.49
X207.54Y-54.6
X207.64Y-87.44
X207.64Y-120.44
X207.94Y-47.8
X208.04Y-80.64
X208.04Y-113.64
X208.84Y-49.2
X208.94Y-82.04
X208.94Y-115.04
X210.14Y-65.575
X210.24Y-98.415
X210.24Y-131.415
X210.36Y-59.1
X210.46Y-91.94
X210.46Y-124.94
X210.64Y-72.1
X210.74Y-104.94
X210.74Y-137.94
X210.95Y-63.3
X211.05Y-96.14
X211.05Y-129.14
X211.24Y-70.7
X211.34Y-103.54
X211.34Y-136.54
X211.74Y-65.55
X211.84Y-98.39
X211.84Y-131.39
X215.04Y-58.8
X215.14Y-91.64
X215.14Y-124.64
X215.54Y-71.2
X215.64Y-104.04
X215.64Y-137.04
X216.64Y-66.7
X216.74Y-99.54
X216.74Y-132.54
X217.196Y-65.2
X217.24Y-59.5
X217.296Y-98.04
X217.296Y-131.04
X217.34Y-56.6
X217.34Y-92.34
X217.34Y-125.34
X217.44Y-89.44
X217.44Y-122.44
X219.406Y-69.25
X219.434Y-65.0
X219.506Y-102.09
X219.506Y-135.09
X219.534Y-97.84
X219.534Y-130.84
T3
X134.85Y-79.38
X134.95Y-127.58
X134.98Y-57.3
X135.0Y-58.5
X135.08Y-105.5
X135.1Y-106.7
X136.2Y-57.675
X136.25Y-56.675
X136.3Y-105.875
X136.35Y-104.875
X137.525Y-57.19
X137.625Y-105.39
X138.1Y-45.5
X138.1Y-49.75
X138.2Y-93.7
X138.2Y-97.95
X139.0Y-57.2
X139.1Y-105.399
X139.12Y-44.85
X139.15Y-48.97
X139.22Y-93.05
X139.25Y-97.17
X139.75Y-82.18
X139.85Y-130.38
X139.95Y-86.08
X140.05Y-134.28
X141.49Y-54.0
X141.59Y-102.2
X141.7Y-60.1
X141.7Y-61.2
X141.8Y-108.3
X141.8Y-109.4
X142.8Y-59.58
X142.9Y-107.78
X142.921Y-57.2
X143.021Y-105.399
X143.3Y-50.62
X143.37Y-61.38
X143.395Y-46.45
X143.4Y-98.82
X143.47Y-109.58
X143.495Y-94.65
X144.1Y-49.9
X144.195Y-45.73
X144.2Y-98.1
X144.295Y-93.93
X145.19Y-63.107
X145.29Y-111.307
X145.3Y-64.1
X145.4Y-112.3
X146.35Y-82.18
X146.35Y-86.08
X146.45Y-130.38
X146.45Y-134.28
X148.85Y-44.86
X148.9Y-49.025
X148.95Y-93.06
X149.0Y-97.225
X149.4Y-61.1
X149.5Y-109.3
X150.49Y-49.025
X150.5Y-61.1
X150.59Y-97.225
X150.6Y-109.3
X150.77Y-44.9
X150.87Y-93.1
X152.28Y-49.04
X152.31Y-50.65
X152.38Y-97.24
X152.39Y-44.9
X152.392Y-46.515
X152.41Y-98.85
X152.49Y-57.61
X152.49Y-93.1
X152.492Y-94.715
X152.59Y-105.81
X154.01Y-50.64
X154.09Y-46.51
X154.11Y-98.84
X154.19Y-94.71
X158.1Y-49.05
X158.2Y-97.25
X158.3Y-75.63
X158.4Y-123.83
X159.05Y-85.505
X159.15Y-133.705
X159.6Y-44.7
X159.7Y-92.9
X170.2Y-54.5
X170.2Y-55.65
X170.2Y-56.8
X170.3Y-102.7
X170.3Y-103.85
X170.3Y-105.0
X171.35Y-54.5
X171.35Y-55.65
X171.35Y-56.8
X171.45Y-102.7
X171.45Y-103.85
X171.45Y-105.0
X172.5Y-54.5
X172.5Y-55.65
X172.5Y-56.8
X172.6Y-102.7
X172.6Y-103.85
X172.6Y-105.0
X176.287Y-64.112
X176.387Y-112.312
X177.9Y-58.47
X177.9Y-59.62
X178.0Y-106.67
X178.0Y-107.82
X187.21Y-50.0
X187.25Y-47.44
X187.31Y-98.2
X187.35Y-95.64
T4
X212.84Y-58.2
X212.84Y-60.1
X212.94Y-91.04
X212.94Y-92.94
X212.94Y-124.04
X212.94Y-125.94
T6
X138.148Y-61.1
X138.248Y-109.3
X139.647Y-61.1
X139.748Y-109.3
X146.218Y-61.1
X146.317Y-109.3
X147.718Y-61.1
X147.817Y-109.3
T7
X202.35Y-63.9
X202.35Y-67.4
X202.45Y-96.74
X202.45Y-100.24
X202.45Y-129.74
X202.45Y-133.24
T8
X133.25Y-51.35
X133.25Y-53.89
X133.25Y-56.43
X133.25Y-58.97
X133.3Y-74.3
X133.3Y-76.84
X133.3Y-79.38
X133.3Y-81.92
X133.35Y-99.55
X133.35Y-102.09
X133.35Y-104.63
X133.35Y-107.17
X133.4Y-122.5
X133.4Y-125.04
X133.4Y-127.58
X133.4Y-130.12
X194.25Y-50.08
X194.25Y-52.62
X194.25Y-55.16
X194.25Y-57.7
X194.3Y-75.57
X194.3Y-78.11
X194.3Y-80.65
X194.3Y-83.19
X194.35Y-98.28
X194.35Y-100.82
X194.35Y-103.36
X194.35Y-105.9
X194.4Y-123.77
X194.4Y-126.31
X194.4Y-128.85
X194.4Y-131.39
T9
X166.45Y-62.17
X166.55Y-110.37
X203.2Y-49.92
X203.2Y-52.46
X203.2Y-55.0
X203.3Y-82.76
X203.3Y-85.3
X203.3Y-87.84
X203.3Y-115.76
X203.3Y-118.3
X203.3Y-120.84
X218.54Y-72.0
X218.64Y-104.84
X218.64Y-137.84
X221.565Y-54.975
X221.665Y-87.815
X221.665Y-120.815
X224.105Y-54.975
X224.205Y-87.815
X224.205Y-120.815
T10
X176.15Y-78.88
X176.25Y-127.08
T11
X211.3Y-46.1
X211.4Y-78.94
X211.4Y-111.94
X216.38Y-46.1
X216.48Y-78.94
X216.48Y-111.94
T12
X138.7Y-54.0
X138.8Y-102.2
X146.35Y-54.0
X146.45Y-102.2
X181.35Y-54.0
X181.45Y-102.2
X189.0Y-54.0
X189.1Y-102.2
T13
X182.39Y-59.62
X182.49Y-107.82
X188.17Y-59.62
X188.27Y-107.82
T16
X133.8Y-46.1
X133.8Y-63.1
X133.8Y-70.3
X133.8Y-87.4
X133.9Y-94.3
X133.9Y-111.3
X133.9Y-118.5
X133.9Y-135.6
X193.8Y-46.1
X193.8Y-63.1
X193.8Y-70.3
X193.8Y-87.3
X193.9Y-94.3
X193.9Y-111.3
X193.9Y-118.5
X193.9Y-135.5
X200.84Y-59.2
X200.94Y-92.04
X200.94Y-125.04
X226.84Y-59.2
X226.94Y-92.04
X226.94Y-125.04
T5
G00X180.96Y-59.67
M15
G01X180.96Y-58.57
M16
G05
G00X180.96Y-63.7
M15
G01X180.96Y-62.9
M16
G05
G00X181.06Y-107.87
M15
G01X181.06Y-106.77
M16
G05
G00X181.06Y-111.9
M15
G01X181.06Y-111.1
M16
G05
G00X189.6Y-59.67
M15
G01X189.6Y-58.57
M16
G05
G00X189.6Y-63.7
M15
G01X189.6Y-62.9
M16
G05
G00X189.7Y-107.87
M15
G01X189.7Y-106.77
M16
G05
G00X189.7Y-111.9
M15
G01X189.7Y-111.1
M16
G05
T14
G00X159.8Y-90.8
M15
G01X167.8Y-90.8
M16
G05
G00X159.8Y-114.9
M15
G01X167.8Y-114.9
M16
G05
T15
G00X159.75Y-66.7
M15
G01X167.65Y-66.7
M16
G05
T0
M30
