%TF.GenerationSoftware,KiCad,Pcbnew,8.0.2*%
%TF.CreationDate,2024-05-13T13:54:00+09:00*%
%TF.ProjectId,ikafly_rev1a_p,696b6166-6c79-45f7-9265-7631615f702e,rev?*%
%TF.SameCoordinates,Original*%
%TF.FileFunction,Paste,Top*%
%TF.FilePolarity,Positive*%
%FSLAX46Y46*%
G04 Gerber Fmt 4.6, Leading zero omitted, Abs format (unit mm)*
G04 Created by KiCad (PCBNEW 8.0.2) date 2024-05-13 13:54:00*
%MOMM*%
%LPD*%
G01*
G04 APERTURE LIST*
G04 Aperture macros list*
%AMRoundRect*
0 Rectangle with rounded corners*
0 $1 Rounding radius*
0 $2 $3 $4 $5 $6 $7 $8 $9 X,Y pos of 4 corners*
0 Add a 4 corners polygon primitive as box body*
4,1,4,$2,$3,$4,$5,$6,$7,$8,$9,$2,$3,0*
0 Add four circle primitives for the rounded corners*
1,1,$1+$1,$2,$3*
1,1,$1+$1,$4,$5*
1,1,$1+$1,$6,$7*
1,1,$1+$1,$8,$9*
0 Add four rect primitives between the rounded corners*
20,1,$1+$1,$2,$3,$4,$5,0*
20,1,$1+$1,$4,$5,$6,$7,0*
20,1,$1+$1,$6,$7,$8,$9,0*
20,1,$1+$1,$8,$9,$2,$3,0*%
G04 Aperture macros list end*
%ADD10RoundRect,0.140000X-0.170000X0.140000X-0.170000X-0.140000X0.170000X-0.140000X0.170000X0.140000X0*%
%ADD11RoundRect,0.135000X0.185000X-0.135000X0.185000X0.135000X-0.185000X0.135000X-0.185000X-0.135000X0*%
%ADD12RoundRect,0.135000X0.135000X0.185000X-0.135000X0.185000X-0.135000X-0.185000X0.135000X-0.185000X0*%
%ADD13RoundRect,0.225000X-0.250000X0.225000X-0.250000X-0.225000X0.250000X-0.225000X0.250000X0.225000X0*%
%ADD14R,3.200000X2.500000*%
%ADD15R,1.800000X0.350000*%
%ADD16RoundRect,0.140000X0.170000X-0.140000X0.170000X0.140000X-0.170000X0.140000X-0.170000X-0.140000X0*%
%ADD17RoundRect,0.150000X0.150000X-0.512500X0.150000X0.512500X-0.150000X0.512500X-0.150000X-0.512500X0*%
%ADD18RoundRect,0.249999X-0.395001X-0.395001X0.395001X-0.395001X0.395001X0.395001X-0.395001X0.395001X0*%
%ADD19RoundRect,0.050000X-0.387500X-0.050000X0.387500X-0.050000X0.387500X0.050000X-0.387500X0.050000X0*%
%ADD20RoundRect,0.050000X-0.050000X-0.387500X0.050000X-0.387500X0.050000X0.387500X-0.050000X0.387500X0*%
%ADD21RoundRect,0.135000X-0.185000X0.135000X-0.185000X-0.135000X0.185000X-0.135000X0.185000X0.135000X0*%
%ADD22RoundRect,0.140000X0.140000X0.170000X-0.140000X0.170000X-0.140000X-0.170000X0.140000X-0.170000X0*%
%ADD23RoundRect,0.150000X0.512500X0.150000X-0.512500X0.150000X-0.512500X-0.150000X0.512500X-0.150000X0*%
%ADD24RoundRect,0.150000X0.150000X-0.587500X0.150000X0.587500X-0.150000X0.587500X-0.150000X-0.587500X0*%
%ADD25RoundRect,0.150000X0.587500X0.150000X-0.587500X0.150000X-0.587500X-0.150000X0.587500X-0.150000X0*%
%ADD26R,1.140000X0.600000*%
%ADD27R,1.140000X0.300000*%
%ADD28R,0.450000X1.050000*%
%ADD29R,4.350000X3.450000*%
%ADD30R,0.650000X0.750000*%
%ADD31R,0.250000X0.500000*%
%ADD32RoundRect,0.147500X0.172500X-0.147500X0.172500X0.147500X-0.172500X0.147500X-0.172500X-0.147500X0*%
%ADD33RoundRect,0.140000X-0.140000X-0.170000X0.140000X-0.170000X0.140000X0.170000X-0.140000X0.170000X0*%
%ADD34R,0.350000X0.500000*%
%ADD35RoundRect,0.250000X-0.650000X0.325000X-0.650000X-0.325000X0.650000X-0.325000X0.650000X0.325000X0*%
%ADD36R,0.450000X1.425000*%
%ADD37RoundRect,0.147500X-0.172500X0.147500X-0.172500X-0.147500X0.172500X-0.147500X0.172500X0.147500X0*%
%ADD38RoundRect,0.150000X0.150000X-0.675000X0.150000X0.675000X-0.150000X0.675000X-0.150000X-0.675000X0*%
%ADD39RoundRect,0.225000X0.250000X-0.225000X0.250000X0.225000X-0.250000X0.225000X-0.250000X-0.225000X0*%
%ADD40RoundRect,0.225000X-0.225000X-0.250000X0.225000X-0.250000X0.225000X0.250000X-0.225000X0.250000X0*%
%ADD41R,1.400000X1.200000*%
%ADD42RoundRect,0.218750X0.256250X-0.218750X0.256250X0.218750X-0.256250X0.218750X-0.256250X-0.218750X0*%
%ADD43R,0.375000X0.350000*%
%ADD44R,0.350000X0.375000*%
%ADD45RoundRect,0.225000X0.225000X0.250000X-0.225000X0.250000X-0.225000X-0.250000X0.225000X-0.250000X0*%
%ADD46RoundRect,0.112500X0.187500X0.112500X-0.187500X0.112500X-0.187500X-0.112500X0.187500X-0.112500X0*%
%ADD47RoundRect,0.218750X-0.218750X-0.256250X0.218750X-0.256250X0.218750X0.256250X-0.218750X0.256250X0*%
%ADD48RoundRect,0.087500X-0.225000X-0.087500X0.225000X-0.087500X0.225000X0.087500X-0.225000X0.087500X0*%
%ADD49RoundRect,0.087500X-0.087500X-0.225000X0.087500X-0.225000X0.087500X0.225000X-0.087500X0.225000X0*%
%ADD50R,0.800000X2.700000*%
%ADD51RoundRect,0.112500X-0.187500X-0.112500X0.187500X-0.112500X0.187500X0.112500X-0.187500X0.112500X0*%
%ADD52RoundRect,0.135000X-0.135000X-0.185000X0.135000X-0.185000X0.135000X0.185000X-0.135000X0.185000X0*%
%ADD53R,2.500000X3.200000*%
%ADD54R,0.350000X1.800000*%
%ADD55RoundRect,0.150000X-0.512500X-0.150000X0.512500X-0.150000X0.512500X0.150000X-0.512500X0.150000X0*%
%ADD56RoundRect,0.249999X-0.395001X0.395001X-0.395001X-0.395001X0.395001X-0.395001X0.395001X0.395001X0*%
%ADD57RoundRect,0.050000X-0.050000X0.387500X-0.050000X-0.387500X0.050000X-0.387500X0.050000X0.387500X0*%
%ADD58RoundRect,0.050000X-0.387500X0.050000X-0.387500X-0.050000X0.387500X-0.050000X0.387500X0.050000X0*%
%ADD59R,1.750000X5.600000*%
%ADD60C,17.500000*%
%ADD61RoundRect,0.150000X-0.587500X-0.150000X0.587500X-0.150000X0.587500X0.150000X-0.587500X0.150000X0*%
%ADD62R,0.600000X1.140000*%
%ADD63R,0.300000X1.140000*%
%ADD64R,1.050000X0.450000*%
%ADD65R,3.450000X4.350000*%
%ADD66R,0.750000X0.650000*%
%ADD67R,0.500000X0.250000*%
%ADD68R,0.600000X0.300000*%
%ADD69RoundRect,0.147500X-0.147500X-0.172500X0.147500X-0.172500X0.147500X0.172500X-0.147500X0.172500X0*%
%ADD70R,0.500000X0.350000*%
%ADD71RoundRect,0.250000X0.325000X0.650000X-0.325000X0.650000X-0.325000X-0.650000X0.325000X-0.650000X0*%
%ADD72R,1.425000X0.450000*%
%ADD73RoundRect,0.147500X0.147500X0.172500X-0.147500X0.172500X-0.147500X-0.172500X0.147500X-0.172500X0*%
%ADD74RoundRect,0.150000X-0.675000X-0.150000X0.675000X-0.150000X0.675000X0.150000X-0.675000X0.150000X0*%
%ADD75R,1.200000X1.400000*%
%ADD76RoundRect,0.112500X0.112500X-0.187500X0.112500X0.187500X-0.112500X0.187500X-0.112500X-0.187500X0*%
%ADD77RoundRect,0.218750X-0.256250X0.218750X-0.256250X-0.218750X0.256250X-0.218750X0.256250X0.218750X0*%
%ADD78RoundRect,0.087500X-0.087500X0.225000X-0.087500X-0.225000X0.087500X-0.225000X0.087500X0.225000X0*%
%ADD79RoundRect,0.087500X-0.225000X0.087500X-0.225000X-0.087500X0.225000X-0.087500X0.225000X0.087500X0*%
%ADD80R,2.700000X0.800000*%
%ADD81R,1.800000X0.800000*%
%ADD82RoundRect,0.112500X-0.112500X0.187500X-0.112500X-0.187500X0.112500X-0.187500X0.112500X0.187500X0*%
G04 APERTURE END LIST*
D10*
%TO.C,C25*%
X146300000Y-79490000D03*
X146300000Y-80450000D03*
%TD*%
D11*
%TO.C,R4*%
X153850000Y-74580000D03*
X153850000Y-73560000D03*
%TD*%
%TO.C,R9*%
X152100000Y-73030000D03*
X152100000Y-72010000D03*
%TD*%
D12*
%TO.C,R10*%
X155410000Y-49670000D03*
X154390000Y-49670000D03*
%TD*%
D13*
%TO.C,C39*%
X153300000Y-85645000D03*
X153300000Y-87195000D03*
%TD*%
D14*
%TO.C,J8*%
X146600000Y-72820000D03*
X146600000Y-57420000D03*
D15*
X148500000Y-70870000D03*
X148500000Y-70370000D03*
X148500000Y-69870000D03*
X148500000Y-69370000D03*
X148500000Y-68870000D03*
X148500000Y-68370000D03*
X148500000Y-67870000D03*
X148500000Y-67370000D03*
X148500000Y-66870000D03*
X148500000Y-66370000D03*
X148500000Y-65870000D03*
X148500000Y-65370000D03*
X148500000Y-64870000D03*
X148500000Y-64370000D03*
X148500000Y-63870000D03*
X148500000Y-63370000D03*
X148500000Y-62870000D03*
X148500000Y-62370000D03*
X148500000Y-61870000D03*
X148500000Y-61370000D03*
X148500000Y-60870000D03*
X148500000Y-60370000D03*
X148500000Y-59870000D03*
X148500000Y-59370000D03*
%TD*%
D16*
%TO.C,C10*%
X158900000Y-59250000D03*
X158900000Y-58290000D03*
%TD*%
D11*
%TO.C,R21*%
X155300000Y-93280000D03*
X155300000Y-92260000D03*
%TD*%
D16*
%TO.C,C28*%
X159350000Y-78850000D03*
X159350000Y-77890000D03*
%TD*%
D17*
%TO.C,IC12*%
X162850000Y-58545000D03*
X164750000Y-58545000D03*
X163800000Y-56270000D03*
%TD*%
D18*
%TO.C,IC2*%
X154762500Y-64020000D03*
X154762500Y-65620000D03*
X156362500Y-64020000D03*
X156362500Y-65620000D03*
D19*
X152125000Y-62220000D03*
X152125000Y-62620000D03*
X152125000Y-63020000D03*
X152125000Y-63420000D03*
X152125000Y-63820000D03*
X152125000Y-64220000D03*
X152125000Y-64620000D03*
X152125000Y-65020000D03*
X152125000Y-65420000D03*
X152125000Y-65820000D03*
X152125000Y-66220000D03*
X152125000Y-66620000D03*
X152125000Y-67020000D03*
X152125000Y-67420000D03*
D20*
X152962500Y-68257500D03*
X153362500Y-68257500D03*
X153762500Y-68257500D03*
X154162500Y-68257500D03*
X154562500Y-68257500D03*
X154962500Y-68257500D03*
X155362500Y-68257500D03*
X155762500Y-68257500D03*
X156162500Y-68257500D03*
X156562500Y-68257500D03*
X156962500Y-68257500D03*
X157362500Y-68257500D03*
X157762500Y-68257500D03*
X158162500Y-68257500D03*
D19*
X159000000Y-67420000D03*
X159000000Y-67020000D03*
X159000000Y-66620000D03*
X159000000Y-66220000D03*
X159000000Y-65820000D03*
X159000000Y-65420000D03*
X159000000Y-65020000D03*
X159000000Y-64620000D03*
X159000000Y-64220000D03*
X159000000Y-63820000D03*
X159000000Y-63420000D03*
X159000000Y-63020000D03*
X159000000Y-62620000D03*
X159000000Y-62220000D03*
D20*
X158162500Y-61382500D03*
X157762500Y-61382500D03*
X157362500Y-61382500D03*
X156962500Y-61382500D03*
X156562500Y-61382500D03*
X156162500Y-61382500D03*
X155762500Y-61382500D03*
X155362500Y-61382500D03*
X154962500Y-61382500D03*
X154562500Y-61382500D03*
X154162500Y-61382500D03*
X153762500Y-61382500D03*
X153362500Y-61382500D03*
X152962500Y-61382500D03*
%TD*%
D21*
%TO.C,R19*%
X149200000Y-88960000D03*
X149200000Y-89980000D03*
%TD*%
D22*
%TO.C,C32*%
X164680000Y-72460000D03*
X163720000Y-72460000D03*
%TD*%
%TO.C,C46*%
X161300000Y-84570000D03*
X160340000Y-84570000D03*
%TD*%
D23*
%TO.C,IC11*%
X164600000Y-67570000D03*
X164600000Y-66620000D03*
X164600000Y-65670000D03*
X162325000Y-65670000D03*
X162325000Y-66620000D03*
X162325000Y-67570000D03*
%TD*%
D11*
%TO.C,R15*%
X150650000Y-68780000D03*
X150650000Y-67760000D03*
%TD*%
D21*
%TO.C,R2*%
X157300000Y-56160000D03*
X157300000Y-57180000D03*
%TD*%
D24*
%TO.C,Q3*%
X152100000Y-94607500D03*
X154000000Y-94607500D03*
X153050000Y-92732500D03*
%TD*%
D25*
%TO.C,Q2*%
X147435000Y-90550000D03*
X147435000Y-88650000D03*
X145560000Y-89600000D03*
%TD*%
D16*
%TO.C,C7*%
X160000000Y-59230000D03*
X160000000Y-58270000D03*
%TD*%
D21*
%TO.C,R1*%
X156100000Y-56160000D03*
X156100000Y-57180000D03*
%TD*%
D10*
%TO.C,C31*%
X164662500Y-61940000D03*
X164662500Y-62900000D03*
%TD*%
D21*
%TO.C,R24*%
X155800000Y-99360000D03*
X155800000Y-100380000D03*
%TD*%
D10*
%TO.C,C30*%
X164800000Y-81190000D03*
X164800000Y-82150000D03*
%TD*%
D12*
%TO.C,R27*%
X161310000Y-92170000D03*
X160290000Y-92170000D03*
%TD*%
D11*
%TO.C,R26*%
X148570000Y-98400000D03*
X148570000Y-97380000D03*
%TD*%
D26*
%TO.C,J6*%
X158450000Y-53490000D03*
X158450000Y-52690000D03*
D27*
X158450000Y-52040000D03*
X158450000Y-51540000D03*
X158450000Y-51040000D03*
X158450000Y-50540000D03*
X158450000Y-50040000D03*
X158450000Y-49540000D03*
X158450000Y-49040000D03*
X158450000Y-48540000D03*
D26*
X158450000Y-47890000D03*
X158450000Y-47090000D03*
%TD*%
D25*
%TO.C,Q4*%
X147020000Y-98980000D03*
X147020000Y-97080000D03*
X145145000Y-98030000D03*
%TD*%
D28*
%TO.C,IC1*%
X150500000Y-46070000D03*
X149230000Y-46070000D03*
X147960000Y-46070000D03*
X146690000Y-46070000D03*
X146690000Y-51770000D03*
X147960000Y-51770000D03*
X149230000Y-51770000D03*
X150500000Y-51770000D03*
D29*
X148595000Y-48920000D03*
%TD*%
D30*
%TO.C,IC13*%
X162750000Y-93270000D03*
X163550000Y-93270000D03*
D31*
X162400000Y-94220000D03*
X162900000Y-94220000D03*
X163400000Y-94220000D03*
X163900000Y-94220000D03*
X163900000Y-92320000D03*
X163400000Y-92320000D03*
X162900000Y-92320000D03*
X162400000Y-92320000D03*
%TD*%
D21*
%TO.C,R25*%
X149630000Y-97370000D03*
X149630000Y-98390000D03*
%TD*%
D32*
%TO.C,L3*%
X159350000Y-76805000D03*
X159350000Y-75835000D03*
%TD*%
%TO.C,L2*%
X157050000Y-78855000D03*
X157050000Y-77885000D03*
%TD*%
D10*
%TO.C,C8*%
X156000000Y-70070000D03*
X156000000Y-71030000D03*
%TD*%
%TO.C,C29*%
X163600000Y-81190000D03*
X163600000Y-82150000D03*
%TD*%
D33*
%TO.C,C11*%
X150720000Y-53270000D03*
X151680000Y-53270000D03*
%TD*%
D21*
%TO.C,R23*%
X155300000Y-94350000D03*
X155300000Y-95370000D03*
%TD*%
D34*
%TO.C,IC9*%
X152919057Y-78375000D03*
X153569057Y-78375000D03*
X154219057Y-78375000D03*
X154869057Y-78375000D03*
X154859057Y-79975000D03*
X154209057Y-79975000D03*
X153559057Y-79975000D03*
X152909057Y-79975000D03*
%TD*%
D16*
%TO.C,C24*%
X144900000Y-80400000D03*
X144900000Y-79440000D03*
%TD*%
D22*
%TO.C,C44*%
X161280000Y-93370000D03*
X160320000Y-93370000D03*
%TD*%
D35*
%TO.C,C38*%
X150900000Y-83070000D03*
X150900000Y-86020000D03*
%TD*%
D10*
%TO.C,C12*%
X160400000Y-60690000D03*
X160400000Y-61650000D03*
%TD*%
D35*
%TO.C,C37*%
X150900000Y-87920000D03*
X150900000Y-90870000D03*
%TD*%
D16*
%TO.C,C33*%
X161850000Y-64430000D03*
X161850000Y-63470000D03*
%TD*%
%TO.C,C27*%
X158200000Y-78850000D03*
X158200000Y-77890000D03*
%TD*%
D22*
%TO.C,C23*%
X150730000Y-79320000D03*
X149770000Y-79320000D03*
%TD*%
D36*
%TO.C,PS1*%
X158625000Y-90983000D03*
X157975000Y-90983000D03*
X157325000Y-90983000D03*
X156675000Y-90983000D03*
X156675000Y-95407000D03*
X157325000Y-95407000D03*
X157975000Y-95407000D03*
X158625000Y-95407000D03*
%TD*%
D33*
%TO.C,C34*%
X161600000Y-72460000D03*
X162560000Y-72460000D03*
%TD*%
D21*
%TO.C,R22*%
X159400000Y-84860000D03*
X159400000Y-85880000D03*
%TD*%
D13*
%TO.C,C41*%
X151000000Y-96995000D03*
X151000000Y-98545000D03*
%TD*%
D16*
%TO.C,C3*%
X155600000Y-59150000D03*
X155600000Y-58190000D03*
%TD*%
D37*
%TO.C,L4*%
X164680000Y-60025000D03*
X164680000Y-60995000D03*
%TD*%
D38*
%TO.C,IC10*%
X160790000Y-79595000D03*
X162060000Y-79595000D03*
X163330000Y-79595000D03*
X164600000Y-79595000D03*
X164600000Y-74345000D03*
X163330000Y-74345000D03*
X162060000Y-74345000D03*
X160790000Y-74345000D03*
%TD*%
D22*
%TO.C,C26*%
X154480000Y-81220000D03*
X153520000Y-81220000D03*
%TD*%
D16*
%TO.C,C6*%
X151400000Y-60230000D03*
X151400000Y-59270000D03*
%TD*%
D39*
%TO.C,C36*%
X161300000Y-59345000D03*
X161300000Y-57795000D03*
%TD*%
D11*
%TO.C,R5*%
X152000000Y-50580000D03*
X152000000Y-49560000D03*
%TD*%
D40*
%TO.C,C40*%
X156625000Y-85370000D03*
X158175000Y-85370000D03*
%TD*%
D11*
%TO.C,R8*%
X150700000Y-73030000D03*
X150700000Y-72010000D03*
%TD*%
D12*
%TO.C,R3*%
X149710000Y-44070000D03*
X148690000Y-44070000D03*
%TD*%
D41*
%TO.C,Y2*%
X163900000Y-69310000D03*
X161700000Y-69310000D03*
X161700000Y-71010000D03*
X163900000Y-71010000D03*
%TD*%
D30*
%TO.C,IC14*%
X162770000Y-85070000D03*
X163570000Y-85070000D03*
D31*
X162420000Y-86020000D03*
X162920000Y-86020000D03*
X163420000Y-86020000D03*
X163920000Y-86020000D03*
X163920000Y-84120000D03*
X163420000Y-84120000D03*
X162920000Y-84120000D03*
X162420000Y-84120000D03*
%TD*%
D42*
%TO.C,F1*%
X154950000Y-87207500D03*
X154950000Y-85632500D03*
%TD*%
D41*
%TO.C,Y1*%
X155400000Y-74970000D03*
X157600000Y-74970000D03*
X157600000Y-73270000D03*
X155400000Y-73270000D03*
%TD*%
D12*
%TO.C,R28*%
X161310000Y-83470000D03*
X160290000Y-83470000D03*
%TD*%
D43*
%TO.C,IC8*%
X144987500Y-76482500D03*
X144987500Y-76982500D03*
X144987500Y-77482500D03*
X144987500Y-77982500D03*
D44*
X145500000Y-77995000D03*
X146000000Y-77995000D03*
D43*
X146512500Y-77982500D03*
X146512500Y-77482500D03*
X146512500Y-76982500D03*
X146512500Y-76482500D03*
D44*
X146000000Y-76470000D03*
X145500000Y-76470000D03*
%TD*%
D12*
%TO.C,R11*%
X155410000Y-51070000D03*
X154390000Y-51070000D03*
%TD*%
D16*
%TO.C,C4*%
X157800000Y-59230000D03*
X157800000Y-58270000D03*
%TD*%
D10*
%TO.C,C5*%
X157100000Y-70090000D03*
X157100000Y-71050000D03*
%TD*%
D45*
%TO.C,C42*%
X158575000Y-97270000D03*
X157025000Y-97270000D03*
%TD*%
D46*
%TO.C,D3*%
X155050000Y-83770000D03*
X152950000Y-83770000D03*
%TD*%
D47*
%TO.C,L5*%
X163112500Y-64120000D03*
X164687500Y-64120000D03*
%TD*%
D48*
%TO.C,IC7*%
X149087500Y-76370000D03*
X149087500Y-76870000D03*
X149087500Y-77370000D03*
X149087500Y-77870000D03*
D49*
X149750000Y-78032500D03*
X150250000Y-78032500D03*
X150750000Y-78032500D03*
D48*
X151412500Y-77870000D03*
X151412500Y-77370000D03*
X151412500Y-76870000D03*
X151412500Y-76370000D03*
D49*
X150750000Y-76207500D03*
X150250000Y-76207500D03*
X149750000Y-76207500D03*
%TD*%
D16*
%TO.C,C9*%
X150300000Y-60250000D03*
X150300000Y-59290000D03*
%TD*%
D45*
%TO.C,C43*%
X158575000Y-98870000D03*
X157025000Y-98870000D03*
%TD*%
D21*
%TO.C,R20*%
X150000000Y-92230000D03*
X150000000Y-93250000D03*
%TD*%
D50*
%TO.C,L6*%
X156500000Y-88095000D03*
X158800000Y-88095000D03*
%TD*%
D11*
%TO.C,R16*%
X160200000Y-72470000D03*
X160200000Y-71450000D03*
%TD*%
D45*
%TO.C,C35*%
X161175000Y-56170000D03*
X159625000Y-56170000D03*
%TD*%
D51*
%TO.C,D4*%
X156650000Y-83470000D03*
X158750000Y-83470000D03*
%TD*%
D33*
%TO.C,C2*%
X157220000Y-76420000D03*
X158180000Y-76420000D03*
%TD*%
D22*
%TO.C,C1*%
X155980000Y-76420000D03*
X155020000Y-76420000D03*
%TD*%
%TO.C,C25*%
X101680000Y-91075000D03*
X100720000Y-91075000D03*
%TD*%
D52*
%TO.C,R4*%
X106590000Y-98625000D03*
X107610000Y-98625000D03*
%TD*%
%TO.C,R9*%
X108140000Y-96875000D03*
X109160000Y-96875000D03*
%TD*%
D11*
%TO.C,R10*%
X131500000Y-100185000D03*
X131500000Y-99165000D03*
%TD*%
D45*
%TO.C,C39*%
X95525000Y-98075000D03*
X93975000Y-98075000D03*
%TD*%
D53*
%TO.C,J8*%
X108350000Y-91375000D03*
X123750000Y-91375000D03*
D54*
X110300000Y-93275000D03*
X110800000Y-93275000D03*
X111300000Y-93275000D03*
X111800000Y-93275000D03*
X112300000Y-93275000D03*
X112800000Y-93275000D03*
X113300000Y-93275000D03*
X113800000Y-93275000D03*
X114300000Y-93275000D03*
X114800000Y-93275000D03*
X115300000Y-93275000D03*
X115800000Y-93275000D03*
X116300000Y-93275000D03*
X116800000Y-93275000D03*
X117300000Y-93275000D03*
X117800000Y-93275000D03*
X118300000Y-93275000D03*
X118800000Y-93275000D03*
X119300000Y-93275000D03*
X119800000Y-93275000D03*
X120300000Y-93275000D03*
X120800000Y-93275000D03*
X121300000Y-93275000D03*
X121800000Y-93275000D03*
%TD*%
D33*
%TO.C,C10*%
X121920000Y-103675000D03*
X122880000Y-103675000D03*
%TD*%
D52*
%TO.C,R21*%
X87890000Y-100075000D03*
X88910000Y-100075000D03*
%TD*%
D33*
%TO.C,C28*%
X102320000Y-104125000D03*
X103280000Y-104125000D03*
%TD*%
D55*
%TO.C,IC12*%
X122625000Y-107625000D03*
X122625000Y-109525000D03*
X124900000Y-108575000D03*
%TD*%
D56*
%TO.C,IC2*%
X117150000Y-99537500D03*
X115550000Y-99537500D03*
X117150000Y-101137500D03*
X115550000Y-101137500D03*
D57*
X118950000Y-96900000D03*
X118550000Y-96900000D03*
X118150000Y-96900000D03*
X117750000Y-96900000D03*
X117350000Y-96900000D03*
X116950000Y-96900000D03*
X116550000Y-96900000D03*
X116150000Y-96900000D03*
X115750000Y-96900000D03*
X115350000Y-96900000D03*
X114950000Y-96900000D03*
X114550000Y-96900000D03*
X114150000Y-96900000D03*
X113750000Y-96900000D03*
D58*
X112912500Y-97737500D03*
X112912500Y-98137500D03*
X112912500Y-98537500D03*
X112912500Y-98937500D03*
X112912500Y-99337500D03*
X112912500Y-99737500D03*
X112912500Y-100137500D03*
X112912500Y-100537500D03*
X112912500Y-100937500D03*
X112912500Y-101337500D03*
X112912500Y-101737500D03*
X112912500Y-102137500D03*
X112912500Y-102537500D03*
X112912500Y-102937500D03*
D57*
X113750000Y-103775000D03*
X114150000Y-103775000D03*
X114550000Y-103775000D03*
X114950000Y-103775000D03*
X115350000Y-103775000D03*
X115750000Y-103775000D03*
X116150000Y-103775000D03*
X116550000Y-103775000D03*
X116950000Y-103775000D03*
X117350000Y-103775000D03*
X117750000Y-103775000D03*
X118150000Y-103775000D03*
X118550000Y-103775000D03*
X118950000Y-103775000D03*
D58*
X119787500Y-102937500D03*
X119787500Y-102537500D03*
X119787500Y-102137500D03*
X119787500Y-101737500D03*
X119787500Y-101337500D03*
X119787500Y-100937500D03*
X119787500Y-100537500D03*
X119787500Y-100137500D03*
X119787500Y-99737500D03*
X119787500Y-99337500D03*
X119787500Y-98937500D03*
X119787500Y-98537500D03*
X119787500Y-98137500D03*
X119787500Y-97737500D03*
%TD*%
D12*
%TO.C,R19*%
X92210000Y-93975000D03*
X91190000Y-93975000D03*
%TD*%
D16*
%TO.C,C32*%
X108710000Y-109455000D03*
X108710000Y-108495000D03*
%TD*%
D59*
%TO.C,BT2*%
X95475000Y-124555000D03*
X117225000Y-124555000D03*
D60*
X106350000Y-124555000D03*
%TD*%
D16*
%TO.C,C46*%
X96600000Y-106075000D03*
X96600000Y-105115000D03*
%TD*%
D17*
%TO.C,IC11*%
X113600000Y-109375000D03*
X114550000Y-109375000D03*
X115500000Y-109375000D03*
X115500000Y-107100000D03*
X114550000Y-107100000D03*
X113600000Y-107100000D03*
%TD*%
D52*
%TO.C,R15*%
X112390000Y-95425000D03*
X113410000Y-95425000D03*
%TD*%
D12*
%TO.C,R2*%
X125010000Y-102075000D03*
X123990000Y-102075000D03*
%TD*%
D61*
%TO.C,Q3*%
X86562500Y-96875000D03*
X86562500Y-98775000D03*
X88437500Y-97825000D03*
%TD*%
D24*
%TO.C,Q2*%
X90620000Y-92210000D03*
X92520000Y-92210000D03*
X91570000Y-90335000D03*
%TD*%
D33*
%TO.C,C7*%
X121940000Y-104775000D03*
X122900000Y-104775000D03*
%TD*%
D21*
%TO.C,R12*%
X129550000Y-116765000D03*
X129550000Y-117785000D03*
%TD*%
D16*
%TO.C,C15*%
X129550000Y-115485000D03*
X129550000Y-114525000D03*
%TD*%
D12*
%TO.C,R1*%
X125010000Y-100875000D03*
X123990000Y-100875000D03*
%TD*%
D22*
%TO.C,C31*%
X119230000Y-109437500D03*
X118270000Y-109437500D03*
%TD*%
D12*
%TO.C,R24*%
X81810000Y-100575000D03*
X80790000Y-100575000D03*
%TD*%
D22*
%TO.C,C30*%
X99980000Y-109575000D03*
X99020000Y-109575000D03*
%TD*%
D11*
%TO.C,R27*%
X89000000Y-106085000D03*
X89000000Y-105065000D03*
%TD*%
D52*
%TO.C,R26*%
X82770000Y-93345000D03*
X83790000Y-93345000D03*
%TD*%
D62*
%TO.C,J6*%
X127680000Y-103225000D03*
X128480000Y-103225000D03*
D63*
X129130000Y-103225000D03*
X129630000Y-103225000D03*
X130130000Y-103225000D03*
X130630000Y-103225000D03*
X131130000Y-103225000D03*
X131630000Y-103225000D03*
X132130000Y-103225000D03*
X132630000Y-103225000D03*
D62*
X133280000Y-103225000D03*
X134080000Y-103225000D03*
%TD*%
D24*
%TO.C,Q4*%
X82190000Y-91795000D03*
X84090000Y-91795000D03*
X83140000Y-89920000D03*
%TD*%
D39*
%TO.C,C16*%
X134550000Y-117525000D03*
X134550000Y-115975000D03*
%TD*%
D64*
%TO.C,IC1*%
X135100000Y-95275000D03*
X135100000Y-94005000D03*
X135100000Y-92735000D03*
X135100000Y-91465000D03*
X129400000Y-91465000D03*
X129400000Y-92735000D03*
X129400000Y-94005000D03*
X129400000Y-95275000D03*
D65*
X132250000Y-93370000D03*
%TD*%
D66*
%TO.C,IC13*%
X87900000Y-107525000D03*
X87900000Y-108325000D03*
D67*
X86950000Y-107175000D03*
X86950000Y-107675000D03*
X86950000Y-108175000D03*
X86950000Y-108675000D03*
X88850000Y-108675000D03*
X88850000Y-108175000D03*
X88850000Y-107675000D03*
X88850000Y-107175000D03*
%TD*%
D12*
%TO.C,R25*%
X83800000Y-94405000D03*
X82780000Y-94405000D03*
%TD*%
D68*
%TO.C,IC3*%
X120280000Y-115937500D03*
X120280000Y-116427500D03*
X120280000Y-116947500D03*
X121120000Y-116937500D03*
X121120000Y-116437500D03*
X121120000Y-115937500D03*
%TD*%
D69*
%TO.C,L3*%
X104365000Y-104125000D03*
X105335000Y-104125000D03*
%TD*%
%TO.C,L2*%
X102315000Y-101825000D03*
X103285000Y-101825000D03*
%TD*%
D22*
%TO.C,C8*%
X111100000Y-100775000D03*
X110140000Y-100775000D03*
%TD*%
%TO.C,C29*%
X99980000Y-108375000D03*
X99020000Y-108375000D03*
%TD*%
D10*
%TO.C,C11*%
X127900000Y-95495000D03*
X127900000Y-96455000D03*
%TD*%
D12*
%TO.C,R23*%
X86820000Y-100075000D03*
X85800000Y-100075000D03*
%TD*%
D70*
%TO.C,IC9*%
X102795000Y-97694057D03*
X102795000Y-98344057D03*
X102795000Y-98994057D03*
X102795000Y-99644057D03*
X101195000Y-99634057D03*
X101195000Y-98984057D03*
X101195000Y-98334057D03*
X101195000Y-97684057D03*
%TD*%
D33*
%TO.C,C24*%
X100770000Y-89675000D03*
X101730000Y-89675000D03*
%TD*%
D16*
%TO.C,C44*%
X87800000Y-106055000D03*
X87800000Y-105095000D03*
%TD*%
%TO.C,C13*%
X120200000Y-120955000D03*
X120200000Y-119995000D03*
%TD*%
D71*
%TO.C,C38*%
X98100000Y-95675000D03*
X95150000Y-95675000D03*
%TD*%
D22*
%TO.C,C12*%
X120480000Y-105175000D03*
X119520000Y-105175000D03*
%TD*%
D71*
%TO.C,C37*%
X93250000Y-95675000D03*
X90300000Y-95675000D03*
%TD*%
D33*
%TO.C,C33*%
X116740000Y-106625000D03*
X117700000Y-106625000D03*
%TD*%
%TO.C,C27*%
X102320000Y-102975000D03*
X103280000Y-102975000D03*
%TD*%
D16*
%TO.C,C23*%
X101850000Y-95505000D03*
X101850000Y-94545000D03*
%TD*%
D32*
%TO.C,L1*%
X120200000Y-118995000D03*
X120200000Y-118025000D03*
%TD*%
D72*
%TO.C,PS1*%
X90187000Y-103400000D03*
X90187000Y-102750000D03*
X90187000Y-102100000D03*
X90187000Y-101450000D03*
X85763000Y-101450000D03*
X85763000Y-102100000D03*
X85763000Y-102750000D03*
X85763000Y-103400000D03*
%TD*%
D10*
%TO.C,C34*%
X108710000Y-106375000D03*
X108710000Y-107335000D03*
%TD*%
D12*
%TO.C,R22*%
X96310000Y-104175000D03*
X95290000Y-104175000D03*
%TD*%
D45*
%TO.C,C41*%
X84175000Y-95775000D03*
X82625000Y-95775000D03*
%TD*%
D33*
%TO.C,C3*%
X122020000Y-100375000D03*
X122980000Y-100375000D03*
%TD*%
D73*
%TO.C,L4*%
X121145000Y-109455000D03*
X120175000Y-109455000D03*
%TD*%
D74*
%TO.C,IC10*%
X101575000Y-105565000D03*
X101575000Y-106835000D03*
X101575000Y-108105000D03*
X101575000Y-109375000D03*
X106825000Y-109375000D03*
X106825000Y-108105000D03*
X106825000Y-106835000D03*
X106825000Y-105565000D03*
%TD*%
D16*
%TO.C,C26*%
X99950000Y-99255000D03*
X99950000Y-98295000D03*
%TD*%
D33*
%TO.C,C6*%
X120940000Y-96175000D03*
X121900000Y-96175000D03*
%TD*%
D40*
%TO.C,C36*%
X121825000Y-106075000D03*
X123375000Y-106075000D03*
%TD*%
D52*
%TO.C,R5*%
X130590000Y-96775000D03*
X131610000Y-96775000D03*
%TD*%
D13*
%TO.C,C40*%
X95800000Y-101400000D03*
X95800000Y-102950000D03*
%TD*%
D52*
%TO.C,R8*%
X108140000Y-95475000D03*
X109160000Y-95475000D03*
%TD*%
D11*
%TO.C,R3*%
X137100000Y-94485000D03*
X137100000Y-93465000D03*
%TD*%
D75*
%TO.C,Y2*%
X111860000Y-108675000D03*
X111860000Y-106475000D03*
X110160000Y-106475000D03*
X110160000Y-108675000D03*
%TD*%
D66*
%TO.C,IC14*%
X96100000Y-107545000D03*
X96100000Y-108345000D03*
D67*
X95150000Y-107195000D03*
X95150000Y-107695000D03*
X95150000Y-108195000D03*
X95150000Y-108695000D03*
X97050000Y-108695000D03*
X97050000Y-108195000D03*
X97050000Y-107695000D03*
X97050000Y-107195000D03*
%TD*%
D47*
%TO.C,F1*%
X93962500Y-99725000D03*
X95537500Y-99725000D03*
%TD*%
D75*
%TO.C,Y1*%
X106200000Y-100175000D03*
X106200000Y-102375000D03*
X107900000Y-102375000D03*
X107900000Y-100175000D03*
%TD*%
D11*
%TO.C,R28*%
X97700000Y-106085000D03*
X97700000Y-105065000D03*
%TD*%
D44*
%TO.C,IC8*%
X104687500Y-89762500D03*
X104187500Y-89762500D03*
X103687500Y-89762500D03*
X103187500Y-89762500D03*
D43*
X103175000Y-90275000D03*
X103175000Y-90775000D03*
D44*
X103187500Y-91287500D03*
X103687500Y-91287500D03*
X104187500Y-91287500D03*
X104687500Y-91287500D03*
D43*
X104700000Y-90775000D03*
X104700000Y-90275000D03*
%TD*%
D24*
%TO.C,Q1*%
X130870000Y-117275000D03*
X132770000Y-117275000D03*
X131820000Y-115400000D03*
%TD*%
D11*
%TO.C,R11*%
X130100000Y-100185000D03*
X130100000Y-99165000D03*
%TD*%
D33*
%TO.C,C4*%
X121940000Y-102575000D03*
X122900000Y-102575000D03*
%TD*%
D22*
%TO.C,C5*%
X111080000Y-101875000D03*
X110120000Y-101875000D03*
%TD*%
D39*
%TO.C,C42*%
X83900000Y-103350000D03*
X83900000Y-101800000D03*
%TD*%
D76*
%TO.C,D3*%
X97400000Y-99825000D03*
X97400000Y-97725000D03*
%TD*%
D77*
%TO.C,L5*%
X117050000Y-107887500D03*
X117050000Y-109462500D03*
%TD*%
D78*
%TO.C,IC7*%
X104800000Y-93862500D03*
X104300000Y-93862500D03*
X103800000Y-93862500D03*
X103300000Y-93862500D03*
D79*
X103137500Y-94525000D03*
X103137500Y-95025000D03*
X103137500Y-95525000D03*
D78*
X103300000Y-96187500D03*
X103800000Y-96187500D03*
X104300000Y-96187500D03*
X104800000Y-96187500D03*
D79*
X104962500Y-95525000D03*
X104962500Y-95025000D03*
X104962500Y-94525000D03*
%TD*%
D33*
%TO.C,C9*%
X120920000Y-95075000D03*
X121880000Y-95075000D03*
%TD*%
D39*
%TO.C,C43*%
X82300000Y-103350000D03*
X82300000Y-101800000D03*
%TD*%
D12*
%TO.C,R20*%
X88940000Y-94775000D03*
X87920000Y-94775000D03*
%TD*%
D80*
%TO.C,L6*%
X93075000Y-101275000D03*
X93075000Y-103575000D03*
%TD*%
D10*
%TO.C,C14*%
X121900000Y-117895000D03*
X121900000Y-118855000D03*
%TD*%
D81*
%TO.C,IC4*%
X134700000Y-129175000D03*
X134700000Y-128075000D03*
X134700000Y-126975000D03*
X134700000Y-125875000D03*
X134700000Y-124775000D03*
X134700000Y-123675000D03*
X134700000Y-122575000D03*
X134700000Y-121475000D03*
X134700000Y-120375000D03*
X125000000Y-120375000D03*
X125000000Y-121475000D03*
X125000000Y-122575000D03*
X125000000Y-123675000D03*
X125000000Y-124775000D03*
X125000000Y-125875000D03*
X125000000Y-126975000D03*
X125000000Y-128075000D03*
X125000000Y-129175000D03*
%TD*%
D52*
%TO.C,R16*%
X108700000Y-104975000D03*
X109720000Y-104975000D03*
%TD*%
D39*
%TO.C,C35*%
X125000000Y-105950000D03*
X125000000Y-104400000D03*
%TD*%
D82*
%TO.C,D4*%
X97700000Y-101425000D03*
X97700000Y-103525000D03*
%TD*%
D10*
%TO.C,C2*%
X104750000Y-101995000D03*
X104750000Y-102955000D03*
%TD*%
D16*
%TO.C,C1*%
X104750000Y-100755000D03*
X104750000Y-99795000D03*
%TD*%
D22*
%TO.C,C5*%
X111080000Y-53475000D03*
X110120000Y-53475000D03*
%TD*%
D47*
%TO.C,F1*%
X93962500Y-51325000D03*
X95537500Y-51325000D03*
%TD*%
D52*
%TO.C,R8*%
X108140000Y-47075000D03*
X109160000Y-47075000D03*
%TD*%
D39*
%TO.C,C42*%
X83900000Y-54950000D03*
X83900000Y-53400000D03*
%TD*%
D33*
%TO.C,C4*%
X121940000Y-54175000D03*
X122900000Y-54175000D03*
%TD*%
D11*
%TO.C,R3*%
X137100000Y-46085000D03*
X137100000Y-45065000D03*
%TD*%
D24*
%TO.C,Q1*%
X130870000Y-68875000D03*
X132770000Y-68875000D03*
X131820000Y-67000000D03*
%TD*%
D11*
%TO.C,R11*%
X130100000Y-51785000D03*
X130100000Y-50765000D03*
%TD*%
%TO.C,R28*%
X97700000Y-57685000D03*
X97700000Y-56665000D03*
%TD*%
D44*
%TO.C,IC8*%
X104687500Y-41362500D03*
X104187500Y-41362500D03*
X103687500Y-41362500D03*
X103187500Y-41362500D03*
D43*
X103175000Y-41875000D03*
X103175000Y-42375000D03*
D44*
X103187500Y-42887500D03*
X103687500Y-42887500D03*
X104187500Y-42887500D03*
X104687500Y-42887500D03*
D43*
X104700000Y-42375000D03*
X104700000Y-41875000D03*
%TD*%
D75*
%TO.C,Y2*%
X111860000Y-60275000D03*
X111860000Y-58075000D03*
X110160000Y-58075000D03*
X110160000Y-60275000D03*
%TD*%
%TO.C,Y1*%
X106200000Y-51775000D03*
X106200000Y-53975000D03*
X107900000Y-53975000D03*
X107900000Y-51775000D03*
%TD*%
D66*
%TO.C,IC14*%
X96100000Y-59145000D03*
X96100000Y-59945000D03*
D67*
X95150000Y-58795000D03*
X95150000Y-59295000D03*
X95150000Y-59795000D03*
X95150000Y-60295000D03*
X97050000Y-60295000D03*
X97050000Y-59795000D03*
X97050000Y-59295000D03*
X97050000Y-58795000D03*
%TD*%
D22*
%TO.C,C31*%
X119230000Y-61037500D03*
X118270000Y-61037500D03*
%TD*%
D69*
%TO.C,L3*%
X104365000Y-55725000D03*
X105335000Y-55725000D03*
%TD*%
D68*
%TO.C,IC3*%
X120280000Y-67537500D03*
X120280000Y-68027500D03*
X120280000Y-68547500D03*
X121120000Y-68537500D03*
X121120000Y-68037500D03*
X121120000Y-67537500D03*
%TD*%
D12*
%TO.C,R25*%
X83800000Y-46005000D03*
X82780000Y-46005000D03*
%TD*%
D66*
%TO.C,IC13*%
X87900000Y-59125000D03*
X87900000Y-59925000D03*
D67*
X86950000Y-58775000D03*
X86950000Y-59275000D03*
X86950000Y-59775000D03*
X86950000Y-60275000D03*
X88850000Y-60275000D03*
X88850000Y-59775000D03*
X88850000Y-59275000D03*
X88850000Y-58775000D03*
%TD*%
D24*
%TO.C,Q4*%
X82190000Y-43395000D03*
X84090000Y-43395000D03*
X83140000Y-41520000D03*
%TD*%
D64*
%TO.C,IC1*%
X135100000Y-46875000D03*
X135100000Y-45605000D03*
X135100000Y-44335000D03*
X135100000Y-43065000D03*
X129400000Y-43065000D03*
X129400000Y-44335000D03*
X129400000Y-45605000D03*
X129400000Y-46875000D03*
D65*
X132250000Y-44970000D03*
%TD*%
D22*
%TO.C,C30*%
X99980000Y-61175000D03*
X99020000Y-61175000D03*
%TD*%
D39*
%TO.C,C16*%
X134550000Y-69125000D03*
X134550000Y-67575000D03*
%TD*%
D69*
%TO.C,L2*%
X102315000Y-53425000D03*
X103285000Y-53425000D03*
%TD*%
D12*
%TO.C,R24*%
X81810000Y-52175000D03*
X80790000Y-52175000D03*
%TD*%
D62*
%TO.C,J6*%
X127680000Y-54825000D03*
X128480000Y-54825000D03*
D63*
X129130000Y-54825000D03*
X129630000Y-54825000D03*
X130130000Y-54825000D03*
X130630000Y-54825000D03*
X131130000Y-54825000D03*
X131630000Y-54825000D03*
X132130000Y-54825000D03*
X132630000Y-54825000D03*
D62*
X133280000Y-54825000D03*
X134080000Y-54825000D03*
%TD*%
D52*
%TO.C,R26*%
X82770000Y-44945000D03*
X83790000Y-44945000D03*
%TD*%
D11*
%TO.C,R27*%
X89000000Y-57685000D03*
X89000000Y-56665000D03*
%TD*%
D10*
%TO.C,C2*%
X104750000Y-53595000D03*
X104750000Y-54555000D03*
%TD*%
D80*
%TO.C,L6*%
X93075000Y-52875000D03*
X93075000Y-55175000D03*
%TD*%
D52*
%TO.C,R16*%
X108700000Y-56575000D03*
X109720000Y-56575000D03*
%TD*%
D81*
%TO.C,IC4*%
X134700000Y-80775000D03*
X134700000Y-79675000D03*
X134700000Y-78575000D03*
X134700000Y-77475000D03*
X134700000Y-76375000D03*
X134700000Y-75275000D03*
X134700000Y-74175000D03*
X134700000Y-73075000D03*
X134700000Y-71975000D03*
X125000000Y-71975000D03*
X125000000Y-73075000D03*
X125000000Y-74175000D03*
X125000000Y-75275000D03*
X125000000Y-76375000D03*
X125000000Y-77475000D03*
X125000000Y-78575000D03*
X125000000Y-79675000D03*
X125000000Y-80775000D03*
%TD*%
D82*
%TO.C,D4*%
X97700000Y-53025000D03*
X97700000Y-55125000D03*
%TD*%
D39*
%TO.C,C43*%
X82300000Y-54950000D03*
X82300000Y-53400000D03*
%TD*%
%TO.C,C35*%
X125000000Y-57550000D03*
X125000000Y-56000000D03*
%TD*%
D16*
%TO.C,C1*%
X104750000Y-52355000D03*
X104750000Y-51395000D03*
%TD*%
D12*
%TO.C,R20*%
X88940000Y-46375000D03*
X87920000Y-46375000D03*
%TD*%
D78*
%TO.C,IC7*%
X104800000Y-45462500D03*
X104300000Y-45462500D03*
X103800000Y-45462500D03*
X103300000Y-45462500D03*
D79*
X103137500Y-46125000D03*
X103137500Y-46625000D03*
X103137500Y-47125000D03*
D78*
X103300000Y-47787500D03*
X103800000Y-47787500D03*
X104300000Y-47787500D03*
X104800000Y-47787500D03*
D79*
X104962500Y-47125000D03*
X104962500Y-46625000D03*
X104962500Y-46125000D03*
%TD*%
D10*
%TO.C,C14*%
X121900000Y-69495000D03*
X121900000Y-70455000D03*
%TD*%
D77*
%TO.C,L5*%
X117050000Y-59487500D03*
X117050000Y-61062500D03*
%TD*%
D33*
%TO.C,C9*%
X120920000Y-46675000D03*
X121880000Y-46675000D03*
%TD*%
D76*
%TO.C,D3*%
X97400000Y-51425000D03*
X97400000Y-49325000D03*
%TD*%
D16*
%TO.C,C26*%
X99950000Y-50855000D03*
X99950000Y-49895000D03*
%TD*%
D73*
%TO.C,L4*%
X121145000Y-61055000D03*
X120175000Y-61055000D03*
%TD*%
D13*
%TO.C,C40*%
X95800000Y-53000000D03*
X95800000Y-54550000D03*
%TD*%
D10*
%TO.C,C34*%
X108710000Y-57975000D03*
X108710000Y-58935000D03*
%TD*%
D33*
%TO.C,C3*%
X122020000Y-51975000D03*
X122980000Y-51975000D03*
%TD*%
D72*
%TO.C,PS1*%
X90187000Y-55000000D03*
X90187000Y-54350000D03*
X90187000Y-53700000D03*
X90187000Y-53050000D03*
X85763000Y-53050000D03*
X85763000Y-53700000D03*
X85763000Y-54350000D03*
X85763000Y-55000000D03*
%TD*%
D74*
%TO.C,IC10*%
X101575000Y-57165000D03*
X101575000Y-58435000D03*
X101575000Y-59705000D03*
X101575000Y-60975000D03*
X106825000Y-60975000D03*
X106825000Y-59705000D03*
X106825000Y-58435000D03*
X106825000Y-57165000D03*
%TD*%
D45*
%TO.C,C41*%
X84175000Y-47375000D03*
X82625000Y-47375000D03*
%TD*%
D12*
%TO.C,R22*%
X96310000Y-55775000D03*
X95290000Y-55775000D03*
%TD*%
D52*
%TO.C,R5*%
X130590000Y-48375000D03*
X131610000Y-48375000D03*
%TD*%
D32*
%TO.C,L1*%
X120200000Y-70595000D03*
X120200000Y-69625000D03*
%TD*%
D40*
%TO.C,C36*%
X121825000Y-57675000D03*
X123375000Y-57675000D03*
%TD*%
D16*
%TO.C,C23*%
X101850000Y-47105000D03*
X101850000Y-46145000D03*
%TD*%
D33*
%TO.C,C27*%
X102320000Y-54575000D03*
X103280000Y-54575000D03*
%TD*%
%TO.C,C6*%
X120940000Y-47775000D03*
X121900000Y-47775000D03*
%TD*%
D22*
%TO.C,C29*%
X99980000Y-59975000D03*
X99020000Y-59975000D03*
%TD*%
%TO.C,C8*%
X111100000Y-52375000D03*
X110140000Y-52375000D03*
%TD*%
D33*
%TO.C,C24*%
X100770000Y-41275000D03*
X101730000Y-41275000D03*
%TD*%
D71*
%TO.C,C37*%
X93250000Y-47275000D03*
X90300000Y-47275000D03*
%TD*%
D10*
%TO.C,C11*%
X127900000Y-47095000D03*
X127900000Y-48055000D03*
%TD*%
D22*
%TO.C,C12*%
X120480000Y-56775000D03*
X119520000Y-56775000D03*
%TD*%
D12*
%TO.C,R23*%
X86820000Y-51675000D03*
X85800000Y-51675000D03*
%TD*%
D33*
%TO.C,C33*%
X116740000Y-58225000D03*
X117700000Y-58225000D03*
%TD*%
D70*
%TO.C,IC9*%
X102795000Y-49294057D03*
X102795000Y-49944057D03*
X102795000Y-50594057D03*
X102795000Y-51244057D03*
X101195000Y-51234057D03*
X101195000Y-50584057D03*
X101195000Y-49934057D03*
X101195000Y-49284057D03*
%TD*%
D71*
%TO.C,C38*%
X98100000Y-47275000D03*
X95150000Y-47275000D03*
%TD*%
D16*
%TO.C,C13*%
X120200000Y-72555000D03*
X120200000Y-71595000D03*
%TD*%
%TO.C,C44*%
X87800000Y-57655000D03*
X87800000Y-56695000D03*
%TD*%
D61*
%TO.C,Q3*%
X86562500Y-48475000D03*
X86562500Y-50375000D03*
X88437500Y-49425000D03*
%TD*%
D52*
%TO.C,R15*%
X112390000Y-47025000D03*
X113410000Y-47025000D03*
%TD*%
D55*
%TO.C,IC12*%
X122625000Y-59225000D03*
X122625000Y-61125000D03*
X124900000Y-60175000D03*
%TD*%
D12*
%TO.C,R19*%
X92210000Y-45575000D03*
X91190000Y-45575000D03*
%TD*%
D16*
%TO.C,C32*%
X108710000Y-61055000D03*
X108710000Y-60095000D03*
%TD*%
D24*
%TO.C,Q2*%
X90620000Y-43810000D03*
X92520000Y-43810000D03*
X91570000Y-41935000D03*
%TD*%
D12*
%TO.C,R1*%
X125010000Y-52475000D03*
X123990000Y-52475000D03*
%TD*%
%TO.C,R2*%
X125010000Y-53675000D03*
X123990000Y-53675000D03*
%TD*%
D21*
%TO.C,R12*%
X129550000Y-68365000D03*
X129550000Y-69385000D03*
%TD*%
D17*
%TO.C,IC11*%
X113600000Y-60975000D03*
X114550000Y-60975000D03*
X115500000Y-60975000D03*
X115500000Y-58700000D03*
X114550000Y-58700000D03*
X113600000Y-58700000D03*
%TD*%
D16*
%TO.C,C46*%
X96600000Y-57675000D03*
X96600000Y-56715000D03*
%TD*%
%TO.C,C15*%
X129550000Y-67085000D03*
X129550000Y-66125000D03*
%TD*%
D59*
%TO.C,BT2*%
X95475000Y-76155000D03*
X117225000Y-76155000D03*
D60*
X106350000Y-76155000D03*
%TD*%
D56*
%TO.C,IC2*%
X117150000Y-51137500D03*
X115550000Y-51137500D03*
X117150000Y-52737500D03*
X115550000Y-52737500D03*
D57*
X118950000Y-48500000D03*
X118550000Y-48500000D03*
X118150000Y-48500000D03*
X117750000Y-48500000D03*
X117350000Y-48500000D03*
X116950000Y-48500000D03*
X116550000Y-48500000D03*
X116150000Y-48500000D03*
X115750000Y-48500000D03*
X115350000Y-48500000D03*
X114950000Y-48500000D03*
X114550000Y-48500000D03*
X114150000Y-48500000D03*
X113750000Y-48500000D03*
D58*
X112912500Y-49337500D03*
X112912500Y-49737500D03*
X112912500Y-50137500D03*
X112912500Y-50537500D03*
X112912500Y-50937500D03*
X112912500Y-51337500D03*
X112912500Y-51737500D03*
X112912500Y-52137500D03*
X112912500Y-52537500D03*
X112912500Y-52937500D03*
X112912500Y-53337500D03*
X112912500Y-53737500D03*
X112912500Y-54137500D03*
X112912500Y-54537500D03*
D57*
X113750000Y-55375000D03*
X114150000Y-55375000D03*
X114550000Y-55375000D03*
X114950000Y-55375000D03*
X115350000Y-55375000D03*
X115750000Y-55375000D03*
X116150000Y-55375000D03*
X116550000Y-55375000D03*
X116950000Y-55375000D03*
X117350000Y-55375000D03*
X117750000Y-55375000D03*
X118150000Y-55375000D03*
X118550000Y-55375000D03*
X118950000Y-55375000D03*
D58*
X119787500Y-54537500D03*
X119787500Y-54137500D03*
X119787500Y-53737500D03*
X119787500Y-53337500D03*
X119787500Y-52937500D03*
X119787500Y-52537500D03*
X119787500Y-52137500D03*
X119787500Y-51737500D03*
X119787500Y-51337500D03*
X119787500Y-50937500D03*
X119787500Y-50537500D03*
X119787500Y-50137500D03*
X119787500Y-49737500D03*
X119787500Y-49337500D03*
%TD*%
D33*
%TO.C,C28*%
X102320000Y-55725000D03*
X103280000Y-55725000D03*
%TD*%
D52*
%TO.C,R21*%
X87890000Y-51675000D03*
X88910000Y-51675000D03*
%TD*%
D33*
%TO.C,C7*%
X121940000Y-56375000D03*
X122900000Y-56375000D03*
%TD*%
%TO.C,C10*%
X121920000Y-55275000D03*
X122880000Y-55275000D03*
%TD*%
D53*
%TO.C,J8*%
X108350000Y-42975000D03*
X123750000Y-42975000D03*
D54*
X110300000Y-44875000D03*
X110800000Y-44875000D03*
X111300000Y-44875000D03*
X111800000Y-44875000D03*
X112300000Y-44875000D03*
X112800000Y-44875000D03*
X113300000Y-44875000D03*
X113800000Y-44875000D03*
X114300000Y-44875000D03*
X114800000Y-44875000D03*
X115300000Y-44875000D03*
X115800000Y-44875000D03*
X116300000Y-44875000D03*
X116800000Y-44875000D03*
X117300000Y-44875000D03*
X117800000Y-44875000D03*
X118300000Y-44875000D03*
X118800000Y-44875000D03*
X119300000Y-44875000D03*
X119800000Y-44875000D03*
X120300000Y-44875000D03*
X120800000Y-44875000D03*
X121300000Y-44875000D03*
X121800000Y-44875000D03*
%TD*%
D45*
%TO.C,C39*%
X95525000Y-49675000D03*
X93975000Y-49675000D03*
%TD*%
D11*
%TO.C,R10*%
X131500000Y-51785000D03*
X131500000Y-50765000D03*
%TD*%
D22*
%TO.C,C25*%
X101680000Y-42675000D03*
X100720000Y-42675000D03*
%TD*%
D52*
%TO.C,R9*%
X108140000Y-48475000D03*
X109160000Y-48475000D03*
%TD*%
%TO.C,R4*%
X106590000Y-50225000D03*
X107610000Y-50225000D03*
%TD*%
M02*
