%TF.GenerationSoftware,KiCad,Pcbnew,8.0.2*%
%TF.CreationDate,2024-05-13T13:54:01+09:00*%
%TF.ProjectId,ikafly_rev1a_p,696b6166-6c79-45f7-9265-7631615f702e,rev?*%
%TF.SameCoordinates,Original*%
%TF.FileFunction,Profile,NP*%
%FSLAX46Y46*%
G04 Gerber Fmt 4.6, Leading zero omitted, Abs format (unit mm)*
G04 Created by KiCad (PCBNEW 8.0.2) date 2024-05-13 13:54:01*
%MOMM*%
%LPD*%
G01*
G04 APERTURE LIST*
%TA.AperFunction,Profile*%
%ADD10C,0.050000*%
%TD*%
%TA.AperFunction,Profile*%
%ADD11C,0.100000*%
%TD*%
G04 APERTURE END LIST*
D10*
X143500000Y-66575000D02*
X143500000Y-59375000D01*
X143500000Y-90775000D02*
X143500000Y-83575000D01*
D11*
X141300000Y-83575000D02*
G75*
G02*
X143500000Y-83575000I1100000J0D01*
G01*
X143500000Y-66575000D02*
G75*
G02*
X141300000Y-66575000I-1100000J0D01*
G01*
X141300000Y-59375000D02*
G75*
G02*
X143500000Y-59375000I1100000J0D01*
G01*
X143500000Y-90775000D02*
G75*
G02*
X141300000Y-90775000I-1100000J0D01*
G01*
X141300000Y-102370000D02*
G75*
G02*
X143500000Y-102370000I1100000J0D01*
G01*
X143500000Y-42370000D02*
G75*
G02*
X141300000Y-42370000I-1100000J0D01*
G01*
X86300000Y-86075000D02*
G75*
G02*
X86300000Y-88275000I0J-1100000D01*
G01*
X111300000Y-86075000D02*
X106300000Y-86075000D01*
X78800000Y-88275000D02*
X86300000Y-88275000D01*
X111300000Y-88275000D02*
X106300000Y-88275000D01*
X131300000Y-88275000D02*
X138800000Y-88275000D01*
X106300000Y-88275000D02*
G75*
G02*
X106300000Y-86075000I0J1100000D01*
G01*
X131300000Y-88275000D02*
G75*
G02*
X131300000Y-86075000I0J1100000D01*
G01*
X111300000Y-86075000D02*
G75*
G02*
X111300000Y-88275000I0J-1100000D01*
G01*
X131300000Y-86075000D02*
X138800000Y-86075000D01*
X86300000Y-86075000D02*
X78800000Y-86075000D01*
X165500000Y-102370000D02*
X165500000Y-42370000D01*
X165500000Y-102370000D02*
G75*
G02*
X163000000Y-104870000I-2500000J0D01*
G01*
X163000000Y-39870000D02*
X146000000Y-39870000D01*
X146000000Y-104870000D02*
G75*
G02*
X143500000Y-102370000I0J2500000D01*
G01*
X146000000Y-104870000D02*
X163000000Y-104870000D01*
X163000000Y-39870000D02*
G75*
G02*
X165500000Y-42370000I0J-2500000D01*
G01*
X143500000Y-42370000D02*
G75*
G02*
X146000000Y-39870000I2500000J0D01*
G01*
X78800000Y-110275000D02*
G75*
G02*
X76300000Y-107775000I0J2500000D01*
G01*
X141300000Y-131975000D02*
X141300000Y-114975000D01*
X106300000Y-112475000D02*
G75*
G02*
X106300000Y-110275000I0J1100000D01*
G01*
X76300000Y-114975000D02*
G75*
G02*
X78800000Y-112475000I2500000J0D01*
G01*
X78800000Y-112475000D02*
X86300000Y-112475000D01*
X111300000Y-112475000D02*
X106300000Y-112475000D01*
X131300000Y-112475000D02*
G75*
G02*
X131300000Y-110275000I0J1100000D01*
G01*
X78800000Y-134475000D02*
X81700000Y-134475001D01*
X141300000Y-107775000D02*
X141300000Y-102370000D01*
X111300000Y-110275000D02*
X106300000Y-110275000D01*
X78800000Y-134475000D02*
G75*
G02*
X76300000Y-131975000I0J2500000D01*
G01*
X138800000Y-134475000D02*
X81700000Y-134475001D01*
X86300000Y-110275000D02*
G75*
G02*
X86300000Y-112475000I0J-1100000D01*
G01*
X76300000Y-90775000D02*
G75*
G02*
X78800000Y-88275000I2500000J0D01*
G01*
X141300000Y-131975000D02*
G75*
G02*
X138800000Y-134475000I-2500000J0D01*
G01*
X76300000Y-90775000D02*
X76300000Y-107775000D01*
X138800000Y-112475000D02*
G75*
G02*
X141300000Y-114975000I0J-2500000D01*
G01*
X76300000Y-131975000D02*
X76300000Y-114975000D01*
X111300000Y-110275000D02*
G75*
G02*
X111300000Y-112475000I0J-1100000D01*
G01*
X86300000Y-110275000D02*
X78800000Y-110275000D01*
X131300000Y-110275000D02*
X138800000Y-110275000D01*
X141300000Y-107775000D02*
G75*
G02*
X138800000Y-110275000I-2500000J0D01*
G01*
X138800000Y-88275000D02*
G75*
G02*
X141300000Y-90775000I0J-2500000D01*
G01*
X141300000Y-59375000D02*
G75*
G02*
X138800000Y-61875000I-2500000J0D01*
G01*
X131300000Y-61875000D02*
X138800000Y-61875000D01*
X86300000Y-61875000D02*
X78800000Y-61875000D01*
X76300000Y-83575000D02*
X76300000Y-66575000D01*
X111300000Y-61875000D02*
G75*
G02*
X111300000Y-64075000I0J-1100000D01*
G01*
X138800000Y-64075000D02*
G75*
G02*
X141300000Y-66575000I0J-2500000D01*
G01*
X76300000Y-42375000D02*
X76300000Y-59375000D01*
X141300000Y-83575000D02*
G75*
G02*
X138800000Y-86075000I-2500000J0D01*
G01*
X76300000Y-42375000D02*
G75*
G02*
X78800000Y-39875000I2500000J0D01*
G01*
X138800000Y-39875000D02*
G75*
G02*
X141300000Y-42375000I0J-2500000D01*
G01*
X131300000Y-64075000D02*
X138800000Y-64075000D01*
X86300000Y-61875000D02*
G75*
G02*
X86300000Y-64075000I0J-1100000D01*
G01*
X78800000Y-86075000D02*
G75*
G02*
X76300000Y-83575000I0J2500000D01*
G01*
X111300000Y-61875000D02*
X106300000Y-61875000D01*
X106300000Y-64075000D02*
G75*
G02*
X106300000Y-61875000I0J1100000D01*
G01*
X78800000Y-61875000D02*
G75*
G02*
X76300000Y-59375000I0J2500000D01*
G01*
X131300000Y-64075000D02*
G75*
G02*
X131300000Y-61875000I0J1100000D01*
G01*
X111300000Y-64075000D02*
X106300000Y-64075000D01*
X78800000Y-64075000D02*
X86300000Y-64075000D01*
X76300000Y-66575000D02*
G75*
G02*
X78800000Y-64075000I2500000J0D01*
G01*
X78800000Y-39875000D02*
X138800000Y-39875000D01*
X131300000Y-112475000D02*
X138800000Y-112475000D01*
M02*
