%TF.GenerationSoftware,KiCad,Pcbnew,8.0.2*%
%TF.CreationDate,2024-05-13T13:54:00+09:00*%
%TF.ProjectId,ikafly_rev1a_p,696b6166-6c79-45f7-9265-7631615f702e,rev?*%
%TF.SameCoordinates,Original*%
%TF.FileFunction,Paste,Bot*%
%TF.FilePolarity,Positive*%
%FSLAX46Y46*%
G04 Gerber Fmt 4.6, Leading zero omitted, Abs format (unit mm)*
G04 Created by KiCad (PCBNEW 8.0.2) date 2024-05-13 13:54:00*
%MOMM*%
%LPD*%
G01*
G04 APERTURE LIST*
G04 Aperture macros list*
%AMRoundRect*
0 Rectangle with rounded corners*
0 $1 Rounding radius*
0 $2 $3 $4 $5 $6 $7 $8 $9 X,Y pos of 4 corners*
0 Add a 4 corners polygon primitive as box body*
4,1,4,$2,$3,$4,$5,$6,$7,$8,$9,$2,$3,0*
0 Add four circle primitives for the rounded corners*
1,1,$1+$1,$2,$3*
1,1,$1+$1,$4,$5*
1,1,$1+$1,$6,$7*
1,1,$1+$1,$8,$9*
0 Add four rect primitives between the rounded corners*
20,1,$1+$1,$2,$3,$4,$5,0*
20,1,$1+$1,$4,$5,$6,$7,0*
20,1,$1+$1,$6,$7,$8,$9,0*
20,1,$1+$1,$8,$9,$2,$3,0*%
G04 Aperture macros list end*
%ADD10RoundRect,0.225000X0.225000X0.250000X-0.225000X0.250000X-0.225000X-0.250000X0.225000X-0.250000X0*%
%ADD11R,0.600000X1.200000*%
%ADD12RoundRect,0.135000X0.185000X-0.135000X0.185000X0.135000X-0.185000X0.135000X-0.185000X-0.135000X0*%
%ADD13RoundRect,0.135000X-0.185000X0.135000X-0.185000X-0.135000X0.185000X-0.135000X0.185000X0.135000X0*%
%ADD14RoundRect,0.225000X-0.225000X-0.250000X0.225000X-0.250000X0.225000X0.250000X-0.225000X0.250000X0*%
%ADD15RoundRect,0.140000X0.170000X-0.140000X0.170000X0.140000X-0.170000X0.140000X-0.170000X-0.140000X0*%
%ADD16RoundRect,0.225000X0.250000X-0.225000X0.250000X0.225000X-0.250000X0.225000X-0.250000X-0.225000X0*%
%ADD17R,1.200000X0.600000*%
%ADD18RoundRect,0.135000X-0.135000X-0.185000X0.135000X-0.185000X0.135000X0.185000X-0.135000X0.185000X0*%
%ADD19RoundRect,0.135000X0.135000X0.185000X-0.135000X0.185000X-0.135000X-0.185000X0.135000X-0.185000X0*%
%ADD20RoundRect,0.225000X-0.250000X0.225000X-0.250000X-0.225000X0.250000X-0.225000X0.250000X0.225000X0*%
%ADD21R,1.000000X1.500000*%
%ADD22RoundRect,0.140000X-0.140000X-0.170000X0.140000X-0.170000X0.140000X0.170000X-0.140000X0.170000X0*%
%ADD23RoundRect,0.218750X0.218750X0.256250X-0.218750X0.256250X-0.218750X-0.256250X0.218750X-0.256250X0*%
%ADD24R,1.000000X0.750000*%
G04 APERTURE END LIST*
D10*
%TO.C,C20*%
X146000000Y-67770000D03*
X144450000Y-67770000D03*
%TD*%
D11*
%TO.C,IC6*%
X146350000Y-71970000D03*
X145400000Y-71970000D03*
X144450000Y-71970000D03*
X144450000Y-69370000D03*
X146350000Y-69370000D03*
%TD*%
D12*
%TO.C,R17*%
X161800000Y-64390000D03*
X161800000Y-63370000D03*
%TD*%
D13*
%TO.C,R18*%
X161800000Y-65370000D03*
X161800000Y-66390000D03*
%TD*%
D10*
%TO.C,C22*%
X146000000Y-66270000D03*
X144450000Y-66270000D03*
%TD*%
D14*
%TO.C,C17*%
X144645000Y-73770000D03*
X146195000Y-73770000D03*
%TD*%
%TO.C,C21*%
X144625000Y-64230000D03*
X146175000Y-64230000D03*
%TD*%
D15*
%TO.C,C47*%
X160400000Y-86750000D03*
X160400000Y-85790000D03*
%TD*%
D11*
%TO.C,IC5*%
X144415000Y-58480000D03*
X145365000Y-58480000D03*
X146315000Y-58480000D03*
X146315000Y-61080000D03*
X144415000Y-61080000D03*
%TD*%
D15*
%TO.C,C45*%
X160100000Y-94150000D03*
X160100000Y-93190000D03*
%TD*%
D14*
%TO.C,C18*%
X144625000Y-56770000D03*
X146175000Y-56770000D03*
%TD*%
D12*
%TO.C,R7*%
X147700000Y-79970000D03*
X147700000Y-78950000D03*
%TD*%
%TO.C,R6*%
X147700000Y-81980000D03*
X147700000Y-80960000D03*
%TD*%
D14*
%TO.C,C19*%
X144625000Y-62730000D03*
X146175000Y-62730000D03*
%TD*%
D16*
%TO.C,C20*%
X113400000Y-90775000D03*
X113400000Y-89225000D03*
%TD*%
D17*
%TO.C,IC6*%
X109200000Y-91125000D03*
X109200000Y-90175000D03*
X109200000Y-89225000D03*
X111800000Y-89225000D03*
X111800000Y-91125000D03*
%TD*%
D18*
%TO.C,R17*%
X116780000Y-106575000D03*
X117800000Y-106575000D03*
%TD*%
D19*
%TO.C,R18*%
X115800000Y-106575000D03*
X114780000Y-106575000D03*
%TD*%
D16*
%TO.C,C22*%
X114900000Y-90775000D03*
X114900000Y-89225000D03*
%TD*%
D20*
%TO.C,C17*%
X107400000Y-89420000D03*
X107400000Y-90970000D03*
%TD*%
D21*
%TO.C,S2*%
X91800000Y-130525000D03*
X89300000Y-130525000D03*
X86800000Y-130525000D03*
X86800000Y-124525000D03*
X89300000Y-124525000D03*
X91800000Y-124525000D03*
%TD*%
D20*
%TO.C,C21*%
X116940000Y-89400000D03*
X116940000Y-90950000D03*
%TD*%
D22*
%TO.C,C47*%
X94420000Y-105175000D03*
X95380000Y-105175000D03*
%TD*%
D17*
%TO.C,IC5*%
X122690000Y-89190000D03*
X122690000Y-90140000D03*
X122690000Y-91090000D03*
X120090000Y-91090000D03*
X120090000Y-89190000D03*
%TD*%
D23*
%TO.C,D1*%
X90800000Y-121025000D03*
X89225000Y-121025000D03*
%TD*%
%TO.C,D2*%
X90875000Y-117525000D03*
X89300000Y-117525000D03*
%TD*%
D22*
%TO.C,C45*%
X87020000Y-104875000D03*
X87980000Y-104875000D03*
%TD*%
D20*
%TO.C,C18*%
X124400000Y-89400000D03*
X124400000Y-90950000D03*
%TD*%
D18*
%TO.C,R7*%
X101200000Y-92475000D03*
X102220000Y-92475000D03*
%TD*%
%TO.C,R6*%
X99190000Y-92475000D03*
X100210000Y-92475000D03*
%TD*%
D20*
%TO.C,C19*%
X118440000Y-89400000D03*
X118440000Y-90950000D03*
%TD*%
D18*
%TO.C,R14*%
X86327500Y-117525000D03*
X87347500Y-117525000D03*
%TD*%
%TO.C,R13*%
X86252500Y-121025000D03*
X87272500Y-121025000D03*
%TD*%
D24*
%TO.C,S1*%
X106050000Y-125400000D03*
X100050000Y-125400000D03*
X106050000Y-129150000D03*
X100050000Y-129150000D03*
%TD*%
D18*
%TO.C,R13*%
X86252500Y-72625000D03*
X87272500Y-72625000D03*
%TD*%
%TO.C,R14*%
X86327500Y-69125000D03*
X87347500Y-69125000D03*
%TD*%
D24*
%TO.C,S1*%
X106050000Y-77000000D03*
X100050000Y-77000000D03*
X106050000Y-80750000D03*
X100050000Y-80750000D03*
%TD*%
D20*
%TO.C,C19*%
X118440000Y-41000000D03*
X118440000Y-42550000D03*
%TD*%
D17*
%TO.C,IC5*%
X122690000Y-40790000D03*
X122690000Y-41740000D03*
X122690000Y-42690000D03*
X120090000Y-42690000D03*
X120090000Y-40790000D03*
%TD*%
D18*
%TO.C,R7*%
X101200000Y-44075000D03*
X102220000Y-44075000D03*
%TD*%
D16*
%TO.C,C22*%
X114900000Y-42375000D03*
X114900000Y-40825000D03*
%TD*%
D18*
%TO.C,R6*%
X99190000Y-44075000D03*
X100210000Y-44075000D03*
%TD*%
D23*
%TO.C,D2*%
X90875000Y-69125000D03*
X89300000Y-69125000D03*
%TD*%
D20*
%TO.C,C17*%
X107400000Y-41020000D03*
X107400000Y-42570000D03*
%TD*%
D22*
%TO.C,C47*%
X94420000Y-56775000D03*
X95380000Y-56775000D03*
%TD*%
D21*
%TO.C,S2*%
X91800000Y-82125000D03*
X89300000Y-82125000D03*
X86800000Y-82125000D03*
X86800000Y-76125000D03*
X89300000Y-76125000D03*
X91800000Y-76125000D03*
%TD*%
D20*
%TO.C,C18*%
X124400000Y-41000000D03*
X124400000Y-42550000D03*
%TD*%
%TO.C,C21*%
X116940000Y-41000000D03*
X116940000Y-42550000D03*
%TD*%
D22*
%TO.C,C45*%
X87020000Y-56475000D03*
X87980000Y-56475000D03*
%TD*%
D23*
%TO.C,D1*%
X90800000Y-72625000D03*
X89225000Y-72625000D03*
%TD*%
D18*
%TO.C,R17*%
X116780000Y-58175000D03*
X117800000Y-58175000D03*
%TD*%
D19*
%TO.C,R18*%
X115800000Y-58175000D03*
X114780000Y-58175000D03*
%TD*%
D17*
%TO.C,IC6*%
X109200000Y-42725000D03*
X109200000Y-41775000D03*
X109200000Y-40825000D03*
X111800000Y-40825000D03*
X111800000Y-42725000D03*
%TD*%
D16*
%TO.C,C20*%
X113400000Y-42375000D03*
X113400000Y-40825000D03*
%TD*%
M02*
