M48
; DRILL file {KiCad 8.0.2} date 2024-05-13T13:54:03+0900
; FORMAT={-:-/ absolute / metric / decimal}
; #@! TF.CreationDate,2024-05-13T13:54:03+09:00
; #@! TF.GenerationSoftware,Kicad,Pcbnew,8.0.2
; #@! TF.FileFunction,MixedPlating,1,4
FMAT,2
METRIC
; #@! TA.AperFunction,Plated,PTH,ViaDrill
T1C0.300
; #@! TA.AperFunction,Plated,PTH,ViaDrill
T2C0.350
; #@! TA.AperFunction,Plated,PTH,ViaDrill
T3C0.400
; #@! TA.AperFunction,Plated,PTH,ComponentDrill
T4C0.600
; #@! TA.AperFunction,Plated,PTH,ComponentDrill
T5C0.730
; #@! TA.AperFunction,Plated,PTH,ComponentDrill
T6C0.900
; #@! TA.AperFunction,Plated,PTH,ComponentDrill
T7C1.000
; #@! TA.AperFunction,Plated,PTH,ComponentDrill
T8C1.200
; #@! TA.AperFunction,Plated,PTH,ComponentDrill
T9C2.000
; #@! TA.AperFunction,NonPlated,NPTH,ComponentDrill
T10C0.650
; #@! TA.AperFunction,NonPlated,NPTH,ComponentDrill
T11C2.200
%
G90
G05
T1
X110.8Y-43.575
X110.8Y-91.975
X111.8Y-43.575
X111.8Y-91.975
X113.3Y-46.175
X113.3Y-47.869
X113.3Y-94.575
X113.3Y-96.269
X114.8Y-46.575
X114.8Y-94.975
X115.8Y-58.775
X115.8Y-107.175
X116.06Y-43.316
X116.06Y-91.716
X116.3Y-46.237
X116.3Y-94.637
X117.3Y-43.675
X117.3Y-92.075
X119.3Y-43.675
X119.3Y-92.075
X119.473Y-48.07
X119.473Y-96.47
X120.1Y-47.685
X120.1Y-96.085
X120.12Y-46.975
X120.12Y-95.375
X120.3Y-43.675
X120.3Y-92.075
X146.941Y-65.11
X147.2Y-69.37
X147.2Y-70.37
X147.3Y-60.87
X147.3Y-61.87
X147.3Y-63.87
X149.8Y-67.87
X149.862Y-64.87
X150.2Y-66.37
X150.6Y-61.05
X151.31Y-61.07
X151.494Y-67.87
X151.695Y-61.697
X162.4Y-65.37
T2
X80.7Y-45.575
X80.7Y-49.175
X80.7Y-51.675
X80.7Y-93.975
X80.7Y-97.575
X80.7Y-100.075
X81.3Y-59.175
X81.3Y-107.575
X81.9Y-47.325
X81.9Y-95.725
X82.8Y-84.375
X82.8Y-132.775
X83.82Y-43.875
X83.82Y-92.275
X85.587Y-69.195
X85.587Y-117.595
X86.3Y-74.075
X86.3Y-122.475
X87.1Y-78.275
X87.1Y-126.675
X87.3Y-84.375
X87.3Y-132.775
X87.37Y-46.395
X87.37Y-94.795
X88.1Y-56.175
X88.1Y-104.575
X88.4Y-57.685
X88.4Y-106.085
X88.432Y-48.675
X88.432Y-97.075
X88.45Y-49.575
X88.45Y-97.975
X89.063Y-47.899
X89.063Y-96.299
X89.25Y-48.875
X89.25Y-97.275
X90.2Y-52.325
X90.2Y-59.475
X90.2Y-60.275
X90.2Y-100.725
X90.2Y-107.875
X90.2Y-108.675
X90.8Y-84.375
X90.8Y-132.775
X91.688Y-69.095
X91.688Y-117.495
X91.712Y-72.595
X91.712Y-120.995
X92.0Y-78.975
X92.0Y-127.375
X93.22Y-44.215
X93.22Y-92.615
X93.24Y-43.345
X93.24Y-91.745
X94.0Y-48.875
X94.0Y-97.275
X94.837Y-84.337
X94.837Y-132.737
X95.8Y-66.175
X95.8Y-114.575
X96.81Y-47.465
X96.81Y-95.865
X96.9Y-49.375
X96.9Y-97.775
X97.671Y-58.246
X97.671Y-106.646
X97.9Y-42.975
X97.9Y-91.375
X98.1Y-66.875
X98.1Y-115.275
X98.3Y-61.225
X98.3Y-109.625
X98.8Y-84.375
X98.8Y-132.775
X99.373Y-58.259
X99.373Y-106.659
X99.9Y-58.861
X99.9Y-107.261
X100.3Y-42.675
X100.3Y-45.775
X100.3Y-91.075
X100.3Y-94.175
X100.5Y-49.934
X100.5Y-50.775
X100.5Y-98.334
X100.5Y-99.175
X100.55Y-69.625
X100.55Y-82.125
X100.55Y-118.025
X100.55Y-130.525
X100.6Y-59.975
X100.6Y-108.375
X100.67Y-49.152
X100.67Y-97.552
X100.7Y-57.205
X100.7Y-105.605
X102.05Y-80.25
X102.05Y-128.65
X102.2Y-42.375
X102.2Y-44.575
X102.2Y-90.775
X102.2Y-92.975
X102.5Y-46.125
X102.5Y-94.525
X102.55Y-47.105
X102.55Y-95.505
X103.3Y-84.375
X103.3Y-132.775
X103.331Y-49.294
X103.331Y-97.694
X103.7Y-40.725
X103.7Y-89.125
X103.8Y-69.375
X103.8Y-72.125
X103.8Y-74.875
X103.8Y-82.375
X103.8Y-117.775
X103.8Y-120.525
X103.8Y-123.275
X103.8Y-130.775
X104.088Y-43.464
X104.088Y-91.864
X104.3Y-44.725
X104.3Y-93.125
X104.59Y-58.005
X104.59Y-106.404
X104.9Y-43.425
X104.9Y-91.825
X105.122Y-60.2
X105.122Y-108.6
X105.578Y-47.23
X105.578Y-95.63
X105.75Y-59.705
X105.75Y-108.105
X106.05Y-80.5
X106.05Y-128.9
X106.084Y-45.175
X106.084Y-93.575
X106.1Y-46.625
X106.1Y-95.025
X106.3Y-69.375
X106.3Y-72.125
X106.3Y-74.875
X106.3Y-82.375
X106.3Y-117.775
X106.3Y-120.525
X106.3Y-123.275
X106.3Y-130.775
X106.9Y-47.975
X106.9Y-96.375
X107.7Y-47.075
X107.7Y-48.475
X107.7Y-95.475
X107.7Y-96.875
X108.71Y-59.595
X108.71Y-107.995
X108.8Y-69.375
X108.8Y-72.125
X108.8Y-74.875
X108.8Y-82.375
X108.8Y-117.775
X108.8Y-120.525
X108.8Y-123.275
X108.8Y-130.775
X109.7Y-47.075
X109.7Y-95.475
X110.2Y-50.695
X110.2Y-99.095
X110.62Y-54.455
X110.62Y-102.855
X110.66Y-48.035
X110.66Y-96.435
X111.151Y-59.087
X111.151Y-107.487
X111.3Y-67.875
X111.3Y-70.875
X111.3Y-73.375
X111.3Y-75.875
X111.3Y-77.625
X111.3Y-80.125
X111.3Y-82.625
X111.3Y-84.375
X111.3Y-116.275
X111.3Y-119.275
X111.3Y-121.775
X111.3Y-124.275
X111.3Y-126.025
X111.3Y-128.525
X111.3Y-131.025
X111.3Y-132.775
X111.6Y-55.855
X111.6Y-104.255
X111.61Y-49.557
X111.61Y-97.957
X111.65Y-53.225
X111.65Y-101.625
X111.848Y-54.695
X111.848Y-103.095
X112.2Y-48.977
X112.2Y-97.377
X112.4Y-47.625
X112.4Y-96.025
X112.85Y-56.092
X112.85Y-104.492
X113.373Y-56.697
X113.373Y-105.097
X114.113Y-57.061
X114.113Y-105.461
X114.25Y-52.525
X114.25Y-100.925
X114.3Y-70.875
X114.3Y-73.375
X114.3Y-75.875
X114.3Y-119.275
X114.3Y-121.775
X114.3Y-124.275
X114.45Y-60.025
X114.45Y-108.425
X114.8Y-84.375
X114.8Y-132.775
X115.171Y-56.697
X115.171Y-105.097
X115.3Y-80.375
X115.3Y-128.775
X115.97Y-56.665
X115.97Y-105.065
X116.3Y-59.737
X116.3Y-108.137
X116.379Y-57.384
X116.379Y-105.784
X116.8Y-66.875
X116.8Y-115.275
X117.3Y-84.375
X117.3Y-132.775
X117.79Y-56.505
X117.79Y-104.905
X118.1Y-58.225
X118.1Y-106.625
X118.62Y-75.625
X118.62Y-124.025
X118.7Y-53.425
X118.7Y-101.825
X118.85Y-73.925
X118.85Y-122.325
X118.91Y-56.755
X118.91Y-105.155
X119.04Y-76.645
X119.04Y-125.045
X119.25Y-66.975
X119.25Y-69.175
X119.25Y-115.375
X119.25Y-117.575
X119.3Y-68.025
X119.3Y-70.025
X119.3Y-116.425
X119.3Y-118.425
X119.35Y-71.025
X119.35Y-71.975
X119.35Y-119.425
X119.35Y-120.375
X119.4Y-73.075
X119.4Y-121.475
X119.8Y-80.375
X119.8Y-84.375
X119.8Y-128.775
X119.8Y-132.775
X119.817Y-77.329
X119.817Y-125.729
X120.3Y-66.725
X120.3Y-115.125
X120.7Y-55.675
X120.7Y-104.075
X120.75Y-51.917
X120.75Y-100.317
X121.05Y-70.375
X121.05Y-71.225
X121.05Y-118.775
X121.05Y-119.625
X121.06Y-77.735
X121.06Y-126.135
X121.07Y-69.585
X121.07Y-117.985
X121.1Y-72.225
X121.1Y-120.625
X121.35Y-66.725
X121.35Y-115.125
X121.425Y-68.85
X121.425Y-117.25
X121.84Y-72.665
X121.84Y-121.065
X121.9Y-47.075
X121.9Y-71.175
X121.9Y-95.475
X121.9Y-119.575
X121.94Y-55.775
X121.94Y-104.175
X122.14Y-68.355
X122.14Y-116.755
X122.2Y-77.605
X122.2Y-126.005
X122.3Y-84.375
X122.3Y-132.775
X122.55Y-66.825
X122.55Y-115.225
X122.625Y-58.775
X122.625Y-107.175
X122.75Y-68.925
X122.75Y-71.775
X122.75Y-72.594
X122.75Y-117.325
X122.75Y-120.175
X122.75Y-120.994
X122.8Y-69.875
X122.8Y-70.875
X122.8Y-80.375
X122.8Y-118.275
X122.8Y-119.275
X122.8Y-128.775
X122.9Y-54.675
X122.9Y-55.825
X122.9Y-103.075
X122.9Y-104.225
X123.0Y-77.055
X123.0Y-125.455
X123.123Y-73.402
X123.123Y-121.802
X123.3Y-51.625
X123.3Y-100.025
X123.57Y-76.035
X123.57Y-124.435
X123.7Y-67.325
X123.7Y-115.725
X124.28Y-68.485
X124.28Y-69.535
X124.28Y-70.635
X124.28Y-116.885
X124.28Y-117.935
X124.28Y-119.035
X124.8Y-84.375
X124.8Y-132.775
X124.9Y-58.765
X124.9Y-107.165
X124.925Y-58.085
X124.925Y-106.485
X125.8Y-66.875
X125.8Y-68.875
X125.8Y-115.275
X125.8Y-117.275
X127.3Y-76.375
X127.3Y-78.875
X127.3Y-81.375
X127.3Y-84.375
X127.3Y-124.775
X127.3Y-127.275
X127.3Y-129.775
X127.3Y-132.775
X128.01Y-58.615
X128.01Y-107.015
X128.3Y-71.375
X128.3Y-119.775
X128.48Y-54.825
X128.48Y-103.225
X128.55Y-47.095
X128.55Y-95.495
X129.8Y-47.075
X129.8Y-75.375
X129.8Y-77.875
X129.8Y-80.375
X129.8Y-84.375
X129.8Y-95.475
X129.8Y-123.775
X129.8Y-126.275
X129.8Y-128.775
X129.8Y-132.775
X130.8Y-50.765
X130.8Y-99.165
X132.2Y-45.975
X132.2Y-94.375
X132.25Y-43.625
X132.25Y-92.025
X132.3Y-84.375
X132.3Y-132.775
X132.39Y-56.125
X132.39Y-104.525
X133.28Y-54.825
X133.28Y-103.225
X134.8Y-84.375
X134.8Y-132.775
X135.9Y-73.025
X135.9Y-121.425
X136.7Y-57.575
X136.7Y-105.975
X137.1Y-47.575
X137.1Y-50.175
X137.1Y-53.175
X137.1Y-95.975
X137.1Y-98.575
X137.1Y-101.575
X138.9Y-44.575
X138.9Y-56.975
X138.9Y-92.975
X138.9Y-105.375
X144.35Y-77.47
X146.0Y-78.97
X146.3Y-80.87
X146.6Y-83.27
X146.97Y-87.93
X147.05Y-76.27
X147.089Y-77.082
X147.25Y-48.92
X147.5Y-97.35
X147.84Y-87.95
X148.2Y-42.27
X148.2Y-78.97
X148.35Y-76.87
X148.8Y-75.085
X149.2Y-100.47
X149.4Y-80.87
X149.6Y-48.97
X149.75Y-78.67
X150.02Y-93.8
X150.25Y-75.07
X150.7Y-51.37
X150.7Y-59.27
X150.7Y-71.47
X150.7Y-73.47
X150.72Y-52.62
X150.73Y-78.62
X150.855Y-75.592
X150.95Y-99.27
X151.09Y-84.36
X151.2Y-44.07
X151.25Y-68.77
X151.524Y-92.107
X151.6Y-74.27
X151.66Y-70.51
X152.1Y-73.47
X152.3Y-92.738
X152.5Y-87.17
X152.5Y-91.92
X152.602Y-68.97
X152.777Y-80.5
X152.8Y-100.47
X152.919Y-77.839
X153.0Y-84.27
X153.183Y-69.56
X153.2Y-92.72
X153.559Y-80.67
X153.8Y-44.07
X154.32Y-70.97
X154.39Y-50.37
X154.4Y-80.67
X155.25Y-57.87
X155.3Y-100.47
X155.542Y-60.42
X155.95Y-90.97
X156.15Y-66.92
X156.8Y-44.07
X156.85Y-69.52
X157.05Y-62.47
X158.08Y-70.55
X158.3Y-58.27
X158.32Y-69.322
X158.45Y-47.89
X158.45Y-52.69
X159.3Y-60.47
X159.4Y-59.23
X159.45Y-58.27
X159.48Y-69.57
X159.717Y-68.32
X159.75Y-48.78
X159.8Y-93.07
X160.13Y-63.38
X160.29Y-65.2
X160.322Y-65.999
X160.322Y-67.797
X160.38Y-62.26
X160.6Y-42.27
X160.686Y-67.057
X160.83Y-80.47
X161.009Y-64.791
X161.2Y-44.47
X161.31Y-92.77
X161.629Y-76.579
X161.71Y-56.245
X161.85Y-63.07
X161.871Y-83.499
X161.884Y-81.797
X162.24Y-53.16
X162.39Y-56.27
X162.4Y-58.545
X162.486Y-81.27
X162.712Y-70.019
X162.8Y-99.87
X163.1Y-90.97
X163.22Y-72.46
X163.33Y-75.42
X163.362Y-64.87
X163.6Y-80.57
X163.65Y-66.72
X163.825Y-76.048
X163.9Y-90.97
X164.85Y-82.87
T3
X81.5Y-53.675
X81.5Y-102.075
X84.802Y-55.684
X84.802Y-104.084
X86.7Y-56.675
X86.7Y-57.575
X86.7Y-105.075
X86.7Y-105.975
X86.95Y-60.825
X86.95Y-109.225
X87.9Y-59.075
X87.9Y-59.925
X87.9Y-107.475
X87.9Y-108.325
X88.928Y-53.228
X88.928Y-101.628
X89.3Y-84.125
X89.3Y-132.525
X90.3Y-47.275
X90.3Y-95.675
X93.25Y-47.275
X93.25Y-95.675
X94.2Y-56.375
X94.2Y-104.775
X94.342Y-57.317
X94.342Y-105.717
X95.1Y-47.275
X95.1Y-95.675
X95.2Y-60.725
X95.2Y-109.125
X95.504Y-54.174
X95.504Y-102.574
X95.9Y-56.775
X95.9Y-105.175
X96.1Y-59.125
X96.1Y-59.975
X96.1Y-107.525
X96.1Y-108.375
X98.1Y-47.175
X98.1Y-95.575
X99.5Y-57.305
X99.5Y-105.705
X103.3Y-52.575
X103.3Y-100.975
X104.75Y-52.925
X104.75Y-101.325
X106.5Y-41.775
X106.5Y-90.175
X106.715Y-53.145
X106.715Y-101.545
X108.3Y-40.775
X108.3Y-89.175
X110.12Y-52.975
X110.12Y-101.375
X114.2Y-40.825
X114.2Y-42.375
X114.2Y-89.225
X114.2Y-90.775
X115.2Y-50.775
X115.2Y-51.925
X115.2Y-53.075
X115.2Y-99.175
X115.2Y-100.325
X115.2Y-101.475
X116.35Y-50.775
X116.35Y-51.925
X116.35Y-53.075
X116.35Y-99.175
X116.35Y-100.325
X116.35Y-101.475
X117.5Y-50.775
X117.5Y-51.925
X117.5Y-53.075
X117.5Y-99.175
X117.5Y-100.325
X117.5Y-101.475
X117.7Y-40.79
X117.7Y-42.35
X117.7Y-89.19
X117.7Y-90.75
X122.1Y-60.175
X122.1Y-108.575
X123.7Y-40.775
X123.7Y-89.175
X123.75Y-74.175
X123.75Y-122.575
X125.0Y-71.225
X125.0Y-119.625
X125.6Y-42.475
X125.6Y-90.875
X130.3Y-66.125
X130.3Y-114.525
X131.82Y-70.375
X131.82Y-71.595
X131.82Y-118.775
X131.82Y-119.995
X134.55Y-66.625
X134.55Y-115.025
X136.0Y-80.725
X136.0Y-129.125
X144.4Y-57.47
X144.4Y-72.87
X144.415Y-63.47
X144.45Y-66.97
X145.4Y-74.67
X145.975Y-63.47
X146.0Y-66.97
X146.1Y-55.57
X150.8Y-83.07
X150.9Y-86.07
X150.9Y-87.92
X150.9Y-90.87
X154.4Y-63.67
X154.4Y-64.82
X154.4Y-65.97
X155.55Y-63.67
X155.55Y-64.82
X155.55Y-65.97
X156.2Y-77.87
X156.55Y-76.42
X156.6Y-71.05
X156.7Y-63.67
X156.7Y-64.82
X156.7Y-65.97
X156.77Y-74.455
X156.853Y-92.242
X157.3Y-99.67
X157.799Y-85.666
X159.309Y-96.368
X160.0Y-86.97
X160.3Y-94.47
X160.4Y-85.27
X160.93Y-81.67
X160.942Y-86.828
X161.2Y-94.47
X162.7Y-93.27
X162.75Y-85.07
X163.55Y-93.27
X163.6Y-85.07
X163.8Y-59.07
X164.35Y-85.97
X164.45Y-94.22
T5
X83.147Y-57.375
X83.147Y-105.775
X84.647Y-57.375
X84.647Y-105.775
X86.6Y-44.275
X86.6Y-92.675
X88.1Y-44.275
X88.1Y-92.675
X91.218Y-57.375
X91.218Y-105.775
X92.718Y-57.375
X92.718Y-105.775
X95.012Y-44.275
X95.012Y-92.675
X96.512Y-44.275
X96.512Y-92.675
X147.9Y-84.657
X147.9Y-86.157
X147.9Y-93.07
X147.9Y-94.57
X161.0Y-88.453
X161.0Y-89.953
X161.0Y-96.522
X161.0Y-98.022
T6
X78.0Y-47.74
X78.0Y-50.28
X78.0Y-52.82
X78.0Y-55.36
X78.0Y-96.14
X78.0Y-98.68
X78.0Y-101.22
X78.0Y-103.76
X78.3Y-70.575
X78.3Y-73.115
X78.3Y-75.655
X78.3Y-78.195
X78.3Y-118.975
X78.3Y-121.515
X78.3Y-124.055
X78.3Y-126.595
X139.0Y-46.47
X139.0Y-49.01
X139.0Y-51.55
X139.0Y-54.09
X139.0Y-94.87
X139.0Y-97.41
X139.0Y-99.95
X139.0Y-102.49
X139.3Y-71.845
X139.3Y-74.385
X139.3Y-76.925
X139.3Y-79.465
X139.3Y-120.245
X139.3Y-122.785
X139.3Y-125.325
X139.3Y-127.865
X150.095Y-42.17
X151.365Y-103.17
X152.635Y-42.17
X153.905Y-103.17
X155.175Y-42.17
X156.445Y-103.17
X157.715Y-42.17
X158.985Y-103.17
T7
X100.2Y-53.625
X100.2Y-102.025
X119.7Y-59.075
X119.7Y-107.475
X157.25Y-80.97
X162.7Y-61.47
T8
X121.15Y-75.155
X121.15Y-123.555
T9
X83.7Y-50.275
X83.7Y-98.675
X91.35Y-50.275
X91.35Y-98.675
X126.35Y-50.275
X126.35Y-98.675
X134.0Y-50.275
X134.0Y-98.675
X153.9Y-47.17
X153.9Y-54.82
X153.9Y-89.82
X153.9Y-97.47
T10
X127.99Y-55.895
X127.99Y-104.295
X133.77Y-55.895
X133.77Y-104.295
X159.52Y-47.4
X159.52Y-53.18
T11
X78.8Y-42.375
X78.8Y-59.375
X78.8Y-66.575
X78.8Y-83.675
X78.8Y-90.775
X78.8Y-107.775
X78.8Y-114.975
X78.8Y-132.075
X138.8Y-42.375
X138.8Y-59.375
X138.8Y-66.575
X138.8Y-83.575
X138.8Y-90.775
X138.8Y-107.775
X138.8Y-114.975
X138.8Y-131.975
X146.0Y-42.37
X146.0Y-102.37
X163.0Y-42.37
X163.0Y-102.37
T4
G00X126.56Y-55.945
M15
G01X126.56Y-54.845
M16
G05
G00X126.56Y-59.975
M15
G01X126.56Y-59.175
M16
G05
G00X126.56Y-104.345
M15
G01X126.56Y-103.245
M16
G05
G00X126.56Y-108.375
M15
G01X126.56Y-107.575
M16
G05
G00X135.2Y-55.945
M15
G01X135.2Y-54.845
M16
G05
G00X135.2Y-59.975
M15
G01X135.2Y-59.175
M16
G05
G00X135.2Y-104.345
M15
G01X135.2Y-103.245
M16
G05
G00X135.2Y-108.375
M15
G01X135.2Y-107.575
M16
G05
G00X159.57Y-45.97
M15
G01X158.47Y-45.97
M16
G05
G00X159.57Y-54.61
M15
G01X158.47Y-54.61
M16
G05
G00X163.6Y-45.97
M15
G01X162.8Y-45.97
M16
G05
G00X163.6Y-54.61
M15
G01X162.8Y-54.61
M16
G05
M30
