%TF.GenerationSoftware,KiCad,Pcbnew,7.0.5*%
%TF.CreationDate,2024-04-05T19:04:48+09:00*%
%TF.ProjectId,ikafly_rev0a_p_cut,696b6166-6c79-45f7-9265-7630615f705f,rev?*%
%TF.SameCoordinates,Original*%
%TF.FileFunction,Soldermask,Bot*%
%TF.FilePolarity,Negative*%
%FSLAX46Y46*%
G04 Gerber Fmt 4.6, Leading zero omitted, Abs format (unit mm)*
G04 Created by KiCad (PCBNEW 7.0.5) date 2024-04-05 19:04:48*
%MOMM*%
%LPD*%
G01*
G04 APERTURE LIST*
G04 Aperture macros list*
%AMRoundRect*
0 Rectangle with rounded corners*
0 $1 Rounding radius*
0 $2 $3 $4 $5 $6 $7 $8 $9 X,Y pos of 4 corners*
0 Add a 4 corners polygon primitive as box body*
4,1,4,$2,$3,$4,$5,$6,$7,$8,$9,$2,$3,0*
0 Add four circle primitives for the rounded corners*
1,1,$1+$1,$2,$3*
1,1,$1+$1,$4,$5*
1,1,$1+$1,$6,$7*
1,1,$1+$1,$8,$9*
0 Add four rect primitives between the rounded corners*
20,1,$1+$1,$2,$3,$4,$5,0*
20,1,$1+$1,$4,$5,$6,$7,0*
20,1,$1+$1,$6,$7,$8,$9,0*
20,1,$1+$1,$8,$9,$2,$3,0*%
G04 Aperture macros list end*
%ADD10C,3.000000*%
%ADD11C,2.200000*%
%ADD12R,1.700000X1.700000*%
%ADD13O,1.700000X1.700000*%
%ADD14C,2.000000*%
%ADD15C,0.650000*%
%ADD16O,1.000000X2.100000*%
%ADD17O,1.000000X1.800000*%
%ADD18C,1.400000*%
%ADD19C,1.750000*%
%ADD20C,1.000000*%
%ADD21O,1.030000X1.730000*%
%ADD22O,10.000000X2.000000*%
%ADD23O,10.000000X2.100000*%
%ADD24RoundRect,0.218750X0.218750X0.256250X-0.218750X0.256250X-0.218750X-0.256250X0.218750X-0.256250X0*%
%ADD25RoundRect,0.140000X-0.140000X-0.170000X0.140000X-0.170000X0.140000X0.170000X-0.140000X0.170000X0*%
%ADD26RoundRect,0.135000X0.135000X0.185000X-0.135000X0.185000X-0.135000X-0.185000X0.135000X-0.185000X0*%
%ADD27RoundRect,0.225000X-0.250000X0.225000X-0.250000X-0.225000X0.250000X-0.225000X0.250000X0.225000X0*%
%ADD28RoundRect,0.135000X-0.135000X-0.185000X0.135000X-0.185000X0.135000X0.185000X-0.135000X0.185000X0*%
%ADD29RoundRect,0.140000X-0.170000X0.140000X-0.170000X-0.140000X0.170000X-0.140000X0.170000X0.140000X0*%
%ADD30R,1.000000X0.750000*%
%ADD31C,3.500000*%
%ADD32R,1.000000X1.500000*%
%ADD33C,2.500000*%
%ADD34RoundRect,0.147500X-0.147500X-0.172500X0.147500X-0.172500X0.147500X0.172500X-0.147500X0.172500X0*%
%ADD35RoundRect,0.225000X0.250000X-0.225000X0.250000X0.225000X-0.250000X0.225000X-0.250000X-0.225000X0*%
%ADD36R,1.200000X0.600000*%
%ADD37RoundRect,0.150000X0.150000X-0.675000X0.150000X0.675000X-0.150000X0.675000X-0.150000X-0.675000X0*%
%ADD38R,0.750000X1.400000*%
%ADD39RoundRect,0.140000X0.170000X-0.140000X0.170000X0.140000X-0.170000X0.140000X-0.170000X-0.140000X0*%
G04 APERTURE END LIST*
D10*
%TO.C,J8*%
X216480000Y-78940000D03*
X211400000Y-78940000D03*
%TD*%
D11*
%TO.C,H3*%
X193900000Y-94300000D03*
%TD*%
%TO.C,H9*%
X193900000Y-135500000D03*
%TD*%
%TO.C,H5*%
X200840000Y-59200000D03*
%TD*%
D12*
%TO.C,J9*%
X203200000Y-55000000D03*
D13*
X203200000Y-52460000D03*
X203200000Y-49920000D03*
%TD*%
D11*
%TO.C,H6*%
X226940000Y-125040000D03*
%TD*%
D14*
%TO.C,AE3*%
X218640000Y-104840000D03*
%TD*%
D11*
%TO.C,H2*%
X133900000Y-111300000D03*
%TD*%
D15*
%TO.C,J4*%
X182490000Y-107820000D03*
X188270000Y-107820000D03*
D16*
X181060000Y-107320000D03*
D17*
X181060000Y-111500000D03*
D16*
X189700000Y-107320000D03*
D17*
X189700000Y-111500000D03*
%TD*%
D18*
%TO.C,C29*%
X202350000Y-63900000D03*
X202350000Y-67400000D03*
%TD*%
D11*
%TO.C,H4*%
X193800000Y-63100000D03*
%TD*%
D19*
%TO.C,J3*%
X133250000Y-51350000D03*
X133250000Y-53890000D03*
X133250000Y-56430000D03*
X133250000Y-58970000D03*
X194250000Y-50080000D03*
X194250000Y-52620000D03*
X194250000Y-55160000D03*
X194250000Y-57700000D03*
%TD*%
D20*
%TO.C,Y3*%
X212940000Y-125940000D03*
X212940000Y-124040000D03*
%TD*%
D14*
%TO.C,AE3*%
X218540000Y-72000000D03*
%TD*%
D11*
%TO.C,H5*%
X200940000Y-92040000D03*
%TD*%
D21*
%TO.C,J2*%
X147717500Y-61100000D03*
X146217500Y-61100000D03*
%TD*%
D10*
%TO.C,J8*%
X216380000Y-46100000D03*
X211300000Y-46100000D03*
%TD*%
D12*
%TO.C,J9*%
X203300000Y-87840000D03*
D13*
X203300000Y-85300000D03*
X203300000Y-82760000D03*
%TD*%
D21*
%TO.C,J2*%
X147817500Y-109300000D03*
X146317500Y-109300000D03*
%TD*%
D20*
%TO.C,Y3*%
X212840000Y-60100000D03*
X212840000Y-58200000D03*
%TD*%
D11*
%TO.C,H8*%
X133800000Y-87400000D03*
%TD*%
D21*
%TO.C,J1*%
X139647500Y-61100000D03*
X138147500Y-61100000D03*
%TD*%
D11*
%TO.C,H2*%
X133800000Y-63100000D03*
%TD*%
D21*
%TO.C,J1*%
X139747500Y-109300000D03*
X138247500Y-109300000D03*
%TD*%
D11*
%TO.C,H10*%
X193900000Y-118500000D03*
%TD*%
D22*
%TO.C,*%
X163800000Y-90800000D03*
%TD*%
%TO.C,*%
X163800000Y-114900000D03*
%TD*%
D14*
%TO.C,AE2*%
X166450000Y-62170000D03*
%TD*%
D11*
%TO.C,H1*%
X133900000Y-94300000D03*
%TD*%
%TO.C,H9*%
X193800000Y-87300000D03*
%TD*%
D20*
%TO.C,Y3*%
X212940000Y-92940000D03*
X212940000Y-91040000D03*
%TD*%
D14*
%TO.C,AE2*%
X166550000Y-110370000D03*
%TD*%
D11*
%TO.C,H6*%
X226940000Y-92040000D03*
%TD*%
%TO.C,H5*%
X200940000Y-125040000D03*
%TD*%
D10*
%TO.C,J8*%
X216480000Y-111940000D03*
X211400000Y-111940000D03*
%TD*%
D14*
%TO.C,AE3*%
X218640000Y-137840000D03*
%TD*%
D12*
%TO.C,J7*%
X221665000Y-87815000D03*
D13*
X224205000Y-87815000D03*
%TD*%
D19*
%TO.C,J3*%
X133350000Y-99550000D03*
X133350000Y-102090000D03*
X133350000Y-104630000D03*
X133350000Y-107170000D03*
X194350000Y-98280000D03*
X194350000Y-100820000D03*
X194350000Y-103360000D03*
X194350000Y-105900000D03*
%TD*%
D11*
%TO.C,H10*%
X193800000Y-70300000D03*
%TD*%
D12*
%TO.C,J9*%
X203300000Y-120840000D03*
D13*
X203300000Y-118300000D03*
X203300000Y-115760000D03*
%TD*%
D11*
%TO.C,H7*%
X133800000Y-70300000D03*
%TD*%
%TO.C,H6*%
X226840000Y-59200000D03*
%TD*%
%TO.C,H3*%
X193800000Y-46100000D03*
%TD*%
D23*
%TO.C,*%
X163700000Y-66700000D03*
%TD*%
D12*
%TO.C,J7*%
X221665000Y-120815000D03*
D13*
X224205000Y-120815000D03*
%TD*%
D11*
%TO.C,H1*%
X133800000Y-46100000D03*
%TD*%
%TO.C,H4*%
X193900000Y-111300000D03*
%TD*%
%TO.C,H7*%
X133900000Y-118500000D03*
%TD*%
D15*
%TO.C,J4*%
X182390000Y-59620000D03*
X188170000Y-59620000D03*
D16*
X180960000Y-59120000D03*
D17*
X180960000Y-63300000D03*
D16*
X189600000Y-59120000D03*
D17*
X189600000Y-63300000D03*
%TD*%
D11*
%TO.C,H8*%
X133900000Y-135600000D03*
%TD*%
D18*
%TO.C,C29*%
X202450000Y-96740000D03*
X202450000Y-100240000D03*
%TD*%
%TO.C,C29*%
X202450000Y-129740000D03*
X202450000Y-133240000D03*
%TD*%
D12*
%TO.C,J7*%
X221565000Y-54975000D03*
D13*
X224105000Y-54975000D03*
%TD*%
D24*
%TO.C,D1*%
X145287500Y-130330000D03*
X143712500Y-130330000D03*
%TD*%
D20*
%TO.C,TP1*%
X209040000Y-123640000D03*
%TD*%
D25*
%TO.C,C55*%
X151720000Y-108200000D03*
X152680000Y-108200000D03*
%TD*%
D19*
%TO.C,J5*%
X194400000Y-123770000D03*
X194400000Y-126310000D03*
X194400000Y-128850000D03*
X194400000Y-131390000D03*
X133400000Y-122500000D03*
X133400000Y-125040000D03*
X133400000Y-127580000D03*
X133400000Y-130120000D03*
%TD*%
D26*
%TO.C,R25*%
X207921400Y-48400000D03*
X206901400Y-48400000D03*
%TD*%
D25*
%TO.C,C30*%
X218440600Y-68757500D03*
X219400600Y-68757500D03*
%TD*%
D27*
%TO.C,C34*%
X204740000Y-129615000D03*
X204740000Y-131165000D03*
%TD*%
D28*
%TO.C,R15*%
X140740000Y-134330000D03*
X141760000Y-134330000D03*
%TD*%
D29*
%TO.C,C54*%
X141800000Y-110340000D03*
X141800000Y-111300000D03*
%TD*%
D30*
%TO.C,S1*%
X162250000Y-120080000D03*
X156250000Y-120080000D03*
X162250000Y-123830000D03*
X156250000Y-123830000D03*
%TD*%
D28*
%TO.C,R7*%
X156350000Y-96140000D03*
X157370000Y-96140000D03*
%TD*%
D31*
%TO.C,BT1*%
X138700000Y-54000000D03*
X146350000Y-54000000D03*
X181350000Y-54000000D03*
X189000000Y-54000000D03*
%TD*%
D29*
%TO.C,C28*%
X205240000Y-123480000D03*
X205240000Y-124440000D03*
%TD*%
D20*
%TO.C,TP1*%
X208940000Y-57800000D03*
%TD*%
D24*
%TO.C,D1*%
X145187500Y-82130000D03*
X143612500Y-82130000D03*
%TD*%
D27*
%TO.C,C17*%
X177700000Y-44925000D03*
X177700000Y-46475000D03*
%TD*%
D32*
%TO.C,S3*%
X147900000Y-77880000D03*
X145400000Y-77880000D03*
X142900000Y-77880000D03*
X142900000Y-71880000D03*
X145400000Y-71880000D03*
X147900000Y-71880000D03*
%TD*%
D30*
%TO.C,S2*%
X162250000Y-129955000D03*
X156250000Y-129955000D03*
X162250000Y-133705000D03*
X156250000Y-133705000D03*
%TD*%
D28*
%TO.C,R15*%
X140640000Y-86130000D03*
X141660000Y-86130000D03*
%TD*%
D26*
%TO.C,R26*%
X206050000Y-81240000D03*
X205030000Y-81240000D03*
%TD*%
D27*
%TO.C,C34*%
X204640000Y-63775000D03*
X204640000Y-65325000D03*
%TD*%
D33*
%TO.C,AE1*%
X176250000Y-127080000D03*
%TD*%
D29*
%TO.C,C32*%
X217296000Y-131580000D03*
X217296000Y-132540000D03*
%TD*%
%TO.C,C33*%
X216026000Y-98580000D03*
X216026000Y-99540000D03*
%TD*%
D34*
%TO.C,L4*%
X218535800Y-135613500D03*
X219505800Y-135613500D03*
%TD*%
D28*
%TO.C,R14*%
X140640000Y-82130000D03*
X141660000Y-82130000D03*
%TD*%
D31*
%TO.C,BT1*%
X138800000Y-102200000D03*
X146450000Y-102200000D03*
X181450000Y-102200000D03*
X189100000Y-102200000D03*
%TD*%
D27*
%TO.C,C18*%
X171010000Y-44460000D03*
X171010000Y-46010000D03*
%TD*%
D30*
%TO.C,S2*%
X162150000Y-81755000D03*
X156150000Y-81755000D03*
X162150000Y-85505000D03*
X156150000Y-85505000D03*
%TD*%
D28*
%TO.C,R7*%
X156250000Y-47940000D03*
X157270000Y-47940000D03*
%TD*%
D35*
%TO.C,C19*%
X169100000Y-94300000D03*
X169100000Y-92750000D03*
%TD*%
D26*
%TO.C,R26*%
X205950000Y-48400000D03*
X204930000Y-48400000D03*
%TD*%
D30*
%TO.C,S1*%
X162150000Y-71880000D03*
X156150000Y-71880000D03*
X162150000Y-75630000D03*
X156150000Y-75630000D03*
%TD*%
D25*
%TO.C,C55*%
X151620000Y-60000000D03*
X152580000Y-60000000D03*
%TD*%
D29*
%TO.C,C33*%
X215926000Y-65740000D03*
X215926000Y-66700000D03*
%TD*%
D36*
%TO.C,IC14*%
X206440000Y-65600000D03*
X206440000Y-64650000D03*
X206440000Y-63700000D03*
X209040000Y-63700000D03*
X209040000Y-65600000D03*
%TD*%
D37*
%TO.C,IC13*%
X219840000Y-96842500D03*
X218570000Y-96842500D03*
X217300000Y-96842500D03*
X216030000Y-96842500D03*
X216030000Y-91592500D03*
X217300000Y-91592500D03*
X218570000Y-91592500D03*
X219840000Y-91592500D03*
%TD*%
D28*
%TO.C,R14*%
X140740000Y-130330000D03*
X141760000Y-130330000D03*
%TD*%
D29*
%TO.C,C54*%
X141700000Y-62140000D03*
X141700000Y-63100000D03*
%TD*%
D27*
%TO.C,C17*%
X177800000Y-93125000D03*
X177800000Y-94675000D03*
%TD*%
D26*
%TO.C,R26*%
X206050000Y-114240000D03*
X205030000Y-114240000D03*
%TD*%
D34*
%TO.C,L4*%
X218535800Y-102613500D03*
X219505800Y-102613500D03*
%TD*%
D29*
%TO.C,C28*%
X205240000Y-90480000D03*
X205240000Y-91440000D03*
%TD*%
D36*
%TO.C,IC14*%
X206540000Y-98440000D03*
X206540000Y-97490000D03*
X206540000Y-96540000D03*
X209140000Y-96540000D03*
X209140000Y-98440000D03*
%TD*%
D27*
%TO.C,C16*%
X162300000Y-93125000D03*
X162300000Y-94675000D03*
%TD*%
%TO.C,C16*%
X162200000Y-44925000D03*
X162200000Y-46475000D03*
%TD*%
D36*
%TO.C,IC7*%
X164700000Y-46350000D03*
X164700000Y-45400000D03*
X164700000Y-44450000D03*
X167300000Y-44450000D03*
X167300000Y-46350000D03*
%TD*%
D35*
%TO.C,C36*%
X210940000Y-65575000D03*
X210940000Y-64025000D03*
%TD*%
D29*
%TO.C,C33*%
X216026000Y-131580000D03*
X216026000Y-132540000D03*
%TD*%
D36*
%TO.C,IC6*%
X175400000Y-92650000D03*
X175400000Y-93600000D03*
X175400000Y-94550000D03*
X172800000Y-94550000D03*
X172800000Y-92650000D03*
%TD*%
D29*
%TO.C,C28*%
X205140000Y-57640000D03*
X205140000Y-58600000D03*
%TD*%
D20*
%TO.C,TP1*%
X209040000Y-90640000D03*
%TD*%
D34*
%TO.C,L4*%
X218435800Y-69773500D03*
X219405800Y-69773500D03*
%TD*%
D29*
%TO.C,C32*%
X217296000Y-98580000D03*
X217296000Y-99540000D03*
%TD*%
D38*
%TO.C,IC12*%
X208999166Y-88590000D03*
X207729166Y-88590000D03*
X206459166Y-88590000D03*
X205189166Y-88590000D03*
X205189166Y-83090000D03*
X206459166Y-83090000D03*
X207729166Y-83090000D03*
X208999166Y-83090000D03*
%TD*%
D39*
%TO.C,C31*%
X218591400Y-133576300D03*
X218591400Y-132616300D03*
%TD*%
D35*
%TO.C,C19*%
X169000000Y-46100000D03*
X169000000Y-44550000D03*
%TD*%
D28*
%TO.C,R6*%
X154240000Y-47940000D03*
X155260000Y-47940000D03*
%TD*%
D24*
%TO.C,D2*%
X145287500Y-134330000D03*
X143712500Y-134330000D03*
%TD*%
D26*
%TO.C,R25*%
X208021400Y-81240000D03*
X207001400Y-81240000D03*
%TD*%
D25*
%TO.C,C30*%
X218540600Y-101597500D03*
X219500600Y-101597500D03*
%TD*%
D37*
%TO.C,IC13*%
X219840000Y-129842500D03*
X218570000Y-129842500D03*
X217300000Y-129842500D03*
X216030000Y-129842500D03*
X216030000Y-124592500D03*
X217300000Y-124592500D03*
X218570000Y-124592500D03*
X219840000Y-124592500D03*
%TD*%
D39*
%TO.C,C31*%
X218491400Y-67736300D03*
X218491400Y-66776300D03*
%TD*%
D38*
%TO.C,IC12*%
X208999166Y-121590000D03*
X207729166Y-121590000D03*
X206459166Y-121590000D03*
X205189166Y-121590000D03*
X205189166Y-116090000D03*
X206459166Y-116090000D03*
X207729166Y-116090000D03*
X208999166Y-116090000D03*
%TD*%
D25*
%TO.C,C30*%
X218540600Y-134597500D03*
X219500600Y-134597500D03*
%TD*%
D19*
%TO.C,J5*%
X194300000Y-75570000D03*
X194300000Y-78110000D03*
X194300000Y-80650000D03*
X194300000Y-83190000D03*
X133300000Y-74300000D03*
X133300000Y-76840000D03*
X133300000Y-79380000D03*
X133300000Y-81920000D03*
%TD*%
D26*
%TO.C,R25*%
X208021400Y-114240000D03*
X207001400Y-114240000D03*
%TD*%
D34*
%TO.C,L5*%
X218463600Y-65760300D03*
X219433600Y-65760300D03*
%TD*%
D39*
%TO.C,C31*%
X218591400Y-100576300D03*
X218591400Y-99616300D03*
%TD*%
D36*
%TO.C,IC14*%
X206540000Y-131440000D03*
X206540000Y-130490000D03*
X206540000Y-129540000D03*
X209140000Y-129540000D03*
X209140000Y-131440000D03*
%TD*%
D34*
%TO.C,L5*%
X218563600Y-131600300D03*
X219533600Y-131600300D03*
%TD*%
D36*
%TO.C,IC7*%
X164800000Y-94550000D03*
X164800000Y-93600000D03*
X164800000Y-92650000D03*
X167400000Y-92650000D03*
X167400000Y-94550000D03*
%TD*%
D37*
%TO.C,IC13*%
X219740000Y-64002500D03*
X218470000Y-64002500D03*
X217200000Y-64002500D03*
X215930000Y-64002500D03*
X215930000Y-58752500D03*
X217200000Y-58752500D03*
X218470000Y-58752500D03*
X219740000Y-58752500D03*
%TD*%
D29*
%TO.C,C32*%
X217196000Y-65740000D03*
X217196000Y-66700000D03*
%TD*%
D28*
%TO.C,R6*%
X154340000Y-96140000D03*
X155360000Y-96140000D03*
%TD*%
D36*
%TO.C,IC6*%
X175300000Y-44450000D03*
X175300000Y-45400000D03*
X175300000Y-46350000D03*
X172700000Y-46350000D03*
X172700000Y-44450000D03*
%TD*%
D38*
%TO.C,IC12*%
X208899166Y-55750000D03*
X207629166Y-55750000D03*
X206359166Y-55750000D03*
X205089166Y-55750000D03*
X205089166Y-50250000D03*
X206359166Y-50250000D03*
X207629166Y-50250000D03*
X208899166Y-50250000D03*
%TD*%
D35*
%TO.C,C36*%
X211040000Y-131415000D03*
X211040000Y-129865000D03*
%TD*%
D24*
%TO.C,D2*%
X145187500Y-86130000D03*
X143612500Y-86130000D03*
%TD*%
D27*
%TO.C,C34*%
X204740000Y-96615000D03*
X204740000Y-98165000D03*
%TD*%
D34*
%TO.C,L5*%
X218563600Y-98600300D03*
X219533600Y-98600300D03*
%TD*%
D32*
%TO.C,S3*%
X148000000Y-126080000D03*
X145500000Y-126080000D03*
X143000000Y-126080000D03*
X143000000Y-120080000D03*
X145500000Y-120080000D03*
X148000000Y-120080000D03*
%TD*%
D33*
%TO.C,AE1*%
X176150000Y-78880000D03*
%TD*%
D35*
%TO.C,C36*%
X211040000Y-98415000D03*
X211040000Y-96865000D03*
%TD*%
D27*
%TO.C,C18*%
X171110000Y-92660000D03*
X171110000Y-94210000D03*
%TD*%
M02*
