%TF.GenerationSoftware,KiCad,Pcbnew,7.0.5*%
%TF.CreationDate,2024-04-05T19:04:47+09:00*%
%TF.ProjectId,ikafly_rev0a_p_cut,696b6166-6c79-45f7-9265-7630615f705f,rev?*%
%TF.SameCoordinates,Original*%
%TF.FileFunction,Paste,Bot*%
%TF.FilePolarity,Positive*%
%FSLAX46Y46*%
G04 Gerber Fmt 4.6, Leading zero omitted, Abs format (unit mm)*
G04 Created by KiCad (PCBNEW 7.0.5) date 2024-04-05 19:04:47*
%MOMM*%
%LPD*%
G01*
G04 APERTURE LIST*
G04 Aperture macros list*
%AMRoundRect*
0 Rectangle with rounded corners*
0 $1 Rounding radius*
0 $2 $3 $4 $5 $6 $7 $8 $9 X,Y pos of 4 corners*
0 Add a 4 corners polygon primitive as box body*
4,1,4,$2,$3,$4,$5,$6,$7,$8,$9,$2,$3,0*
0 Add four circle primitives for the rounded corners*
1,1,$1+$1,$2,$3*
1,1,$1+$1,$4,$5*
1,1,$1+$1,$6,$7*
1,1,$1+$1,$8,$9*
0 Add four rect primitives between the rounded corners*
20,1,$1+$1,$2,$3,$4,$5,0*
20,1,$1+$1,$4,$5,$6,$7,0*
20,1,$1+$1,$6,$7,$8,$9,0*
20,1,$1+$1,$8,$9,$2,$3,0*%
G04 Aperture macros list end*
%ADD10RoundRect,0.218750X0.218750X0.256250X-0.218750X0.256250X-0.218750X-0.256250X0.218750X-0.256250X0*%
%ADD11RoundRect,0.140000X-0.140000X-0.170000X0.140000X-0.170000X0.140000X0.170000X-0.140000X0.170000X0*%
%ADD12RoundRect,0.135000X0.135000X0.185000X-0.135000X0.185000X-0.135000X-0.185000X0.135000X-0.185000X0*%
%ADD13RoundRect,0.225000X-0.250000X0.225000X-0.250000X-0.225000X0.250000X-0.225000X0.250000X0.225000X0*%
%ADD14RoundRect,0.135000X-0.135000X-0.185000X0.135000X-0.185000X0.135000X0.185000X-0.135000X0.185000X0*%
%ADD15RoundRect,0.140000X-0.170000X0.140000X-0.170000X-0.140000X0.170000X-0.140000X0.170000X0.140000X0*%
%ADD16R,1.000000X0.750000*%
%ADD17R,1.000000X1.500000*%
%ADD18RoundRect,0.147500X-0.147500X-0.172500X0.147500X-0.172500X0.147500X0.172500X-0.147500X0.172500X0*%
%ADD19RoundRect,0.225000X0.250000X-0.225000X0.250000X0.225000X-0.250000X0.225000X-0.250000X-0.225000X0*%
%ADD20R,1.200000X0.600000*%
%ADD21RoundRect,0.150000X0.150000X-0.675000X0.150000X0.675000X-0.150000X0.675000X-0.150000X-0.675000X0*%
%ADD22R,0.750000X1.400000*%
%ADD23RoundRect,0.140000X0.170000X-0.140000X0.170000X0.140000X-0.170000X0.140000X-0.170000X-0.140000X0*%
G04 APERTURE END LIST*
D10*
%TO.C,D1*%
X145287500Y-130330000D03*
X143712500Y-130330000D03*
%TD*%
D11*
%TO.C,C55*%
X151720000Y-108200000D03*
X152680000Y-108200000D03*
%TD*%
D12*
%TO.C,R25*%
X207921400Y-48400000D03*
X206901400Y-48400000D03*
%TD*%
D11*
%TO.C,C30*%
X218440600Y-68757500D03*
X219400600Y-68757500D03*
%TD*%
D13*
%TO.C,C34*%
X204740000Y-129615000D03*
X204740000Y-131165000D03*
%TD*%
D14*
%TO.C,R15*%
X140740000Y-134330000D03*
X141760000Y-134330000D03*
%TD*%
D15*
%TO.C,C54*%
X141800000Y-110340000D03*
X141800000Y-111300000D03*
%TD*%
D16*
%TO.C,S1*%
X162250000Y-120080000D03*
X156250000Y-120080000D03*
X162250000Y-123830000D03*
X156250000Y-123830000D03*
%TD*%
D14*
%TO.C,R7*%
X156350000Y-96140000D03*
X157370000Y-96140000D03*
%TD*%
D15*
%TO.C,C28*%
X205240000Y-123480000D03*
X205240000Y-124440000D03*
%TD*%
D10*
%TO.C,D1*%
X145187500Y-82130000D03*
X143612500Y-82130000D03*
%TD*%
D13*
%TO.C,C17*%
X177700000Y-44925000D03*
X177700000Y-46475000D03*
%TD*%
D17*
%TO.C,S3*%
X147900000Y-77880000D03*
X145400000Y-77880000D03*
X142900000Y-77880000D03*
X142900000Y-71880000D03*
X145400000Y-71880000D03*
X147900000Y-71880000D03*
%TD*%
D16*
%TO.C,S2*%
X162250000Y-129955000D03*
X156250000Y-129955000D03*
X162250000Y-133705000D03*
X156250000Y-133705000D03*
%TD*%
D14*
%TO.C,R15*%
X140640000Y-86130000D03*
X141660000Y-86130000D03*
%TD*%
D12*
%TO.C,R26*%
X206050000Y-81240000D03*
X205030000Y-81240000D03*
%TD*%
D13*
%TO.C,C34*%
X204640000Y-63775000D03*
X204640000Y-65325000D03*
%TD*%
D15*
%TO.C,C32*%
X217296000Y-131580000D03*
X217296000Y-132540000D03*
%TD*%
%TO.C,C33*%
X216026000Y-98580000D03*
X216026000Y-99540000D03*
%TD*%
D18*
%TO.C,L4*%
X218535800Y-135613500D03*
X219505800Y-135613500D03*
%TD*%
D14*
%TO.C,R14*%
X140640000Y-82130000D03*
X141660000Y-82130000D03*
%TD*%
D13*
%TO.C,C18*%
X171010000Y-44460000D03*
X171010000Y-46010000D03*
%TD*%
D16*
%TO.C,S2*%
X162150000Y-81755000D03*
X156150000Y-81755000D03*
X162150000Y-85505000D03*
X156150000Y-85505000D03*
%TD*%
D14*
%TO.C,R7*%
X156250000Y-47940000D03*
X157270000Y-47940000D03*
%TD*%
D19*
%TO.C,C19*%
X169100000Y-94300000D03*
X169100000Y-92750000D03*
%TD*%
D12*
%TO.C,R26*%
X205950000Y-48400000D03*
X204930000Y-48400000D03*
%TD*%
D16*
%TO.C,S1*%
X162150000Y-71880000D03*
X156150000Y-71880000D03*
X162150000Y-75630000D03*
X156150000Y-75630000D03*
%TD*%
D11*
%TO.C,C55*%
X151620000Y-60000000D03*
X152580000Y-60000000D03*
%TD*%
D15*
%TO.C,C33*%
X215926000Y-65740000D03*
X215926000Y-66700000D03*
%TD*%
D20*
%TO.C,IC14*%
X206440000Y-65600000D03*
X206440000Y-64650000D03*
X206440000Y-63700000D03*
X209040000Y-63700000D03*
X209040000Y-65600000D03*
%TD*%
D21*
%TO.C,IC13*%
X219840000Y-96842500D03*
X218570000Y-96842500D03*
X217300000Y-96842500D03*
X216030000Y-96842500D03*
X216030000Y-91592500D03*
X217300000Y-91592500D03*
X218570000Y-91592500D03*
X219840000Y-91592500D03*
%TD*%
D14*
%TO.C,R14*%
X140740000Y-130330000D03*
X141760000Y-130330000D03*
%TD*%
D15*
%TO.C,C54*%
X141700000Y-62140000D03*
X141700000Y-63100000D03*
%TD*%
D13*
%TO.C,C17*%
X177800000Y-93125000D03*
X177800000Y-94675000D03*
%TD*%
D12*
%TO.C,R26*%
X206050000Y-114240000D03*
X205030000Y-114240000D03*
%TD*%
D18*
%TO.C,L4*%
X218535800Y-102613500D03*
X219505800Y-102613500D03*
%TD*%
D15*
%TO.C,C28*%
X205240000Y-90480000D03*
X205240000Y-91440000D03*
%TD*%
D20*
%TO.C,IC14*%
X206540000Y-98440000D03*
X206540000Y-97490000D03*
X206540000Y-96540000D03*
X209140000Y-96540000D03*
X209140000Y-98440000D03*
%TD*%
D13*
%TO.C,C16*%
X162300000Y-93125000D03*
X162300000Y-94675000D03*
%TD*%
%TO.C,C16*%
X162200000Y-44925000D03*
X162200000Y-46475000D03*
%TD*%
D20*
%TO.C,IC7*%
X164700000Y-46350000D03*
X164700000Y-45400000D03*
X164700000Y-44450000D03*
X167300000Y-44450000D03*
X167300000Y-46350000D03*
%TD*%
D19*
%TO.C,C36*%
X210940000Y-65575000D03*
X210940000Y-64025000D03*
%TD*%
D15*
%TO.C,C33*%
X216026000Y-131580000D03*
X216026000Y-132540000D03*
%TD*%
D20*
%TO.C,IC6*%
X175400000Y-92650000D03*
X175400000Y-93600000D03*
X175400000Y-94550000D03*
X172800000Y-94550000D03*
X172800000Y-92650000D03*
%TD*%
D15*
%TO.C,C28*%
X205140000Y-57640000D03*
X205140000Y-58600000D03*
%TD*%
D18*
%TO.C,L4*%
X218435800Y-69773500D03*
X219405800Y-69773500D03*
%TD*%
D15*
%TO.C,C32*%
X217296000Y-98580000D03*
X217296000Y-99540000D03*
%TD*%
D22*
%TO.C,IC12*%
X208999166Y-88590000D03*
X207729166Y-88590000D03*
X206459166Y-88590000D03*
X205189166Y-88590000D03*
X205189166Y-83090000D03*
X206459166Y-83090000D03*
X207729166Y-83090000D03*
X208999166Y-83090000D03*
%TD*%
D23*
%TO.C,C31*%
X218591400Y-133576300D03*
X218591400Y-132616300D03*
%TD*%
D19*
%TO.C,C19*%
X169000000Y-46100000D03*
X169000000Y-44550000D03*
%TD*%
D14*
%TO.C,R6*%
X154240000Y-47940000D03*
X155260000Y-47940000D03*
%TD*%
D10*
%TO.C,D2*%
X145287500Y-134330000D03*
X143712500Y-134330000D03*
%TD*%
D12*
%TO.C,R25*%
X208021400Y-81240000D03*
X207001400Y-81240000D03*
%TD*%
D11*
%TO.C,C30*%
X218540600Y-101597500D03*
X219500600Y-101597500D03*
%TD*%
D21*
%TO.C,IC13*%
X219840000Y-129842500D03*
X218570000Y-129842500D03*
X217300000Y-129842500D03*
X216030000Y-129842500D03*
X216030000Y-124592500D03*
X217300000Y-124592500D03*
X218570000Y-124592500D03*
X219840000Y-124592500D03*
%TD*%
D23*
%TO.C,C31*%
X218491400Y-67736300D03*
X218491400Y-66776300D03*
%TD*%
D22*
%TO.C,IC12*%
X208999166Y-121590000D03*
X207729166Y-121590000D03*
X206459166Y-121590000D03*
X205189166Y-121590000D03*
X205189166Y-116090000D03*
X206459166Y-116090000D03*
X207729166Y-116090000D03*
X208999166Y-116090000D03*
%TD*%
D11*
%TO.C,C30*%
X218540600Y-134597500D03*
X219500600Y-134597500D03*
%TD*%
D12*
%TO.C,R25*%
X208021400Y-114240000D03*
X207001400Y-114240000D03*
%TD*%
D18*
%TO.C,L5*%
X218463600Y-65760300D03*
X219433600Y-65760300D03*
%TD*%
D23*
%TO.C,C31*%
X218591400Y-100576300D03*
X218591400Y-99616300D03*
%TD*%
D20*
%TO.C,IC14*%
X206540000Y-131440000D03*
X206540000Y-130490000D03*
X206540000Y-129540000D03*
X209140000Y-129540000D03*
X209140000Y-131440000D03*
%TD*%
D18*
%TO.C,L5*%
X218563600Y-131600300D03*
X219533600Y-131600300D03*
%TD*%
D20*
%TO.C,IC7*%
X164800000Y-94550000D03*
X164800000Y-93600000D03*
X164800000Y-92650000D03*
X167400000Y-92650000D03*
X167400000Y-94550000D03*
%TD*%
D21*
%TO.C,IC13*%
X219740000Y-64002500D03*
X218470000Y-64002500D03*
X217200000Y-64002500D03*
X215930000Y-64002500D03*
X215930000Y-58752500D03*
X217200000Y-58752500D03*
X218470000Y-58752500D03*
X219740000Y-58752500D03*
%TD*%
D15*
%TO.C,C32*%
X217196000Y-65740000D03*
X217196000Y-66700000D03*
%TD*%
D14*
%TO.C,R6*%
X154340000Y-96140000D03*
X155360000Y-96140000D03*
%TD*%
D20*
%TO.C,IC6*%
X175300000Y-44450000D03*
X175300000Y-45400000D03*
X175300000Y-46350000D03*
X172700000Y-46350000D03*
X172700000Y-44450000D03*
%TD*%
D22*
%TO.C,IC12*%
X208899166Y-55750000D03*
X207629166Y-55750000D03*
X206359166Y-55750000D03*
X205089166Y-55750000D03*
X205089166Y-50250000D03*
X206359166Y-50250000D03*
X207629166Y-50250000D03*
X208899166Y-50250000D03*
%TD*%
D19*
%TO.C,C36*%
X211040000Y-131415000D03*
X211040000Y-129865000D03*
%TD*%
D10*
%TO.C,D2*%
X145187500Y-86130000D03*
X143612500Y-86130000D03*
%TD*%
D13*
%TO.C,C34*%
X204740000Y-96615000D03*
X204740000Y-98165000D03*
%TD*%
D18*
%TO.C,L5*%
X218563600Y-98600300D03*
X219533600Y-98600300D03*
%TD*%
D17*
%TO.C,S3*%
X148000000Y-126080000D03*
X145500000Y-126080000D03*
X143000000Y-126080000D03*
X143000000Y-120080000D03*
X145500000Y-120080000D03*
X148000000Y-120080000D03*
%TD*%
D19*
%TO.C,C36*%
X211040000Y-98415000D03*
X211040000Y-96865000D03*
%TD*%
D13*
%TO.C,C18*%
X171110000Y-92660000D03*
X171110000Y-94210000D03*
%TD*%
M02*
