999
"DXF R12 Output" (www.mydxf.blogspot.com)
 0 
SECTION
 2 
HEADER
 9 
$ACADVER
 1 
AC1009
 9 
$EXTMIN
 10 
 0 
 20 
 0 
 9 
$EXTMAX
 10 
 8.5 
 20 
 11 
 0 
ENDSEC
 0 
SECTION
 2 
ENTITIES
0
LINE
8
Layer 1
10
1.749867
20
294.555396
11
31.523818
21
294.555396
0
LINE
8
Layer 1
10
31.523818
20
294.555396
11
31.523818
21
264.781445
0
LINE
8
Layer 1
10
31.523818
20
264.781445
11
1.749867
21
264.781445
0
LINE
8
Layer 1
10
1.749867
20
264.781445
11
1.749867
21
294.555396
0
LINE
8
Layer 1
10
11.115585
20
287.346469
11
14.665419
21
287.346469
0
LINE
8
Layer 1
10
14.665419
20
287.346469
11
15.715659
21
287.211421
0
LINE
8
Layer 1
10
15.715659
20
287.211421
11
16.647732
21
286.806277
0
LINE
8
Layer 1
10
16.647732
20
286.806277
11
17.461637
21
286.131037
0
LINE
8
Layer 1
10
17.461637
20
286.131037
11
18.157376
21
285.185701
0
LINE
8
Layer 1
10
18.157376
20
285.185701
11
18.651145
21
284.133652
0
LINE
8
Layer 1
10
18.651145
20
284.133652
11
19.003838
21
282.897119
0
LINE
8
Layer 1
10
19.003838
20
282.897119
11
19.215453
21
281.476099
0
LINE
8
Layer 1
10
19.215453
20
281.476099
11
19.285992
21
279.870595
0
LINE
8
Layer 1
10
19.285992
20
279.870595
11
19.195558
21
278.070357
0
LINE
8
Layer 1
10
19.195558
20
278.070357
11
18.924256
21
276.489571
0
LINE
8
Layer 1
10
18.924256
20
276.489571
11
18.472086
21
275.128238
0
LINE
8
Layer 1
10
18.472086
20
275.128238
11
17.839048
21
273.986359
0
LINE
8
Layer 1
10
17.839048
20
273.986359
11
17.206613
21
273.264696
0
LINE
8
Layer 1
10
17.206613
20
273.264696
11
16.466864
21
272.749222
0
LINE
8
Layer 1
10
16.466864
20
272.749222
11
15.619799
21
272.439938
0
LINE
8
Layer 1
10
15.619799
20
272.439938
11
14.665419
21
272.336843
0
LINE
8
Layer 1
10
14.665419
20
272.336843
11
11.115585
21
272.336843
0
LINE
8
Layer 1
10
11.115585
20
272.336843
11
11.115585
21
273.050669
0
LINE
8
Layer 1
10
11.115585
20
273.050669
11
11.848703
21
273.340058
0
LINE
8
Layer 1
10
11.848703
20
273.340058
11
12.041629
21
274.034590
0
LINE
8
Layer 1
10
12.041629
20
274.034590
11
12.041629
21
285.687308
0
LINE
8
Layer 1
10
12.041629
20
285.687308
11
11.986163
21
286.121391
0
LINE
8
Layer 1
10
11.986163
20
286.121391
11
11.819764
21
286.401133
0
LINE
8
Layer 1
10
11.819764
20
286.401133
11
11.115585
21
286.632644
0
LINE
8
Layer 1
10
11.115585
20
286.632644
11
11.115585
21
287.346469
0
LINE
8
Layer 1
10
13.324585
20
285.590845
11
13.324585
21
274.217870
0
LINE
8
Layer 1
10
13.324585
20
274.217870
11
13.498218
21
273.504044
0
LINE
8
Layer 1
10
13.498218
20
273.504044
11
14.192751
21
273.320765
0
LINE
8
Layer 1
10
14.192751
20
273.320765
11
14.723297
21
273.320765
0
LINE
8
Layer 1
10
14.723297
20
273.320765
11
15.428682
21
273.426874
0
LINE
8
Layer 1
10
15.428682
20
273.426874
11
16.049662
21
273.745202
0
LINE
8
Layer 1
10
16.049662
20
273.745202
11
16.586236
21
274.275748
0
LINE
8
Layer 1
10
16.586236
20
274.275748
11
17.038406
21
275.018512
0
LINE
8
Layer 1
10
17.038406
20
275.018512
11
17.401348
21
275.975303
0
LINE
8
Layer 1
10
17.401348
20
275.975303
11
17.660592
21
277.128637
0
LINE
8
Layer 1
10
17.660592
20
277.128637
11
17.867987
21
280.024936
0
LINE
8
Layer 1
10
17.867987
20
280.024936
11
17.757055
21
282.426862
0
LINE
8
Layer 1
10
17.757055
20
282.426862
11
17.424258
21
284.095670
0
LINE
8
Layer 1
10
17.424258
20
284.095670
11
16.962442
21
285.087429
0
LINE
8
Layer 1
10
16.962442
20
285.087429
11
16.348697
21
285.795829
0
LINE
8
Layer 1
10
16.348697
20
285.795829
11
15.583022
21
286.220868
0
LINE
8
Layer 1
10
15.583022
20
286.220868
11
14.665419
21
286.362548
0
LINE
8
Layer 1
10
14.665419
20
286.362548
11
14.076996
21
286.362548
0
LINE
8
Layer 1
10
14.076996
20
286.362548
11
13.478926
21
286.198561
0
LINE
8
Layer 1
10
13.478926
20
286.198561
11
13.324585
21
285.590845
0
LINE
8
Layer 1
10
13.324585
20
285.590845
11
13.324585
21
285.590845
 0 
ENDSEC
 0 
EOF