%TF.GenerationSoftware,KiCad,Pcbnew,7.0.5*%
%TF.CreationDate,2024-03-10T15:58:08+09:00*%
%TF.ProjectId,camera_exp,63616d65-7261-45f6-9578-702e6b696361,rev?*%
%TF.SameCoordinates,Original*%
%TF.FileFunction,Paste,Top*%
%TF.FilePolarity,Positive*%
%FSLAX46Y46*%
G04 Gerber Fmt 4.6, Leading zero omitted, Abs format (unit mm)*
G04 Created by KiCad (PCBNEW 7.0.5) date 2024-03-10 15:58:08*
%MOMM*%
%LPD*%
G01*
G04 APERTURE LIST*
G04 Aperture macros list*
%AMRoundRect*
0 Rectangle with rounded corners*
0 $1 Rounding radius*
0 $2 $3 $4 $5 $6 $7 $8 $9 X,Y pos of 4 corners*
0 Add a 4 corners polygon primitive as box body*
4,1,4,$2,$3,$4,$5,$6,$7,$8,$9,$2,$3,0*
0 Add four circle primitives for the rounded corners*
1,1,$1+$1,$2,$3*
1,1,$1+$1,$4,$5*
1,1,$1+$1,$6,$7*
1,1,$1+$1,$8,$9*
0 Add four rect primitives between the rounded corners*
20,1,$1+$1,$2,$3,$4,$5,0*
20,1,$1+$1,$4,$5,$6,$7,0*
20,1,$1+$1,$6,$7,$8,$9,0*
20,1,$1+$1,$8,$9,$2,$3,0*%
G04 Aperture macros list end*
%ADD10C,0.250000*%
%ADD11RoundRect,0.140000X0.170000X-0.140000X0.170000X0.140000X-0.170000X0.140000X-0.170000X-0.140000X0*%
%ADD12RoundRect,0.140000X-0.140000X-0.170000X0.140000X-0.170000X0.140000X0.170000X-0.140000X0.170000X0*%
%ADD13RoundRect,0.135000X0.135000X0.185000X-0.135000X0.185000X-0.135000X-0.185000X0.135000X-0.185000X0*%
%ADD14RoundRect,0.135000X-0.135000X-0.185000X0.135000X-0.185000X0.135000X0.185000X-0.135000X0.185000X0*%
G04 APERTURE END LIST*
D10*
%TO.C,U1*%
X90080000Y-44620000D03*
X90680000Y-44620000D03*
X91280000Y-44620000D03*
X91880000Y-44620000D03*
X92480000Y-44620000D03*
X93080000Y-44620000D03*
X93680000Y-44620000D03*
X94280000Y-44620000D03*
X94880000Y-44620000D03*
X90080000Y-45170000D03*
X90680000Y-45170000D03*
X91280000Y-45170000D03*
X91880000Y-45170000D03*
X92480000Y-45170000D03*
X93080000Y-45170000D03*
X93680000Y-45170000D03*
X94280000Y-45170000D03*
X94880000Y-45170000D03*
X90080000Y-45720000D03*
X90680000Y-45720000D03*
X91280000Y-45720000D03*
X91880000Y-45720000D03*
X94280000Y-45720000D03*
X94880000Y-45720000D03*
X90080000Y-46270000D03*
X90680000Y-46270000D03*
X91280000Y-46270000D03*
X91880000Y-46270000D03*
X92480000Y-46270000D03*
X93080000Y-46270000D03*
X93680000Y-46270000D03*
X94280000Y-46270000D03*
X94880000Y-46270000D03*
X90080000Y-46820000D03*
X90680000Y-46820000D03*
X91280000Y-46820000D03*
X91880000Y-46820000D03*
X92480000Y-46820000D03*
X93080000Y-46820000D03*
X93680000Y-46820000D03*
X94280000Y-46820000D03*
X94880000Y-46820000D03*
X90080000Y-47370000D03*
X90680000Y-47370000D03*
X91280000Y-47370000D03*
X91880000Y-47370000D03*
X92480000Y-47370000D03*
X93080000Y-47370000D03*
X93680000Y-47370000D03*
X94280000Y-47370000D03*
X94880000Y-47370000D03*
%TD*%
D11*
%TO.C,C14*%
X92500000Y-42780000D03*
X92500000Y-41820000D03*
%TD*%
D12*
%TO.C,C2*%
X97320000Y-46150000D03*
X98280000Y-46150000D03*
%TD*%
D11*
%TO.C,C8*%
X94700000Y-42780000D03*
X94700000Y-41820000D03*
%TD*%
D13*
%TO.C,R3*%
X102380000Y-55200000D03*
X103400000Y-55200000D03*
%TD*%
%TO.C,R2*%
X101200000Y-55200000D03*
X100180000Y-55200000D03*
%TD*%
D12*
%TO.C,C5*%
X97330000Y-43870000D03*
X98290000Y-43870000D03*
%TD*%
%TO.C,C18*%
X97320000Y-47250000D03*
X98280000Y-47250000D03*
%TD*%
%TO.C,C13*%
X97320000Y-48300000D03*
X98280000Y-48300000D03*
%TD*%
%TO.C,C7*%
X97320000Y-42700000D03*
X98280000Y-42700000D03*
%TD*%
D11*
%TO.C,C3*%
X93650000Y-42780000D03*
X93650000Y-41820000D03*
%TD*%
%TO.C,C19*%
X95800000Y-42780000D03*
X95800000Y-41820000D03*
%TD*%
D14*
%TO.C,R5*%
X84390000Y-54700000D03*
X85410000Y-54700000D03*
%TD*%
%TO.C,R4*%
X82490000Y-55200000D03*
X83510000Y-55200000D03*
%TD*%
D12*
%TO.C,C1*%
X97320000Y-45000000D03*
X98280000Y-45000000D03*
%TD*%
M02*
