%TF.GenerationSoftware,KiCad,Pcbnew,7.0.5*%
%TF.CreationDate,2024-03-10T15:58:08+09:00*%
%TF.ProjectId,camera_exp,63616d65-7261-45f6-9578-702e6b696361,rev?*%
%TF.SameCoordinates,Original*%
%TF.FileFunction,Copper,L4,Bot*%
%TF.FilePolarity,Positive*%
%FSLAX46Y46*%
G04 Gerber Fmt 4.6, Leading zero omitted, Abs format (unit mm)*
G04 Created by KiCad (PCBNEW 7.0.5) date 2024-03-10 15:58:08*
%MOMM*%
%LPD*%
G01*
G04 APERTURE LIST*
G04 Aperture macros list*
%AMRoundRect*
0 Rectangle with rounded corners*
0 $1 Rounding radius*
0 $2 $3 $4 $5 $6 $7 $8 $9 X,Y pos of 4 corners*
0 Add a 4 corners polygon primitive as box body*
4,1,4,$2,$3,$4,$5,$6,$7,$8,$9,$2,$3,0*
0 Add four circle primitives for the rounded corners*
1,1,$1+$1,$2,$3*
1,1,$1+$1,$4,$5*
1,1,$1+$1,$6,$7*
1,1,$1+$1,$8,$9*
0 Add four rect primitives between the rounded corners*
20,1,$1+$1,$2,$3,$4,$5,0*
20,1,$1+$1,$4,$5,$6,$7,0*
20,1,$1+$1,$6,$7,$8,$9,0*
20,1,$1+$1,$8,$9,$2,$3,0*%
G04 Aperture macros list end*
%TA.AperFunction,SMDPad,CuDef*%
%ADD10C,1.000000*%
%TD*%
%TA.AperFunction,ComponentPad*%
%ADD11R,1.700000X1.700000*%
%TD*%
%TA.AperFunction,ComponentPad*%
%ADD12O,1.700000X1.700000*%
%TD*%
%TA.AperFunction,SMDPad,CuDef*%
%ADD13RoundRect,0.140000X0.140000X0.170000X-0.140000X0.170000X-0.140000X-0.170000X0.140000X-0.170000X0*%
%TD*%
%TA.AperFunction,SMDPad,CuDef*%
%ADD14RoundRect,0.135000X-0.185000X0.135000X-0.185000X-0.135000X0.185000X-0.135000X0.185000X0.135000X0*%
%TD*%
%TA.AperFunction,SMDPad,CuDef*%
%ADD15RoundRect,0.140000X-0.170000X0.140000X-0.170000X-0.140000X0.170000X-0.140000X0.170000X0.140000X0*%
%TD*%
%TA.AperFunction,SMDPad,CuDef*%
%ADD16R,1.200000X0.600000*%
%TD*%
%TA.AperFunction,SMDPad,CuDef*%
%ADD17RoundRect,0.140000X-0.140000X-0.170000X0.140000X-0.170000X0.140000X0.170000X-0.140000X0.170000X0*%
%TD*%
%TA.AperFunction,SMDPad,CuDef*%
%ADD18RoundRect,0.140000X0.170000X-0.140000X0.170000X0.140000X-0.170000X0.140000X-0.170000X-0.140000X0*%
%TD*%
%TA.AperFunction,ViaPad*%
%ADD19C,0.450000*%
%TD*%
%TA.AperFunction,ViaPad*%
%ADD20C,0.700000*%
%TD*%
%TA.AperFunction,Conductor*%
%ADD21C,0.200000*%
%TD*%
%TA.AperFunction,Conductor*%
%ADD22C,0.350000*%
%TD*%
%TA.AperFunction,Conductor*%
%ADD23C,0.150000*%
%TD*%
%TA.AperFunction,Conductor*%
%ADD24C,0.300000*%
%TD*%
G04 APERTURE END LIST*
D10*
%TO.P,TP5,1,1*%
%TO.N,/VR*%
X93400000Y-39500000D03*
%TD*%
%TO.P,TP4,1,1*%
%TO.N,+2V8*%
X86200000Y-48600000D03*
%TD*%
%TO.P,TP3,1,1*%
%TO.N,/DVDD*%
X96300000Y-42200000D03*
%TD*%
%TO.P,TP2,1,1*%
%TO.N,+1V8*%
X89300000Y-48300000D03*
%TD*%
%TO.P,TP1,1,1*%
%TO.N,GND*%
X96700000Y-39600000D03*
%TD*%
D11*
%TO.P,J1,1,Pin_1*%
%TO.N,/DVP_0*%
X102620000Y-57560000D03*
D12*
%TO.P,J1,2,Pin_2*%
%TO.N,/DVP_1*%
X102620000Y-60100000D03*
%TO.P,J1,3,Pin_3*%
%TO.N,/DVP_2*%
X100080000Y-57560000D03*
%TO.P,J1,4,Pin_4*%
%TO.N,/DVP_3*%
X100080000Y-60100000D03*
%TO.P,J1,5,Pin_5*%
%TO.N,/DVP_4*%
X97540000Y-57560000D03*
%TO.P,J1,6,Pin_6*%
%TO.N,/DVP_5*%
X97540000Y-60100000D03*
%TO.P,J1,7,Pin_7*%
%TO.N,/DVP_6*%
X95000000Y-57560000D03*
%TO.P,J1,8,Pin_8*%
%TO.N,/DVP_7*%
X95000000Y-60100000D03*
%TO.P,J1,9,Pin_9*%
%TO.N,/DVP_8*%
X92460000Y-57560000D03*
%TO.P,J1,10,Pin_10*%
%TO.N,/DVP_9*%
X92460000Y-60100000D03*
%TO.P,J1,11,Pin_11*%
%TO.N,/VSYNC*%
X89920000Y-57560000D03*
%TO.P,J1,12,Pin_12*%
%TO.N,/HREF*%
X89920000Y-60100000D03*
%TO.P,J1,13,Pin_13*%
%TO.N,/PCLK*%
X87380000Y-57560000D03*
%TO.P,J1,14,Pin_14*%
%TO.N,/EXCLK*%
X87380000Y-60100000D03*
%TO.P,J1,15,Pin_15*%
%TO.N,/SDA*%
X84840000Y-57560000D03*
%TO.P,J1,16,Pin_16*%
%TO.N,/SCL*%
X84840000Y-60100000D03*
%TO.P,J1,17,Pin_17*%
%TO.N,+3V3*%
X82300000Y-57560000D03*
%TO.P,J1,18,Pin_18*%
%TO.N,GND*%
X82300000Y-60100000D03*
%TD*%
D13*
%TO.P,C11,1*%
%TO.N,/DVDD*%
X88280000Y-43300000D03*
%TO.P,C11,2*%
%TO.N,GND*%
X87320000Y-43300000D03*
%TD*%
D14*
%TO.P,R1,1*%
%TO.N,+2V8*%
X92500000Y-41800000D03*
%TO.P,R1,2*%
%TO.N,/RSTB*%
X92500000Y-42820000D03*
%TD*%
D15*
%TO.P,C22,1*%
%TO.N,+3V3*%
X81200000Y-43620000D03*
%TO.P,C22,2*%
%TO.N,GND*%
X81200000Y-44580000D03*
%TD*%
D13*
%TO.P,C20,1*%
%TO.N,+3V3*%
X86780000Y-42100000D03*
%TO.P,C20,2*%
%TO.N,GND*%
X85820000Y-42100000D03*
%TD*%
D16*
%TO.P,IC1,1,VIN*%
%TO.N,+3V3*%
X82700000Y-45550000D03*
%TO.P,IC1,2,VSS*%
%TO.N,GND*%
X82700000Y-44600000D03*
%TO.P,IC1,3,CE*%
%TO.N,+3V3*%
X82700000Y-43650000D03*
%TO.P,IC1,4,NC*%
%TO.N,unconnected-(IC1-NC-Pad4)*%
X85300000Y-43650000D03*
%TO.P,IC1,5,VOUT*%
%TO.N,+2V8*%
X85300000Y-45550000D03*
%TD*%
D13*
%TO.P,C21,1*%
%TO.N,+2V8*%
X85360000Y-47000000D03*
%TO.P,C21,2*%
%TO.N,GND*%
X84400000Y-47000000D03*
%TD*%
D16*
%TO.P,IC2,1,VIN*%
%TO.N,+3V3*%
X86800000Y-40450000D03*
%TO.P,IC2,2,VSS*%
%TO.N,GND*%
X86800000Y-39500000D03*
%TO.P,IC2,3,CE*%
%TO.N,+3V3*%
X86800000Y-38550000D03*
%TO.P,IC2,4,NC*%
%TO.N,unconnected-(IC2-NC-Pad4)*%
X89400000Y-38550000D03*
%TO.P,IC2,5,VOUT*%
%TO.N,+1V8*%
X89400000Y-40450000D03*
%TD*%
D17*
%TO.P,C15,1*%
%TO.N,+2V8*%
X97320000Y-47200000D03*
%TO.P,C15,2*%
%TO.N,GND*%
X98280000Y-47200000D03*
%TD*%
D18*
%TO.P,C10,1*%
%TO.N,/DVDD*%
X94700000Y-42780000D03*
%TO.P,C10,2*%
%TO.N,GND*%
X94700000Y-41820000D03*
%TD*%
D13*
%TO.P,C9,2*%
%TO.N,GND*%
X87320000Y-45500000D03*
%TO.P,C9,1*%
%TO.N,/DVDD*%
X88280000Y-45500000D03*
%TD*%
D18*
%TO.P,C4,2*%
%TO.N,GND*%
X91400000Y-41840000D03*
%TO.P,C4,1*%
%TO.N,/RSTB*%
X91400000Y-42800000D03*
%TD*%
%TO.P,C17,1*%
%TO.N,+2V8*%
X90200000Y-42780000D03*
%TO.P,C17,2*%
%TO.N,GND*%
X90200000Y-41820000D03*
%TD*%
D13*
%TO.P,C6,1*%
%TO.N,+1V8*%
X88280000Y-46600000D03*
%TO.P,C6,2*%
%TO.N,GND*%
X87320000Y-46600000D03*
%TD*%
D18*
%TO.P,C23,2*%
%TO.N,GND*%
X91000000Y-39420000D03*
%TO.P,C23,1*%
%TO.N,+1V8*%
X91000000Y-40380000D03*
%TD*%
D13*
%TO.P,C12,1*%
%TO.N,/DVDD*%
X88280000Y-44400000D03*
%TO.P,C12,2*%
%TO.N,GND*%
X87320000Y-44400000D03*
%TD*%
D18*
%TO.P,C16,1*%
%TO.N,+2V8*%
X93650000Y-42780000D03*
%TO.P,C16,2*%
%TO.N,GND*%
X93650000Y-41820000D03*
%TD*%
D19*
%TO.N,GND*%
X87310000Y-46590000D03*
%TO.N,/SCL*%
X85410000Y-55480000D03*
%TO.N,/DVP_9*%
X90520000Y-55170000D03*
%TO.N,/DVP_6*%
X90170000Y-54090000D03*
%TO.N,+2V8*%
X90830000Y-43780000D03*
%TO.N,+1V8*%
X88700000Y-46590000D03*
%TO.N,/DVDD*%
X89370000Y-46110000D03*
%TO.N,GND*%
X91150000Y-48360000D03*
X93910000Y-47910000D03*
X93050000Y-44190000D03*
X95000000Y-44230000D03*
%TO.N,/DVDD*%
X94270000Y-44170000D03*
%TO.N,GND*%
X93750000Y-45720000D03*
%TO.N,/RSTB*%
X90921578Y-42602637D03*
D20*
%TO.N,/VR*%
X93500000Y-39300000D03*
%TO.N,+2V8*%
X103800000Y-55800000D03*
X101600000Y-55800000D03*
X81900000Y-54700000D03*
X83800000Y-54200000D03*
%TO.N,GND*%
X87800000Y-41500000D03*
X83500000Y-47500000D03*
X84201728Y-50798272D03*
X81434500Y-50200000D03*
X81500000Y-47500000D03*
X81000000Y-59000000D03*
X81000000Y-61000000D03*
X91000000Y-53000000D03*
X100080000Y-51490000D03*
X104000000Y-52000000D03*
X100000000Y-45000000D03*
X100000000Y-48000000D03*
X104000000Y-48000000D03*
X104000000Y-45000000D03*
X100000000Y-42000000D03*
X104000000Y-42000000D03*
X104000000Y-38000000D03*
X100000000Y-38000000D03*
X97000000Y-38000000D03*
X91000000Y-38000000D03*
X85000000Y-38000000D03*
X81000000Y-38000000D03*
X81000000Y-42000000D03*
%TO.N,+2V8*%
X89300000Y-42300000D03*
X96200000Y-47250000D03*
X84300000Y-45500000D03*
X85300000Y-44800000D03*
%TO.N,+1V8*%
X90400000Y-40450000D03*
X96700000Y-43870000D03*
%TO.N,GND*%
X85800000Y-39200000D03*
%TO.N,+2V8*%
X92511128Y-43570628D03*
%TO.N,/DVDD*%
X96500000Y-48330000D03*
X94520000Y-48570000D03*
%TO.N,/EXCLK*%
X92728200Y-48521800D03*
%TD*%
D21*
%TO.N,/DVDD*%
X93830000Y-46370000D02*
X93550000Y-46370000D01*
X94270000Y-45930000D02*
X93830000Y-46370000D01*
X94270000Y-44170000D02*
X94270000Y-45930000D01*
X89500000Y-46200000D02*
X89400000Y-46100000D01*
X93380000Y-46200000D02*
X89500000Y-46200000D01*
X89400000Y-46100000D02*
X89380000Y-46100000D01*
X89380000Y-46100000D02*
X89370000Y-46110000D01*
X93550000Y-46370000D02*
X93380000Y-46200000D01*
X93550000Y-46913603D02*
X93550000Y-46370000D01*
D22*
%TO.N,GND*%
X87310000Y-46590000D02*
X87320000Y-46600000D01*
D21*
%TO.N,/DVDD*%
X88100000Y-45410000D02*
X88280000Y-45400000D01*
D23*
%TO.N,/DVP_9*%
X91300000Y-55950000D02*
X91300000Y-58940000D01*
X91300000Y-58940000D02*
X92460000Y-60100000D01*
X90520000Y-55170000D02*
X91300000Y-55950000D01*
%TO.N,/DVP_6*%
X90180000Y-54100000D02*
X91540000Y-54100000D01*
X90170000Y-54090000D02*
X90180000Y-54100000D01*
X90160000Y-54100000D02*
X90170000Y-54090000D01*
D21*
%TO.N,+2V8*%
X90820000Y-43780000D02*
X90200000Y-43160000D01*
X90830000Y-43780000D02*
X90820000Y-43780000D01*
X90830000Y-43790000D02*
X90830000Y-43780000D01*
%TO.N,/DVDD*%
X89360000Y-46100000D02*
X88980000Y-46100000D01*
X89370000Y-46110000D02*
X89360000Y-46100000D01*
%TO.N,+1V8*%
X88700000Y-46600000D02*
X88280000Y-46600000D01*
%TO.N,/RSTB*%
X92500000Y-42820000D02*
X91420000Y-42820000D01*
X91420000Y-42820000D02*
X91400000Y-42800000D01*
X90921578Y-42602637D02*
X91202637Y-42602637D01*
X91202637Y-42602637D02*
X91400000Y-42800000D01*
%TO.N,+2V8*%
X90200000Y-43160000D02*
X90200000Y-42780000D01*
X90840000Y-43800000D02*
X90830000Y-43790000D01*
%TO.N,GND*%
X93700000Y-48100000D02*
X93600000Y-48100000D01*
X93900000Y-47900000D02*
X93700000Y-48100000D01*
X91900000Y-47600000D02*
X91150000Y-48350000D01*
X93900000Y-47900000D02*
X93600000Y-47600000D01*
X93600000Y-47600000D02*
X91900000Y-47600000D01*
D22*
X81434500Y-50200000D02*
X81475000Y-50159500D01*
X81475000Y-47525000D02*
X81500000Y-47500000D01*
X81475000Y-50159500D02*
X81475000Y-47525000D01*
D21*
%TO.N,+1V8*%
X89300000Y-48300000D02*
X89300000Y-47620000D01*
X89300000Y-47620000D02*
X88280000Y-46600000D01*
D22*
%TO.N,GND*%
X94700000Y-41600000D02*
X96700000Y-39600000D01*
X94700000Y-41820000D02*
X94700000Y-41600000D01*
X93650000Y-41820000D02*
X94700000Y-41820000D01*
X90220000Y-41840000D02*
X90200000Y-41820000D01*
X91400000Y-41840000D02*
X90220000Y-41840000D01*
X85820000Y-39530000D02*
X85850000Y-39500000D01*
X85820000Y-42100000D02*
X85820000Y-39530000D01*
X85850000Y-39500000D02*
X86800000Y-39500000D01*
X87400000Y-43620000D02*
X87400000Y-41900000D01*
X87320000Y-43700000D02*
X87400000Y-43620000D01*
X87400000Y-41900000D02*
X87800000Y-41500000D01*
X88980000Y-39420000D02*
X91000000Y-39420000D01*
X87800000Y-40600000D02*
X88980000Y-39420000D01*
X87800000Y-41300000D02*
X87800000Y-40600000D01*
X87800000Y-41300000D02*
X87800000Y-41500000D01*
X87320000Y-43700000D02*
X87310000Y-46590000D01*
X87320000Y-43300000D02*
X87320000Y-43700000D01*
X81220000Y-44600000D02*
X81200000Y-44580000D01*
X82700000Y-44600000D02*
X81220000Y-44600000D01*
X81900000Y-60100000D02*
X81000000Y-61000000D01*
X82300000Y-60100000D02*
X81900000Y-60100000D01*
X82300000Y-60100000D02*
X82100000Y-60100000D01*
X82100000Y-60100000D02*
X81000000Y-59000000D01*
%TO.N,+3V3*%
X82570000Y-45680000D02*
X82700000Y-45550000D01*
X81700000Y-45680000D02*
X82570000Y-45680000D01*
X80810000Y-46570000D02*
X81700000Y-45680000D01*
X80810000Y-56070000D02*
X80810000Y-46570000D01*
X82300000Y-57560000D02*
X80810000Y-56070000D01*
D23*
%TO.N,/EXCLK*%
X88750000Y-53700000D02*
X88750000Y-58730000D01*
X92728200Y-49721800D02*
X88750000Y-53700000D01*
X92728200Y-48521800D02*
X92728200Y-49721800D01*
X88750000Y-58730000D02*
X87380000Y-60100000D01*
D24*
%TO.N,+3V3*%
X83150000Y-45550000D02*
X82700000Y-45550000D01*
X83150000Y-43650000D02*
X83700000Y-44200000D01*
X83700000Y-45000000D02*
X83150000Y-45550000D01*
X82700000Y-43650000D02*
X83150000Y-43650000D01*
X83700000Y-44200000D02*
X83700000Y-45000000D01*
D22*
%TO.N,+2V8*%
X89780000Y-42780000D02*
X89300000Y-42300000D01*
X90200000Y-42780000D02*
X89780000Y-42780000D01*
X96200000Y-47250000D02*
X97270000Y-47250000D01*
X97270000Y-47250000D02*
X97320000Y-47200000D01*
X84350000Y-45550000D02*
X84300000Y-45500000D01*
X85300000Y-45550000D02*
X84350000Y-45550000D01*
X85300000Y-45550000D02*
X85300000Y-44800000D01*
%TO.N,+1V8*%
X89400000Y-40450000D02*
X90400000Y-40450000D01*
X90400000Y-40450000D02*
X90930000Y-40450000D01*
X90930000Y-40450000D02*
X91000000Y-40380000D01*
%TO.N,GND*%
X86100000Y-39500000D02*
X85800000Y-39200000D01*
X86800000Y-39500000D02*
X86100000Y-39500000D01*
%TO.N,+3V3*%
X87300000Y-38550000D02*
X86800000Y-38550000D01*
X87675000Y-38925000D02*
X87300000Y-38550000D01*
X87675000Y-40075000D02*
X87675000Y-38925000D01*
X87300000Y-40450000D02*
X87675000Y-40075000D01*
X86800000Y-40450000D02*
X87300000Y-40450000D01*
X86780000Y-40470000D02*
X86800000Y-40450000D01*
X86780000Y-42100000D02*
X86780000Y-40470000D01*
X83275000Y-43075000D02*
X85805000Y-43075000D01*
X85805000Y-43075000D02*
X86780000Y-42100000D01*
X82700000Y-43650000D02*
X83275000Y-43075000D01*
X82700000Y-43650000D02*
X81230000Y-43650000D01*
%TO.N,+2V8*%
X85300000Y-47700000D02*
X86200000Y-48600000D01*
X85300000Y-45550000D02*
X85300000Y-47700000D01*
D21*
%TO.N,/DVDD*%
X95280000Y-42200000D02*
X94700000Y-42780000D01*
X96300000Y-42200000D02*
X95280000Y-42200000D01*
X94250000Y-44250000D02*
X94250000Y-43230000D01*
X94250000Y-43230000D02*
X94700000Y-42780000D01*
%TO.N,+2V8*%
X93420000Y-42780000D02*
X92900000Y-43300000D01*
X92900000Y-43300000D02*
X93020000Y-43180000D01*
X92629372Y-43570628D02*
X92900000Y-43300000D01*
X93650000Y-42780000D02*
X93420000Y-42780000D01*
X93020000Y-43180000D02*
X93020000Y-42320000D01*
X92511128Y-43570628D02*
X92629372Y-43570628D01*
X93020000Y-42320000D02*
X92500000Y-41800000D01*
%TO.N,/DVDD*%
X94520000Y-47883603D02*
X93550000Y-46913603D01*
X94520000Y-48570000D02*
X94520000Y-47883603D01*
X88280000Y-44400000D02*
X88280000Y-43300000D01*
X88280000Y-44200000D02*
X88280000Y-45400000D01*
X88980000Y-46100000D02*
X88100000Y-45410000D01*
X96260000Y-48570000D02*
X96500000Y-48330000D01*
X94520000Y-48570000D02*
X96260000Y-48570000D01*
D23*
%TO.N,/SCL*%
X86050000Y-58890000D02*
X84840000Y-60100000D01*
X86050000Y-56150000D02*
X86050000Y-58890000D01*
X85400000Y-55500000D02*
X86050000Y-56150000D01*
%TO.N,/DVP_6*%
X91540000Y-54100000D02*
X95000000Y-57560000D01*
X90150000Y-54100000D02*
X90160000Y-54100000D01*
%TD*%
%TA.AperFunction,Conductor*%
%TO.N,GND*%
G36*
X80705703Y-56921450D02*
G01*
X80712181Y-56927482D01*
X80944819Y-57160120D01*
X80978304Y-57221443D01*
X80976913Y-57279893D01*
X80964939Y-57324583D01*
X80964936Y-57324596D01*
X80944341Y-57559999D01*
X80944341Y-57560000D01*
X80964936Y-57795403D01*
X80964938Y-57795413D01*
X81026094Y-58023655D01*
X81026096Y-58023659D01*
X81026097Y-58023663D01*
X81030000Y-58032032D01*
X81125965Y-58237830D01*
X81125967Y-58237834D01*
X81234281Y-58392521D01*
X81261504Y-58431400D01*
X81261506Y-58431402D01*
X81428597Y-58598493D01*
X81428603Y-58598498D01*
X81614594Y-58728730D01*
X81658219Y-58783307D01*
X81665413Y-58852805D01*
X81633890Y-58915160D01*
X81614595Y-58931880D01*
X81428922Y-59061890D01*
X81428920Y-59061891D01*
X81261891Y-59228920D01*
X81261886Y-59228926D01*
X81126400Y-59422420D01*
X81126399Y-59422422D01*
X81026570Y-59636507D01*
X81026567Y-59636513D01*
X80969364Y-59849999D01*
X80969364Y-59850000D01*
X81866314Y-59850000D01*
X81840507Y-59890156D01*
X81800000Y-60028111D01*
X81800000Y-60171889D01*
X81840507Y-60309844D01*
X81866314Y-60350000D01*
X80969364Y-60350000D01*
X81026567Y-60563486D01*
X81026570Y-60563492D01*
X81126399Y-60777578D01*
X81261894Y-60971082D01*
X81428917Y-61138105D01*
X81622886Y-61273925D01*
X81666511Y-61328503D01*
X81673703Y-61398001D01*
X81642181Y-61460356D01*
X81581951Y-61495769D01*
X81551762Y-61499500D01*
X80624500Y-61499500D01*
X80557461Y-61479815D01*
X80511706Y-61427011D01*
X80500500Y-61375500D01*
X80500500Y-57015163D01*
X80520185Y-56948124D01*
X80572989Y-56902369D01*
X80642147Y-56892425D01*
X80705703Y-56921450D01*
G37*
%TD.AperFunction*%
%TA.AperFunction,Conductor*%
G36*
X87442539Y-43069685D02*
G01*
X87488294Y-43122489D01*
X87499500Y-43174000D01*
X87499500Y-43534697D01*
X87502356Y-43570991D01*
X87502357Y-43570997D01*
X87547503Y-43726389D01*
X87547505Y-43726393D01*
X87547506Y-43726395D01*
X87552732Y-43735233D01*
X87570000Y-43798352D01*
X87570000Y-43901645D01*
X87552734Y-43964763D01*
X87547507Y-43973600D01*
X87547504Y-43973608D01*
X87502357Y-44129002D01*
X87502356Y-44129008D01*
X87499500Y-44165302D01*
X87499500Y-44634697D01*
X87502356Y-44670991D01*
X87502357Y-44670997D01*
X87547503Y-44826389D01*
X87547505Y-44826393D01*
X87547506Y-44826395D01*
X87552732Y-44835233D01*
X87570000Y-44898352D01*
X87570000Y-45001645D01*
X87552734Y-45064763D01*
X87547507Y-45073600D01*
X87547504Y-45073608D01*
X87502357Y-45229002D01*
X87502356Y-45229008D01*
X87499500Y-45265302D01*
X87499500Y-45385004D01*
X87499324Y-45389676D01*
X87495250Y-45443598D01*
X87496643Y-45450981D01*
X87498783Y-45475248D01*
X87498704Y-45482768D01*
X87499050Y-45485621D01*
X87499500Y-45493079D01*
X87499500Y-45734697D01*
X87502356Y-45770991D01*
X87502357Y-45770997D01*
X87547503Y-45926389D01*
X87547505Y-45926393D01*
X87547506Y-45926395D01*
X87552732Y-45935233D01*
X87570000Y-45998352D01*
X87570000Y-46101645D01*
X87552734Y-46164763D01*
X87547507Y-46173600D01*
X87547504Y-46173608D01*
X87502357Y-46329002D01*
X87502356Y-46329008D01*
X87499500Y-46365302D01*
X87499500Y-46834697D01*
X87502356Y-46870991D01*
X87502357Y-46870997D01*
X87547503Y-47026389D01*
X87547505Y-47026393D01*
X87547506Y-47026395D01*
X87552732Y-47035233D01*
X87570000Y-47098352D01*
X87570000Y-47404503D01*
X87716194Y-47362032D01*
X87736384Y-47350091D01*
X87804108Y-47332906D01*
X87862629Y-47350089D01*
X87883605Y-47362494D01*
X87905761Y-47368931D01*
X88039002Y-47407642D01*
X88039005Y-47407642D01*
X88039007Y-47407643D01*
X88075310Y-47410500D01*
X88189903Y-47410500D01*
X88256942Y-47430185D01*
X88277584Y-47446819D01*
X88436727Y-47605962D01*
X88470212Y-47667285D01*
X88465228Y-47736977D01*
X88458405Y-47752096D01*
X88382972Y-47893223D01*
X88371186Y-47915273D01*
X88354743Y-47969478D01*
X88313975Y-48103870D01*
X88294659Y-48300000D01*
X88313975Y-48496129D01*
X88371188Y-48684733D01*
X88464086Y-48858532D01*
X88464090Y-48858539D01*
X88589116Y-49010883D01*
X88741460Y-49135909D01*
X88741467Y-49135913D01*
X88915266Y-49228811D01*
X88915269Y-49228811D01*
X88915273Y-49228814D01*
X89103868Y-49286024D01*
X89300000Y-49305341D01*
X89496132Y-49286024D01*
X89684727Y-49228814D01*
X89728302Y-49205523D01*
X89816215Y-49158532D01*
X89858538Y-49135910D01*
X90010883Y-49010883D01*
X90135910Y-48858538D01*
X90195099Y-48747803D01*
X90228811Y-48684733D01*
X90228811Y-48684732D01*
X90228814Y-48684727D01*
X90286024Y-48496132D01*
X90305341Y-48300000D01*
X90286024Y-48103868D01*
X90228814Y-47915273D01*
X90228811Y-47915269D01*
X90228811Y-47915266D01*
X90135913Y-47741467D01*
X90135909Y-47741460D01*
X90010883Y-47589116D01*
X89923238Y-47517188D01*
X89887342Y-47468787D01*
X89881764Y-47455321D01*
X89824536Y-47317159D01*
X89794428Y-47277921D01*
X89728282Y-47191718D01*
X89700005Y-47170020D01*
X89693904Y-47164669D01*
X89541416Y-47012181D01*
X89507931Y-46950858D01*
X89512915Y-46881166D01*
X89554787Y-46825233D01*
X89620251Y-46800816D01*
X89629097Y-46800500D01*
X92820683Y-46800500D01*
X92887722Y-46820185D01*
X92933477Y-46872989D01*
X92943622Y-46908315D01*
X92949500Y-46952964D01*
X92964955Y-47070363D01*
X92964956Y-47070365D01*
X93005210Y-47167548D01*
X93025464Y-47216444D01*
X93121718Y-47341885D01*
X93149995Y-47363583D01*
X93156085Y-47368923D01*
X93464884Y-47677722D01*
X93770508Y-47983346D01*
X93803993Y-48044669D01*
X93799009Y-48114361D01*
X93790217Y-48133020D01*
X93754974Y-48194064D01*
X93741299Y-48217750D01*
X93690731Y-48265965D01*
X93622124Y-48279187D01*
X93557260Y-48253219D01*
X93516732Y-48196305D01*
X93515998Y-48194119D01*
X93509450Y-48173965D01*
X93420059Y-48019135D01*
X93365571Y-47958620D01*
X93300435Y-47886278D01*
X93300432Y-47886276D01*
X93300431Y-47886275D01*
X93300430Y-47886274D01*
X93155793Y-47781188D01*
X92992467Y-47708471D01*
X92992465Y-47708470D01*
X92847804Y-47677722D01*
X92817591Y-47671300D01*
X92638809Y-47671300D01*
X92608596Y-47677722D01*
X92463933Y-47708470D01*
X92463928Y-47708472D01*
X92300608Y-47781187D01*
X92155968Y-47886275D01*
X92036340Y-48019136D01*
X91946950Y-48173964D01*
X91946947Y-48173970D01*
X91891704Y-48343992D01*
X91891703Y-48343994D01*
X91873015Y-48521800D01*
X91891703Y-48699605D01*
X91891704Y-48699607D01*
X91946947Y-48869629D01*
X91946950Y-48869635D01*
X92036338Y-49024461D01*
X92036339Y-49024462D01*
X92036341Y-49024465D01*
X92120851Y-49118322D01*
X92151080Y-49181312D01*
X92152700Y-49201293D01*
X92152700Y-49432057D01*
X92133015Y-49499096D01*
X92116381Y-49519738D01*
X88372608Y-53263510D01*
X88366507Y-53268861D01*
X88339550Y-53289548D01*
X88315133Y-53321367D01*
X88315132Y-53321366D01*
X88265024Y-53386671D01*
X88247300Y-53409768D01*
X88189313Y-53549763D01*
X88189313Y-53549764D01*
X88173968Y-53666315D01*
X88173969Y-53666316D01*
X88173711Y-53668278D01*
X88169535Y-53700000D01*
X88172511Y-53722609D01*
X88173969Y-53733678D01*
X88174500Y-53741780D01*
X88174500Y-56245728D01*
X88154815Y-56312767D01*
X88102011Y-56358522D01*
X88032853Y-56368466D01*
X87998095Y-56358110D01*
X87964499Y-56342444D01*
X87843663Y-56286097D01*
X87843659Y-56286096D01*
X87843655Y-56286094D01*
X87615413Y-56224938D01*
X87615403Y-56224936D01*
X87380001Y-56204341D01*
X87379999Y-56204341D01*
X87144596Y-56224936D01*
X87144586Y-56224938D01*
X86916344Y-56286094D01*
X86916337Y-56286096D01*
X86916337Y-56286097D01*
X86859144Y-56312767D01*
X86801905Y-56339458D01*
X86732827Y-56349950D01*
X86669043Y-56321430D01*
X86630804Y-56262954D01*
X86625500Y-56227076D01*
X86625500Y-56191786D01*
X86626031Y-56183685D01*
X86626297Y-56181669D01*
X86630466Y-56150000D01*
X86610687Y-55999765D01*
X86552699Y-55859767D01*
X86483612Y-55769732D01*
X86483611Y-55769731D01*
X86481141Y-55766512D01*
X86481141Y-55766513D01*
X86460451Y-55739549D01*
X86460449Y-55739547D01*
X86460448Y-55739546D01*
X86445619Y-55728167D01*
X86433490Y-55718861D01*
X86427400Y-55713520D01*
X86163941Y-55450061D01*
X86130456Y-55388738D01*
X86128404Y-55376279D01*
X86121786Y-55317539D01*
X86121785Y-55317536D01*
X86121784Y-55317531D01*
X86067790Y-55163227D01*
X86067789Y-55163225D01*
X85980808Y-55024796D01*
X85865204Y-54909192D01*
X85794488Y-54864758D01*
X85726774Y-54822210D01*
X85580837Y-54771145D01*
X85572461Y-54768214D01*
X85572460Y-54768213D01*
X85572455Y-54768212D01*
X85410004Y-54749909D01*
X85409996Y-54749909D01*
X85247544Y-54768212D01*
X85093225Y-54822210D01*
X84954795Y-54909192D01*
X84839192Y-55024795D01*
X84752210Y-55163225D01*
X84698212Y-55317544D01*
X84679909Y-55479996D01*
X84679909Y-55480003D01*
X84698212Y-55642455D01*
X84752210Y-55796774D01*
X84839192Y-55935204D01*
X84898709Y-55994721D01*
X84932194Y-56056044D01*
X84927210Y-56125736D01*
X84885338Y-56181669D01*
X84821836Y-56205930D01*
X84604596Y-56224936D01*
X84604586Y-56224938D01*
X84376344Y-56286094D01*
X84376335Y-56286098D01*
X84162171Y-56385964D01*
X84162169Y-56385965D01*
X83968597Y-56521505D01*
X83801505Y-56688597D01*
X83671575Y-56874158D01*
X83616998Y-56917783D01*
X83547500Y-56924977D01*
X83485145Y-56893454D01*
X83468425Y-56874158D01*
X83338494Y-56688597D01*
X83171402Y-56521506D01*
X83171395Y-56521501D01*
X82977834Y-56385967D01*
X82977830Y-56385965D01*
X82928978Y-56363185D01*
X82763663Y-56286097D01*
X82763659Y-56286096D01*
X82763655Y-56286094D01*
X82535413Y-56224938D01*
X82535403Y-56224936D01*
X82300001Y-56204341D01*
X82299999Y-56204341D01*
X82064596Y-56224936D01*
X82064583Y-56224939D01*
X82019893Y-56236913D01*
X81950043Y-56235249D01*
X81900120Y-56204819D01*
X81521819Y-55826517D01*
X81488334Y-55765194D01*
X81485500Y-55738836D01*
X81485500Y-55634523D01*
X81505185Y-55567484D01*
X81557989Y-55521729D01*
X81627147Y-55511785D01*
X81635281Y-55513233D01*
X81675252Y-55521729D01*
X81810609Y-55550500D01*
X81810610Y-55550500D01*
X81989389Y-55550500D01*
X81989391Y-55550500D01*
X82164267Y-55513329D01*
X82327593Y-55440612D01*
X82472230Y-55335526D01*
X82474996Y-55332455D01*
X82498148Y-55306741D01*
X82591859Y-55202665D01*
X82681250Y-55047835D01*
X82736497Y-54877803D01*
X82755185Y-54700000D01*
X82736497Y-54522197D01*
X82689581Y-54377805D01*
X82681252Y-54352170D01*
X82681249Y-54352164D01*
X82591859Y-54197335D01*
X82545003Y-54145296D01*
X82472235Y-54064478D01*
X82472232Y-54064476D01*
X82472231Y-54064475D01*
X82472230Y-54064474D01*
X82327593Y-53959388D01*
X82164267Y-53886671D01*
X82164265Y-53886670D01*
X82001952Y-53852170D01*
X81989391Y-53849500D01*
X81810609Y-53849500D01*
X81810607Y-53849500D01*
X81635280Y-53886766D01*
X81565613Y-53881450D01*
X81509880Y-53839312D01*
X81485775Y-53773732D01*
X81485500Y-53765476D01*
X81485500Y-52505867D01*
X81505185Y-52438828D01*
X81557989Y-52393073D01*
X81627147Y-52383129D01*
X81690703Y-52412154D01*
X81723035Y-52459116D01*
X81723809Y-52458756D01*
X81725955Y-52463358D01*
X81726021Y-52463454D01*
X81726096Y-52463661D01*
X81825964Y-52677828D01*
X81825965Y-52677830D01*
X81961505Y-52871402D01*
X82128597Y-53038494D01*
X82322169Y-53174034D01*
X82322171Y-53174035D01*
X82536337Y-53273903D01*
X82764592Y-53335063D01*
X82941032Y-53350499D01*
X82941033Y-53350500D01*
X82941034Y-53350500D01*
X83058966Y-53350500D01*
X83140282Y-53343385D01*
X83208780Y-53357151D01*
X83258964Y-53405766D01*
X83274898Y-53473794D01*
X83251523Y-53539638D01*
X83231876Y-53559323D01*
X83232599Y-53560126D01*
X83227770Y-53564473D01*
X83108140Y-53697336D01*
X83018750Y-53852164D01*
X83018747Y-53852170D01*
X82963504Y-54022192D01*
X82963503Y-54022194D01*
X82944815Y-54200000D01*
X82963503Y-54377805D01*
X82963504Y-54377807D01*
X83018747Y-54547829D01*
X83018750Y-54547835D01*
X83108141Y-54702665D01*
X83119064Y-54714796D01*
X83227764Y-54835521D01*
X83227767Y-54835523D01*
X83227770Y-54835526D01*
X83372407Y-54940612D01*
X83535733Y-55013329D01*
X83710609Y-55050500D01*
X83710610Y-55050500D01*
X83889389Y-55050500D01*
X83889391Y-55050500D01*
X84064267Y-55013329D01*
X84227593Y-54940612D01*
X84372230Y-54835526D01*
X84375075Y-54832367D01*
X84398148Y-54806741D01*
X84491859Y-54702665D01*
X84581250Y-54547835D01*
X84636497Y-54377803D01*
X84655185Y-54200000D01*
X84636497Y-54022197D01*
X84592462Y-53886671D01*
X84581252Y-53852170D01*
X84581249Y-53852164D01*
X84573829Y-53839312D01*
X84491859Y-53697335D01*
X84401789Y-53597302D01*
X84372235Y-53564478D01*
X84372232Y-53564476D01*
X84372231Y-53564475D01*
X84372230Y-53564474D01*
X84227593Y-53459388D01*
X84064267Y-53386671D01*
X84064265Y-53386670D01*
X83925386Y-53357151D01*
X83889391Y-53349500D01*
X83820517Y-53349500D01*
X83753478Y-53329815D01*
X83707723Y-53277011D01*
X83697779Y-53207853D01*
X83726804Y-53144297D01*
X83749394Y-53123925D01*
X83871402Y-53038494D01*
X83871402Y-53038493D01*
X84038495Y-52871401D01*
X84174035Y-52677830D01*
X84273903Y-52463663D01*
X84335063Y-52235408D01*
X84355659Y-52000000D01*
X84335063Y-51764592D01*
X84273903Y-51536337D01*
X84174035Y-51322171D01*
X84174034Y-51322169D01*
X84038494Y-51128597D01*
X83871402Y-50961505D01*
X83677830Y-50825965D01*
X83677828Y-50825964D01*
X83570745Y-50776030D01*
X83463663Y-50726097D01*
X83463659Y-50726096D01*
X83463655Y-50726094D01*
X83235413Y-50664938D01*
X83235403Y-50664936D01*
X83058967Y-50649500D01*
X83058966Y-50649500D01*
X82941034Y-50649500D01*
X82941033Y-50649500D01*
X82764596Y-50664936D01*
X82764586Y-50664938D01*
X82536344Y-50726094D01*
X82536335Y-50726098D01*
X82322171Y-50825964D01*
X82322169Y-50825965D01*
X82128597Y-50961505D01*
X81961506Y-51128597D01*
X81961501Y-51128604D01*
X81825967Y-51322165D01*
X81825965Y-51322169D01*
X81726093Y-51536345D01*
X81726018Y-51536552D01*
X81725960Y-51536630D01*
X81723809Y-51541244D01*
X81722881Y-51540811D01*
X81684587Y-51592813D01*
X81619317Y-51617743D01*
X81550929Y-51603427D01*
X81501138Y-51554411D01*
X81485500Y-51494132D01*
X81485500Y-47250000D01*
X83621210Y-47250000D01*
X83622854Y-47270910D01*
X83667968Y-47426195D01*
X83750278Y-47565374D01*
X83750285Y-47565383D01*
X83864616Y-47679714D01*
X83864625Y-47679721D01*
X84003804Y-47762031D01*
X84150000Y-47804504D01*
X84150000Y-47250000D01*
X83621210Y-47250000D01*
X81485500Y-47250000D01*
X81485500Y-46901162D01*
X81505185Y-46834123D01*
X81521814Y-46813486D01*
X81943482Y-46391818D01*
X82004805Y-46358334D01*
X82031163Y-46355500D01*
X82547722Y-46355500D01*
X82551466Y-46355613D01*
X82611083Y-46359219D01*
X82611083Y-46359218D01*
X82611085Y-46359219D01*
X82647583Y-46352529D01*
X82669936Y-46350499D01*
X83347871Y-46350499D01*
X83347872Y-46350499D01*
X83407483Y-46344091D01*
X83542331Y-46293796D01*
X83567730Y-46274781D01*
X83633194Y-46250364D01*
X83701467Y-46265215D01*
X83750873Y-46314619D01*
X83765726Y-46382892D01*
X83748774Y-46437169D01*
X83667968Y-46573804D01*
X83667966Y-46573809D01*
X83622855Y-46729081D01*
X83622854Y-46729087D01*
X83621209Y-46749999D01*
X83621210Y-46750000D01*
X84455500Y-46750000D01*
X84522539Y-46769685D01*
X84568294Y-46822489D01*
X84579500Y-46874000D01*
X84579500Y-47234697D01*
X84582356Y-47270991D01*
X84582357Y-47270994D01*
X84584893Y-47279721D01*
X84619576Y-47399101D01*
X84624500Y-47433694D01*
X84624500Y-47677722D01*
X84624387Y-47681466D01*
X84620781Y-47741082D01*
X84620781Y-47741085D01*
X84631545Y-47799828D01*
X84632108Y-47803529D01*
X84639311Y-47862845D01*
X84642637Y-47871614D01*
X84648661Y-47893223D01*
X84650350Y-47902440D01*
X84674863Y-47956907D01*
X84676296Y-47960366D01*
X84697481Y-48016224D01*
X84697481Y-48016225D01*
X84702805Y-48023938D01*
X84713824Y-48043476D01*
X84717671Y-48052023D01*
X84717672Y-48052025D01*
X84717673Y-48052026D01*
X84717674Y-48052028D01*
X84738596Y-48078732D01*
X84754515Y-48099051D01*
X84756730Y-48102061D01*
X84790668Y-48151229D01*
X84835392Y-48190851D01*
X84838084Y-48193385D01*
X85036896Y-48392197D01*
X85158340Y-48513641D01*
X85191825Y-48574964D01*
X85193867Y-48593957D01*
X85194062Y-48593938D01*
X85213975Y-48796129D01*
X85213976Y-48796132D01*
X85265361Y-48965526D01*
X85271188Y-48984733D01*
X85364086Y-49158532D01*
X85364090Y-49158539D01*
X85489116Y-49310883D01*
X85641460Y-49435909D01*
X85641467Y-49435913D01*
X85815266Y-49528811D01*
X85815269Y-49528811D01*
X85815273Y-49528814D01*
X86003868Y-49586024D01*
X86200000Y-49605341D01*
X86396132Y-49586024D01*
X86584727Y-49528814D01*
X86640326Y-49499096D01*
X86758532Y-49435913D01*
X86758538Y-49435910D01*
X86910883Y-49310883D01*
X87035910Y-49158538D01*
X87128814Y-48984727D01*
X87186024Y-48796132D01*
X87205341Y-48600000D01*
X87186024Y-48403868D01*
X87128814Y-48215273D01*
X87128811Y-48215269D01*
X87128811Y-48215266D01*
X87035913Y-48041467D01*
X87035909Y-48041460D01*
X86910883Y-47889116D01*
X86758539Y-47764090D01*
X86758532Y-47764086D01*
X86584733Y-47671188D01*
X86584727Y-47671186D01*
X86437052Y-47626389D01*
X86396129Y-47613975D01*
X86196201Y-47594284D01*
X86131413Y-47568123D01*
X86091055Y-47511088D01*
X86087938Y-47441288D01*
X86090420Y-47433916D01*
X86090318Y-47433887D01*
X86137642Y-47270997D01*
X86137642Y-47270995D01*
X86137643Y-47270993D01*
X86140500Y-47234690D01*
X86140500Y-46850000D01*
X86541210Y-46850000D01*
X86542854Y-46870910D01*
X86587968Y-47026195D01*
X86670278Y-47165374D01*
X86670285Y-47165383D01*
X86784616Y-47279714D01*
X86784625Y-47279721D01*
X86923804Y-47362031D01*
X87070000Y-47404504D01*
X87070000Y-46850000D01*
X86541210Y-46850000D01*
X86140500Y-46850000D01*
X86140500Y-46765310D01*
X86137643Y-46729007D01*
X86129694Y-46701645D01*
X86092496Y-46573610D01*
X86092494Y-46573608D01*
X86092494Y-46573605D01*
X86041343Y-46487114D01*
X86024162Y-46419395D01*
X86046322Y-46353132D01*
X86100787Y-46309368D01*
X86104745Y-46307815D01*
X86142326Y-46293798D01*
X86142326Y-46293797D01*
X86142331Y-46293796D01*
X86257546Y-46207546D01*
X86343796Y-46092331D01*
X86345874Y-46086761D01*
X86385491Y-45980541D01*
X86427362Y-45924607D01*
X86492826Y-45900189D01*
X86561099Y-45915040D01*
X86608405Y-45960751D01*
X86623856Y-45986877D01*
X86641039Y-46054601D01*
X86623857Y-46113119D01*
X86587967Y-46173805D01*
X86587966Y-46173809D01*
X86542855Y-46329081D01*
X86542854Y-46329087D01*
X86541209Y-46349999D01*
X86541210Y-46350000D01*
X87070000Y-46350000D01*
X87070000Y-44650000D01*
X86541210Y-44650000D01*
X86542854Y-44670910D01*
X86587968Y-44826195D01*
X86623856Y-44886878D01*
X86641039Y-44954602D01*
X86623856Y-45013120D01*
X86585532Y-45077922D01*
X86534463Y-45125606D01*
X86465721Y-45138109D01*
X86401132Y-45111463D01*
X86362618Y-45058133D01*
X86343798Y-45007673D01*
X86343796Y-45007671D01*
X86343796Y-45007669D01*
X86257546Y-44892454D01*
X86219781Y-44864183D01*
X86200338Y-44849628D01*
X86158468Y-44793694D01*
X86151330Y-44763331D01*
X86136497Y-44622197D01*
X86105368Y-44526395D01*
X86103374Y-44456555D01*
X86139454Y-44396722D01*
X86148978Y-44388819D01*
X86257546Y-44307546D01*
X86343796Y-44192331D01*
X86343797Y-44192326D01*
X86348047Y-44184546D01*
X86350907Y-44186108D01*
X86383204Y-44142933D01*
X86448659Y-44118492D01*
X86516938Y-44133319D01*
X86538339Y-44150000D01*
X87070000Y-44150000D01*
X87070000Y-43174000D01*
X87089685Y-43106961D01*
X87142489Y-43061206D01*
X87194000Y-43050000D01*
X87375500Y-43050000D01*
X87442539Y-43069685D01*
G37*
%TD.AperFunction*%
%TA.AperFunction,Conductor*%
G36*
X104442539Y-37520185D02*
G01*
X104488294Y-37572989D01*
X104499500Y-37624500D01*
X104499500Y-55013576D01*
X104479815Y-55080615D01*
X104427011Y-55126370D01*
X104357853Y-55136314D01*
X104302615Y-55113894D01*
X104227597Y-55059390D01*
X104227593Y-55059388D01*
X104064267Y-54986671D01*
X104064265Y-54986670D01*
X103936594Y-54959533D01*
X103889391Y-54949500D01*
X103710609Y-54949500D01*
X103679954Y-54956015D01*
X103535733Y-54986670D01*
X103535728Y-54986672D01*
X103372408Y-55059387D01*
X103227768Y-55164475D01*
X103108140Y-55297336D01*
X103018750Y-55452164D01*
X103018747Y-55452170D01*
X102963504Y-55622192D01*
X102963503Y-55622194D01*
X102944815Y-55799999D01*
X102963503Y-55977804D01*
X102963504Y-55977807D01*
X102986046Y-56047183D01*
X102988041Y-56117023D01*
X102951961Y-56176856D01*
X102889260Y-56207684D01*
X102868115Y-56209500D01*
X102531885Y-56209500D01*
X102464846Y-56189815D01*
X102419091Y-56137011D01*
X102409147Y-56067853D01*
X102413952Y-56047187D01*
X102436497Y-55977803D01*
X102455185Y-55800000D01*
X102436497Y-55622197D01*
X102401183Y-55513513D01*
X102381252Y-55452170D01*
X102381249Y-55452164D01*
X102377945Y-55446441D01*
X102291859Y-55297335D01*
X102245003Y-55245296D01*
X102172235Y-55164478D01*
X102172232Y-55164476D01*
X102172231Y-55164475D01*
X102172230Y-55164474D01*
X102027593Y-55059388D01*
X101864267Y-54986671D01*
X101864265Y-54986670D01*
X101736594Y-54959533D01*
X101689391Y-54949500D01*
X101510609Y-54949500D01*
X101479954Y-54956015D01*
X101335733Y-54986670D01*
X101335728Y-54986672D01*
X101172408Y-55059387D01*
X101027768Y-55164475D01*
X100908140Y-55297336D01*
X100818750Y-55452164D01*
X100818747Y-55452170D01*
X100763504Y-55622192D01*
X100763503Y-55622194D01*
X100744815Y-55799999D01*
X100763503Y-55977805D01*
X100763504Y-55977807D01*
X100818747Y-56147829D01*
X100818749Y-56147832D01*
X100818750Y-56147835D01*
X100832690Y-56171979D01*
X100849162Y-56239879D01*
X100826309Y-56305906D01*
X100771387Y-56349096D01*
X100701834Y-56355737D01*
X100672897Y-56346360D01*
X100658096Y-56339458D01*
X100543663Y-56286097D01*
X100543659Y-56286096D01*
X100543655Y-56286094D01*
X100315413Y-56224938D01*
X100315403Y-56224936D01*
X100080001Y-56204341D01*
X100079999Y-56204341D01*
X99844596Y-56224936D01*
X99844586Y-56224938D01*
X99616344Y-56286094D01*
X99616335Y-56286098D01*
X99402171Y-56385964D01*
X99402169Y-56385965D01*
X99208597Y-56521505D01*
X99041505Y-56688597D01*
X98911575Y-56874158D01*
X98856998Y-56917783D01*
X98787500Y-56924977D01*
X98725145Y-56893454D01*
X98708425Y-56874158D01*
X98578494Y-56688597D01*
X98411402Y-56521506D01*
X98411395Y-56521501D01*
X98217834Y-56385967D01*
X98217830Y-56385965D01*
X98168978Y-56363185D01*
X98003663Y-56286097D01*
X98003659Y-56286096D01*
X98003655Y-56286094D01*
X97775413Y-56224938D01*
X97775403Y-56224936D01*
X97540001Y-56204341D01*
X97539999Y-56204341D01*
X97304596Y-56224936D01*
X97304586Y-56224938D01*
X97076344Y-56286094D01*
X97076335Y-56286098D01*
X96862171Y-56385964D01*
X96862169Y-56385965D01*
X96668597Y-56521505D01*
X96501505Y-56688597D01*
X96371575Y-56874158D01*
X96316998Y-56917783D01*
X96247500Y-56924977D01*
X96185145Y-56893454D01*
X96168425Y-56874158D01*
X96038494Y-56688597D01*
X95871402Y-56521506D01*
X95871395Y-56521501D01*
X95677834Y-56385967D01*
X95677830Y-56385965D01*
X95628978Y-56363185D01*
X95463663Y-56286097D01*
X95463659Y-56286096D01*
X95463655Y-56286094D01*
X95235413Y-56224938D01*
X95235403Y-56224936D01*
X95000001Y-56204341D01*
X94999999Y-56204341D01*
X94764591Y-56224937D01*
X94608357Y-56266798D01*
X94538507Y-56265135D01*
X94488584Y-56234704D01*
X91976489Y-53722609D01*
X91971136Y-53716506D01*
X91956425Y-53697335D01*
X91950451Y-53689549D01*
X91950449Y-53689547D01*
X91950448Y-53689546D01*
X91922731Y-53668278D01*
X91922705Y-53668258D01*
X91830231Y-53597300D01*
X91806092Y-53587302D01*
X91738544Y-53559323D01*
X91690236Y-53539313D01*
X91623756Y-53530560D01*
X91573695Y-53523970D01*
X91573695Y-53523969D01*
X91544092Y-53520073D01*
X91540000Y-53519535D01*
X91539999Y-53519535D01*
X91539998Y-53519535D01*
X91520965Y-53522040D01*
X91506317Y-53523969D01*
X91498219Y-53524500D01*
X90669376Y-53524500D01*
X90603404Y-53505494D01*
X90486774Y-53432210D01*
X90332455Y-53378212D01*
X90186778Y-53361799D01*
X90122364Y-53334733D01*
X90082808Y-53277138D01*
X90080671Y-53207301D01*
X90112978Y-53150900D01*
X91263878Y-52000000D01*
X100644341Y-52000000D01*
X100664936Y-52235403D01*
X100664938Y-52235413D01*
X100726094Y-52463655D01*
X100726096Y-52463659D01*
X100726097Y-52463663D01*
X100776031Y-52570745D01*
X100825964Y-52677828D01*
X100825965Y-52677830D01*
X100961505Y-52871402D01*
X101128597Y-53038494D01*
X101322169Y-53174034D01*
X101322171Y-53174035D01*
X101536337Y-53273903D01*
X101764592Y-53335063D01*
X101941032Y-53350499D01*
X101941033Y-53350500D01*
X101941034Y-53350500D01*
X102058967Y-53350500D01*
X102058967Y-53350499D01*
X102235408Y-53335063D01*
X102463663Y-53273903D01*
X102677829Y-53174035D01*
X102871401Y-53038495D01*
X103038495Y-52871401D01*
X103174035Y-52677830D01*
X103273903Y-52463663D01*
X103335063Y-52235408D01*
X103355659Y-52000000D01*
X103335063Y-51764592D01*
X103273903Y-51536337D01*
X103174035Y-51322171D01*
X103174034Y-51322169D01*
X103038494Y-51128597D01*
X102871402Y-50961505D01*
X102677830Y-50825965D01*
X102677828Y-50825964D01*
X102570746Y-50776031D01*
X102463663Y-50726097D01*
X102463659Y-50726096D01*
X102463655Y-50726094D01*
X102235413Y-50664938D01*
X102235403Y-50664936D01*
X102058967Y-50649500D01*
X102058966Y-50649500D01*
X101941034Y-50649500D01*
X101941033Y-50649500D01*
X101764596Y-50664936D01*
X101764586Y-50664938D01*
X101536344Y-50726094D01*
X101536335Y-50726098D01*
X101322171Y-50825964D01*
X101322169Y-50825965D01*
X101128597Y-50961505D01*
X100961506Y-51128597D01*
X100961501Y-51128604D01*
X100825967Y-51322165D01*
X100825965Y-51322169D01*
X100726098Y-51536335D01*
X100726094Y-51536344D01*
X100664938Y-51764586D01*
X100664936Y-51764596D01*
X100644341Y-51999999D01*
X100644341Y-52000000D01*
X91263878Y-52000000D01*
X93105598Y-50158280D01*
X93111689Y-50152938D01*
X93138651Y-50132251D01*
X93155594Y-50110170D01*
X93155605Y-50110158D01*
X93190126Y-50065167D01*
X93230898Y-50012033D01*
X93288887Y-49872036D01*
X93288887Y-49872035D01*
X93288887Y-49872028D01*
X93289284Y-49870036D01*
X93289418Y-49868000D01*
X93303700Y-49759520D01*
X93303700Y-49759514D01*
X93308665Y-49721800D01*
X93304230Y-49688116D01*
X93303700Y-49680019D01*
X93303700Y-49201293D01*
X93323385Y-49134254D01*
X93335543Y-49118327D01*
X93420059Y-49024465D01*
X93506902Y-48874047D01*
X93557466Y-48825835D01*
X93626073Y-48812611D01*
X93690938Y-48838579D01*
X93731467Y-48895493D01*
X93732218Y-48897733D01*
X93738746Y-48917826D01*
X93738750Y-48917835D01*
X93828141Y-49072665D01*
X93869249Y-49118320D01*
X93947764Y-49205521D01*
X93947767Y-49205523D01*
X93947770Y-49205526D01*
X94092407Y-49310612D01*
X94255733Y-49383329D01*
X94430609Y-49420500D01*
X94430610Y-49420500D01*
X94609389Y-49420500D01*
X94609391Y-49420500D01*
X94784267Y-49383329D01*
X94947593Y-49310612D01*
X95092230Y-49205526D01*
X95092238Y-49205517D01*
X95095755Y-49202351D01*
X95158747Y-49172121D01*
X95178729Y-49170500D01*
X96216572Y-49170500D01*
X96224670Y-49171030D01*
X96260000Y-49175682D01*
X96317883Y-49168061D01*
X96359847Y-49169709D01*
X96410609Y-49180500D01*
X96410610Y-49180500D01*
X96589389Y-49180500D01*
X96589391Y-49180500D01*
X96764267Y-49143329D01*
X96927593Y-49070612D01*
X97072230Y-48965526D01*
X97191859Y-48832665D01*
X97281250Y-48677835D01*
X97336497Y-48507803D01*
X97355185Y-48330000D01*
X97336497Y-48152197D01*
X97336496Y-48152195D01*
X97335999Y-48147462D01*
X97348568Y-48078732D01*
X97396300Y-48027708D01*
X97459320Y-48010500D01*
X97524682Y-48010500D01*
X97524690Y-48010500D01*
X97560993Y-48007643D01*
X97560995Y-48007642D01*
X97560997Y-48007642D01*
X97601975Y-47995736D01*
X97716395Y-47962494D01*
X97737369Y-47950089D01*
X97805088Y-47932906D01*
X97863613Y-47950090D01*
X97883803Y-47962031D01*
X98030000Y-48004504D01*
X98030000Y-47698352D01*
X98047267Y-47635233D01*
X98052494Y-47626395D01*
X98056103Y-47613975D01*
X98097642Y-47470997D01*
X98097643Y-47470991D01*
X98097649Y-47470912D01*
X98099295Y-47450000D01*
X98530000Y-47450000D01*
X98530000Y-48004503D01*
X98676195Y-47962031D01*
X98815374Y-47879721D01*
X98815383Y-47879714D01*
X98929714Y-47765383D01*
X98929721Y-47765374D01*
X99012031Y-47626195D01*
X99012033Y-47626190D01*
X99057144Y-47470918D01*
X99057145Y-47470912D01*
X99058790Y-47450000D01*
X98530000Y-47450000D01*
X98099295Y-47450000D01*
X98100500Y-47434690D01*
X98100500Y-46965310D01*
X98099295Y-46950000D01*
X98530000Y-46950000D01*
X99058790Y-46950000D01*
X99057145Y-46929089D01*
X99012031Y-46773804D01*
X98929721Y-46634625D01*
X98929714Y-46634616D01*
X98815383Y-46520285D01*
X98815374Y-46520278D01*
X98676193Y-46437967D01*
X98676190Y-46437965D01*
X98530001Y-46395493D01*
X98530000Y-46395494D01*
X98530000Y-46950000D01*
X98099295Y-46950000D01*
X98097643Y-46929007D01*
X98091631Y-46908315D01*
X98052495Y-46773608D01*
X98052492Y-46773600D01*
X98047266Y-46764763D01*
X98030000Y-46701645D01*
X98030000Y-46395494D01*
X98029998Y-46395493D01*
X97883809Y-46437965D01*
X97883806Y-46437967D01*
X97863608Y-46449912D01*
X97795884Y-46467092D01*
X97737370Y-46449910D01*
X97716397Y-46437507D01*
X97716390Y-46437504D01*
X97560997Y-46392357D01*
X97560991Y-46392356D01*
X97524697Y-46389500D01*
X97524690Y-46389500D01*
X97115310Y-46389500D01*
X97115302Y-46389500D01*
X97079008Y-46392356D01*
X97079002Y-46392357D01*
X96923609Y-46437504D01*
X96923606Y-46437505D01*
X96777598Y-46523854D01*
X96776089Y-46521303D01*
X96723949Y-46541737D01*
X96655441Y-46528012D01*
X96640181Y-46518534D01*
X96627594Y-46509389D01*
X96627593Y-46509388D01*
X96464267Y-46436671D01*
X96464265Y-46436670D01*
X96336594Y-46409533D01*
X96289391Y-46399500D01*
X96110609Y-46399500D01*
X96079954Y-46406015D01*
X95935733Y-46436670D01*
X95935728Y-46436672D01*
X95772408Y-46509387D01*
X95627768Y-46614475D01*
X95508140Y-46747336D01*
X95418750Y-46902164D01*
X95418747Y-46902170D01*
X95363504Y-47072192D01*
X95363503Y-47072194D01*
X95353677Y-47165687D01*
X95344815Y-47250000D01*
X95351044Y-47309267D01*
X95363503Y-47427805D01*
X95363504Y-47427807D01*
X95418747Y-47597829D01*
X95418750Y-47597835D01*
X95508141Y-47752665D01*
X95516574Y-47762031D01*
X95517021Y-47762527D01*
X95547251Y-47825518D01*
X95538627Y-47894854D01*
X95493886Y-47948519D01*
X95427234Y-47969478D01*
X95424872Y-47969500D01*
X95245736Y-47969500D01*
X95178697Y-47949815D01*
X95132942Y-47897011D01*
X95122797Y-47861686D01*
X95112199Y-47781189D01*
X95105044Y-47726841D01*
X95074789Y-47653801D01*
X95044538Y-47580766D01*
X95044535Y-47580761D01*
X94981527Y-47498647D01*
X94973803Y-47488581D01*
X94948282Y-47455321D01*
X94920005Y-47433623D01*
X94913904Y-47428272D01*
X94355114Y-46869482D01*
X94321629Y-46808159D01*
X94326613Y-46738467D01*
X94355114Y-46694120D01*
X94507497Y-46541737D01*
X94663914Y-46385319D01*
X94669999Y-46379983D01*
X94698282Y-46358282D01*
X94794536Y-46232841D01*
X94855044Y-46086762D01*
X94866093Y-46002839D01*
X94872064Y-45957483D01*
X94875682Y-45930001D01*
X94875682Y-45929999D01*
X94871031Y-45894673D01*
X94870500Y-45886571D01*
X94870500Y-44613673D01*
X94889506Y-44547701D01*
X94927789Y-44486775D01*
X94981786Y-44332461D01*
X94981786Y-44332459D01*
X94981787Y-44332457D01*
X95000091Y-44170003D01*
X95000091Y-44169996D01*
X94981787Y-44007544D01*
X94981786Y-44007542D01*
X94981786Y-44007539D01*
X94933659Y-43870000D01*
X94927789Y-43853224D01*
X94869506Y-43760467D01*
X94850500Y-43694495D01*
X94850500Y-43681750D01*
X94870185Y-43614711D01*
X94922989Y-43568956D01*
X94964779Y-43558132D01*
X94970993Y-43557643D01*
X94970996Y-43557642D01*
X94970997Y-43557642D01*
X95011975Y-43545736D01*
X95126395Y-43512494D01*
X95265687Y-43430117D01*
X95380117Y-43315687D01*
X95462494Y-43176395D01*
X95489247Y-43084313D01*
X95496719Y-43058594D01*
X95534325Y-42999708D01*
X95597798Y-42970502D01*
X95666984Y-42980248D01*
X95694461Y-42997337D01*
X95741459Y-43035908D01*
X95741467Y-43035913D01*
X95915266Y-43128811D01*
X95915269Y-43128811D01*
X95915273Y-43128814D01*
X95970201Y-43145476D01*
X96028637Y-43183773D01*
X96057094Y-43247585D01*
X96046533Y-43316652D01*
X96026354Y-43347107D01*
X96008140Y-43367336D01*
X95918750Y-43522164D01*
X95918747Y-43522170D01*
X95863504Y-43692192D01*
X95863503Y-43692194D01*
X95844815Y-43869999D01*
X95863503Y-44047805D01*
X95863504Y-44047807D01*
X95918747Y-44217829D01*
X95918750Y-44217835D01*
X96008141Y-44372665D01*
X96033203Y-44400499D01*
X96127764Y-44505521D01*
X96127767Y-44505523D01*
X96127770Y-44505526D01*
X96272407Y-44610612D01*
X96435733Y-44683329D01*
X96610609Y-44720500D01*
X96610610Y-44720500D01*
X96789389Y-44720500D01*
X96789391Y-44720500D01*
X96964267Y-44683329D01*
X97127593Y-44610612D01*
X97272230Y-44505526D01*
X97391859Y-44372665D01*
X97481250Y-44217835D01*
X97536497Y-44047803D01*
X97555185Y-43870000D01*
X97536497Y-43692197D01*
X97502733Y-43588282D01*
X97481252Y-43522170D01*
X97481249Y-43522164D01*
X97461264Y-43487549D01*
X97391859Y-43367335D01*
X97344883Y-43315163D01*
X97272235Y-43234478D01*
X97272232Y-43234476D01*
X97272231Y-43234475D01*
X97272230Y-43234474D01*
X97127593Y-43129388D01*
X97127592Y-43129387D01*
X97059414Y-43099032D01*
X97006177Y-43053781D01*
X96985856Y-42986932D01*
X97004902Y-42919709D01*
X97013997Y-42907088D01*
X97014723Y-42906204D01*
X97135910Y-42758538D01*
X97213648Y-42613100D01*
X97228811Y-42584733D01*
X97228811Y-42584732D01*
X97228814Y-42584727D01*
X97286024Y-42396132D01*
X97305341Y-42200000D01*
X97286024Y-42003868D01*
X97228814Y-41815273D01*
X97228811Y-41815269D01*
X97228811Y-41815266D01*
X97135913Y-41641467D01*
X97135909Y-41641460D01*
X97010883Y-41489116D01*
X96858539Y-41364090D01*
X96858532Y-41364086D01*
X96684733Y-41271188D01*
X96684727Y-41271186D01*
X96496132Y-41213976D01*
X96496129Y-41213975D01*
X96300000Y-41194659D01*
X96103870Y-41213975D01*
X95915266Y-41271188D01*
X95741467Y-41364086D01*
X95741461Y-41364090D01*
X95641345Y-41446253D01*
X95577035Y-41473565D01*
X95508168Y-41461774D01*
X95456608Y-41414621D01*
X95455949Y-41413520D01*
X95379721Y-41284625D01*
X95379714Y-41284616D01*
X95265383Y-41170285D01*
X95265374Y-41170278D01*
X95126195Y-41087968D01*
X95126190Y-41087966D01*
X94970918Y-41042855D01*
X94970912Y-41042854D01*
X94950000Y-41041209D01*
X94950000Y-41635153D01*
X94930315Y-41702192D01*
X94901487Y-41733528D01*
X94851718Y-41771717D01*
X94851717Y-41771718D01*
X94830019Y-41799994D01*
X94824668Y-41806095D01*
X94795303Y-41835461D01*
X94667582Y-41963182D01*
X94606262Y-41996666D01*
X94579903Y-41999500D01*
X94465302Y-41999500D01*
X94429008Y-42002356D01*
X94429002Y-42002357D01*
X94273608Y-42047504D01*
X94273600Y-42047507D01*
X94264767Y-42052732D01*
X94201646Y-42070000D01*
X94148354Y-42070000D01*
X94085233Y-42052732D01*
X94076399Y-42047507D01*
X94076391Y-42047504D01*
X93920997Y-42002357D01*
X93920991Y-42002356D01*
X93884697Y-41999500D01*
X93884690Y-41999500D01*
X93592136Y-41999500D01*
X93525097Y-41979815D01*
X93493760Y-41950986D01*
X93472451Y-41923216D01*
X93472450Y-41923215D01*
X93448282Y-41891718D01*
X93448281Y-41891717D01*
X93448278Y-41891713D01*
X93442536Y-41885971D01*
X93443489Y-41885017D01*
X93407309Y-41835461D01*
X93400000Y-41793519D01*
X93400000Y-41041210D01*
X93899999Y-41041210D01*
X93900000Y-41570000D01*
X94450000Y-41570000D01*
X94450000Y-41041210D01*
X94449999Y-41041209D01*
X94429087Y-41042854D01*
X94429081Y-41042855D01*
X94273809Y-41087966D01*
X94273806Y-41087967D01*
X94238120Y-41109072D01*
X94170396Y-41126253D01*
X94111880Y-41109072D01*
X94076193Y-41087967D01*
X94076190Y-41087966D01*
X93920918Y-41042855D01*
X93920912Y-41042854D01*
X93900000Y-41041209D01*
X93899999Y-41041210D01*
X93400000Y-41041210D01*
X93400000Y-41041209D01*
X93399999Y-41041209D01*
X93379087Y-41042854D01*
X93379081Y-41042855D01*
X93223809Y-41087966D01*
X93223802Y-41087969D01*
X93153880Y-41129320D01*
X93086156Y-41146501D01*
X93027641Y-41129320D01*
X92939391Y-41077130D01*
X92939388Y-41077129D01*
X92785208Y-41032335D01*
X92785202Y-41032334D01*
X92749181Y-41029500D01*
X92250830Y-41029500D01*
X92250808Y-41029501D01*
X92214794Y-41032335D01*
X92060611Y-41077129D01*
X92060608Y-41077130D01*
X91980449Y-41124536D01*
X91912725Y-41141718D01*
X91854208Y-41124535D01*
X91826194Y-41107968D01*
X91758007Y-41088158D01*
X91699121Y-41050551D01*
X91669914Y-40987079D01*
X91679660Y-40917892D01*
X91685865Y-40905967D01*
X91762494Y-40776395D01*
X91807643Y-40620993D01*
X91810500Y-40584690D01*
X91810500Y-40175310D01*
X91807643Y-40139007D01*
X91798786Y-40108522D01*
X91762495Y-39983609D01*
X91762494Y-39983605D01*
X91762494Y-39983604D01*
X91750089Y-39962630D01*
X91732906Y-39894909D01*
X91750091Y-39836384D01*
X91762032Y-39816194D01*
X91804504Y-39670000D01*
X91498352Y-39670000D01*
X91435233Y-39652732D01*
X91426395Y-39647506D01*
X91426393Y-39647505D01*
X91426389Y-39647503D01*
X91270997Y-39602357D01*
X91270991Y-39602356D01*
X91234697Y-39599500D01*
X91234690Y-39599500D01*
X90765310Y-39599500D01*
X90765302Y-39599500D01*
X90729008Y-39602356D01*
X90729002Y-39602357D01*
X90663356Y-39621430D01*
X90602980Y-39623644D01*
X90489391Y-39599500D01*
X90310609Y-39599500D01*
X90263405Y-39609533D01*
X90135735Y-39636670D01*
X90125924Y-39641038D01*
X90062248Y-39651044D01*
X90047880Y-39649500D01*
X88752129Y-39649500D01*
X88752123Y-39649501D01*
X88692516Y-39655908D01*
X88557671Y-39706202D01*
X88557662Y-39706207D01*
X88548806Y-39712837D01*
X88483341Y-39737252D01*
X88415069Y-39722398D01*
X88365665Y-39672992D01*
X88350499Y-39613568D01*
X88350499Y-39500000D01*
X92394659Y-39500000D01*
X92413975Y-39696129D01*
X92413976Y-39696132D01*
X92458926Y-39844313D01*
X92471188Y-39884733D01*
X92564086Y-40058532D01*
X92564090Y-40058539D01*
X92689116Y-40210883D01*
X92841460Y-40335909D01*
X92841467Y-40335913D01*
X93015266Y-40428811D01*
X93015269Y-40428811D01*
X93015273Y-40428814D01*
X93203868Y-40486024D01*
X93400000Y-40505341D01*
X93596132Y-40486024D01*
X93675078Y-40462076D01*
X96191476Y-40462076D01*
X96315466Y-40528350D01*
X96503969Y-40585531D01*
X96503965Y-40585531D01*
X96699999Y-40604838D01*
X96896032Y-40585531D01*
X97084537Y-40528348D01*
X97208522Y-40462076D01*
X96700001Y-39953553D01*
X96700000Y-39953553D01*
X96191476Y-40462076D01*
X93675078Y-40462076D01*
X93784727Y-40428814D01*
X93788069Y-40427028D01*
X93958532Y-40335913D01*
X93958538Y-40335910D01*
X94110883Y-40210883D01*
X94235910Y-40058538D01*
X94328814Y-39884727D01*
X94386024Y-39696132D01*
X94395492Y-39600000D01*
X95695161Y-39600000D01*
X95714468Y-39796030D01*
X95771652Y-39984538D01*
X95837922Y-40108522D01*
X96346444Y-39600000D01*
X97053553Y-39600000D01*
X97562076Y-40108522D01*
X97620083Y-40000000D01*
X100644341Y-40000000D01*
X100664936Y-40235403D01*
X100664938Y-40235413D01*
X100726094Y-40463655D01*
X100726096Y-40463659D01*
X100726097Y-40463663D01*
X100756261Y-40528350D01*
X100825964Y-40677828D01*
X100825965Y-40677830D01*
X100961505Y-40871402D01*
X101128597Y-41038494D01*
X101322169Y-41174034D01*
X101322171Y-41174035D01*
X101536337Y-41273903D01*
X101536343Y-41273904D01*
X101536344Y-41273905D01*
X101591285Y-41288626D01*
X101764592Y-41335063D01*
X101941032Y-41350499D01*
X101941033Y-41350500D01*
X101941034Y-41350500D01*
X102058967Y-41350500D01*
X102058967Y-41350499D01*
X102235408Y-41335063D01*
X102463663Y-41273903D01*
X102677829Y-41174035D01*
X102871401Y-41038495D01*
X103038495Y-40871401D01*
X103174035Y-40677830D01*
X103273903Y-40463663D01*
X103335063Y-40235408D01*
X103355659Y-40000000D01*
X103335063Y-39764592D01*
X103273903Y-39536337D01*
X103174035Y-39322171D01*
X103174034Y-39322169D01*
X103038494Y-39128597D01*
X102871402Y-38961505D01*
X102677830Y-38825965D01*
X102677828Y-38825964D01*
X102558409Y-38770278D01*
X102463663Y-38726097D01*
X102463659Y-38726096D01*
X102463655Y-38726094D01*
X102235413Y-38664938D01*
X102235403Y-38664936D01*
X102058967Y-38649500D01*
X102058966Y-38649500D01*
X101941034Y-38649500D01*
X101941033Y-38649500D01*
X101764596Y-38664936D01*
X101764586Y-38664938D01*
X101536344Y-38726094D01*
X101536335Y-38726098D01*
X101322171Y-38825964D01*
X101322169Y-38825965D01*
X101128597Y-38961505D01*
X100961506Y-39128597D01*
X100961501Y-39128604D01*
X100825967Y-39322165D01*
X100825965Y-39322169D01*
X100726098Y-39536335D01*
X100726094Y-39536344D01*
X100664938Y-39764586D01*
X100664936Y-39764596D01*
X100644341Y-39999999D01*
X100644341Y-40000000D01*
X97620083Y-40000000D01*
X97628348Y-39984537D01*
X97685531Y-39796032D01*
X97704838Y-39600000D01*
X97685531Y-39403967D01*
X97628350Y-39215466D01*
X97562076Y-39091476D01*
X97053553Y-39600000D01*
X96346444Y-39600000D01*
X96346446Y-39599998D01*
X95837923Y-39091475D01*
X95837922Y-39091476D01*
X95771652Y-39215461D01*
X95714468Y-39403969D01*
X95695161Y-39600000D01*
X94395492Y-39600000D01*
X94405341Y-39500000D01*
X94386024Y-39303868D01*
X94342881Y-39161650D01*
X94338222Y-39138614D01*
X94336498Y-39122204D01*
X94336497Y-39122201D01*
X94336497Y-39122197D01*
X94304527Y-39023804D01*
X94281252Y-38952170D01*
X94281249Y-38952164D01*
X94191859Y-38797335D01*
X94138363Y-38737922D01*
X96191476Y-38737922D01*
X96700000Y-39246446D01*
X96700001Y-39246446D01*
X97208522Y-38737922D01*
X97208522Y-38737921D01*
X97084538Y-38671652D01*
X96896030Y-38614468D01*
X96699999Y-38595161D01*
X96503969Y-38614468D01*
X96315461Y-38671652D01*
X96191476Y-38737922D01*
X94138363Y-38737922D01*
X94127713Y-38726094D01*
X94072235Y-38664478D01*
X94072232Y-38664476D01*
X94072231Y-38664475D01*
X94072230Y-38664474D01*
X93927593Y-38559388D01*
X93764267Y-38486671D01*
X93764265Y-38486670D01*
X93636594Y-38459533D01*
X93589391Y-38449500D01*
X93410609Y-38449500D01*
X93373439Y-38457400D01*
X93235734Y-38486670D01*
X93235733Y-38486671D01*
X93114936Y-38540452D01*
X93107714Y-38543143D01*
X93078452Y-38552020D01*
X93015271Y-38571186D01*
X92841467Y-38664086D01*
X92841460Y-38664090D01*
X92689116Y-38789116D01*
X92564090Y-38941460D01*
X92564086Y-38941467D01*
X92471188Y-39115266D01*
X92413975Y-39303870D01*
X92394659Y-39500000D01*
X88350499Y-39500000D01*
X88350499Y-39386431D01*
X88370184Y-39319392D01*
X88422988Y-39273637D01*
X88492146Y-39263693D01*
X88548810Y-39287165D01*
X88557664Y-39293793D01*
X88557671Y-39293797D01*
X88692517Y-39344091D01*
X88692516Y-39344091D01*
X88699444Y-39344835D01*
X88752127Y-39350500D01*
X90047872Y-39350499D01*
X90107483Y-39344091D01*
X90242331Y-39293796D01*
X90357546Y-39207546D01*
X90357548Y-39207542D01*
X90358773Y-39206319D01*
X90360297Y-39205486D01*
X90364645Y-39202232D01*
X90365112Y-39202857D01*
X90420096Y-39172834D01*
X90446454Y-39170000D01*
X90750000Y-39170000D01*
X90750000Y-38641209D01*
X91250000Y-38641209D01*
X91250000Y-39170000D01*
X91804504Y-39170000D01*
X91762031Y-39023804D01*
X91679721Y-38884625D01*
X91679714Y-38884616D01*
X91565383Y-38770285D01*
X91565374Y-38770278D01*
X91426195Y-38687968D01*
X91426190Y-38687966D01*
X91270918Y-38642855D01*
X91270912Y-38642854D01*
X91250000Y-38641209D01*
X90750000Y-38641209D01*
X90749999Y-38641209D01*
X90729087Y-38642854D01*
X90729081Y-38642855D01*
X90659094Y-38663189D01*
X90589224Y-38662990D01*
X90530554Y-38625048D01*
X90501711Y-38561409D01*
X90500499Y-38544113D01*
X90500499Y-38382518D01*
X90500499Y-38202128D01*
X90494091Y-38142517D01*
X90443796Y-38007669D01*
X90443795Y-38007668D01*
X90443793Y-38007664D01*
X90357547Y-37892455D01*
X90357544Y-37892452D01*
X90242335Y-37806206D01*
X90242328Y-37806202D01*
X90107482Y-37755908D01*
X90107483Y-37755908D01*
X90047883Y-37749501D01*
X90047881Y-37749500D01*
X90047873Y-37749500D01*
X90047864Y-37749500D01*
X88752129Y-37749500D01*
X88752123Y-37749501D01*
X88692516Y-37755908D01*
X88557671Y-37806202D01*
X88557664Y-37806206D01*
X88442455Y-37892452D01*
X88442452Y-37892455D01*
X88356206Y-38007664D01*
X88356202Y-38007671D01*
X88305908Y-38142517D01*
X88299501Y-38202116D01*
X88299501Y-38202123D01*
X88299500Y-38202135D01*
X88299500Y-38294837D01*
X88279815Y-38361876D01*
X88227011Y-38407631D01*
X88157853Y-38417575D01*
X88094297Y-38388550D01*
X88087819Y-38382518D01*
X87930597Y-38225296D01*
X87897112Y-38163973D01*
X87894988Y-38150862D01*
X87894091Y-38142517D01*
X87843797Y-38007671D01*
X87843793Y-38007664D01*
X87757547Y-37892455D01*
X87757544Y-37892452D01*
X87642335Y-37806206D01*
X87642328Y-37806202D01*
X87507482Y-37755908D01*
X87507483Y-37755908D01*
X87447883Y-37749501D01*
X87447881Y-37749500D01*
X87447873Y-37749500D01*
X87447864Y-37749500D01*
X86152129Y-37749500D01*
X86152123Y-37749501D01*
X86092516Y-37755908D01*
X85957671Y-37806202D01*
X85957664Y-37806206D01*
X85842455Y-37892452D01*
X85842452Y-37892455D01*
X85756206Y-38007664D01*
X85756202Y-38007671D01*
X85705910Y-38142513D01*
X85705909Y-38142517D01*
X85699500Y-38202127D01*
X85699500Y-38202134D01*
X85699500Y-38202135D01*
X85699500Y-38897870D01*
X85699501Y-38897876D01*
X85705908Y-38957481D01*
X85715196Y-38982383D01*
X85720179Y-39052074D01*
X85715196Y-39069044D01*
X85706402Y-39092623D01*
X85706401Y-39092624D01*
X85700000Y-39152155D01*
X85700000Y-39250000D01*
X85857893Y-39250000D01*
X85924932Y-39269685D01*
X85932204Y-39274733D01*
X85957668Y-39293795D01*
X85957671Y-39293797D01*
X86092517Y-39344091D01*
X86092516Y-39344091D01*
X86099444Y-39344835D01*
X86152127Y-39350500D01*
X86875500Y-39350499D01*
X86942539Y-39370183D01*
X86988294Y-39422987D01*
X86999500Y-39474499D01*
X86999500Y-39525500D01*
X86979815Y-39592539D01*
X86927011Y-39638294D01*
X86875500Y-39649500D01*
X86152129Y-39649500D01*
X86152123Y-39649501D01*
X86092516Y-39655908D01*
X85957671Y-39706202D01*
X85957668Y-39706204D01*
X85932204Y-39725267D01*
X85866739Y-39749684D01*
X85857893Y-39750000D01*
X85700000Y-39750000D01*
X85700000Y-39847844D01*
X85706401Y-39907372D01*
X85706403Y-39907379D01*
X85715195Y-39930952D01*
X85720179Y-40000644D01*
X85715196Y-40017615D01*
X85705909Y-40042516D01*
X85705908Y-40042517D01*
X85699501Y-40102117D01*
X85699500Y-40102136D01*
X85699500Y-40797870D01*
X85699501Y-40797876D01*
X85705908Y-40857483D01*
X85756202Y-40992328D01*
X85756206Y-40992335D01*
X85842452Y-41107544D01*
X85842455Y-41107547D01*
X85957664Y-41193793D01*
X85957673Y-41193798D01*
X85989332Y-41205606D01*
X86045266Y-41247476D01*
X86069684Y-41312940D01*
X86070000Y-41321788D01*
X86070000Y-41601645D01*
X86052734Y-41664763D01*
X86047507Y-41673600D01*
X86047504Y-41673608D01*
X86002357Y-41829002D01*
X86002356Y-41829008D01*
X85999500Y-41865300D01*
X85999499Y-41865322D01*
X85999499Y-41873846D01*
X85979808Y-41940884D01*
X85963180Y-41961516D01*
X85611016Y-42313682D01*
X85549696Y-42347166D01*
X85523337Y-42350000D01*
X85041210Y-42350000D01*
X85032267Y-42359674D01*
X84972304Y-42395539D01*
X84941213Y-42399500D01*
X83297278Y-42399500D01*
X83293534Y-42399387D01*
X83233918Y-42395781D01*
X83233909Y-42395781D01*
X83175171Y-42406545D01*
X83171470Y-42407108D01*
X83112156Y-42414311D01*
X83103381Y-42417639D01*
X83081778Y-42423660D01*
X83077259Y-42424488D01*
X83072560Y-42425350D01*
X83018075Y-42449869D01*
X83014618Y-42451301D01*
X82958774Y-42472481D01*
X82958770Y-42472484D01*
X82951056Y-42477808D01*
X82931525Y-42488824D01*
X82922970Y-42492674D01*
X82875943Y-42529517D01*
X82872928Y-42531736D01*
X82823772Y-42565667D01*
X82823769Y-42565670D01*
X82784164Y-42610373D01*
X82781597Y-42613100D01*
X82581516Y-42813181D01*
X82520193Y-42846666D01*
X82493835Y-42849500D01*
X82052129Y-42849500D01*
X82052123Y-42849501D01*
X81992516Y-42855908D01*
X81857671Y-42906202D01*
X81857670Y-42906203D01*
X81835774Y-42922594D01*
X81770310Y-42947009D01*
X81702037Y-42932156D01*
X81698345Y-42930057D01*
X81626393Y-42887505D01*
X81626390Y-42887504D01*
X81470997Y-42842357D01*
X81470991Y-42842356D01*
X81434697Y-42839500D01*
X81434690Y-42839500D01*
X80965310Y-42839500D01*
X80965302Y-42839500D01*
X80929008Y-42842356D01*
X80929002Y-42842357D01*
X80773609Y-42887504D01*
X80773608Y-42887504D01*
X80687620Y-42938357D01*
X80619896Y-42955539D01*
X80553634Y-42933378D01*
X80509871Y-42878912D01*
X80500500Y-42831624D01*
X80500500Y-41849999D01*
X85041209Y-41849999D01*
X85041210Y-41850000D01*
X85570000Y-41850000D01*
X85570000Y-41295494D01*
X85569998Y-41295493D01*
X85423809Y-41337965D01*
X85423806Y-41337967D01*
X85284625Y-41420278D01*
X85284616Y-41420285D01*
X85170285Y-41534616D01*
X85170278Y-41534625D01*
X85087968Y-41673804D01*
X85087966Y-41673809D01*
X85042855Y-41829081D01*
X85042854Y-41829087D01*
X85041209Y-41849999D01*
X80500500Y-41849999D01*
X80500500Y-40000000D01*
X81644341Y-40000000D01*
X81664936Y-40235403D01*
X81664938Y-40235413D01*
X81726094Y-40463655D01*
X81726096Y-40463659D01*
X81726097Y-40463663D01*
X81756261Y-40528350D01*
X81825964Y-40677828D01*
X81825965Y-40677830D01*
X81961505Y-40871402D01*
X82128597Y-41038494D01*
X82322169Y-41174034D01*
X82322171Y-41174035D01*
X82536337Y-41273903D01*
X82536343Y-41273904D01*
X82536344Y-41273905D01*
X82591285Y-41288626D01*
X82764592Y-41335063D01*
X82941032Y-41350499D01*
X82941033Y-41350500D01*
X82941034Y-41350500D01*
X83058967Y-41350500D01*
X83058967Y-41350499D01*
X83235408Y-41335063D01*
X83463663Y-41273903D01*
X83677829Y-41174035D01*
X83871401Y-41038495D01*
X84038495Y-40871401D01*
X84174035Y-40677830D01*
X84273903Y-40463663D01*
X84335063Y-40235408D01*
X84355659Y-40000000D01*
X84335063Y-39764592D01*
X84273903Y-39536337D01*
X84174035Y-39322171D01*
X84174034Y-39322169D01*
X84038494Y-39128597D01*
X83871402Y-38961505D01*
X83677830Y-38825965D01*
X83677828Y-38825964D01*
X83558409Y-38770278D01*
X83463663Y-38726097D01*
X83463659Y-38726096D01*
X83463655Y-38726094D01*
X83235413Y-38664938D01*
X83235403Y-38664936D01*
X83058967Y-38649500D01*
X83058966Y-38649500D01*
X82941034Y-38649500D01*
X82941033Y-38649500D01*
X82764596Y-38664936D01*
X82764586Y-38664938D01*
X82536344Y-38726094D01*
X82536335Y-38726098D01*
X82322171Y-38825964D01*
X82322169Y-38825965D01*
X82128597Y-38961505D01*
X81961506Y-39128597D01*
X81961501Y-39128604D01*
X81825967Y-39322165D01*
X81825965Y-39322169D01*
X81726098Y-39536335D01*
X81726094Y-39536344D01*
X81664938Y-39764586D01*
X81664936Y-39764596D01*
X81644341Y-39999999D01*
X81644341Y-40000000D01*
X80500500Y-40000000D01*
X80500500Y-37624500D01*
X80520185Y-37557461D01*
X80572989Y-37511706D01*
X80624500Y-37500500D01*
X104375500Y-37500500D01*
X104442539Y-37520185D01*
G37*
%TD.AperFunction*%
%TA.AperFunction,Conductor*%
G36*
X89265703Y-43221450D02*
G01*
X89272181Y-43227482D01*
X89286611Y-43241912D01*
X89289163Y-43244624D01*
X89328772Y-43289333D01*
X89377932Y-43323265D01*
X89380949Y-43325486D01*
X89419827Y-43355944D01*
X89427972Y-43362326D01*
X89436515Y-43366171D01*
X89456067Y-43377198D01*
X89463774Y-43382518D01*
X89519639Y-43403705D01*
X89523070Y-43405126D01*
X89577561Y-43429650D01*
X89577564Y-43429650D01*
X89577565Y-43429651D01*
X89580115Y-43430118D01*
X89586765Y-43431336D01*
X89608396Y-43437365D01*
X89617155Y-43440688D01*
X89624441Y-43442484D01*
X89623714Y-43445430D01*
X89675105Y-43467506D01*
X89694423Y-43487549D01*
X89765746Y-43580500D01*
X89771718Y-43588282D01*
X89799995Y-43609980D01*
X89806085Y-43615320D01*
X89948920Y-43758155D01*
X90090120Y-43899355D01*
X90119480Y-43946079D01*
X90172211Y-44096775D01*
X90259192Y-44235204D01*
X90374796Y-44350808D01*
X90513225Y-44437789D01*
X90667539Y-44491786D01*
X90667542Y-44491786D01*
X90667544Y-44491787D01*
X90829996Y-44510091D01*
X90830000Y-44510091D01*
X90830004Y-44510091D01*
X90992455Y-44491787D01*
X90992456Y-44491786D01*
X90992461Y-44491786D01*
X91146775Y-44437789D01*
X91285204Y-44350808D01*
X91400808Y-44235204D01*
X91487789Y-44096775D01*
X91528717Y-43979807D01*
X91569437Y-43923033D01*
X91634389Y-43897285D01*
X91702951Y-43910741D01*
X91753145Y-43958763D01*
X91819269Y-44073293D01*
X91859967Y-44118492D01*
X91938892Y-44206149D01*
X91938895Y-44206151D01*
X91938898Y-44206154D01*
X92083535Y-44311240D01*
X92246861Y-44383957D01*
X92421737Y-44421128D01*
X92421738Y-44421128D01*
X92600517Y-44421128D01*
X92600519Y-44421128D01*
X92775395Y-44383957D01*
X92938721Y-44311240D01*
X93083358Y-44206154D01*
X93095805Y-44192331D01*
X93109276Y-44177369D01*
X93202987Y-44073293D01*
X93292378Y-43918463D01*
X93347625Y-43748431D01*
X93348534Y-43739781D01*
X93375115Y-43675168D01*
X93384164Y-43665069D01*
X93413914Y-43635319D01*
X93420000Y-43629982D01*
X93448282Y-43608282D01*
X93448284Y-43608278D01*
X93450016Y-43606950D01*
X93515186Y-43581758D01*
X93583630Y-43595798D01*
X93633619Y-43644613D01*
X93649500Y-43705328D01*
X93649500Y-43758155D01*
X93630494Y-43824127D01*
X93612210Y-43853224D01*
X93558212Y-44007544D01*
X93539909Y-44169996D01*
X93539909Y-44170003D01*
X93558212Y-44332457D01*
X93606147Y-44469445D01*
X93612211Y-44486775D01*
X93637107Y-44526396D01*
X93650494Y-44547701D01*
X93669500Y-44613673D01*
X93669500Y-45491036D01*
X93649815Y-45558075D01*
X93597011Y-45603830D01*
X93529316Y-45613975D01*
X93419361Y-45599500D01*
X93380000Y-45594318D01*
X93344670Y-45598969D01*
X93336572Y-45599500D01*
X89936874Y-45599500D01*
X89869835Y-45579815D01*
X89849193Y-45563181D01*
X89825204Y-45539192D01*
X89686774Y-45452210D01*
X89532455Y-45398212D01*
X89370004Y-45379909D01*
X89369996Y-45379909D01*
X89200619Y-45398993D01*
X89200333Y-45396456D01*
X89142336Y-45392894D01*
X89085985Y-45351587D01*
X89060911Y-45286372D01*
X89060500Y-45276283D01*
X89060500Y-45265317D01*
X89060499Y-45265302D01*
X89060165Y-45261062D01*
X89057643Y-45229007D01*
X89012494Y-45073605D01*
X88976722Y-45013118D01*
X88959540Y-44945396D01*
X88976722Y-44886880D01*
X89012494Y-44826395D01*
X89057643Y-44670993D01*
X89060500Y-44634690D01*
X89060500Y-44165310D01*
X89057643Y-44129007D01*
X89057642Y-44129002D01*
X89012496Y-43973610D01*
X89012494Y-43973608D01*
X89012494Y-43973605D01*
X88976721Y-43913117D01*
X88959540Y-43845398D01*
X88976721Y-43786882D01*
X89012494Y-43726395D01*
X89022431Y-43692194D01*
X89057642Y-43570997D01*
X89057643Y-43570991D01*
X89058655Y-43558132D01*
X89060500Y-43534690D01*
X89060500Y-43315162D01*
X89080185Y-43248124D01*
X89132989Y-43202369D01*
X89202147Y-43192425D01*
X89265703Y-43221450D01*
G37*
%TD.AperFunction*%
%TA.AperFunction,Conductor*%
G36*
X81798215Y-44349685D02*
G01*
X81805486Y-44354733D01*
X81857665Y-44393793D01*
X81857671Y-44393797D01*
X81992517Y-44444091D01*
X81992516Y-44444091D01*
X81999444Y-44444835D01*
X82052127Y-44450500D01*
X82826000Y-44450499D01*
X82893039Y-44470183D01*
X82938794Y-44522987D01*
X82950000Y-44574499D01*
X82950000Y-44625500D01*
X82930315Y-44692539D01*
X82877511Y-44738294D01*
X82826000Y-44749500D01*
X82052129Y-44749500D01*
X82052123Y-44749501D01*
X81992516Y-44755908D01*
X81857671Y-44806202D01*
X81857668Y-44806204D01*
X81832204Y-44825267D01*
X81766739Y-44849684D01*
X81757893Y-44850000D01*
X81631362Y-44850000D01*
X81564323Y-44830315D01*
X81563932Y-44830000D01*
X81074000Y-44830000D01*
X81006961Y-44810315D01*
X80961206Y-44757511D01*
X80950000Y-44706000D01*
X80950000Y-44524500D01*
X80969685Y-44457461D01*
X81022489Y-44411706D01*
X81074000Y-44400500D01*
X81434682Y-44400500D01*
X81434690Y-44400500D01*
X81470993Y-44397643D01*
X81470995Y-44397642D01*
X81470997Y-44397642D01*
X81626389Y-44352496D01*
X81626389Y-44352495D01*
X81626395Y-44352494D01*
X81635233Y-44347267D01*
X81698352Y-44330000D01*
X81731176Y-44330000D01*
X81798215Y-44349685D01*
G37*
%TD.AperFunction*%
%TA.AperFunction,Conductor*%
G36*
X88218834Y-40588979D02*
G01*
X88274767Y-40630851D01*
X88299184Y-40696315D01*
X88299500Y-40705160D01*
X88299500Y-40797869D01*
X88299501Y-40797876D01*
X88305908Y-40857483D01*
X88356202Y-40992328D01*
X88356206Y-40992335D01*
X88442452Y-41107544D01*
X88442455Y-41107547D01*
X88557664Y-41193793D01*
X88557671Y-41193797D01*
X88692517Y-41244091D01*
X88692516Y-41244091D01*
X88699444Y-41244835D01*
X88752127Y-41250500D01*
X88982808Y-41250499D01*
X89049846Y-41270183D01*
X89095601Y-41322987D01*
X89105545Y-41392146D01*
X89076520Y-41455701D01*
X89033243Y-41487778D01*
X88872408Y-41559387D01*
X88727768Y-41664475D01*
X88608140Y-41797336D01*
X88518750Y-41952164D01*
X88518747Y-41952170D01*
X88463504Y-42122192D01*
X88463503Y-42122194D01*
X88444815Y-42300000D01*
X88450337Y-42352539D01*
X88437767Y-42421269D01*
X88390035Y-42472292D01*
X88327016Y-42489500D01*
X88075302Y-42489500D01*
X88039008Y-42492356D01*
X88039002Y-42492357D01*
X87883609Y-42537504D01*
X87883604Y-42537506D01*
X87862628Y-42549911D01*
X87794903Y-42567092D01*
X87736389Y-42549911D01*
X87716193Y-42537967D01*
X87716190Y-42537966D01*
X87644172Y-42517043D01*
X87585286Y-42479437D01*
X87556080Y-42415964D01*
X87556787Y-42375678D01*
X87557643Y-42370992D01*
X87560499Y-42334697D01*
X87560500Y-42334690D01*
X87560500Y-41865310D01*
X87557643Y-41829007D01*
X87550986Y-41806095D01*
X87512495Y-41673609D01*
X87512495Y-41673608D01*
X87512494Y-41673607D01*
X87512494Y-41673605D01*
X87472767Y-41606430D01*
X87455500Y-41543310D01*
X87455500Y-41349574D01*
X87475185Y-41282535D01*
X87527989Y-41236780D01*
X87536163Y-41233393D01*
X87610667Y-41205606D01*
X87642326Y-41193798D01*
X87642326Y-41193797D01*
X87642331Y-41193796D01*
X87757546Y-41107546D01*
X87843796Y-40992331D01*
X87894091Y-40857483D01*
X87894989Y-40849128D01*
X87921725Y-40784579D01*
X87930588Y-40774711D01*
X88087821Y-40617478D01*
X88149142Y-40583995D01*
X88218834Y-40588979D01*
G37*
%TD.AperFunction*%
%TA.AperFunction,Conductor*%
G36*
X91045677Y-41589685D02*
G01*
X91046068Y-41590000D01*
X91526000Y-41590000D01*
X91593039Y-41609685D01*
X91638794Y-41662489D01*
X91650000Y-41714000D01*
X91650000Y-41895500D01*
X91630315Y-41962539D01*
X91577511Y-42008294D01*
X91526000Y-42019500D01*
X91392885Y-42019500D01*
X91326913Y-42000494D01*
X91238352Y-41944847D01*
X91097325Y-41895500D01*
X91084039Y-41890851D01*
X91084038Y-41890850D01*
X91084033Y-41890849D01*
X90921582Y-41872546D01*
X90921574Y-41872546D01*
X90759122Y-41890849D01*
X90604802Y-41944848D01*
X90543336Y-41983469D01*
X90476099Y-42002468D01*
X90467641Y-42002092D01*
X90434705Y-41999500D01*
X90434690Y-41999500D01*
X90180170Y-41999500D01*
X90113131Y-41979815D01*
X90072783Y-41937500D01*
X90065680Y-41925198D01*
X89991859Y-41797335D01*
X89988423Y-41793519D01*
X89981848Y-41786216D01*
X89951620Y-41723223D01*
X89950000Y-41703246D01*
X89950000Y-41694000D01*
X89969685Y-41626961D01*
X90022489Y-41581206D01*
X90074000Y-41570000D01*
X90978638Y-41570000D01*
X91045677Y-41589685D01*
G37*
%TD.AperFunction*%
%TD*%
M02*
