%TF.GenerationSoftware,KiCad,Pcbnew,7.0.5*%
%TF.CreationDate,2024-03-10T15:58:08+09:00*%
%TF.ProjectId,camera_exp,63616d65-7261-45f6-9578-702e6b696361,rev?*%
%TF.SameCoordinates,Original*%
%TF.FileFunction,Legend,Bot*%
%TF.FilePolarity,Positive*%
%FSLAX46Y46*%
G04 Gerber Fmt 4.6, Leading zero omitted, Abs format (unit mm)*
G04 Created by KiCad (PCBNEW 7.0.5) date 2024-03-10 15:58:08*
%MOMM*%
%LPD*%
G01*
G04 APERTURE LIST*
%ADD10C,0.150000*%
%ADD11C,0.120000*%
%ADD12C,0.200000*%
G04 APERTURE END LIST*
D10*
X97882268Y-50218295D02*
X97882268Y-50789723D01*
X97882268Y-50789723D02*
X97920363Y-50904009D01*
X97920363Y-50904009D02*
X97996554Y-50980200D01*
X97996554Y-50980200D02*
X98110839Y-51018295D01*
X98110839Y-51018295D02*
X98187030Y-51018295D01*
X97577506Y-50218295D02*
X97044172Y-51018295D01*
X97044172Y-50218295D02*
X97577506Y-51018295D01*
X96739410Y-50713533D02*
X96129887Y-50713533D01*
X95482268Y-50599247D02*
X95748934Y-50599247D01*
X95748934Y-51018295D02*
X95748934Y-50218295D01*
X95748934Y-50218295D02*
X95367982Y-50218295D01*
X95139411Y-50218295D02*
X94644173Y-50218295D01*
X94644173Y-50218295D02*
X94910839Y-50523057D01*
X94910839Y-50523057D02*
X94796554Y-50523057D01*
X94796554Y-50523057D02*
X94720363Y-50561152D01*
X94720363Y-50561152D02*
X94682268Y-50599247D01*
X94682268Y-50599247D02*
X94644173Y-50675438D01*
X94644173Y-50675438D02*
X94644173Y-50865914D01*
X94644173Y-50865914D02*
X94682268Y-50942104D01*
X94682268Y-50942104D02*
X94720363Y-50980200D01*
X94720363Y-50980200D02*
X94796554Y-51018295D01*
X94796554Y-51018295D02*
X95025125Y-51018295D01*
X95025125Y-51018295D02*
X95101316Y-50980200D01*
X95101316Y-50980200D02*
X95139411Y-50942104D01*
X94187030Y-50561152D02*
X94263220Y-50523057D01*
X94263220Y-50523057D02*
X94301315Y-50484961D01*
X94301315Y-50484961D02*
X94339411Y-50408771D01*
X94339411Y-50408771D02*
X94339411Y-50370676D01*
X94339411Y-50370676D02*
X94301315Y-50294485D01*
X94301315Y-50294485D02*
X94263220Y-50256390D01*
X94263220Y-50256390D02*
X94187030Y-50218295D01*
X94187030Y-50218295D02*
X94034649Y-50218295D01*
X94034649Y-50218295D02*
X93958458Y-50256390D01*
X93958458Y-50256390D02*
X93920363Y-50294485D01*
X93920363Y-50294485D02*
X93882268Y-50370676D01*
X93882268Y-50370676D02*
X93882268Y-50408771D01*
X93882268Y-50408771D02*
X93920363Y-50484961D01*
X93920363Y-50484961D02*
X93958458Y-50523057D01*
X93958458Y-50523057D02*
X94034649Y-50561152D01*
X94034649Y-50561152D02*
X94187030Y-50561152D01*
X94187030Y-50561152D02*
X94263220Y-50599247D01*
X94263220Y-50599247D02*
X94301315Y-50637342D01*
X94301315Y-50637342D02*
X94339411Y-50713533D01*
X94339411Y-50713533D02*
X94339411Y-50865914D01*
X94339411Y-50865914D02*
X94301315Y-50942104D01*
X94301315Y-50942104D02*
X94263220Y-50980200D01*
X94263220Y-50980200D02*
X94187030Y-51018295D01*
X94187030Y-51018295D02*
X94034649Y-51018295D01*
X94034649Y-51018295D02*
X93958458Y-50980200D01*
X93958458Y-50980200D02*
X93920363Y-50942104D01*
X93920363Y-50942104D02*
X93882268Y-50865914D01*
X93882268Y-50865914D02*
X93882268Y-50713533D01*
X93882268Y-50713533D02*
X93920363Y-50637342D01*
X93920363Y-50637342D02*
X93958458Y-50599247D01*
X93958458Y-50599247D02*
X94034649Y-50561152D01*
X93539410Y-51018295D02*
X93539410Y-50218295D01*
X93539410Y-50218295D02*
X93234648Y-50218295D01*
X93234648Y-50218295D02*
X93158458Y-50256390D01*
X93158458Y-50256390D02*
X93120363Y-50294485D01*
X93120363Y-50294485D02*
X93082267Y-50370676D01*
X93082267Y-50370676D02*
X93082267Y-50484961D01*
X93082267Y-50484961D02*
X93120363Y-50561152D01*
X93120363Y-50561152D02*
X93158458Y-50599247D01*
X93158458Y-50599247D02*
X93234648Y-50637342D01*
X93234648Y-50637342D02*
X93539410Y-50637342D01*
X92129886Y-50599247D02*
X91863220Y-50599247D01*
X91748934Y-51018295D02*
X92129886Y-51018295D01*
X92129886Y-51018295D02*
X92129886Y-50218295D01*
X92129886Y-50218295D02*
X91748934Y-50218295D01*
X91482267Y-51018295D02*
X91063219Y-50484961D01*
X91482267Y-50484961D02*
X91063219Y-51018295D01*
X90758457Y-50484961D02*
X90758457Y-51284961D01*
X90758457Y-50523057D02*
X90682267Y-50484961D01*
X90682267Y-50484961D02*
X90529886Y-50484961D01*
X90529886Y-50484961D02*
X90453695Y-50523057D01*
X90453695Y-50523057D02*
X90415600Y-50561152D01*
X90415600Y-50561152D02*
X90377505Y-50637342D01*
X90377505Y-50637342D02*
X90377505Y-50865914D01*
X90377505Y-50865914D02*
X90415600Y-50942104D01*
X90415600Y-50942104D02*
X90453695Y-50980200D01*
X90453695Y-50980200D02*
X90529886Y-51018295D01*
X90529886Y-51018295D02*
X90682267Y-51018295D01*
X90682267Y-51018295D02*
X90758457Y-50980200D01*
X90034647Y-50942104D02*
X89996552Y-50980200D01*
X89996552Y-50980200D02*
X90034647Y-51018295D01*
X90034647Y-51018295D02*
X90072743Y-50980200D01*
X90072743Y-50980200D02*
X90034647Y-50942104D01*
X90034647Y-50942104D02*
X90034647Y-51018295D01*
X88777505Y-50599247D02*
X88663219Y-50637342D01*
X88663219Y-50637342D02*
X88625124Y-50675438D01*
X88625124Y-50675438D02*
X88587028Y-50751628D01*
X88587028Y-50751628D02*
X88587028Y-50865914D01*
X88587028Y-50865914D02*
X88625124Y-50942104D01*
X88625124Y-50942104D02*
X88663219Y-50980200D01*
X88663219Y-50980200D02*
X88739409Y-51018295D01*
X88739409Y-51018295D02*
X89044171Y-51018295D01*
X89044171Y-51018295D02*
X89044171Y-50218295D01*
X89044171Y-50218295D02*
X88777505Y-50218295D01*
X88777505Y-50218295D02*
X88701314Y-50256390D01*
X88701314Y-50256390D02*
X88663219Y-50294485D01*
X88663219Y-50294485D02*
X88625124Y-50370676D01*
X88625124Y-50370676D02*
X88625124Y-50446866D01*
X88625124Y-50446866D02*
X88663219Y-50523057D01*
X88663219Y-50523057D02*
X88701314Y-50561152D01*
X88701314Y-50561152D02*
X88777505Y-50599247D01*
X88777505Y-50599247D02*
X89044171Y-50599247D01*
X88129886Y-51018295D02*
X88206076Y-50980200D01*
X88206076Y-50980200D02*
X88244171Y-50942104D01*
X88244171Y-50942104D02*
X88282267Y-50865914D01*
X88282267Y-50865914D02*
X88282267Y-50637342D01*
X88282267Y-50637342D02*
X88244171Y-50561152D01*
X88244171Y-50561152D02*
X88206076Y-50523057D01*
X88206076Y-50523057D02*
X88129886Y-50484961D01*
X88129886Y-50484961D02*
X88015600Y-50484961D01*
X88015600Y-50484961D02*
X87939409Y-50523057D01*
X87939409Y-50523057D02*
X87901314Y-50561152D01*
X87901314Y-50561152D02*
X87863219Y-50637342D01*
X87863219Y-50637342D02*
X87863219Y-50865914D01*
X87863219Y-50865914D02*
X87901314Y-50942104D01*
X87901314Y-50942104D02*
X87939409Y-50980200D01*
X87939409Y-50980200D02*
X88015600Y-51018295D01*
X88015600Y-51018295D02*
X88129886Y-51018295D01*
X87177504Y-51018295D02*
X87177504Y-50599247D01*
X87177504Y-50599247D02*
X87215599Y-50523057D01*
X87215599Y-50523057D02*
X87291790Y-50484961D01*
X87291790Y-50484961D02*
X87444171Y-50484961D01*
X87444171Y-50484961D02*
X87520361Y-50523057D01*
X87177504Y-50980200D02*
X87253695Y-51018295D01*
X87253695Y-51018295D02*
X87444171Y-51018295D01*
X87444171Y-51018295D02*
X87520361Y-50980200D01*
X87520361Y-50980200D02*
X87558457Y-50904009D01*
X87558457Y-50904009D02*
X87558457Y-50827819D01*
X87558457Y-50827819D02*
X87520361Y-50751628D01*
X87520361Y-50751628D02*
X87444171Y-50713533D01*
X87444171Y-50713533D02*
X87253695Y-50713533D01*
X87253695Y-50713533D02*
X87177504Y-50675438D01*
X86796551Y-51018295D02*
X86796551Y-50484961D01*
X86796551Y-50637342D02*
X86758456Y-50561152D01*
X86758456Y-50561152D02*
X86720361Y-50523057D01*
X86720361Y-50523057D02*
X86644170Y-50484961D01*
X86644170Y-50484961D02*
X86567980Y-50484961D01*
X85958456Y-51018295D02*
X85958456Y-50218295D01*
X85958456Y-50980200D02*
X86034647Y-51018295D01*
X86034647Y-51018295D02*
X86187028Y-51018295D01*
X86187028Y-51018295D02*
X86263218Y-50980200D01*
X86263218Y-50980200D02*
X86301313Y-50942104D01*
X86301313Y-50942104D02*
X86339409Y-50865914D01*
X86339409Y-50865914D02*
X86339409Y-50637342D01*
X86339409Y-50637342D02*
X86301313Y-50561152D01*
X86301313Y-50561152D02*
X86263218Y-50523057D01*
X86263218Y-50523057D02*
X86187028Y-50484961D01*
X86187028Y-50484961D02*
X86034647Y-50484961D01*
X86034647Y-50484961D02*
X85958456Y-50523057D01*
X98110839Y-52306295D02*
X98110839Y-51506295D01*
X98110839Y-51506295D02*
X97920363Y-51506295D01*
X97920363Y-51506295D02*
X97806077Y-51544390D01*
X97806077Y-51544390D02*
X97729887Y-51620580D01*
X97729887Y-51620580D02*
X97691792Y-51696771D01*
X97691792Y-51696771D02*
X97653696Y-51849152D01*
X97653696Y-51849152D02*
X97653696Y-51963438D01*
X97653696Y-51963438D02*
X97691792Y-52115819D01*
X97691792Y-52115819D02*
X97729887Y-52192009D01*
X97729887Y-52192009D02*
X97806077Y-52268200D01*
X97806077Y-52268200D02*
X97920363Y-52306295D01*
X97920363Y-52306295D02*
X98110839Y-52306295D01*
X96967982Y-52306295D02*
X96967982Y-51887247D01*
X96967982Y-51887247D02*
X97006077Y-51811057D01*
X97006077Y-51811057D02*
X97082268Y-51772961D01*
X97082268Y-51772961D02*
X97234649Y-51772961D01*
X97234649Y-51772961D02*
X97310839Y-51811057D01*
X96967982Y-52268200D02*
X97044173Y-52306295D01*
X97044173Y-52306295D02*
X97234649Y-52306295D01*
X97234649Y-52306295D02*
X97310839Y-52268200D01*
X97310839Y-52268200D02*
X97348935Y-52192009D01*
X97348935Y-52192009D02*
X97348935Y-52115819D01*
X97348935Y-52115819D02*
X97310839Y-52039628D01*
X97310839Y-52039628D02*
X97234649Y-52001533D01*
X97234649Y-52001533D02*
X97044173Y-52001533D01*
X97044173Y-52001533D02*
X96967982Y-51963438D01*
X96701315Y-51772961D02*
X96396553Y-51772961D01*
X96587029Y-51506295D02*
X96587029Y-52192009D01*
X96587029Y-52192009D02*
X96548934Y-52268200D01*
X96548934Y-52268200D02*
X96472744Y-52306295D01*
X96472744Y-52306295D02*
X96396553Y-52306295D01*
X95825124Y-52268200D02*
X95901315Y-52306295D01*
X95901315Y-52306295D02*
X96053696Y-52306295D01*
X96053696Y-52306295D02*
X96129886Y-52268200D01*
X96129886Y-52268200D02*
X96167982Y-52192009D01*
X96167982Y-52192009D02*
X96167982Y-51887247D01*
X96167982Y-51887247D02*
X96129886Y-51811057D01*
X96129886Y-51811057D02*
X96053696Y-51772961D01*
X96053696Y-51772961D02*
X95901315Y-51772961D01*
X95901315Y-51772961D02*
X95825124Y-51811057D01*
X95825124Y-51811057D02*
X95787029Y-51887247D01*
X95787029Y-51887247D02*
X95787029Y-51963438D01*
X95787029Y-51963438D02*
X96167982Y-52039628D01*
X95444172Y-52230104D02*
X95406077Y-52268200D01*
X95406077Y-52268200D02*
X95444172Y-52306295D01*
X95444172Y-52306295D02*
X95482268Y-52268200D01*
X95482268Y-52268200D02*
X95444172Y-52230104D01*
X95444172Y-52230104D02*
X95444172Y-52306295D01*
X95444172Y-51811057D02*
X95406077Y-51849152D01*
X95406077Y-51849152D02*
X95444172Y-51887247D01*
X95444172Y-51887247D02*
X95482268Y-51849152D01*
X95482268Y-51849152D02*
X95444172Y-51811057D01*
X95444172Y-51811057D02*
X95444172Y-51887247D01*
X94491792Y-51582485D02*
X94453696Y-51544390D01*
X94453696Y-51544390D02*
X94377506Y-51506295D01*
X94377506Y-51506295D02*
X94187030Y-51506295D01*
X94187030Y-51506295D02*
X94110839Y-51544390D01*
X94110839Y-51544390D02*
X94072744Y-51582485D01*
X94072744Y-51582485D02*
X94034649Y-51658676D01*
X94034649Y-51658676D02*
X94034649Y-51734866D01*
X94034649Y-51734866D02*
X94072744Y-51849152D01*
X94072744Y-51849152D02*
X94529887Y-52306295D01*
X94529887Y-52306295D02*
X94034649Y-52306295D01*
X93539410Y-51506295D02*
X93463220Y-51506295D01*
X93463220Y-51506295D02*
X93387029Y-51544390D01*
X93387029Y-51544390D02*
X93348934Y-51582485D01*
X93348934Y-51582485D02*
X93310839Y-51658676D01*
X93310839Y-51658676D02*
X93272744Y-51811057D01*
X93272744Y-51811057D02*
X93272744Y-52001533D01*
X93272744Y-52001533D02*
X93310839Y-52153914D01*
X93310839Y-52153914D02*
X93348934Y-52230104D01*
X93348934Y-52230104D02*
X93387029Y-52268200D01*
X93387029Y-52268200D02*
X93463220Y-52306295D01*
X93463220Y-52306295D02*
X93539410Y-52306295D01*
X93539410Y-52306295D02*
X93615601Y-52268200D01*
X93615601Y-52268200D02*
X93653696Y-52230104D01*
X93653696Y-52230104D02*
X93691791Y-52153914D01*
X93691791Y-52153914D02*
X93729887Y-52001533D01*
X93729887Y-52001533D02*
X93729887Y-51811057D01*
X93729887Y-51811057D02*
X93691791Y-51658676D01*
X93691791Y-51658676D02*
X93653696Y-51582485D01*
X93653696Y-51582485D02*
X93615601Y-51544390D01*
X93615601Y-51544390D02*
X93539410Y-51506295D01*
X92967982Y-51582485D02*
X92929886Y-51544390D01*
X92929886Y-51544390D02*
X92853696Y-51506295D01*
X92853696Y-51506295D02*
X92663220Y-51506295D01*
X92663220Y-51506295D02*
X92587029Y-51544390D01*
X92587029Y-51544390D02*
X92548934Y-51582485D01*
X92548934Y-51582485D02*
X92510839Y-51658676D01*
X92510839Y-51658676D02*
X92510839Y-51734866D01*
X92510839Y-51734866D02*
X92548934Y-51849152D01*
X92548934Y-51849152D02*
X93006077Y-52306295D01*
X93006077Y-52306295D02*
X92510839Y-52306295D01*
X91825124Y-51772961D02*
X91825124Y-52306295D01*
X92015600Y-51468200D02*
X92206077Y-52039628D01*
X92206077Y-52039628D02*
X91710838Y-52039628D01*
X91406076Y-52230104D02*
X91367981Y-52268200D01*
X91367981Y-52268200D02*
X91406076Y-52306295D01*
X91406076Y-52306295D02*
X91444172Y-52268200D01*
X91444172Y-52268200D02*
X91406076Y-52230104D01*
X91406076Y-52230104D02*
X91406076Y-52306295D01*
X91101315Y-51506295D02*
X90606077Y-51506295D01*
X90606077Y-51506295D02*
X90872743Y-51811057D01*
X90872743Y-51811057D02*
X90758458Y-51811057D01*
X90758458Y-51811057D02*
X90682267Y-51849152D01*
X90682267Y-51849152D02*
X90644172Y-51887247D01*
X90644172Y-51887247D02*
X90606077Y-51963438D01*
X90606077Y-51963438D02*
X90606077Y-52153914D01*
X90606077Y-52153914D02*
X90644172Y-52230104D01*
X90644172Y-52230104D02*
X90682267Y-52268200D01*
X90682267Y-52268200D02*
X90758458Y-52306295D01*
X90758458Y-52306295D02*
X90987029Y-52306295D01*
X90987029Y-52306295D02*
X91063220Y-52268200D01*
X91063220Y-52268200D02*
X91101315Y-52230104D01*
X90263219Y-52230104D02*
X90225124Y-52268200D01*
X90225124Y-52268200D02*
X90263219Y-52306295D01*
X90263219Y-52306295D02*
X90301315Y-52268200D01*
X90301315Y-52268200D02*
X90263219Y-52230104D01*
X90263219Y-52230104D02*
X90263219Y-52306295D01*
X89463220Y-52306295D02*
X89920363Y-52306295D01*
X89691791Y-52306295D02*
X89691791Y-51506295D01*
X89691791Y-51506295D02*
X89767982Y-51620580D01*
X89767982Y-51620580D02*
X89844172Y-51696771D01*
X89844172Y-51696771D02*
X89920363Y-51734866D01*
X88967981Y-51506295D02*
X88891791Y-51506295D01*
X88891791Y-51506295D02*
X88815600Y-51544390D01*
X88815600Y-51544390D02*
X88777505Y-51582485D01*
X88777505Y-51582485D02*
X88739410Y-51658676D01*
X88739410Y-51658676D02*
X88701315Y-51811057D01*
X88701315Y-51811057D02*
X88701315Y-52001533D01*
X88701315Y-52001533D02*
X88739410Y-52153914D01*
X88739410Y-52153914D02*
X88777505Y-52230104D01*
X88777505Y-52230104D02*
X88815600Y-52268200D01*
X88815600Y-52268200D02*
X88891791Y-52306295D01*
X88891791Y-52306295D02*
X88967981Y-52306295D01*
X88967981Y-52306295D02*
X89044172Y-52268200D01*
X89044172Y-52268200D02*
X89082267Y-52230104D01*
X89082267Y-52230104D02*
X89120362Y-52153914D01*
X89120362Y-52153914D02*
X89158458Y-52001533D01*
X89158458Y-52001533D02*
X89158458Y-51811057D01*
X89158458Y-51811057D02*
X89120362Y-51658676D01*
X89120362Y-51658676D02*
X89082267Y-51582485D01*
X89082267Y-51582485D02*
X89044172Y-51544390D01*
X89044172Y-51544390D02*
X88967981Y-51506295D01*
X98110839Y-53594295D02*
X98110839Y-52794295D01*
X98110839Y-52794295D02*
X97920363Y-52794295D01*
X97920363Y-52794295D02*
X97806077Y-52832390D01*
X97806077Y-52832390D02*
X97729887Y-52908580D01*
X97729887Y-52908580D02*
X97691792Y-52984771D01*
X97691792Y-52984771D02*
X97653696Y-53137152D01*
X97653696Y-53137152D02*
X97653696Y-53251438D01*
X97653696Y-53251438D02*
X97691792Y-53403819D01*
X97691792Y-53403819D02*
X97729887Y-53480009D01*
X97729887Y-53480009D02*
X97806077Y-53556200D01*
X97806077Y-53556200D02*
X97920363Y-53594295D01*
X97920363Y-53594295D02*
X98110839Y-53594295D01*
X97006077Y-53556200D02*
X97082268Y-53594295D01*
X97082268Y-53594295D02*
X97234649Y-53594295D01*
X97234649Y-53594295D02*
X97310839Y-53556200D01*
X97310839Y-53556200D02*
X97348935Y-53480009D01*
X97348935Y-53480009D02*
X97348935Y-53175247D01*
X97348935Y-53175247D02*
X97310839Y-53099057D01*
X97310839Y-53099057D02*
X97234649Y-53060961D01*
X97234649Y-53060961D02*
X97082268Y-53060961D01*
X97082268Y-53060961D02*
X97006077Y-53099057D01*
X97006077Y-53099057D02*
X96967982Y-53175247D01*
X96967982Y-53175247D02*
X96967982Y-53251438D01*
X96967982Y-53251438D02*
X97348935Y-53327628D01*
X96663221Y-53556200D02*
X96587030Y-53594295D01*
X96587030Y-53594295D02*
X96434649Y-53594295D01*
X96434649Y-53594295D02*
X96358459Y-53556200D01*
X96358459Y-53556200D02*
X96320363Y-53480009D01*
X96320363Y-53480009D02*
X96320363Y-53441914D01*
X96320363Y-53441914D02*
X96358459Y-53365723D01*
X96358459Y-53365723D02*
X96434649Y-53327628D01*
X96434649Y-53327628D02*
X96548935Y-53327628D01*
X96548935Y-53327628D02*
X96625125Y-53289533D01*
X96625125Y-53289533D02*
X96663221Y-53213342D01*
X96663221Y-53213342D02*
X96663221Y-53175247D01*
X96663221Y-53175247D02*
X96625125Y-53099057D01*
X96625125Y-53099057D02*
X96548935Y-53060961D01*
X96548935Y-53060961D02*
X96434649Y-53060961D01*
X96434649Y-53060961D02*
X96358459Y-53099057D01*
X95977506Y-53594295D02*
X95977506Y-53060961D01*
X95977506Y-52794295D02*
X96015602Y-52832390D01*
X96015602Y-52832390D02*
X95977506Y-52870485D01*
X95977506Y-52870485D02*
X95939411Y-52832390D01*
X95939411Y-52832390D02*
X95977506Y-52794295D01*
X95977506Y-52794295D02*
X95977506Y-52870485D01*
X95253697Y-53060961D02*
X95253697Y-53708580D01*
X95253697Y-53708580D02*
X95291792Y-53784771D01*
X95291792Y-53784771D02*
X95329888Y-53822866D01*
X95329888Y-53822866D02*
X95406078Y-53860961D01*
X95406078Y-53860961D02*
X95520364Y-53860961D01*
X95520364Y-53860961D02*
X95596554Y-53822866D01*
X95253697Y-53556200D02*
X95329888Y-53594295D01*
X95329888Y-53594295D02*
X95482269Y-53594295D01*
X95482269Y-53594295D02*
X95558459Y-53556200D01*
X95558459Y-53556200D02*
X95596554Y-53518104D01*
X95596554Y-53518104D02*
X95634650Y-53441914D01*
X95634650Y-53441914D02*
X95634650Y-53213342D01*
X95634650Y-53213342D02*
X95596554Y-53137152D01*
X95596554Y-53137152D02*
X95558459Y-53099057D01*
X95558459Y-53099057D02*
X95482269Y-53060961D01*
X95482269Y-53060961D02*
X95329888Y-53060961D01*
X95329888Y-53060961D02*
X95253697Y-53099057D01*
X94872744Y-53060961D02*
X94872744Y-53594295D01*
X94872744Y-53137152D02*
X94834649Y-53099057D01*
X94834649Y-53099057D02*
X94758459Y-53060961D01*
X94758459Y-53060961D02*
X94644173Y-53060961D01*
X94644173Y-53060961D02*
X94567982Y-53099057D01*
X94567982Y-53099057D02*
X94529887Y-53175247D01*
X94529887Y-53175247D02*
X94529887Y-53594295D01*
X94148934Y-53518104D02*
X94110839Y-53556200D01*
X94110839Y-53556200D02*
X94148934Y-53594295D01*
X94148934Y-53594295D02*
X94187030Y-53556200D01*
X94187030Y-53556200D02*
X94148934Y-53518104D01*
X94148934Y-53518104D02*
X94148934Y-53594295D01*
X94148934Y-53099057D02*
X94110839Y-53137152D01*
X94110839Y-53137152D02*
X94148934Y-53175247D01*
X94148934Y-53175247D02*
X94187030Y-53137152D01*
X94187030Y-53137152D02*
X94148934Y-53099057D01*
X94148934Y-53099057D02*
X94148934Y-53175247D01*
X93196554Y-53365723D02*
X92815601Y-53365723D01*
X93272744Y-53594295D02*
X93006077Y-52794295D01*
X93006077Y-52794295D02*
X92739411Y-53594295D01*
X92472744Y-53594295D02*
X92472744Y-52794295D01*
X92396554Y-53289533D02*
X92167982Y-53594295D01*
X92167982Y-53060961D02*
X92472744Y-53365723D01*
X91825125Y-53594295D02*
X91825125Y-53060961D01*
X91825125Y-52794295D02*
X91863221Y-52832390D01*
X91863221Y-52832390D02*
X91825125Y-52870485D01*
X91825125Y-52870485D02*
X91787030Y-52832390D01*
X91787030Y-52832390D02*
X91825125Y-52794295D01*
X91825125Y-52794295D02*
X91825125Y-52870485D01*
X91329888Y-53594295D02*
X91406078Y-53556200D01*
X91406078Y-53556200D02*
X91444173Y-53518104D01*
X91444173Y-53518104D02*
X91482269Y-53441914D01*
X91482269Y-53441914D02*
X91482269Y-53213342D01*
X91482269Y-53213342D02*
X91444173Y-53137152D01*
X91444173Y-53137152D02*
X91406078Y-53099057D01*
X91406078Y-53099057D02*
X91329888Y-53060961D01*
X91329888Y-53060961D02*
X91215602Y-53060961D01*
X91215602Y-53060961D02*
X91139411Y-53099057D01*
X91139411Y-53099057D02*
X91101316Y-53137152D01*
X91101316Y-53137152D02*
X91063221Y-53213342D01*
X91063221Y-53213342D02*
X91063221Y-53441914D01*
X91063221Y-53441914D02*
X91101316Y-53518104D01*
X91101316Y-53518104D02*
X91139411Y-53556200D01*
X91139411Y-53556200D02*
X91215602Y-53594295D01*
X91215602Y-53594295D02*
X91329888Y-53594295D01*
X90110839Y-53594295D02*
X90110839Y-52794295D01*
X90110839Y-52794295D02*
X89844173Y-53365723D01*
X89844173Y-53365723D02*
X89577506Y-52794295D01*
X89577506Y-52794295D02*
X89577506Y-53594295D01*
%TO.C,TP5*%
X95566666Y-38362295D02*
X95299999Y-39162295D01*
X95299999Y-39162295D02*
X95033333Y-38362295D01*
X94309523Y-39162295D02*
X94576190Y-38781342D01*
X94766666Y-39162295D02*
X94766666Y-38362295D01*
X94766666Y-38362295D02*
X94461904Y-38362295D01*
X94461904Y-38362295D02*
X94385714Y-38400390D01*
X94385714Y-38400390D02*
X94347619Y-38438485D01*
X94347619Y-38438485D02*
X94309523Y-38514676D01*
X94309523Y-38514676D02*
X94309523Y-38628961D01*
X94309523Y-38628961D02*
X94347619Y-38705152D01*
X94347619Y-38705152D02*
X94385714Y-38743247D01*
X94385714Y-38743247D02*
X94461904Y-38781342D01*
X94461904Y-38781342D02*
X94766666Y-38781342D01*
%TO.C,TP4*%
X85109523Y-48557533D02*
X84500000Y-48557533D01*
X84804761Y-48862295D02*
X84804761Y-48252771D01*
X84157143Y-48138485D02*
X84119047Y-48100390D01*
X84119047Y-48100390D02*
X84042857Y-48062295D01*
X84042857Y-48062295D02*
X83852381Y-48062295D01*
X83852381Y-48062295D02*
X83776190Y-48100390D01*
X83776190Y-48100390D02*
X83738095Y-48138485D01*
X83738095Y-48138485D02*
X83700000Y-48214676D01*
X83700000Y-48214676D02*
X83700000Y-48290866D01*
X83700000Y-48290866D02*
X83738095Y-48405152D01*
X83738095Y-48405152D02*
X84195238Y-48862295D01*
X84195238Y-48862295D02*
X83700000Y-48862295D01*
X83471428Y-48062295D02*
X83204761Y-48862295D01*
X83204761Y-48862295D02*
X82938095Y-48062295D01*
X82557143Y-48405152D02*
X82633333Y-48367057D01*
X82633333Y-48367057D02*
X82671428Y-48328961D01*
X82671428Y-48328961D02*
X82709524Y-48252771D01*
X82709524Y-48252771D02*
X82709524Y-48214676D01*
X82709524Y-48214676D02*
X82671428Y-48138485D01*
X82671428Y-48138485D02*
X82633333Y-48100390D01*
X82633333Y-48100390D02*
X82557143Y-48062295D01*
X82557143Y-48062295D02*
X82404762Y-48062295D01*
X82404762Y-48062295D02*
X82328571Y-48100390D01*
X82328571Y-48100390D02*
X82290476Y-48138485D01*
X82290476Y-48138485D02*
X82252381Y-48214676D01*
X82252381Y-48214676D02*
X82252381Y-48252771D01*
X82252381Y-48252771D02*
X82290476Y-48328961D01*
X82290476Y-48328961D02*
X82328571Y-48367057D01*
X82328571Y-48367057D02*
X82404762Y-48405152D01*
X82404762Y-48405152D02*
X82557143Y-48405152D01*
X82557143Y-48405152D02*
X82633333Y-48443247D01*
X82633333Y-48443247D02*
X82671428Y-48481342D01*
X82671428Y-48481342D02*
X82709524Y-48557533D01*
X82709524Y-48557533D02*
X82709524Y-48709914D01*
X82709524Y-48709914D02*
X82671428Y-48786104D01*
X82671428Y-48786104D02*
X82633333Y-48824200D01*
X82633333Y-48824200D02*
X82557143Y-48862295D01*
X82557143Y-48862295D02*
X82404762Y-48862295D01*
X82404762Y-48862295D02*
X82328571Y-48824200D01*
X82328571Y-48824200D02*
X82290476Y-48786104D01*
X82290476Y-48786104D02*
X82252381Y-48709914D01*
X82252381Y-48709914D02*
X82252381Y-48557533D01*
X82252381Y-48557533D02*
X82290476Y-48481342D01*
X82290476Y-48481342D02*
X82328571Y-48443247D01*
X82328571Y-48443247D02*
X82404762Y-48405152D01*
%TO.C,TP3*%
X99852380Y-42562295D02*
X99852380Y-41762295D01*
X99852380Y-41762295D02*
X99661904Y-41762295D01*
X99661904Y-41762295D02*
X99547618Y-41800390D01*
X99547618Y-41800390D02*
X99471428Y-41876580D01*
X99471428Y-41876580D02*
X99433333Y-41952771D01*
X99433333Y-41952771D02*
X99395237Y-42105152D01*
X99395237Y-42105152D02*
X99395237Y-42219438D01*
X99395237Y-42219438D02*
X99433333Y-42371819D01*
X99433333Y-42371819D02*
X99471428Y-42448009D01*
X99471428Y-42448009D02*
X99547618Y-42524200D01*
X99547618Y-42524200D02*
X99661904Y-42562295D01*
X99661904Y-42562295D02*
X99852380Y-42562295D01*
X99166666Y-41762295D02*
X98899999Y-42562295D01*
X98899999Y-42562295D02*
X98633333Y-41762295D01*
X98366666Y-42562295D02*
X98366666Y-41762295D01*
X98366666Y-41762295D02*
X98176190Y-41762295D01*
X98176190Y-41762295D02*
X98061904Y-41800390D01*
X98061904Y-41800390D02*
X97985714Y-41876580D01*
X97985714Y-41876580D02*
X97947619Y-41952771D01*
X97947619Y-41952771D02*
X97909523Y-42105152D01*
X97909523Y-42105152D02*
X97909523Y-42219438D01*
X97909523Y-42219438D02*
X97947619Y-42371819D01*
X97947619Y-42371819D02*
X97985714Y-42448009D01*
X97985714Y-42448009D02*
X98061904Y-42524200D01*
X98061904Y-42524200D02*
X98176190Y-42562295D01*
X98176190Y-42562295D02*
X98366666Y-42562295D01*
X97566666Y-42562295D02*
X97566666Y-41762295D01*
X97566666Y-41762295D02*
X97376190Y-41762295D01*
X97376190Y-41762295D02*
X97261904Y-41800390D01*
X97261904Y-41800390D02*
X97185714Y-41876580D01*
X97185714Y-41876580D02*
X97147619Y-41952771D01*
X97147619Y-41952771D02*
X97109523Y-42105152D01*
X97109523Y-42105152D02*
X97109523Y-42219438D01*
X97109523Y-42219438D02*
X97147619Y-42371819D01*
X97147619Y-42371819D02*
X97185714Y-42448009D01*
X97185714Y-42448009D02*
X97261904Y-42524200D01*
X97261904Y-42524200D02*
X97376190Y-42562295D01*
X97376190Y-42562295D02*
X97566666Y-42562295D01*
%TO.C,TP2*%
X92909523Y-47857533D02*
X92300000Y-47857533D01*
X92604761Y-48162295D02*
X92604761Y-47552771D01*
X91500000Y-48162295D02*
X91957143Y-48162295D01*
X91728571Y-48162295D02*
X91728571Y-47362295D01*
X91728571Y-47362295D02*
X91804762Y-47476580D01*
X91804762Y-47476580D02*
X91880952Y-47552771D01*
X91880952Y-47552771D02*
X91957143Y-47590866D01*
X91271428Y-47362295D02*
X91004761Y-48162295D01*
X91004761Y-48162295D02*
X90738095Y-47362295D01*
X90357143Y-47705152D02*
X90433333Y-47667057D01*
X90433333Y-47667057D02*
X90471428Y-47628961D01*
X90471428Y-47628961D02*
X90509524Y-47552771D01*
X90509524Y-47552771D02*
X90509524Y-47514676D01*
X90509524Y-47514676D02*
X90471428Y-47438485D01*
X90471428Y-47438485D02*
X90433333Y-47400390D01*
X90433333Y-47400390D02*
X90357143Y-47362295D01*
X90357143Y-47362295D02*
X90204762Y-47362295D01*
X90204762Y-47362295D02*
X90128571Y-47400390D01*
X90128571Y-47400390D02*
X90090476Y-47438485D01*
X90090476Y-47438485D02*
X90052381Y-47514676D01*
X90052381Y-47514676D02*
X90052381Y-47552771D01*
X90052381Y-47552771D02*
X90090476Y-47628961D01*
X90090476Y-47628961D02*
X90128571Y-47667057D01*
X90128571Y-47667057D02*
X90204762Y-47705152D01*
X90204762Y-47705152D02*
X90357143Y-47705152D01*
X90357143Y-47705152D02*
X90433333Y-47743247D01*
X90433333Y-47743247D02*
X90471428Y-47781342D01*
X90471428Y-47781342D02*
X90509524Y-47857533D01*
X90509524Y-47857533D02*
X90509524Y-48009914D01*
X90509524Y-48009914D02*
X90471428Y-48086104D01*
X90471428Y-48086104D02*
X90433333Y-48124200D01*
X90433333Y-48124200D02*
X90357143Y-48162295D01*
X90357143Y-48162295D02*
X90204762Y-48162295D01*
X90204762Y-48162295D02*
X90128571Y-48124200D01*
X90128571Y-48124200D02*
X90090476Y-48086104D01*
X90090476Y-48086104D02*
X90052381Y-48009914D01*
X90052381Y-48009914D02*
X90052381Y-47857533D01*
X90052381Y-47857533D02*
X90090476Y-47781342D01*
X90090476Y-47781342D02*
X90128571Y-47743247D01*
X90128571Y-47743247D02*
X90204762Y-47705152D01*
%TO.C,TP1*%
X99209523Y-39100390D02*
X99285713Y-39062295D01*
X99285713Y-39062295D02*
X99399999Y-39062295D01*
X99399999Y-39062295D02*
X99514285Y-39100390D01*
X99514285Y-39100390D02*
X99590475Y-39176580D01*
X99590475Y-39176580D02*
X99628570Y-39252771D01*
X99628570Y-39252771D02*
X99666666Y-39405152D01*
X99666666Y-39405152D02*
X99666666Y-39519438D01*
X99666666Y-39519438D02*
X99628570Y-39671819D01*
X99628570Y-39671819D02*
X99590475Y-39748009D01*
X99590475Y-39748009D02*
X99514285Y-39824200D01*
X99514285Y-39824200D02*
X99399999Y-39862295D01*
X99399999Y-39862295D02*
X99323808Y-39862295D01*
X99323808Y-39862295D02*
X99209523Y-39824200D01*
X99209523Y-39824200D02*
X99171427Y-39786104D01*
X99171427Y-39786104D02*
X99171427Y-39519438D01*
X99171427Y-39519438D02*
X99323808Y-39519438D01*
X98828570Y-39862295D02*
X98828570Y-39062295D01*
X98828570Y-39062295D02*
X98371427Y-39862295D01*
X98371427Y-39862295D02*
X98371427Y-39062295D01*
X97990475Y-39862295D02*
X97990475Y-39062295D01*
X97990475Y-39062295D02*
X97799999Y-39062295D01*
X97799999Y-39062295D02*
X97685713Y-39100390D01*
X97685713Y-39100390D02*
X97609523Y-39176580D01*
X97609523Y-39176580D02*
X97571428Y-39252771D01*
X97571428Y-39252771D02*
X97533332Y-39405152D01*
X97533332Y-39405152D02*
X97533332Y-39519438D01*
X97533332Y-39519438D02*
X97571428Y-39671819D01*
X97571428Y-39671819D02*
X97609523Y-39748009D01*
X97609523Y-39748009D02*
X97685713Y-39824200D01*
X97685713Y-39824200D02*
X97799999Y-39862295D01*
X97799999Y-39862295D02*
X97990475Y-39862295D01*
%TO.C,C11*%
X90214285Y-43986104D02*
X90252381Y-44024200D01*
X90252381Y-44024200D02*
X90366666Y-44062295D01*
X90366666Y-44062295D02*
X90442857Y-44062295D01*
X90442857Y-44062295D02*
X90557143Y-44024200D01*
X90557143Y-44024200D02*
X90633333Y-43948009D01*
X90633333Y-43948009D02*
X90671428Y-43871819D01*
X90671428Y-43871819D02*
X90709524Y-43719438D01*
X90709524Y-43719438D02*
X90709524Y-43605152D01*
X90709524Y-43605152D02*
X90671428Y-43452771D01*
X90671428Y-43452771D02*
X90633333Y-43376580D01*
X90633333Y-43376580D02*
X90557143Y-43300390D01*
X90557143Y-43300390D02*
X90442857Y-43262295D01*
X90442857Y-43262295D02*
X90366666Y-43262295D01*
X90366666Y-43262295D02*
X90252381Y-43300390D01*
X90252381Y-43300390D02*
X90214285Y-43338485D01*
X89452381Y-44062295D02*
X89909524Y-44062295D01*
X89680952Y-44062295D02*
X89680952Y-43262295D01*
X89680952Y-43262295D02*
X89757143Y-43376580D01*
X89757143Y-43376580D02*
X89833333Y-43452771D01*
X89833333Y-43452771D02*
X89909524Y-43490866D01*
X88690476Y-44062295D02*
X89147619Y-44062295D01*
X88919047Y-44062295D02*
X88919047Y-43262295D01*
X88919047Y-43262295D02*
X88995238Y-43376580D01*
X88995238Y-43376580D02*
X89071428Y-43452771D01*
X89071428Y-43452771D02*
X89147619Y-43490866D01*
%TO.C,R1*%
X92862295Y-44466667D02*
X92481342Y-44200000D01*
X92862295Y-44009524D02*
X92062295Y-44009524D01*
X92062295Y-44009524D02*
X92062295Y-44314286D01*
X92062295Y-44314286D02*
X92100390Y-44390476D01*
X92100390Y-44390476D02*
X92138485Y-44428571D01*
X92138485Y-44428571D02*
X92214676Y-44466667D01*
X92214676Y-44466667D02*
X92328961Y-44466667D01*
X92328961Y-44466667D02*
X92405152Y-44428571D01*
X92405152Y-44428571D02*
X92443247Y-44390476D01*
X92443247Y-44390476D02*
X92481342Y-44314286D01*
X92481342Y-44314286D02*
X92481342Y-44009524D01*
X92862295Y-45228571D02*
X92862295Y-44771428D01*
X92862295Y-45000000D02*
X92062295Y-45000000D01*
X92062295Y-45000000D02*
X92176580Y-44923809D01*
X92176580Y-44923809D02*
X92252771Y-44847619D01*
X92252771Y-44847619D02*
X92290866Y-44771428D01*
%TO.C,C22*%
X81486104Y-45685714D02*
X81524200Y-45647618D01*
X81524200Y-45647618D02*
X81562295Y-45533333D01*
X81562295Y-45533333D02*
X81562295Y-45457142D01*
X81562295Y-45457142D02*
X81524200Y-45342856D01*
X81524200Y-45342856D02*
X81448009Y-45266666D01*
X81448009Y-45266666D02*
X81371819Y-45228571D01*
X81371819Y-45228571D02*
X81219438Y-45190475D01*
X81219438Y-45190475D02*
X81105152Y-45190475D01*
X81105152Y-45190475D02*
X80952771Y-45228571D01*
X80952771Y-45228571D02*
X80876580Y-45266666D01*
X80876580Y-45266666D02*
X80800390Y-45342856D01*
X80800390Y-45342856D02*
X80762295Y-45457142D01*
X80762295Y-45457142D02*
X80762295Y-45533333D01*
X80762295Y-45533333D02*
X80800390Y-45647618D01*
X80800390Y-45647618D02*
X80838485Y-45685714D01*
X80838485Y-45990475D02*
X80800390Y-46028571D01*
X80800390Y-46028571D02*
X80762295Y-46104761D01*
X80762295Y-46104761D02*
X80762295Y-46295237D01*
X80762295Y-46295237D02*
X80800390Y-46371428D01*
X80800390Y-46371428D02*
X80838485Y-46409523D01*
X80838485Y-46409523D02*
X80914676Y-46447618D01*
X80914676Y-46447618D02*
X80990866Y-46447618D01*
X80990866Y-46447618D02*
X81105152Y-46409523D01*
X81105152Y-46409523D02*
X81562295Y-45952380D01*
X81562295Y-45952380D02*
X81562295Y-46447618D01*
X80838485Y-46752380D02*
X80800390Y-46790476D01*
X80800390Y-46790476D02*
X80762295Y-46866666D01*
X80762295Y-46866666D02*
X80762295Y-47057142D01*
X80762295Y-47057142D02*
X80800390Y-47133333D01*
X80800390Y-47133333D02*
X80838485Y-47171428D01*
X80838485Y-47171428D02*
X80914676Y-47209523D01*
X80914676Y-47209523D02*
X80990866Y-47209523D01*
X80990866Y-47209523D02*
X81105152Y-47171428D01*
X81105152Y-47171428D02*
X81562295Y-46714285D01*
X81562295Y-46714285D02*
X81562295Y-47209523D01*
%TO.C,C20*%
X84714285Y-42386104D02*
X84752381Y-42424200D01*
X84752381Y-42424200D02*
X84866666Y-42462295D01*
X84866666Y-42462295D02*
X84942857Y-42462295D01*
X84942857Y-42462295D02*
X85057143Y-42424200D01*
X85057143Y-42424200D02*
X85133333Y-42348009D01*
X85133333Y-42348009D02*
X85171428Y-42271819D01*
X85171428Y-42271819D02*
X85209524Y-42119438D01*
X85209524Y-42119438D02*
X85209524Y-42005152D01*
X85209524Y-42005152D02*
X85171428Y-41852771D01*
X85171428Y-41852771D02*
X85133333Y-41776580D01*
X85133333Y-41776580D02*
X85057143Y-41700390D01*
X85057143Y-41700390D02*
X84942857Y-41662295D01*
X84942857Y-41662295D02*
X84866666Y-41662295D01*
X84866666Y-41662295D02*
X84752381Y-41700390D01*
X84752381Y-41700390D02*
X84714285Y-41738485D01*
X84409524Y-41738485D02*
X84371428Y-41700390D01*
X84371428Y-41700390D02*
X84295238Y-41662295D01*
X84295238Y-41662295D02*
X84104762Y-41662295D01*
X84104762Y-41662295D02*
X84028571Y-41700390D01*
X84028571Y-41700390D02*
X83990476Y-41738485D01*
X83990476Y-41738485D02*
X83952381Y-41814676D01*
X83952381Y-41814676D02*
X83952381Y-41890866D01*
X83952381Y-41890866D02*
X83990476Y-42005152D01*
X83990476Y-42005152D02*
X84447619Y-42462295D01*
X84447619Y-42462295D02*
X83952381Y-42462295D01*
X83457142Y-41662295D02*
X83380952Y-41662295D01*
X83380952Y-41662295D02*
X83304761Y-41700390D01*
X83304761Y-41700390D02*
X83266666Y-41738485D01*
X83266666Y-41738485D02*
X83228571Y-41814676D01*
X83228571Y-41814676D02*
X83190476Y-41967057D01*
X83190476Y-41967057D02*
X83190476Y-42157533D01*
X83190476Y-42157533D02*
X83228571Y-42309914D01*
X83228571Y-42309914D02*
X83266666Y-42386104D01*
X83266666Y-42386104D02*
X83304761Y-42424200D01*
X83304761Y-42424200D02*
X83380952Y-42462295D01*
X83380952Y-42462295D02*
X83457142Y-42462295D01*
X83457142Y-42462295D02*
X83533333Y-42424200D01*
X83533333Y-42424200D02*
X83571428Y-42386104D01*
X83571428Y-42386104D02*
X83609523Y-42309914D01*
X83609523Y-42309914D02*
X83647619Y-42157533D01*
X83647619Y-42157533D02*
X83647619Y-41967057D01*
X83647619Y-41967057D02*
X83609523Y-41814676D01*
X83609523Y-41814676D02*
X83571428Y-41738485D01*
X83571428Y-41738485D02*
X83533333Y-41700390D01*
X83533333Y-41700390D02*
X83457142Y-41662295D01*
D11*
%TO.C,IC1*%
X86280951Y-44963855D02*
X86280951Y-44163855D01*
X85442856Y-44887664D02*
X85480952Y-44925760D01*
X85480952Y-44925760D02*
X85595237Y-44963855D01*
X85595237Y-44963855D02*
X85671428Y-44963855D01*
X85671428Y-44963855D02*
X85785714Y-44925760D01*
X85785714Y-44925760D02*
X85861904Y-44849569D01*
X85861904Y-44849569D02*
X85899999Y-44773379D01*
X85899999Y-44773379D02*
X85938095Y-44620998D01*
X85938095Y-44620998D02*
X85938095Y-44506712D01*
X85938095Y-44506712D02*
X85899999Y-44354331D01*
X85899999Y-44354331D02*
X85861904Y-44278140D01*
X85861904Y-44278140D02*
X85785714Y-44201950D01*
X85785714Y-44201950D02*
X85671428Y-44163855D01*
X85671428Y-44163855D02*
X85595237Y-44163855D01*
X85595237Y-44163855D02*
X85480952Y-44201950D01*
X85480952Y-44201950D02*
X85442856Y-44240045D01*
X84680952Y-44963855D02*
X85138095Y-44963855D01*
X84909523Y-44963855D02*
X84909523Y-44163855D01*
X84909523Y-44163855D02*
X84985714Y-44278140D01*
X84985714Y-44278140D02*
X85061904Y-44354331D01*
X85061904Y-44354331D02*
X85138095Y-44392426D01*
D10*
%TO.C,C21*%
X83414285Y-47386104D02*
X83452381Y-47424200D01*
X83452381Y-47424200D02*
X83566666Y-47462295D01*
X83566666Y-47462295D02*
X83642857Y-47462295D01*
X83642857Y-47462295D02*
X83757143Y-47424200D01*
X83757143Y-47424200D02*
X83833333Y-47348009D01*
X83833333Y-47348009D02*
X83871428Y-47271819D01*
X83871428Y-47271819D02*
X83909524Y-47119438D01*
X83909524Y-47119438D02*
X83909524Y-47005152D01*
X83909524Y-47005152D02*
X83871428Y-46852771D01*
X83871428Y-46852771D02*
X83833333Y-46776580D01*
X83833333Y-46776580D02*
X83757143Y-46700390D01*
X83757143Y-46700390D02*
X83642857Y-46662295D01*
X83642857Y-46662295D02*
X83566666Y-46662295D01*
X83566666Y-46662295D02*
X83452381Y-46700390D01*
X83452381Y-46700390D02*
X83414285Y-46738485D01*
X83109524Y-46738485D02*
X83071428Y-46700390D01*
X83071428Y-46700390D02*
X82995238Y-46662295D01*
X82995238Y-46662295D02*
X82804762Y-46662295D01*
X82804762Y-46662295D02*
X82728571Y-46700390D01*
X82728571Y-46700390D02*
X82690476Y-46738485D01*
X82690476Y-46738485D02*
X82652381Y-46814676D01*
X82652381Y-46814676D02*
X82652381Y-46890866D01*
X82652381Y-46890866D02*
X82690476Y-47005152D01*
X82690476Y-47005152D02*
X83147619Y-47462295D01*
X83147619Y-47462295D02*
X82652381Y-47462295D01*
X81890476Y-47462295D02*
X82347619Y-47462295D01*
X82119047Y-47462295D02*
X82119047Y-46662295D01*
X82119047Y-46662295D02*
X82195238Y-46776580D01*
X82195238Y-46776580D02*
X82271428Y-46852771D01*
X82271428Y-46852771D02*
X82347619Y-46890866D01*
D11*
%TO.C,IC2*%
X90280951Y-39863855D02*
X90280951Y-39063855D01*
X89442856Y-39787664D02*
X89480952Y-39825760D01*
X89480952Y-39825760D02*
X89595237Y-39863855D01*
X89595237Y-39863855D02*
X89671428Y-39863855D01*
X89671428Y-39863855D02*
X89785714Y-39825760D01*
X89785714Y-39825760D02*
X89861904Y-39749569D01*
X89861904Y-39749569D02*
X89899999Y-39673379D01*
X89899999Y-39673379D02*
X89938095Y-39520998D01*
X89938095Y-39520998D02*
X89938095Y-39406712D01*
X89938095Y-39406712D02*
X89899999Y-39254331D01*
X89899999Y-39254331D02*
X89861904Y-39178140D01*
X89861904Y-39178140D02*
X89785714Y-39101950D01*
X89785714Y-39101950D02*
X89671428Y-39063855D01*
X89671428Y-39063855D02*
X89595237Y-39063855D01*
X89595237Y-39063855D02*
X89480952Y-39101950D01*
X89480952Y-39101950D02*
X89442856Y-39140045D01*
X89138095Y-39140045D02*
X89099999Y-39101950D01*
X89099999Y-39101950D02*
X89023809Y-39063855D01*
X89023809Y-39063855D02*
X88833333Y-39063855D01*
X88833333Y-39063855D02*
X88757142Y-39101950D01*
X88757142Y-39101950D02*
X88719047Y-39140045D01*
X88719047Y-39140045D02*
X88680952Y-39216236D01*
X88680952Y-39216236D02*
X88680952Y-39292426D01*
X88680952Y-39292426D02*
X88719047Y-39406712D01*
X88719047Y-39406712D02*
X89176190Y-39863855D01*
X89176190Y-39863855D02*
X88680952Y-39863855D01*
D10*
%TO.C,C15*%
X100314285Y-47586104D02*
X100352381Y-47624200D01*
X100352381Y-47624200D02*
X100466666Y-47662295D01*
X100466666Y-47662295D02*
X100542857Y-47662295D01*
X100542857Y-47662295D02*
X100657143Y-47624200D01*
X100657143Y-47624200D02*
X100733333Y-47548009D01*
X100733333Y-47548009D02*
X100771428Y-47471819D01*
X100771428Y-47471819D02*
X100809524Y-47319438D01*
X100809524Y-47319438D02*
X100809524Y-47205152D01*
X100809524Y-47205152D02*
X100771428Y-47052771D01*
X100771428Y-47052771D02*
X100733333Y-46976580D01*
X100733333Y-46976580D02*
X100657143Y-46900390D01*
X100657143Y-46900390D02*
X100542857Y-46862295D01*
X100542857Y-46862295D02*
X100466666Y-46862295D01*
X100466666Y-46862295D02*
X100352381Y-46900390D01*
X100352381Y-46900390D02*
X100314285Y-46938485D01*
X99552381Y-47662295D02*
X100009524Y-47662295D01*
X99780952Y-47662295D02*
X99780952Y-46862295D01*
X99780952Y-46862295D02*
X99857143Y-46976580D01*
X99857143Y-46976580D02*
X99933333Y-47052771D01*
X99933333Y-47052771D02*
X100009524Y-47090866D01*
X98828571Y-46862295D02*
X99209523Y-46862295D01*
X99209523Y-46862295D02*
X99247619Y-47243247D01*
X99247619Y-47243247D02*
X99209523Y-47205152D01*
X99209523Y-47205152D02*
X99133333Y-47167057D01*
X99133333Y-47167057D02*
X98942857Y-47167057D01*
X98942857Y-47167057D02*
X98866666Y-47205152D01*
X98866666Y-47205152D02*
X98828571Y-47243247D01*
X98828571Y-47243247D02*
X98790476Y-47319438D01*
X98790476Y-47319438D02*
X98790476Y-47509914D01*
X98790476Y-47509914D02*
X98828571Y-47586104D01*
X98828571Y-47586104D02*
X98866666Y-47624200D01*
X98866666Y-47624200D02*
X98942857Y-47662295D01*
X98942857Y-47662295D02*
X99133333Y-47662295D01*
X99133333Y-47662295D02*
X99209523Y-47624200D01*
X99209523Y-47624200D02*
X99247619Y-47586104D01*
%TO.C,C10*%
X95086104Y-43785714D02*
X95124200Y-43747618D01*
X95124200Y-43747618D02*
X95162295Y-43633333D01*
X95162295Y-43633333D02*
X95162295Y-43557142D01*
X95162295Y-43557142D02*
X95124200Y-43442856D01*
X95124200Y-43442856D02*
X95048009Y-43366666D01*
X95048009Y-43366666D02*
X94971819Y-43328571D01*
X94971819Y-43328571D02*
X94819438Y-43290475D01*
X94819438Y-43290475D02*
X94705152Y-43290475D01*
X94705152Y-43290475D02*
X94552771Y-43328571D01*
X94552771Y-43328571D02*
X94476580Y-43366666D01*
X94476580Y-43366666D02*
X94400390Y-43442856D01*
X94400390Y-43442856D02*
X94362295Y-43557142D01*
X94362295Y-43557142D02*
X94362295Y-43633333D01*
X94362295Y-43633333D02*
X94400390Y-43747618D01*
X94400390Y-43747618D02*
X94438485Y-43785714D01*
X95162295Y-44547618D02*
X95162295Y-44090475D01*
X95162295Y-44319047D02*
X94362295Y-44319047D01*
X94362295Y-44319047D02*
X94476580Y-44242856D01*
X94476580Y-44242856D02*
X94552771Y-44166666D01*
X94552771Y-44166666D02*
X94590866Y-44090475D01*
X94362295Y-45042857D02*
X94362295Y-45119047D01*
X94362295Y-45119047D02*
X94400390Y-45195238D01*
X94400390Y-45195238D02*
X94438485Y-45233333D01*
X94438485Y-45233333D02*
X94514676Y-45271428D01*
X94514676Y-45271428D02*
X94667057Y-45309523D01*
X94667057Y-45309523D02*
X94857533Y-45309523D01*
X94857533Y-45309523D02*
X95009914Y-45271428D01*
X95009914Y-45271428D02*
X95086104Y-45233333D01*
X95086104Y-45233333D02*
X95124200Y-45195238D01*
X95124200Y-45195238D02*
X95162295Y-45119047D01*
X95162295Y-45119047D02*
X95162295Y-45042857D01*
X95162295Y-45042857D02*
X95124200Y-44966666D01*
X95124200Y-44966666D02*
X95086104Y-44928571D01*
X95086104Y-44928571D02*
X95009914Y-44890476D01*
X95009914Y-44890476D02*
X94857533Y-44852380D01*
X94857533Y-44852380D02*
X94667057Y-44852380D01*
X94667057Y-44852380D02*
X94514676Y-44890476D01*
X94514676Y-44890476D02*
X94438485Y-44928571D01*
X94438485Y-44928571D02*
X94400390Y-44966666D01*
X94400390Y-44966666D02*
X94362295Y-45042857D01*
%TO.C,C9*%
X89433332Y-45986104D02*
X89471428Y-46024200D01*
X89471428Y-46024200D02*
X89585713Y-46062295D01*
X89585713Y-46062295D02*
X89661904Y-46062295D01*
X89661904Y-46062295D02*
X89776190Y-46024200D01*
X89776190Y-46024200D02*
X89852380Y-45948009D01*
X89852380Y-45948009D02*
X89890475Y-45871819D01*
X89890475Y-45871819D02*
X89928571Y-45719438D01*
X89928571Y-45719438D02*
X89928571Y-45605152D01*
X89928571Y-45605152D02*
X89890475Y-45452771D01*
X89890475Y-45452771D02*
X89852380Y-45376580D01*
X89852380Y-45376580D02*
X89776190Y-45300390D01*
X89776190Y-45300390D02*
X89661904Y-45262295D01*
X89661904Y-45262295D02*
X89585713Y-45262295D01*
X89585713Y-45262295D02*
X89471428Y-45300390D01*
X89471428Y-45300390D02*
X89433332Y-45338485D01*
X89052380Y-46062295D02*
X88899999Y-46062295D01*
X88899999Y-46062295D02*
X88823809Y-46024200D01*
X88823809Y-46024200D02*
X88785713Y-45986104D01*
X88785713Y-45986104D02*
X88709523Y-45871819D01*
X88709523Y-45871819D02*
X88671428Y-45719438D01*
X88671428Y-45719438D02*
X88671428Y-45414676D01*
X88671428Y-45414676D02*
X88709523Y-45338485D01*
X88709523Y-45338485D02*
X88747618Y-45300390D01*
X88747618Y-45300390D02*
X88823809Y-45262295D01*
X88823809Y-45262295D02*
X88976190Y-45262295D01*
X88976190Y-45262295D02*
X89052380Y-45300390D01*
X89052380Y-45300390D02*
X89090475Y-45338485D01*
X89090475Y-45338485D02*
X89128571Y-45414676D01*
X89128571Y-45414676D02*
X89128571Y-45605152D01*
X89128571Y-45605152D02*
X89090475Y-45681342D01*
X89090475Y-45681342D02*
X89052380Y-45719438D01*
X89052380Y-45719438D02*
X88976190Y-45757533D01*
X88976190Y-45757533D02*
X88823809Y-45757533D01*
X88823809Y-45757533D02*
X88747618Y-45719438D01*
X88747618Y-45719438D02*
X88709523Y-45681342D01*
X88709523Y-45681342D02*
X88671428Y-45605152D01*
%TO.C,C4*%
X91786104Y-43866667D02*
X91824200Y-43828571D01*
X91824200Y-43828571D02*
X91862295Y-43714286D01*
X91862295Y-43714286D02*
X91862295Y-43638095D01*
X91862295Y-43638095D02*
X91824200Y-43523809D01*
X91824200Y-43523809D02*
X91748009Y-43447619D01*
X91748009Y-43447619D02*
X91671819Y-43409524D01*
X91671819Y-43409524D02*
X91519438Y-43371428D01*
X91519438Y-43371428D02*
X91405152Y-43371428D01*
X91405152Y-43371428D02*
X91252771Y-43409524D01*
X91252771Y-43409524D02*
X91176580Y-43447619D01*
X91176580Y-43447619D02*
X91100390Y-43523809D01*
X91100390Y-43523809D02*
X91062295Y-43638095D01*
X91062295Y-43638095D02*
X91062295Y-43714286D01*
X91062295Y-43714286D02*
X91100390Y-43828571D01*
X91100390Y-43828571D02*
X91138485Y-43866667D01*
X91328961Y-44552381D02*
X91862295Y-44552381D01*
X91024200Y-44361905D02*
X91595628Y-44171428D01*
X91595628Y-44171428D02*
X91595628Y-44666667D01*
%TO.C,C17*%
X89114285Y-42386104D02*
X89152381Y-42424200D01*
X89152381Y-42424200D02*
X89266666Y-42462295D01*
X89266666Y-42462295D02*
X89342857Y-42462295D01*
X89342857Y-42462295D02*
X89457143Y-42424200D01*
X89457143Y-42424200D02*
X89533333Y-42348009D01*
X89533333Y-42348009D02*
X89571428Y-42271819D01*
X89571428Y-42271819D02*
X89609524Y-42119438D01*
X89609524Y-42119438D02*
X89609524Y-42005152D01*
X89609524Y-42005152D02*
X89571428Y-41852771D01*
X89571428Y-41852771D02*
X89533333Y-41776580D01*
X89533333Y-41776580D02*
X89457143Y-41700390D01*
X89457143Y-41700390D02*
X89342857Y-41662295D01*
X89342857Y-41662295D02*
X89266666Y-41662295D01*
X89266666Y-41662295D02*
X89152381Y-41700390D01*
X89152381Y-41700390D02*
X89114285Y-41738485D01*
X88352381Y-42462295D02*
X88809524Y-42462295D01*
X88580952Y-42462295D02*
X88580952Y-41662295D01*
X88580952Y-41662295D02*
X88657143Y-41776580D01*
X88657143Y-41776580D02*
X88733333Y-41852771D01*
X88733333Y-41852771D02*
X88809524Y-41890866D01*
X88085714Y-41662295D02*
X87552380Y-41662295D01*
X87552380Y-41662295D02*
X87895238Y-42462295D01*
%TO.C,C6*%
X89633332Y-47086104D02*
X89671428Y-47124200D01*
X89671428Y-47124200D02*
X89785713Y-47162295D01*
X89785713Y-47162295D02*
X89861904Y-47162295D01*
X89861904Y-47162295D02*
X89976190Y-47124200D01*
X89976190Y-47124200D02*
X90052380Y-47048009D01*
X90052380Y-47048009D02*
X90090475Y-46971819D01*
X90090475Y-46971819D02*
X90128571Y-46819438D01*
X90128571Y-46819438D02*
X90128571Y-46705152D01*
X90128571Y-46705152D02*
X90090475Y-46552771D01*
X90090475Y-46552771D02*
X90052380Y-46476580D01*
X90052380Y-46476580D02*
X89976190Y-46400390D01*
X89976190Y-46400390D02*
X89861904Y-46362295D01*
X89861904Y-46362295D02*
X89785713Y-46362295D01*
X89785713Y-46362295D02*
X89671428Y-46400390D01*
X89671428Y-46400390D02*
X89633332Y-46438485D01*
X88947618Y-46362295D02*
X89099999Y-46362295D01*
X89099999Y-46362295D02*
X89176190Y-46400390D01*
X89176190Y-46400390D02*
X89214285Y-46438485D01*
X89214285Y-46438485D02*
X89290475Y-46552771D01*
X89290475Y-46552771D02*
X89328571Y-46705152D01*
X89328571Y-46705152D02*
X89328571Y-47009914D01*
X89328571Y-47009914D02*
X89290475Y-47086104D01*
X89290475Y-47086104D02*
X89252380Y-47124200D01*
X89252380Y-47124200D02*
X89176190Y-47162295D01*
X89176190Y-47162295D02*
X89023809Y-47162295D01*
X89023809Y-47162295D02*
X88947618Y-47124200D01*
X88947618Y-47124200D02*
X88909523Y-47086104D01*
X88909523Y-47086104D02*
X88871428Y-47009914D01*
X88871428Y-47009914D02*
X88871428Y-46819438D01*
X88871428Y-46819438D02*
X88909523Y-46743247D01*
X88909523Y-46743247D02*
X88947618Y-46705152D01*
X88947618Y-46705152D02*
X89023809Y-46667057D01*
X89023809Y-46667057D02*
X89176190Y-46667057D01*
X89176190Y-46667057D02*
X89252380Y-46705152D01*
X89252380Y-46705152D02*
X89290475Y-46743247D01*
X89290475Y-46743247D02*
X89328571Y-46819438D01*
%TO.C,C23*%
X92114285Y-38786104D02*
X92152381Y-38824200D01*
X92152381Y-38824200D02*
X92266666Y-38862295D01*
X92266666Y-38862295D02*
X92342857Y-38862295D01*
X92342857Y-38862295D02*
X92457143Y-38824200D01*
X92457143Y-38824200D02*
X92533333Y-38748009D01*
X92533333Y-38748009D02*
X92571428Y-38671819D01*
X92571428Y-38671819D02*
X92609524Y-38519438D01*
X92609524Y-38519438D02*
X92609524Y-38405152D01*
X92609524Y-38405152D02*
X92571428Y-38252771D01*
X92571428Y-38252771D02*
X92533333Y-38176580D01*
X92533333Y-38176580D02*
X92457143Y-38100390D01*
X92457143Y-38100390D02*
X92342857Y-38062295D01*
X92342857Y-38062295D02*
X92266666Y-38062295D01*
X92266666Y-38062295D02*
X92152381Y-38100390D01*
X92152381Y-38100390D02*
X92114285Y-38138485D01*
X91809524Y-38138485D02*
X91771428Y-38100390D01*
X91771428Y-38100390D02*
X91695238Y-38062295D01*
X91695238Y-38062295D02*
X91504762Y-38062295D01*
X91504762Y-38062295D02*
X91428571Y-38100390D01*
X91428571Y-38100390D02*
X91390476Y-38138485D01*
X91390476Y-38138485D02*
X91352381Y-38214676D01*
X91352381Y-38214676D02*
X91352381Y-38290866D01*
X91352381Y-38290866D02*
X91390476Y-38405152D01*
X91390476Y-38405152D02*
X91847619Y-38862295D01*
X91847619Y-38862295D02*
X91352381Y-38862295D01*
X91085714Y-38062295D02*
X90590476Y-38062295D01*
X90590476Y-38062295D02*
X90857142Y-38367057D01*
X90857142Y-38367057D02*
X90742857Y-38367057D01*
X90742857Y-38367057D02*
X90666666Y-38405152D01*
X90666666Y-38405152D02*
X90628571Y-38443247D01*
X90628571Y-38443247D02*
X90590476Y-38519438D01*
X90590476Y-38519438D02*
X90590476Y-38709914D01*
X90590476Y-38709914D02*
X90628571Y-38786104D01*
X90628571Y-38786104D02*
X90666666Y-38824200D01*
X90666666Y-38824200D02*
X90742857Y-38862295D01*
X90742857Y-38862295D02*
X90971428Y-38862295D01*
X90971428Y-38862295D02*
X91047619Y-38824200D01*
X91047619Y-38824200D02*
X91085714Y-38786104D01*
%TO.C,C12*%
X90214285Y-44986104D02*
X90252381Y-45024200D01*
X90252381Y-45024200D02*
X90366666Y-45062295D01*
X90366666Y-45062295D02*
X90442857Y-45062295D01*
X90442857Y-45062295D02*
X90557143Y-45024200D01*
X90557143Y-45024200D02*
X90633333Y-44948009D01*
X90633333Y-44948009D02*
X90671428Y-44871819D01*
X90671428Y-44871819D02*
X90709524Y-44719438D01*
X90709524Y-44719438D02*
X90709524Y-44605152D01*
X90709524Y-44605152D02*
X90671428Y-44452771D01*
X90671428Y-44452771D02*
X90633333Y-44376580D01*
X90633333Y-44376580D02*
X90557143Y-44300390D01*
X90557143Y-44300390D02*
X90442857Y-44262295D01*
X90442857Y-44262295D02*
X90366666Y-44262295D01*
X90366666Y-44262295D02*
X90252381Y-44300390D01*
X90252381Y-44300390D02*
X90214285Y-44338485D01*
X89452381Y-45062295D02*
X89909524Y-45062295D01*
X89680952Y-45062295D02*
X89680952Y-44262295D01*
X89680952Y-44262295D02*
X89757143Y-44376580D01*
X89757143Y-44376580D02*
X89833333Y-44452771D01*
X89833333Y-44452771D02*
X89909524Y-44490866D01*
X89147619Y-44338485D02*
X89109523Y-44300390D01*
X89109523Y-44300390D02*
X89033333Y-44262295D01*
X89033333Y-44262295D02*
X88842857Y-44262295D01*
X88842857Y-44262295D02*
X88766666Y-44300390D01*
X88766666Y-44300390D02*
X88728571Y-44338485D01*
X88728571Y-44338485D02*
X88690476Y-44414676D01*
X88690476Y-44414676D02*
X88690476Y-44490866D01*
X88690476Y-44490866D02*
X88728571Y-44605152D01*
X88728571Y-44605152D02*
X89185714Y-45062295D01*
X89185714Y-45062295D02*
X88690476Y-45062295D01*
%TO.C,C16*%
X93886104Y-43885714D02*
X93924200Y-43847618D01*
X93924200Y-43847618D02*
X93962295Y-43733333D01*
X93962295Y-43733333D02*
X93962295Y-43657142D01*
X93962295Y-43657142D02*
X93924200Y-43542856D01*
X93924200Y-43542856D02*
X93848009Y-43466666D01*
X93848009Y-43466666D02*
X93771819Y-43428571D01*
X93771819Y-43428571D02*
X93619438Y-43390475D01*
X93619438Y-43390475D02*
X93505152Y-43390475D01*
X93505152Y-43390475D02*
X93352771Y-43428571D01*
X93352771Y-43428571D02*
X93276580Y-43466666D01*
X93276580Y-43466666D02*
X93200390Y-43542856D01*
X93200390Y-43542856D02*
X93162295Y-43657142D01*
X93162295Y-43657142D02*
X93162295Y-43733333D01*
X93162295Y-43733333D02*
X93200390Y-43847618D01*
X93200390Y-43847618D02*
X93238485Y-43885714D01*
X93962295Y-44647618D02*
X93962295Y-44190475D01*
X93962295Y-44419047D02*
X93162295Y-44419047D01*
X93162295Y-44419047D02*
X93276580Y-44342856D01*
X93276580Y-44342856D02*
X93352771Y-44266666D01*
X93352771Y-44266666D02*
X93390866Y-44190475D01*
X93162295Y-45333333D02*
X93162295Y-45180952D01*
X93162295Y-45180952D02*
X93200390Y-45104761D01*
X93200390Y-45104761D02*
X93238485Y-45066666D01*
X93238485Y-45066666D02*
X93352771Y-44990476D01*
X93352771Y-44990476D02*
X93505152Y-44952380D01*
X93505152Y-44952380D02*
X93809914Y-44952380D01*
X93809914Y-44952380D02*
X93886104Y-44990476D01*
X93886104Y-44990476D02*
X93924200Y-45028571D01*
X93924200Y-45028571D02*
X93962295Y-45104761D01*
X93962295Y-45104761D02*
X93962295Y-45257142D01*
X93962295Y-45257142D02*
X93924200Y-45333333D01*
X93924200Y-45333333D02*
X93886104Y-45371428D01*
X93886104Y-45371428D02*
X93809914Y-45409523D01*
X93809914Y-45409523D02*
X93619438Y-45409523D01*
X93619438Y-45409523D02*
X93543247Y-45371428D01*
X93543247Y-45371428D02*
X93505152Y-45333333D01*
X93505152Y-45333333D02*
X93467057Y-45257142D01*
X93467057Y-45257142D02*
X93467057Y-45104761D01*
X93467057Y-45104761D02*
X93505152Y-45028571D01*
X93505152Y-45028571D02*
X93543247Y-44990476D01*
X93543247Y-44990476D02*
X93619438Y-44952380D01*
D11*
%TO.C,TP5*%
X94100000Y-39500000D02*
G75*
G03*
X94100000Y-39500000I-700000J0D01*
G01*
%TO.C,TP4*%
X86900000Y-48600000D02*
G75*
G03*
X86900000Y-48600000I-700000J0D01*
G01*
%TO.C,TP3*%
X97000000Y-42200000D02*
G75*
G03*
X97000000Y-42200000I-700000J0D01*
G01*
%TO.C,TP2*%
X90000000Y-48300000D02*
G75*
G03*
X90000000Y-48300000I-700000J0D01*
G01*
%TO.C,TP1*%
X97400000Y-39600000D02*
G75*
G03*
X97400000Y-39600000I-700000J0D01*
G01*
%TO.C,C11*%
X87907836Y-42940000D02*
X87692164Y-42940000D01*
X87907836Y-43660000D02*
X87692164Y-43660000D01*
%TO.C,R1*%
X92120000Y-42156359D02*
X92120000Y-42463641D01*
X92880000Y-42156359D02*
X92880000Y-42463641D01*
%TO.C,C22*%
X80840000Y-43992164D02*
X80840000Y-44207836D01*
X81560000Y-43992164D02*
X81560000Y-44207836D01*
%TO.C,C20*%
X86407836Y-41740000D02*
X86192164Y-41740000D01*
X86407836Y-42460000D02*
X86192164Y-42460000D01*
D12*
%TO.C,IC1*%
X82100000Y-46100000D02*
X83300000Y-46100000D01*
X83650000Y-46068000D02*
X84350000Y-46068000D01*
X83650000Y-43132000D02*
X83650000Y-46068000D01*
X84350000Y-46068000D02*
X84350000Y-43132000D01*
X84350000Y-43132000D02*
X83650000Y-43132000D01*
D11*
%TO.C,C21*%
X84987836Y-46640000D02*
X84772164Y-46640000D01*
X84987836Y-47360000D02*
X84772164Y-47360000D01*
D12*
%TO.C,IC2*%
X86200000Y-41000000D02*
X87400000Y-41000000D01*
X87750000Y-40968000D02*
X88450000Y-40968000D01*
X87750000Y-38032000D02*
X87750000Y-40968000D01*
X88450000Y-40968000D02*
X88450000Y-38032000D01*
X88450000Y-38032000D02*
X87750000Y-38032000D01*
D11*
%TO.C,C15*%
X97692164Y-47560000D02*
X97907836Y-47560000D01*
X97692164Y-46840000D02*
X97907836Y-46840000D01*
%TO.C,C10*%
X95060000Y-42407836D02*
X95060000Y-42192164D01*
X94340000Y-42407836D02*
X94340000Y-42192164D01*
%TO.C,C9*%
X87907836Y-45860000D02*
X87692164Y-45860000D01*
X87907836Y-45140000D02*
X87692164Y-45140000D01*
%TO.C,C4*%
X91040000Y-42427836D02*
X91040000Y-42212164D01*
X91760000Y-42427836D02*
X91760000Y-42212164D01*
%TO.C,C17*%
X90560000Y-42407836D02*
X90560000Y-42192164D01*
X89840000Y-42407836D02*
X89840000Y-42192164D01*
%TO.C,C6*%
X87907836Y-46240000D02*
X87692164Y-46240000D01*
X87907836Y-46960000D02*
X87692164Y-46960000D01*
%TO.C,C23*%
X90640000Y-40007836D02*
X90640000Y-39792164D01*
X91360000Y-40007836D02*
X91360000Y-39792164D01*
%TO.C,C12*%
X87907836Y-44040000D02*
X87692164Y-44040000D01*
X87907836Y-44760000D02*
X87692164Y-44760000D01*
%TO.C,C16*%
X94010000Y-42407836D02*
X94010000Y-42192164D01*
X93290000Y-42407836D02*
X93290000Y-42192164D01*
%TD*%
M02*
