%TF.GenerationSoftware,KiCad,Pcbnew,7.0.5*%
%TF.CreationDate,2024-03-10T15:58:08+09:00*%
%TF.ProjectId,camera_exp,63616d65-7261-45f6-9578-702e6b696361,rev?*%
%TF.SameCoordinates,Original*%
%TF.FileFunction,Copper,L3,Inr*%
%TF.FilePolarity,Positive*%
%FSLAX46Y46*%
G04 Gerber Fmt 4.6, Leading zero omitted, Abs format (unit mm)*
G04 Created by KiCad (PCBNEW 7.0.5) date 2024-03-10 15:58:08*
%MOMM*%
%LPD*%
G01*
G04 APERTURE LIST*
%TA.AperFunction,ComponentPad*%
%ADD10R,1.700000X1.700000*%
%TD*%
%TA.AperFunction,ComponentPad*%
%ADD11O,1.700000X1.700000*%
%TD*%
%TA.AperFunction,ViaPad*%
%ADD12C,0.450000*%
%TD*%
%TA.AperFunction,ViaPad*%
%ADD13C,0.700000*%
%TD*%
%TA.AperFunction,Conductor*%
%ADD14C,0.350000*%
%TD*%
G04 APERTURE END LIST*
D10*
%TO.N,/DVP_0*%
%TO.C,J1*%
X102620000Y-57560000D03*
D11*
%TO.N,/DVP_1*%
X102620000Y-60100000D03*
%TO.N,/DVP_2*%
X100080000Y-57560000D03*
%TO.N,/DVP_3*%
X100080000Y-60100000D03*
%TO.N,/DVP_4*%
X97540000Y-57560000D03*
%TO.N,/DVP_5*%
X97540000Y-60100000D03*
%TO.N,/DVP_6*%
X95000000Y-57560000D03*
%TO.N,/DVP_7*%
X95000000Y-60100000D03*
%TO.N,/DVP_8*%
X92460000Y-57560000D03*
%TO.N,/DVP_9*%
X92460000Y-60100000D03*
%TO.N,/VSYNC*%
X89920000Y-57560000D03*
%TO.N,/HREF*%
X89920000Y-60100000D03*
%TO.N,/PCLK*%
X87380000Y-57560000D03*
%TO.N,/EXCLK*%
X87380000Y-60100000D03*
%TO.N,/SDA*%
X84840000Y-57560000D03*
%TO.N,/SCL*%
X84840000Y-60100000D03*
%TO.N,+3V3*%
X82300000Y-57560000D03*
%TO.N,GND*%
X82300000Y-60100000D03*
%TD*%
D12*
%TO.N,GND*%
X87310000Y-46590000D03*
%TO.N,/SCL*%
X85410000Y-55480000D03*
%TO.N,/DVP_9*%
X90520000Y-55170000D03*
%TO.N,/DVP_6*%
X90170000Y-54090000D03*
%TO.N,+2V8*%
X90830000Y-43780000D03*
%TO.N,+1V8*%
X88700000Y-46590000D03*
%TO.N,/DVDD*%
X89370000Y-46110000D03*
%TO.N,GND*%
X91150000Y-48360000D03*
X93910000Y-47910000D03*
X93050000Y-44190000D03*
X95000000Y-44230000D03*
%TO.N,/DVDD*%
X94270000Y-44170000D03*
%TO.N,GND*%
X93750000Y-45720000D03*
%TO.N,/RSTB*%
X90921578Y-42602637D03*
D13*
%TO.N,/VR*%
X93500000Y-39300000D03*
%TO.N,+2V8*%
X103800000Y-55800000D03*
X101600000Y-55800000D03*
X81900000Y-54700000D03*
X83800000Y-54200000D03*
%TO.N,GND*%
X87800000Y-41500000D03*
X83500000Y-47500000D03*
X84201728Y-50798272D03*
X81434500Y-50200000D03*
X81500000Y-47500000D03*
X81000000Y-59000000D03*
X81000000Y-61000000D03*
X91000000Y-53000000D03*
X100080000Y-51490000D03*
X104000000Y-52000000D03*
X100000000Y-45000000D03*
X100000000Y-48000000D03*
X104000000Y-48000000D03*
X104000000Y-45000000D03*
X100000000Y-42000000D03*
X104000000Y-42000000D03*
X104000000Y-38000000D03*
X100000000Y-38000000D03*
X97000000Y-38000000D03*
X91000000Y-38000000D03*
X85000000Y-38000000D03*
X81000000Y-38000000D03*
X81000000Y-42000000D03*
%TO.N,+2V8*%
X89300000Y-42300000D03*
X96200000Y-47250000D03*
X84300000Y-45500000D03*
X85300000Y-44800000D03*
%TO.N,+1V8*%
X90400000Y-40450000D03*
X96700000Y-43870000D03*
%TO.N,GND*%
X85800000Y-39200000D03*
%TO.N,+2V8*%
X92511128Y-43570628D03*
%TO.N,/DVDD*%
X96500000Y-48330000D03*
X94520000Y-48570000D03*
%TO.N,/EXCLK*%
X92728200Y-48521800D03*
%TD*%
D14*
%TO.N,+1V8*%
X88940000Y-46840000D02*
X93730000Y-46840000D01*
X88700000Y-46600000D02*
X88940000Y-46840000D01*
X93730000Y-46840000D02*
X96700000Y-43870000D01*
X90400000Y-40450000D02*
X93280000Y-40450000D01*
X93280000Y-40450000D02*
X96700000Y-43870000D01*
%TD*%
%TA.AperFunction,Conductor*%
%TO.N,+2V8*%
G36*
X84164396Y-37520185D02*
G01*
X84210151Y-37572989D01*
X84220095Y-37642147D01*
X84215288Y-37662818D01*
X84163504Y-37822192D01*
X84163503Y-37822194D01*
X84144815Y-37999999D01*
X84163503Y-38177805D01*
X84163504Y-38177807D01*
X84218747Y-38347829D01*
X84218750Y-38347835D01*
X84308141Y-38502665D01*
X84349812Y-38548946D01*
X84427764Y-38635521D01*
X84427767Y-38635523D01*
X84427770Y-38635526D01*
X84572407Y-38740612D01*
X84735733Y-38813329D01*
X84735735Y-38813329D01*
X84735736Y-38813330D01*
X84786442Y-38824107D01*
X84877563Y-38843476D01*
X84939044Y-38876667D01*
X84972821Y-38937830D01*
X84969714Y-39003081D01*
X84963503Y-39022194D01*
X84944815Y-39200000D01*
X84963503Y-39377805D01*
X84963504Y-39377807D01*
X85018747Y-39547829D01*
X85018750Y-39547835D01*
X85108141Y-39702665D01*
X85143429Y-39741856D01*
X85227764Y-39835521D01*
X85227767Y-39835523D01*
X85227770Y-39835526D01*
X85372407Y-39940612D01*
X85535733Y-40013329D01*
X85710609Y-40050500D01*
X85710610Y-40050500D01*
X85889389Y-40050500D01*
X85889391Y-40050500D01*
X86064267Y-40013329D01*
X86227593Y-39940612D01*
X86372230Y-39835526D01*
X86391185Y-39814475D01*
X86428813Y-39772684D01*
X86491859Y-39702665D01*
X86581250Y-39547835D01*
X86636497Y-39377803D01*
X86655185Y-39200000D01*
X86636497Y-39022197D01*
X86581250Y-38852165D01*
X86491859Y-38697335D01*
X86436201Y-38635521D01*
X86372235Y-38564478D01*
X86372232Y-38564476D01*
X86372231Y-38564475D01*
X86372230Y-38564474D01*
X86227593Y-38459388D01*
X86064267Y-38386671D01*
X86064265Y-38386670D01*
X85922436Y-38356524D01*
X85860954Y-38323332D01*
X85827178Y-38262169D01*
X85830286Y-38196915D01*
X85836497Y-38177803D01*
X85855185Y-38000000D01*
X85836497Y-37822197D01*
X85816858Y-37761756D01*
X85784712Y-37662818D01*
X85782717Y-37592977D01*
X85818798Y-37533144D01*
X85881499Y-37502316D01*
X85902643Y-37500500D01*
X90097357Y-37500500D01*
X90164396Y-37520185D01*
X90210151Y-37572989D01*
X90220095Y-37642147D01*
X90215288Y-37662818D01*
X90163504Y-37822192D01*
X90163503Y-37822194D01*
X90144815Y-38000000D01*
X90163503Y-38177805D01*
X90163504Y-38177807D01*
X90218747Y-38347829D01*
X90218750Y-38347835D01*
X90308141Y-38502665D01*
X90349812Y-38548946D01*
X90427764Y-38635521D01*
X90427767Y-38635523D01*
X90427770Y-38635526D01*
X90572407Y-38740612D01*
X90735733Y-38813329D01*
X90910609Y-38850500D01*
X90910610Y-38850500D01*
X91089389Y-38850500D01*
X91089391Y-38850500D01*
X91264267Y-38813329D01*
X91427593Y-38740612D01*
X91572230Y-38635526D01*
X91691859Y-38502665D01*
X91781250Y-38347835D01*
X91836497Y-38177803D01*
X91855185Y-38000000D01*
X91836497Y-37822197D01*
X91816858Y-37761756D01*
X91784712Y-37662818D01*
X91782717Y-37592977D01*
X91818798Y-37533144D01*
X91881499Y-37502316D01*
X91902643Y-37500500D01*
X96097357Y-37500500D01*
X96164396Y-37520185D01*
X96210151Y-37572989D01*
X96220095Y-37642147D01*
X96215288Y-37662818D01*
X96163504Y-37822192D01*
X96163503Y-37822194D01*
X96144815Y-38000000D01*
X96163503Y-38177805D01*
X96163504Y-38177807D01*
X96218747Y-38347829D01*
X96218750Y-38347835D01*
X96308141Y-38502665D01*
X96349812Y-38548946D01*
X96427764Y-38635521D01*
X96427767Y-38635523D01*
X96427770Y-38635526D01*
X96572407Y-38740612D01*
X96735733Y-38813329D01*
X96910609Y-38850500D01*
X96910610Y-38850500D01*
X97089389Y-38850500D01*
X97089391Y-38850500D01*
X97264267Y-38813329D01*
X97427593Y-38740612D01*
X97572230Y-38635526D01*
X97691859Y-38502665D01*
X97781250Y-38347835D01*
X97836497Y-38177803D01*
X97855185Y-38000000D01*
X97836497Y-37822197D01*
X97816858Y-37761756D01*
X97784712Y-37662818D01*
X97782717Y-37592977D01*
X97818798Y-37533144D01*
X97881499Y-37502316D01*
X97902643Y-37500500D01*
X99097357Y-37500500D01*
X99164396Y-37520185D01*
X99210151Y-37572989D01*
X99220095Y-37642147D01*
X99215288Y-37662818D01*
X99163504Y-37822192D01*
X99163503Y-37822194D01*
X99144815Y-38000000D01*
X99163503Y-38177805D01*
X99163504Y-38177807D01*
X99218747Y-38347829D01*
X99218750Y-38347835D01*
X99308141Y-38502665D01*
X99349812Y-38548946D01*
X99427764Y-38635521D01*
X99427767Y-38635523D01*
X99427770Y-38635526D01*
X99572407Y-38740612D01*
X99735733Y-38813329D01*
X99910609Y-38850500D01*
X99910610Y-38850500D01*
X100089389Y-38850500D01*
X100089391Y-38850500D01*
X100264267Y-38813329D01*
X100427593Y-38740612D01*
X100572230Y-38635526D01*
X100691859Y-38502665D01*
X100781250Y-38347835D01*
X100836497Y-38177803D01*
X100855185Y-38000000D01*
X100836497Y-37822197D01*
X100816858Y-37761756D01*
X100784712Y-37662818D01*
X100782717Y-37592977D01*
X100818798Y-37533144D01*
X100881499Y-37502316D01*
X100902643Y-37500500D01*
X103097357Y-37500500D01*
X103164396Y-37520185D01*
X103210151Y-37572989D01*
X103220095Y-37642147D01*
X103215288Y-37662818D01*
X103163504Y-37822192D01*
X103163503Y-37822194D01*
X103144815Y-37999999D01*
X103163503Y-38177805D01*
X103163504Y-38177807D01*
X103218747Y-38347829D01*
X103218750Y-38347835D01*
X103308141Y-38502665D01*
X103349812Y-38548946D01*
X103427764Y-38635521D01*
X103427767Y-38635523D01*
X103427770Y-38635526D01*
X103572407Y-38740612D01*
X103735733Y-38813329D01*
X103910609Y-38850500D01*
X103910610Y-38850500D01*
X104089389Y-38850500D01*
X104089391Y-38850500D01*
X104264267Y-38813329D01*
X104325065Y-38786259D01*
X104394314Y-38776975D01*
X104457590Y-38806603D01*
X104494804Y-38865737D01*
X104499500Y-38899539D01*
X104499500Y-41100460D01*
X104479815Y-41167499D01*
X104427011Y-41213254D01*
X104357853Y-41223198D01*
X104325065Y-41213740D01*
X104264267Y-41186671D01*
X104264265Y-41186670D01*
X104101952Y-41152170D01*
X104089391Y-41149500D01*
X103910609Y-41149500D01*
X103898048Y-41152170D01*
X103735733Y-41186670D01*
X103735728Y-41186672D01*
X103572408Y-41259387D01*
X103427768Y-41364475D01*
X103308140Y-41497336D01*
X103218750Y-41652164D01*
X103218747Y-41652170D01*
X103163504Y-41822192D01*
X103163503Y-41822194D01*
X103144815Y-42000000D01*
X103163503Y-42177805D01*
X103163504Y-42177807D01*
X103218747Y-42347829D01*
X103218750Y-42347835D01*
X103308141Y-42502665D01*
X103349812Y-42548946D01*
X103427764Y-42635521D01*
X103427767Y-42635523D01*
X103427770Y-42635526D01*
X103572407Y-42740612D01*
X103735733Y-42813329D01*
X103910609Y-42850500D01*
X103910610Y-42850500D01*
X104089389Y-42850500D01*
X104089391Y-42850500D01*
X104264267Y-42813329D01*
X104325065Y-42786259D01*
X104394314Y-42776975D01*
X104457590Y-42806603D01*
X104494804Y-42865737D01*
X104499500Y-42899539D01*
X104499500Y-44100460D01*
X104479815Y-44167499D01*
X104427011Y-44213254D01*
X104357853Y-44223198D01*
X104325065Y-44213740D01*
X104264267Y-44186671D01*
X104264265Y-44186670D01*
X104136594Y-44159533D01*
X104089391Y-44149500D01*
X103910609Y-44149500D01*
X103879954Y-44156015D01*
X103735733Y-44186670D01*
X103735728Y-44186672D01*
X103572408Y-44259387D01*
X103427768Y-44364475D01*
X103308140Y-44497336D01*
X103218750Y-44652164D01*
X103218747Y-44652170D01*
X103163504Y-44822192D01*
X103163503Y-44822194D01*
X103144815Y-45000000D01*
X103163503Y-45177805D01*
X103163504Y-45177807D01*
X103218747Y-45347829D01*
X103218750Y-45347835D01*
X103308141Y-45502665D01*
X103341030Y-45539192D01*
X103427764Y-45635521D01*
X103427767Y-45635523D01*
X103427770Y-45635526D01*
X103572407Y-45740612D01*
X103735733Y-45813329D01*
X103910609Y-45850500D01*
X103910610Y-45850500D01*
X104089389Y-45850500D01*
X104089391Y-45850500D01*
X104264267Y-45813329D01*
X104325065Y-45786259D01*
X104394314Y-45776975D01*
X104457590Y-45806603D01*
X104494804Y-45865737D01*
X104499500Y-45899539D01*
X104499500Y-47100460D01*
X104479815Y-47167499D01*
X104427011Y-47213254D01*
X104357853Y-47223198D01*
X104325065Y-47213740D01*
X104264267Y-47186671D01*
X104264265Y-47186670D01*
X104101952Y-47152170D01*
X104089391Y-47149500D01*
X103910609Y-47149500D01*
X103898048Y-47152170D01*
X103735733Y-47186670D01*
X103735728Y-47186672D01*
X103572408Y-47259387D01*
X103427768Y-47364475D01*
X103308140Y-47497336D01*
X103218750Y-47652164D01*
X103218747Y-47652170D01*
X103163504Y-47822192D01*
X103163503Y-47822194D01*
X103144815Y-48000000D01*
X103163503Y-48177805D01*
X103163504Y-48177807D01*
X103218747Y-48347829D01*
X103218750Y-48347835D01*
X103308141Y-48502665D01*
X103349812Y-48548946D01*
X103427764Y-48635521D01*
X103427767Y-48635523D01*
X103427770Y-48635526D01*
X103572407Y-48740612D01*
X103735733Y-48813329D01*
X103910609Y-48850500D01*
X103910610Y-48850500D01*
X104089389Y-48850500D01*
X104089391Y-48850500D01*
X104264267Y-48813329D01*
X104325065Y-48786259D01*
X104394314Y-48776975D01*
X104457590Y-48806603D01*
X104494804Y-48865737D01*
X104499500Y-48899539D01*
X104499500Y-51100460D01*
X104479815Y-51167499D01*
X104427011Y-51213254D01*
X104357853Y-51223198D01*
X104325065Y-51213740D01*
X104264267Y-51186671D01*
X104264265Y-51186670D01*
X104126633Y-51157416D01*
X104089391Y-51149500D01*
X103910609Y-51149500D01*
X103879954Y-51156015D01*
X103735733Y-51186670D01*
X103735728Y-51186672D01*
X103572408Y-51259387D01*
X103427768Y-51364475D01*
X103398959Y-51396471D01*
X103339472Y-51433119D01*
X103269615Y-51431788D01*
X103211567Y-51392901D01*
X103194428Y-51365903D01*
X103174035Y-51322171D01*
X103174034Y-51322169D01*
X103038494Y-51128597D01*
X102871402Y-50961505D01*
X102677830Y-50825965D01*
X102677828Y-50825964D01*
X102506426Y-50746038D01*
X102463663Y-50726097D01*
X102463659Y-50726096D01*
X102463655Y-50726094D01*
X102235413Y-50664938D01*
X102235403Y-50664936D01*
X102058967Y-50649500D01*
X102058966Y-50649500D01*
X101941034Y-50649500D01*
X101941033Y-50649500D01*
X101764596Y-50664936D01*
X101764586Y-50664938D01*
X101536344Y-50726094D01*
X101536335Y-50726098D01*
X101322171Y-50825964D01*
X101322169Y-50825965D01*
X101128600Y-50961503D01*
X101007248Y-51082855D01*
X100945925Y-51116339D01*
X100876233Y-51111355D01*
X100820300Y-51069483D01*
X100812180Y-51057173D01*
X100807487Y-51049046D01*
X100771859Y-50987335D01*
X100725003Y-50935296D01*
X100652235Y-50854478D01*
X100652232Y-50854476D01*
X100652231Y-50854475D01*
X100652230Y-50854474D01*
X100507593Y-50749388D01*
X100344267Y-50676671D01*
X100344265Y-50676670D01*
X100216437Y-50649500D01*
X100169391Y-50639500D01*
X99990609Y-50639500D01*
X99959954Y-50646015D01*
X99815733Y-50676670D01*
X99815728Y-50676672D01*
X99652408Y-50749387D01*
X99507768Y-50854475D01*
X99388140Y-50987336D01*
X99298750Y-51142164D01*
X99298747Y-51142170D01*
X99243504Y-51312192D01*
X99243503Y-51312194D01*
X99224815Y-51490000D01*
X99243503Y-51667805D01*
X99243504Y-51667807D01*
X99298747Y-51837829D01*
X99298750Y-51837835D01*
X99388141Y-51992665D01*
X99429812Y-52038946D01*
X99507764Y-52125521D01*
X99507767Y-52125523D01*
X99507770Y-52125526D01*
X99652407Y-52230612D01*
X99815733Y-52303329D01*
X99990609Y-52340500D01*
X99990610Y-52340500D01*
X100169389Y-52340500D01*
X100169391Y-52340500D01*
X100344267Y-52303329D01*
X100507593Y-52230612D01*
X100507595Y-52230610D01*
X100513530Y-52227968D01*
X100514666Y-52230520D01*
X100570586Y-52216904D01*
X100636633Y-52239699D01*
X100679871Y-52294583D01*
X100684568Y-52308675D01*
X100726095Y-52463658D01*
X100726096Y-52463660D01*
X100726097Y-52463663D01*
X100741799Y-52497335D01*
X100825964Y-52677828D01*
X100825965Y-52677830D01*
X100961505Y-52871402D01*
X101128597Y-53038494D01*
X101322169Y-53174034D01*
X101322171Y-53174035D01*
X101536337Y-53273903D01*
X101764592Y-53335063D01*
X101941032Y-53350499D01*
X101941033Y-53350500D01*
X101941034Y-53350500D01*
X102058967Y-53350500D01*
X102058967Y-53350499D01*
X102235408Y-53335063D01*
X102463663Y-53273903D01*
X102677829Y-53174035D01*
X102871401Y-53038495D01*
X103038495Y-52871401D01*
X103174035Y-52677830D01*
X103194428Y-52634096D01*
X103240598Y-52581659D01*
X103307791Y-52562506D01*
X103374673Y-52582721D01*
X103398958Y-52603529D01*
X103427763Y-52635520D01*
X103427767Y-52635523D01*
X103427770Y-52635526D01*
X103572407Y-52740612D01*
X103735733Y-52813329D01*
X103910609Y-52850500D01*
X103910610Y-52850500D01*
X104089389Y-52850500D01*
X104089391Y-52850500D01*
X104264267Y-52813329D01*
X104325065Y-52786259D01*
X104394314Y-52776975D01*
X104457590Y-52806603D01*
X104494804Y-52865737D01*
X104499500Y-52899539D01*
X104499500Y-61375500D01*
X104479815Y-61442539D01*
X104427011Y-61488294D01*
X104375500Y-61499500D01*
X103369110Y-61499500D01*
X103302071Y-61479815D01*
X103256316Y-61427011D01*
X103246372Y-61357853D01*
X103275397Y-61294297D01*
X103297987Y-61273925D01*
X103491401Y-61138495D01*
X103658495Y-60971401D01*
X103794035Y-60777830D01*
X103893903Y-60563663D01*
X103955063Y-60335408D01*
X103975659Y-60100000D01*
X103955063Y-59864592D01*
X103893903Y-59636337D01*
X103794035Y-59422171D01*
X103788424Y-59414158D01*
X103658496Y-59228600D01*
X103658493Y-59228597D01*
X103536567Y-59106671D01*
X103503084Y-59045351D01*
X103508068Y-58975659D01*
X103549939Y-58919725D01*
X103580915Y-58902810D01*
X103712331Y-58853796D01*
X103827546Y-58767546D01*
X103913796Y-58652331D01*
X103964091Y-58517483D01*
X103970500Y-58457873D01*
X103970499Y-56662128D01*
X103964091Y-56602517D01*
X103962810Y-56599083D01*
X103913797Y-56467671D01*
X103913793Y-56467664D01*
X103827547Y-56352455D01*
X103827544Y-56352452D01*
X103712335Y-56266206D01*
X103712328Y-56266202D01*
X103577482Y-56215908D01*
X103577483Y-56215908D01*
X103517883Y-56209501D01*
X103517881Y-56209500D01*
X103517873Y-56209500D01*
X103517864Y-56209500D01*
X101722129Y-56209500D01*
X101722123Y-56209501D01*
X101662516Y-56215908D01*
X101527671Y-56266202D01*
X101527664Y-56266206D01*
X101412455Y-56352452D01*
X101412452Y-56352455D01*
X101326206Y-56467664D01*
X101326203Y-56467669D01*
X101277189Y-56599083D01*
X101235317Y-56655016D01*
X101169853Y-56679433D01*
X101101580Y-56664581D01*
X101073326Y-56643430D01*
X100951402Y-56521506D01*
X100951395Y-56521501D01*
X100757834Y-56385967D01*
X100757830Y-56385965D01*
X100757830Y-56385964D01*
X100543663Y-56286097D01*
X100543659Y-56286096D01*
X100543655Y-56286094D01*
X100315413Y-56224938D01*
X100315403Y-56224936D01*
X100080001Y-56204341D01*
X100079999Y-56204341D01*
X99844596Y-56224936D01*
X99844586Y-56224938D01*
X99616344Y-56286094D01*
X99616335Y-56286098D01*
X99402171Y-56385964D01*
X99402169Y-56385965D01*
X99208597Y-56521505D01*
X99041505Y-56688597D01*
X98911575Y-56874158D01*
X98856998Y-56917783D01*
X98787500Y-56924977D01*
X98725145Y-56893454D01*
X98708425Y-56874158D01*
X98578494Y-56688597D01*
X98411402Y-56521506D01*
X98411395Y-56521501D01*
X98217834Y-56385967D01*
X98217830Y-56385965D01*
X98217829Y-56385964D01*
X98003663Y-56286097D01*
X98003659Y-56286096D01*
X98003655Y-56286094D01*
X97775413Y-56224938D01*
X97775403Y-56224936D01*
X97540001Y-56204341D01*
X97539999Y-56204341D01*
X97304596Y-56224936D01*
X97304586Y-56224938D01*
X97076344Y-56286094D01*
X97076335Y-56286098D01*
X96862171Y-56385964D01*
X96862169Y-56385965D01*
X96668597Y-56521505D01*
X96501505Y-56688597D01*
X96371575Y-56874158D01*
X96316998Y-56917783D01*
X96247500Y-56924977D01*
X96185145Y-56893454D01*
X96168425Y-56874158D01*
X96038494Y-56688597D01*
X95871402Y-56521506D01*
X95871395Y-56521501D01*
X95677834Y-56385967D01*
X95677830Y-56385965D01*
X95677830Y-56385964D01*
X95463663Y-56286097D01*
X95463659Y-56286096D01*
X95463655Y-56286094D01*
X95235413Y-56224938D01*
X95235403Y-56224936D01*
X95000001Y-56204341D01*
X94999999Y-56204341D01*
X94764596Y-56224936D01*
X94764586Y-56224938D01*
X94536344Y-56286094D01*
X94536335Y-56286098D01*
X94322171Y-56385964D01*
X94322169Y-56385965D01*
X94128597Y-56521505D01*
X93961505Y-56688597D01*
X93831575Y-56874158D01*
X93776998Y-56917783D01*
X93707500Y-56924977D01*
X93645145Y-56893454D01*
X93628425Y-56874158D01*
X93498494Y-56688597D01*
X93331402Y-56521506D01*
X93331395Y-56521501D01*
X93137834Y-56385967D01*
X93137830Y-56385965D01*
X93137830Y-56385964D01*
X92923663Y-56286097D01*
X92923659Y-56286096D01*
X92923655Y-56286094D01*
X92695413Y-56224938D01*
X92695403Y-56224936D01*
X92460001Y-56204341D01*
X92459999Y-56204341D01*
X92224596Y-56224936D01*
X92224586Y-56224938D01*
X91996344Y-56286094D01*
X91996335Y-56286098D01*
X91782171Y-56385964D01*
X91782169Y-56385965D01*
X91588597Y-56521505D01*
X91421505Y-56688597D01*
X91291575Y-56874158D01*
X91236998Y-56917783D01*
X91167500Y-56924977D01*
X91105145Y-56893454D01*
X91088425Y-56874158D01*
X90958494Y-56688597D01*
X90791402Y-56521506D01*
X90791395Y-56521501D01*
X90597834Y-56385967D01*
X90597830Y-56385965D01*
X90597829Y-56385964D01*
X90383663Y-56286097D01*
X90383659Y-56286096D01*
X90383655Y-56286094D01*
X90155413Y-56224938D01*
X90155403Y-56224936D01*
X89920001Y-56204341D01*
X89919999Y-56204341D01*
X89684596Y-56224936D01*
X89684586Y-56224938D01*
X89456344Y-56286094D01*
X89456335Y-56286098D01*
X89242171Y-56385964D01*
X89242169Y-56385965D01*
X89048597Y-56521505D01*
X88881505Y-56688597D01*
X88751575Y-56874158D01*
X88696998Y-56917783D01*
X88627500Y-56924977D01*
X88565145Y-56893454D01*
X88548425Y-56874158D01*
X88418494Y-56688597D01*
X88251402Y-56521506D01*
X88251395Y-56521501D01*
X88057834Y-56385967D01*
X88057830Y-56385965D01*
X88057829Y-56385964D01*
X87843663Y-56286097D01*
X87843659Y-56286096D01*
X87843655Y-56286094D01*
X87615413Y-56224938D01*
X87615403Y-56224936D01*
X87380001Y-56204341D01*
X87379999Y-56204341D01*
X87144596Y-56224936D01*
X87144586Y-56224938D01*
X86916344Y-56286094D01*
X86916335Y-56286098D01*
X86702171Y-56385964D01*
X86702169Y-56385965D01*
X86508597Y-56521505D01*
X86341508Y-56688594D01*
X86211574Y-56874159D01*
X86156997Y-56917784D01*
X86087498Y-56924976D01*
X86025144Y-56893454D01*
X86008424Y-56874158D01*
X85878494Y-56688597D01*
X85711402Y-56521506D01*
X85711401Y-56521505D01*
X85549251Y-56407966D01*
X85505626Y-56353389D01*
X85498434Y-56283890D01*
X85529956Y-56221536D01*
X85579417Y-56189351D01*
X85697903Y-56147891D01*
X85726773Y-56137790D01*
X85745957Y-56125736D01*
X85865204Y-56050808D01*
X85980808Y-55935204D01*
X86067789Y-55796775D01*
X86121786Y-55642461D01*
X86121787Y-55642455D01*
X86140091Y-55480003D01*
X86140091Y-55479996D01*
X86121787Y-55317544D01*
X86121786Y-55317542D01*
X86121786Y-55317539D01*
X86067789Y-55163225D01*
X85980808Y-55024796D01*
X85865204Y-54909192D01*
X85794488Y-54864758D01*
X85726774Y-54822210D01*
X85580837Y-54771145D01*
X85572461Y-54768214D01*
X85572460Y-54768213D01*
X85572455Y-54768212D01*
X85410004Y-54749909D01*
X85409996Y-54749909D01*
X85247544Y-54768212D01*
X85093225Y-54822210D01*
X84954795Y-54909192D01*
X84839192Y-55024795D01*
X84752210Y-55163225D01*
X84698212Y-55317544D01*
X84679909Y-55479996D01*
X84679909Y-55480003D01*
X84698212Y-55642455D01*
X84752210Y-55796774D01*
X84839192Y-55935204D01*
X84898709Y-55994721D01*
X84932194Y-56056044D01*
X84927210Y-56125736D01*
X84885338Y-56181669D01*
X84821836Y-56205930D01*
X84604596Y-56224936D01*
X84604586Y-56224938D01*
X84376344Y-56286094D01*
X84376335Y-56286098D01*
X84162171Y-56385964D01*
X84162169Y-56385965D01*
X83968597Y-56521505D01*
X83801505Y-56688597D01*
X83671575Y-56874158D01*
X83616998Y-56917783D01*
X83547500Y-56924977D01*
X83485145Y-56893454D01*
X83468425Y-56874158D01*
X83338494Y-56688597D01*
X83171402Y-56521506D01*
X83171395Y-56521501D01*
X82977834Y-56385967D01*
X82977830Y-56385965D01*
X82977830Y-56385964D01*
X82763663Y-56286097D01*
X82763659Y-56286096D01*
X82763655Y-56286094D01*
X82535413Y-56224938D01*
X82535403Y-56224936D01*
X82300001Y-56204341D01*
X82299999Y-56204341D01*
X82064596Y-56224936D01*
X82064586Y-56224938D01*
X81836344Y-56286094D01*
X81836335Y-56286098D01*
X81622171Y-56385964D01*
X81622169Y-56385965D01*
X81428597Y-56521505D01*
X81261505Y-56688597D01*
X81125965Y-56882169D01*
X81125964Y-56882171D01*
X81026098Y-57096335D01*
X81026094Y-57096344D01*
X80964938Y-57324586D01*
X80964936Y-57324596D01*
X80944341Y-57559999D01*
X80944341Y-57560000D01*
X80964936Y-57795403D01*
X80964938Y-57795413D01*
X81018151Y-57994009D01*
X81016488Y-58063859D01*
X80977325Y-58121721D01*
X80916852Y-58147616D01*
X80916966Y-58148149D01*
X80914273Y-58148721D01*
X80913097Y-58149225D01*
X80911358Y-58149421D01*
X80910612Y-58149499D01*
X80735733Y-58186670D01*
X80674935Y-58213740D01*
X80605685Y-58223024D01*
X80542409Y-58193396D01*
X80505196Y-58134261D01*
X80500500Y-58100460D01*
X80500500Y-54090003D01*
X89439909Y-54090003D01*
X89458212Y-54252455D01*
X89512210Y-54406774D01*
X89599192Y-54545204D01*
X89714797Y-54660809D01*
X89807106Y-54718811D01*
X89853396Y-54771145D01*
X89864044Y-54840199D01*
X89858175Y-54864758D01*
X89808212Y-55007544D01*
X89789909Y-55169996D01*
X89789909Y-55170003D01*
X89808212Y-55332455D01*
X89862210Y-55486774D01*
X89862211Y-55486775D01*
X89949192Y-55625204D01*
X90064796Y-55740808D01*
X90203225Y-55827789D01*
X90357539Y-55881786D01*
X90357542Y-55881786D01*
X90357544Y-55881787D01*
X90519996Y-55900091D01*
X90520000Y-55900091D01*
X90520004Y-55900091D01*
X90682455Y-55881787D01*
X90682456Y-55881786D01*
X90682461Y-55881786D01*
X90836775Y-55827789D01*
X90975204Y-55740808D01*
X91090808Y-55625204D01*
X91177789Y-55486775D01*
X91231786Y-55332461D01*
X91233467Y-55317544D01*
X91250091Y-55170003D01*
X91250091Y-55169996D01*
X91231787Y-55007544D01*
X91231786Y-55007542D01*
X91231786Y-55007539D01*
X91177789Y-54853225D01*
X91090808Y-54714796D01*
X90975204Y-54599192D01*
X90882890Y-54541187D01*
X90836602Y-54488856D01*
X90825953Y-54419802D01*
X90831821Y-54395249D01*
X90881786Y-54252461D01*
X90881786Y-54252459D01*
X90881787Y-54252457D01*
X90900091Y-54090003D01*
X90900091Y-54089997D01*
X90888642Y-53988384D01*
X90900696Y-53919562D01*
X90948046Y-53868182D01*
X91011862Y-53850500D01*
X91089389Y-53850500D01*
X91089391Y-53850500D01*
X91264267Y-53813329D01*
X91427593Y-53740612D01*
X91572230Y-53635526D01*
X91572888Y-53634796D01*
X91598148Y-53606741D01*
X91691859Y-53502665D01*
X91781250Y-53347835D01*
X91836497Y-53177803D01*
X91855185Y-53000000D01*
X91836497Y-52822197D01*
X91793013Y-52688367D01*
X91781252Y-52652170D01*
X91781249Y-52652164D01*
X91771643Y-52635526D01*
X91691859Y-52497335D01*
X91645003Y-52445296D01*
X91572235Y-52364478D01*
X91572232Y-52364476D01*
X91572231Y-52364475D01*
X91572230Y-52364474D01*
X91427593Y-52259388D01*
X91264267Y-52186671D01*
X91264265Y-52186670D01*
X91136594Y-52159533D01*
X91089391Y-52149500D01*
X90910609Y-52149500D01*
X90879954Y-52156015D01*
X90735733Y-52186670D01*
X90735728Y-52186672D01*
X90572408Y-52259387D01*
X90427768Y-52364475D01*
X90308140Y-52497336D01*
X90218750Y-52652164D01*
X90218747Y-52652170D01*
X90163504Y-52822192D01*
X90163503Y-52822194D01*
X90144815Y-53000000D01*
X90163503Y-53177805D01*
X90173854Y-53209661D01*
X90175848Y-53279502D01*
X90139766Y-53339334D01*
X90077065Y-53370161D01*
X90069806Y-53371197D01*
X90007544Y-53378212D01*
X89853225Y-53432210D01*
X89714795Y-53519192D01*
X89599192Y-53634795D01*
X89512210Y-53773225D01*
X89458212Y-53927544D01*
X89439909Y-54089996D01*
X89439909Y-54090003D01*
X80500500Y-54090003D01*
X80500500Y-50746038D01*
X80520185Y-50678999D01*
X80572989Y-50633244D01*
X80642147Y-50623300D01*
X80705703Y-50652325D01*
X80731887Y-50684039D01*
X80739688Y-50697551D01*
X80742640Y-50702663D01*
X80742639Y-50702663D01*
X80862264Y-50835521D01*
X80862267Y-50835523D01*
X80862270Y-50835526D01*
X81006907Y-50940612D01*
X81170233Y-51013329D01*
X81345109Y-51050500D01*
X81345110Y-51050500D01*
X81523889Y-51050500D01*
X81523891Y-51050500D01*
X81698767Y-51013329D01*
X81789317Y-50973013D01*
X81858565Y-50963729D01*
X81921842Y-50993357D01*
X81959055Y-51052492D01*
X81958390Y-51122358D01*
X81941326Y-51157416D01*
X81825967Y-51322165D01*
X81825965Y-51322169D01*
X81726098Y-51536335D01*
X81726094Y-51536344D01*
X81664938Y-51764586D01*
X81664936Y-51764596D01*
X81644341Y-51999999D01*
X81644341Y-52000000D01*
X81664936Y-52235403D01*
X81664938Y-52235413D01*
X81726094Y-52463655D01*
X81726096Y-52463659D01*
X81726097Y-52463663D01*
X81741799Y-52497335D01*
X81825964Y-52677828D01*
X81825965Y-52677830D01*
X81961505Y-52871402D01*
X82128597Y-53038494D01*
X82322169Y-53174034D01*
X82322171Y-53174035D01*
X82536337Y-53273903D01*
X82764592Y-53335063D01*
X82941032Y-53350499D01*
X82941033Y-53350500D01*
X82941034Y-53350500D01*
X83058967Y-53350500D01*
X83058967Y-53350499D01*
X83235408Y-53335063D01*
X83463663Y-53273903D01*
X83677829Y-53174035D01*
X83871401Y-53038495D01*
X84038495Y-52871401D01*
X84174035Y-52677830D01*
X84273903Y-52463663D01*
X84335063Y-52235408D01*
X84355659Y-52000000D01*
X84335063Y-51764592D01*
X84335060Y-51764584D01*
X84334585Y-51761885D01*
X84334720Y-51760673D01*
X84334591Y-51759199D01*
X84334887Y-51759173D01*
X84342325Y-51692445D01*
X84386379Y-51638214D01*
X84430916Y-51619057D01*
X84465995Y-51611601D01*
X84629321Y-51538884D01*
X84773958Y-51433798D01*
X84774570Y-51433119D01*
X84810782Y-51392901D01*
X84893587Y-51300937D01*
X84982978Y-51146107D01*
X85038225Y-50976075D01*
X85056913Y-50798272D01*
X85038225Y-50620469D01*
X84982978Y-50450437D01*
X84893587Y-50295607D01*
X84846731Y-50243568D01*
X84773963Y-50162750D01*
X84773960Y-50162748D01*
X84773959Y-50162747D01*
X84773958Y-50162746D01*
X84629321Y-50057660D01*
X84465995Y-49984943D01*
X84465993Y-49984942D01*
X84338322Y-49957805D01*
X84291119Y-49947772D01*
X84112337Y-49947772D01*
X84081682Y-49954287D01*
X83937461Y-49984942D01*
X83937456Y-49984944D01*
X83774136Y-50057659D01*
X83629496Y-50162747D01*
X83509868Y-50295608D01*
X83420478Y-50450436D01*
X83420476Y-50450440D01*
X83377839Y-50581663D01*
X83338401Y-50639338D01*
X83274042Y-50666536D01*
X83238380Y-50665461D01*
X83235408Y-50664937D01*
X83058967Y-50649500D01*
X83058966Y-50649500D01*
X82941034Y-50649500D01*
X82941033Y-50649500D01*
X82764596Y-50664936D01*
X82764586Y-50664938D01*
X82536344Y-50726094D01*
X82536335Y-50726098D01*
X82317264Y-50828253D01*
X82316767Y-50827187D01*
X82254528Y-50842277D01*
X82188504Y-50819415D01*
X82145322Y-50764488D01*
X82138690Y-50694933D01*
X82153057Y-50656421D01*
X82215750Y-50547835D01*
X82270997Y-50377803D01*
X82289685Y-50200000D01*
X82270997Y-50022197D01*
X82215750Y-49852165D01*
X82126359Y-49697335D01*
X82079503Y-49645296D01*
X82006735Y-49564478D01*
X82006732Y-49564476D01*
X82006731Y-49564475D01*
X82006730Y-49564474D01*
X81862093Y-49459388D01*
X81698767Y-49386671D01*
X81698765Y-49386670D01*
X81571094Y-49359533D01*
X81523891Y-49349500D01*
X81345109Y-49349500D01*
X81314454Y-49356015D01*
X81170233Y-49386670D01*
X81170228Y-49386672D01*
X81006908Y-49459387D01*
X80862268Y-49564475D01*
X80742640Y-49697336D01*
X80731887Y-49715961D01*
X80681320Y-49764177D01*
X80612713Y-49777400D01*
X80547848Y-49751432D01*
X80507320Y-49694518D01*
X80500500Y-49653961D01*
X80500500Y-47932588D01*
X80520185Y-47865549D01*
X80572989Y-47819794D01*
X80642147Y-47809850D01*
X80705703Y-47838875D01*
X80731887Y-47870589D01*
X80808137Y-48002660D01*
X80808139Y-48002663D01*
X80927764Y-48135521D01*
X80927767Y-48135523D01*
X80927770Y-48135526D01*
X81072407Y-48240612D01*
X81235733Y-48313329D01*
X81410609Y-48350500D01*
X81410610Y-48350500D01*
X81589389Y-48350500D01*
X81589391Y-48350500D01*
X81764267Y-48313329D01*
X81927593Y-48240612D01*
X82072230Y-48135526D01*
X82191859Y-48002665D01*
X82281250Y-47847835D01*
X82336497Y-47677803D01*
X82355185Y-47500000D01*
X82644815Y-47500000D01*
X82646444Y-47515500D01*
X82663503Y-47677805D01*
X82663504Y-47677807D01*
X82718747Y-47847829D01*
X82718750Y-47847835D01*
X82808141Y-48002665D01*
X82822970Y-48019134D01*
X82927764Y-48135521D01*
X82927767Y-48135523D01*
X82927770Y-48135526D01*
X83072407Y-48240612D01*
X83235733Y-48313329D01*
X83410609Y-48350500D01*
X83410610Y-48350500D01*
X83589389Y-48350500D01*
X83589391Y-48350500D01*
X83764267Y-48313329D01*
X83927593Y-48240612D01*
X84072230Y-48135526D01*
X84191859Y-48002665D01*
X84281250Y-47847835D01*
X84336497Y-47677803D01*
X84355185Y-47500000D01*
X84336497Y-47322197D01*
X84292462Y-47186671D01*
X84281252Y-47152170D01*
X84281249Y-47152164D01*
X84268113Y-47129411D01*
X84191859Y-46997335D01*
X84145003Y-46945296D01*
X84072235Y-46864478D01*
X84072232Y-46864476D01*
X84072231Y-46864475D01*
X84072230Y-46864474D01*
X83927593Y-46759388D01*
X83764267Y-46686671D01*
X83764265Y-46686670D01*
X83636594Y-46659533D01*
X83589391Y-46649500D01*
X83410609Y-46649500D01*
X83379954Y-46656015D01*
X83235733Y-46686670D01*
X83235728Y-46686672D01*
X83072408Y-46759387D01*
X82927768Y-46864475D01*
X82808140Y-46997336D01*
X82718750Y-47152164D01*
X82718747Y-47152170D01*
X82663504Y-47322192D01*
X82663503Y-47322194D01*
X82649566Y-47454795D01*
X82644815Y-47500000D01*
X82355185Y-47500000D01*
X82336497Y-47322197D01*
X82292462Y-47186671D01*
X82281252Y-47152170D01*
X82281249Y-47152164D01*
X82268113Y-47129411D01*
X82191859Y-46997335D01*
X82145003Y-46945296D01*
X82072235Y-46864478D01*
X82072232Y-46864476D01*
X82072231Y-46864475D01*
X82072230Y-46864474D01*
X81927593Y-46759388D01*
X81764267Y-46686671D01*
X81764265Y-46686670D01*
X81636594Y-46659533D01*
X81589391Y-46649500D01*
X81410609Y-46649500D01*
X81379954Y-46656015D01*
X81235733Y-46686670D01*
X81235728Y-46686672D01*
X81072408Y-46759387D01*
X80927768Y-46864475D01*
X80808140Y-46997336D01*
X80731887Y-47129411D01*
X80681320Y-47177626D01*
X80612713Y-47190850D01*
X80547849Y-47164882D01*
X80507320Y-47107968D01*
X80500500Y-47067411D01*
X80500500Y-46590003D01*
X86579909Y-46590003D01*
X86598212Y-46752455D01*
X86652210Y-46906774D01*
X86709114Y-46997335D01*
X86739192Y-47045204D01*
X86854796Y-47160808D01*
X86993225Y-47247789D01*
X87147539Y-47301786D01*
X87147542Y-47301786D01*
X87147544Y-47301787D01*
X87309996Y-47320091D01*
X87310000Y-47320091D01*
X87310004Y-47320091D01*
X87472455Y-47301787D01*
X87472456Y-47301786D01*
X87472461Y-47301786D01*
X87626775Y-47247789D01*
X87765204Y-47160808D01*
X87880808Y-47045204D01*
X87900006Y-47014649D01*
X87952341Y-46968359D01*
X88021394Y-46957711D01*
X88085243Y-46986086D01*
X88109992Y-47014648D01*
X88129192Y-47045204D01*
X88244796Y-47160808D01*
X88383225Y-47247789D01*
X88383226Y-47247789D01*
X88389122Y-47251494D01*
X88388802Y-47252002D01*
X88415988Y-47271290D01*
X88446618Y-47301920D01*
X88449170Y-47304632D01*
X88488766Y-47349327D01*
X88488767Y-47349328D01*
X88488771Y-47349332D01*
X88537922Y-47383258D01*
X88540923Y-47385465D01*
X88587972Y-47422326D01*
X88587973Y-47422326D01*
X88587974Y-47422327D01*
X88596515Y-47426171D01*
X88616067Y-47437198D01*
X88623774Y-47442518D01*
X88679639Y-47463705D01*
X88683070Y-47465126D01*
X88737561Y-47489650D01*
X88746776Y-47491338D01*
X88768389Y-47497363D01*
X88777155Y-47500688D01*
X88836471Y-47507890D01*
X88840158Y-47508451D01*
X88898915Y-47519219D01*
X88898916Y-47519218D01*
X88898917Y-47519219D01*
X88958534Y-47515613D01*
X88962278Y-47515500D01*
X90699960Y-47515500D01*
X90766999Y-47535185D01*
X90812754Y-47587989D01*
X90822698Y-47657147D01*
X90793673Y-47720703D01*
X90765933Y-47744493D01*
X90694797Y-47789190D01*
X90579192Y-47904795D01*
X90492210Y-48043225D01*
X90438212Y-48197544D01*
X90419909Y-48359996D01*
X90419909Y-48360003D01*
X90438212Y-48522455D01*
X90492210Y-48676774D01*
X90547004Y-48763978D01*
X90579192Y-48815204D01*
X90694796Y-48930808D01*
X90833225Y-49017789D01*
X90987539Y-49071786D01*
X90987542Y-49071786D01*
X90987544Y-49071787D01*
X91149996Y-49090091D01*
X91150000Y-49090091D01*
X91150004Y-49090091D01*
X91312455Y-49071787D01*
X91312456Y-49071786D01*
X91312461Y-49071786D01*
X91466775Y-49017789D01*
X91605204Y-48930808D01*
X91720808Y-48815204D01*
X91720811Y-48815198D01*
X91725151Y-48809758D01*
X91727663Y-48811761D01*
X91769259Y-48774792D01*
X91838286Y-48763978D01*
X91902203Y-48792199D01*
X91940118Y-48848609D01*
X91946948Y-48869631D01*
X91946950Y-48869635D01*
X92036341Y-49024465D01*
X92077890Y-49070610D01*
X92155964Y-49157321D01*
X92155967Y-49157323D01*
X92155970Y-49157326D01*
X92300607Y-49262412D01*
X92463933Y-49335129D01*
X92638809Y-49372300D01*
X92638810Y-49372300D01*
X92817589Y-49372300D01*
X92817591Y-49372300D01*
X92992467Y-49335129D01*
X93155793Y-49262412D01*
X93300430Y-49157326D01*
X93420059Y-49024465D01*
X93506902Y-48874047D01*
X93557466Y-48825835D01*
X93626073Y-48812611D01*
X93690938Y-48838579D01*
X93731467Y-48895493D01*
X93732218Y-48897733D01*
X93738746Y-48917826D01*
X93738750Y-48917835D01*
X93828141Y-49072665D01*
X93869812Y-49118946D01*
X93947764Y-49205521D01*
X93947767Y-49205523D01*
X93947770Y-49205526D01*
X94092407Y-49310612D01*
X94255733Y-49383329D01*
X94430609Y-49420500D01*
X94430610Y-49420500D01*
X94609389Y-49420500D01*
X94609391Y-49420500D01*
X94784267Y-49383329D01*
X94947593Y-49310612D01*
X95092230Y-49205526D01*
X95211859Y-49072665D01*
X95301250Y-48917835D01*
X95356497Y-48747803D01*
X95375185Y-48570000D01*
X95356497Y-48392197D01*
X95336288Y-48330000D01*
X95644815Y-48330000D01*
X95651044Y-48389267D01*
X95663503Y-48507805D01*
X95663504Y-48507807D01*
X95718747Y-48677829D01*
X95718750Y-48677835D01*
X95808141Y-48832665D01*
X95841429Y-48869635D01*
X95927764Y-48965521D01*
X95927767Y-48965523D01*
X95927770Y-48965526D01*
X96072407Y-49070612D01*
X96235733Y-49143329D01*
X96410609Y-49180500D01*
X96410610Y-49180500D01*
X96589389Y-49180500D01*
X96589391Y-49180500D01*
X96764267Y-49143329D01*
X96927593Y-49070612D01*
X97072230Y-48965526D01*
X97191859Y-48832665D01*
X97281250Y-48677835D01*
X97336497Y-48507803D01*
X97355185Y-48330000D01*
X97336497Y-48152197D01*
X97301027Y-48043032D01*
X97287045Y-48000000D01*
X99144815Y-48000000D01*
X99163503Y-48177805D01*
X99163504Y-48177807D01*
X99218747Y-48347829D01*
X99218750Y-48347835D01*
X99308141Y-48502665D01*
X99349812Y-48548946D01*
X99427764Y-48635521D01*
X99427767Y-48635523D01*
X99427770Y-48635526D01*
X99572407Y-48740612D01*
X99735733Y-48813329D01*
X99910609Y-48850500D01*
X99910610Y-48850500D01*
X100089389Y-48850500D01*
X100089391Y-48850500D01*
X100264267Y-48813329D01*
X100427593Y-48740612D01*
X100572230Y-48635526D01*
X100691859Y-48502665D01*
X100781250Y-48347835D01*
X100836497Y-48177803D01*
X100855185Y-48000000D01*
X100836497Y-47822197D01*
X100808033Y-47734594D01*
X100781252Y-47652170D01*
X100781249Y-47652164D01*
X100691859Y-47497335D01*
X100631947Y-47430796D01*
X100572235Y-47364478D01*
X100572232Y-47364476D01*
X100572231Y-47364475D01*
X100572230Y-47364474D01*
X100427593Y-47259388D01*
X100264267Y-47186671D01*
X100264265Y-47186670D01*
X100101952Y-47152170D01*
X100089391Y-47149500D01*
X99910609Y-47149500D01*
X99898048Y-47152170D01*
X99735733Y-47186670D01*
X99735728Y-47186672D01*
X99572408Y-47259387D01*
X99427768Y-47364475D01*
X99308140Y-47497336D01*
X99218750Y-47652164D01*
X99218747Y-47652170D01*
X99163504Y-47822192D01*
X99163503Y-47822194D01*
X99144815Y-48000000D01*
X97287045Y-48000000D01*
X97281252Y-47982170D01*
X97281249Y-47982164D01*
X97191859Y-47827335D01*
X97128232Y-47756670D01*
X97072235Y-47694478D01*
X97072232Y-47694476D01*
X97072231Y-47694475D01*
X97072230Y-47694474D01*
X96927593Y-47589388D01*
X96764267Y-47516671D01*
X96764265Y-47516670D01*
X96636594Y-47489533D01*
X96589391Y-47479500D01*
X96410609Y-47479500D01*
X96379954Y-47486015D01*
X96235733Y-47516670D01*
X96235728Y-47516672D01*
X96072408Y-47589387D01*
X95927768Y-47694475D01*
X95808140Y-47827336D01*
X95718750Y-47982164D01*
X95718747Y-47982170D01*
X95663504Y-48152192D01*
X95663503Y-48152194D01*
X95660811Y-48177805D01*
X95644815Y-48330000D01*
X95336288Y-48330000D01*
X95301250Y-48222165D01*
X95211859Y-48067335D01*
X95135176Y-47982170D01*
X95092235Y-47934478D01*
X95092232Y-47934476D01*
X95092231Y-47934475D01*
X95092230Y-47934474D01*
X94947593Y-47829388D01*
X94784267Y-47756671D01*
X94784265Y-47756670D01*
X94784266Y-47756670D01*
X94680405Y-47734594D01*
X94618924Y-47701401D01*
X94589145Y-47654258D01*
X94588414Y-47652170D01*
X94567789Y-47593225D01*
X94480808Y-47454796D01*
X94365204Y-47339192D01*
X94363337Y-47337325D01*
X94329852Y-47276002D01*
X94334836Y-47206310D01*
X94363337Y-47161963D01*
X95525754Y-45999546D01*
X96525300Y-45000000D01*
X99144815Y-45000000D01*
X99163503Y-45177805D01*
X99163504Y-45177807D01*
X99218747Y-45347829D01*
X99218750Y-45347835D01*
X99308141Y-45502665D01*
X99341030Y-45539192D01*
X99427764Y-45635521D01*
X99427767Y-45635523D01*
X99427770Y-45635526D01*
X99572407Y-45740612D01*
X99735733Y-45813329D01*
X99910609Y-45850500D01*
X99910610Y-45850500D01*
X100089389Y-45850500D01*
X100089391Y-45850500D01*
X100264267Y-45813329D01*
X100427593Y-45740612D01*
X100572230Y-45635526D01*
X100691859Y-45502665D01*
X100781250Y-45347835D01*
X100836497Y-45177803D01*
X100855185Y-45000000D01*
X100836497Y-44822197D01*
X100799661Y-44708827D01*
X100781252Y-44652170D01*
X100781249Y-44652164D01*
X100757258Y-44610610D01*
X100691859Y-44497335D01*
X100645003Y-44445296D01*
X100572235Y-44364478D01*
X100572232Y-44364476D01*
X100572231Y-44364475D01*
X100572230Y-44364474D01*
X100427593Y-44259388D01*
X100264267Y-44186671D01*
X100264265Y-44186670D01*
X100136594Y-44159533D01*
X100089391Y-44149500D01*
X99910609Y-44149500D01*
X99879954Y-44156015D01*
X99735733Y-44186670D01*
X99735728Y-44186672D01*
X99572408Y-44259387D01*
X99427768Y-44364475D01*
X99308140Y-44497336D01*
X99218750Y-44652164D01*
X99218747Y-44652170D01*
X99163504Y-44822192D01*
X99163503Y-44822194D01*
X99144815Y-45000000D01*
X96525300Y-45000000D01*
X96782990Y-44742310D01*
X96844311Y-44708827D01*
X96844717Y-44708739D01*
X96964267Y-44683329D01*
X97127593Y-44610612D01*
X97272230Y-44505526D01*
X97279605Y-44497336D01*
X97298148Y-44476741D01*
X97391859Y-44372665D01*
X97481250Y-44217835D01*
X97536497Y-44047803D01*
X97555185Y-43870000D01*
X97536497Y-43692197D01*
X97491173Y-43552704D01*
X97481252Y-43522170D01*
X97481249Y-43522164D01*
X97391859Y-43367335D01*
X97328437Y-43296898D01*
X97272235Y-43234478D01*
X97272232Y-43234476D01*
X97272231Y-43234475D01*
X97272230Y-43234474D01*
X97127593Y-43129388D01*
X96964267Y-43056671D01*
X96964265Y-43056670D01*
X96844887Y-43031295D01*
X96783405Y-42998102D01*
X96782988Y-42997686D01*
X95785301Y-41999999D01*
X99144815Y-41999999D01*
X99163503Y-42177805D01*
X99163504Y-42177807D01*
X99218747Y-42347829D01*
X99218750Y-42347835D01*
X99308141Y-42502665D01*
X99349812Y-42548946D01*
X99427764Y-42635521D01*
X99427767Y-42635523D01*
X99427770Y-42635526D01*
X99572407Y-42740612D01*
X99735733Y-42813329D01*
X99910609Y-42850500D01*
X99910610Y-42850500D01*
X100089389Y-42850500D01*
X100089391Y-42850500D01*
X100264267Y-42813329D01*
X100427593Y-42740612D01*
X100572230Y-42635526D01*
X100691859Y-42502665D01*
X100781250Y-42347835D01*
X100836497Y-42177803D01*
X100855185Y-42000000D01*
X100836497Y-41822197D01*
X100789581Y-41677805D01*
X100781252Y-41652170D01*
X100781249Y-41652164D01*
X100691859Y-41497335D01*
X100645003Y-41445296D01*
X100572235Y-41364478D01*
X100572232Y-41364476D01*
X100572231Y-41364475D01*
X100572230Y-41364474D01*
X100427593Y-41259388D01*
X100264267Y-41186671D01*
X100264265Y-41186670D01*
X100101952Y-41152170D01*
X100089391Y-41149500D01*
X99910609Y-41149500D01*
X99898048Y-41152170D01*
X99735733Y-41186670D01*
X99735728Y-41186672D01*
X99572408Y-41259387D01*
X99427768Y-41364475D01*
X99308140Y-41497336D01*
X99218750Y-41652164D01*
X99218747Y-41652170D01*
X99163504Y-41822192D01*
X99163503Y-41822194D01*
X99144815Y-41999999D01*
X95785301Y-41999999D01*
X93971362Y-40186060D01*
X93937877Y-40124737D01*
X93942861Y-40055045D01*
X93984068Y-40000000D01*
X100644341Y-40000000D01*
X100664936Y-40235403D01*
X100664938Y-40235413D01*
X100726094Y-40463655D01*
X100726096Y-40463659D01*
X100726097Y-40463663D01*
X100776031Y-40570745D01*
X100825964Y-40677828D01*
X100825965Y-40677830D01*
X100961505Y-40871402D01*
X101128597Y-41038494D01*
X101322169Y-41174034D01*
X101322171Y-41174035D01*
X101536337Y-41273903D01*
X101764592Y-41335063D01*
X101941032Y-41350499D01*
X101941033Y-41350500D01*
X101941034Y-41350500D01*
X102058967Y-41350500D01*
X102058967Y-41350499D01*
X102235408Y-41335063D01*
X102463663Y-41273903D01*
X102677829Y-41174035D01*
X102871401Y-41038495D01*
X103038495Y-40871401D01*
X103174035Y-40677830D01*
X103273903Y-40463663D01*
X103335063Y-40235408D01*
X103355659Y-40000000D01*
X103335063Y-39764592D01*
X103273903Y-39536337D01*
X103174035Y-39322171D01*
X103174034Y-39322169D01*
X103038494Y-39128597D01*
X102871402Y-38961505D01*
X102677830Y-38825965D01*
X102677828Y-38825964D01*
X102570745Y-38776030D01*
X102463663Y-38726097D01*
X102463659Y-38726096D01*
X102463655Y-38726094D01*
X102235413Y-38664938D01*
X102235403Y-38664936D01*
X102058967Y-38649500D01*
X102058966Y-38649500D01*
X101941034Y-38649500D01*
X101941033Y-38649500D01*
X101764596Y-38664936D01*
X101764586Y-38664938D01*
X101536344Y-38726094D01*
X101536335Y-38726098D01*
X101322171Y-38825964D01*
X101322169Y-38825965D01*
X101128597Y-38961505D01*
X100961506Y-39128597D01*
X100961501Y-39128604D01*
X100825967Y-39322165D01*
X100825965Y-39322169D01*
X100726098Y-39536335D01*
X100726094Y-39536344D01*
X100664938Y-39764586D01*
X100664936Y-39764596D01*
X100644341Y-39999999D01*
X100644341Y-40000000D01*
X93984068Y-40000000D01*
X93984733Y-39999112D01*
X93986103Y-39998101D01*
X94072230Y-39935526D01*
X94191859Y-39802665D01*
X94281250Y-39647835D01*
X94336497Y-39477803D01*
X94355185Y-39300000D01*
X94336497Y-39122197D01*
X94281250Y-38952165D01*
X94191859Y-38797335D01*
X94127713Y-38726094D01*
X94072235Y-38664478D01*
X94072232Y-38664476D01*
X94072231Y-38664475D01*
X94072230Y-38664474D01*
X93927593Y-38559388D01*
X93764267Y-38486671D01*
X93764265Y-38486670D01*
X93635910Y-38459388D01*
X93589391Y-38449500D01*
X93410609Y-38449500D01*
X93379954Y-38456015D01*
X93235733Y-38486670D01*
X93235728Y-38486672D01*
X93072408Y-38559387D01*
X92927768Y-38664475D01*
X92808140Y-38797336D01*
X92718750Y-38952164D01*
X92718747Y-38952170D01*
X92663504Y-39122192D01*
X92663503Y-39122194D01*
X92644815Y-39299999D01*
X92663503Y-39477805D01*
X92663504Y-39477807D01*
X92707165Y-39612182D01*
X92709160Y-39682023D01*
X92673079Y-39741856D01*
X92610378Y-39772684D01*
X92589234Y-39774500D01*
X90957502Y-39774500D01*
X90890463Y-39754815D01*
X90884616Y-39750818D01*
X90827594Y-39709389D01*
X90827593Y-39709388D01*
X90664267Y-39636671D01*
X90664265Y-39636670D01*
X90536594Y-39609533D01*
X90489391Y-39599500D01*
X90310609Y-39599500D01*
X90279954Y-39606015D01*
X90135733Y-39636670D01*
X90135728Y-39636672D01*
X89972408Y-39709387D01*
X89827768Y-39814475D01*
X89708140Y-39947336D01*
X89618750Y-40102164D01*
X89618747Y-40102170D01*
X89563504Y-40272192D01*
X89563503Y-40272194D01*
X89544815Y-40450000D01*
X89563503Y-40627805D01*
X89563504Y-40627807D01*
X89618747Y-40797829D01*
X89618750Y-40797835D01*
X89708141Y-40952665D01*
X89748362Y-40997335D01*
X89827764Y-41085521D01*
X89827767Y-41085523D01*
X89827770Y-41085526D01*
X89972407Y-41190612D01*
X90135733Y-41263329D01*
X90310609Y-41300500D01*
X90310610Y-41300500D01*
X90489389Y-41300500D01*
X90489391Y-41300500D01*
X90664267Y-41263329D01*
X90827593Y-41190612D01*
X90884615Y-41149182D01*
X90950423Y-41125702D01*
X90957502Y-41125500D01*
X92948837Y-41125500D01*
X93015876Y-41145185D01*
X93036518Y-41161819D01*
X95171596Y-43296898D01*
X95205081Y-43358221D01*
X95200097Y-43427913D01*
X95158225Y-43483846D01*
X95092761Y-43508263D01*
X95070032Y-43507799D01*
X95000004Y-43499909D01*
X94999996Y-43499909D01*
X94837544Y-43518212D01*
X94738972Y-43552704D01*
X94669193Y-43556265D01*
X94632047Y-43540657D01*
X94618603Y-43532210D01*
X94586775Y-43512211D01*
X94586773Y-43512210D01*
X94586771Y-43512209D01*
X94432455Y-43458212D01*
X94270004Y-43439909D01*
X94269996Y-43439909D01*
X94107544Y-43458212D01*
X93953225Y-43512210D01*
X93814795Y-43599192D01*
X93737681Y-43676307D01*
X93676358Y-43709792D01*
X93606666Y-43704808D01*
X93562319Y-43676307D01*
X93505204Y-43619192D01*
X93366774Y-43532210D01*
X93212455Y-43478212D01*
X93050004Y-43459909D01*
X93049996Y-43459909D01*
X92887544Y-43478212D01*
X92733225Y-43532210D01*
X92594795Y-43619192D01*
X92479192Y-43734795D01*
X92392210Y-43873225D01*
X92338212Y-44027544D01*
X92319909Y-44189996D01*
X92319909Y-44190003D01*
X92338212Y-44352455D01*
X92392210Y-44506774D01*
X92392211Y-44506775D01*
X92479192Y-44645204D01*
X92594796Y-44760808D01*
X92733225Y-44847789D01*
X92887539Y-44901786D01*
X92887542Y-44901786D01*
X92887544Y-44901787D01*
X93049996Y-44920091D01*
X93050000Y-44920091D01*
X93050004Y-44920091D01*
X93212453Y-44901787D01*
X93212453Y-44901786D01*
X93212461Y-44901786D01*
X93248087Y-44889319D01*
X93317863Y-44885759D01*
X93378491Y-44920488D01*
X93410718Y-44982481D01*
X93404313Y-45052057D01*
X93361309Y-45107124D01*
X93355012Y-45111355D01*
X93294797Y-45149190D01*
X93179192Y-45264795D01*
X93092210Y-45403225D01*
X93038212Y-45557544D01*
X93019909Y-45719996D01*
X93019909Y-45720003D01*
X93038212Y-45882455D01*
X93079184Y-45999546D01*
X93082745Y-46069325D01*
X93048016Y-46129952D01*
X92986023Y-46162179D01*
X92962142Y-46164500D01*
X90217045Y-46164500D01*
X90150006Y-46144815D01*
X90104251Y-46092011D01*
X90093825Y-46054383D01*
X90081787Y-45947544D01*
X90081786Y-45947542D01*
X90081786Y-45947539D01*
X90027789Y-45793225D01*
X89940808Y-45654796D01*
X89825204Y-45539192D01*
X89767069Y-45502663D01*
X89686774Y-45452210D01*
X89552939Y-45405379D01*
X89532461Y-45398214D01*
X89532460Y-45398213D01*
X89532455Y-45398212D01*
X89370004Y-45379909D01*
X89369996Y-45379909D01*
X89207544Y-45398212D01*
X89053225Y-45452210D01*
X88914795Y-45539192D01*
X88799192Y-45654795D01*
X88712211Y-45793225D01*
X88709188Y-45799503D01*
X88706590Y-45798251D01*
X88673339Y-45844519D01*
X88610997Y-45869936D01*
X88537544Y-45878212D01*
X88383225Y-45932210D01*
X88244795Y-46019192D01*
X88129192Y-46134795D01*
X88129190Y-46134798D01*
X88109993Y-46165350D01*
X88057658Y-46211641D01*
X87988604Y-46222288D01*
X87924756Y-46193912D01*
X87900007Y-46165350D01*
X87880809Y-46134798D01*
X87880807Y-46134795D01*
X87765204Y-46019192D01*
X87626774Y-45932210D01*
X87472455Y-45878212D01*
X87310004Y-45859909D01*
X87309996Y-45859909D01*
X87147544Y-45878212D01*
X86993225Y-45932210D01*
X86854795Y-46019192D01*
X86739192Y-46134795D01*
X86652210Y-46273225D01*
X86598212Y-46427544D01*
X86579909Y-46589996D01*
X86579909Y-46590003D01*
X80500500Y-46590003D01*
X80500500Y-42899539D01*
X80520185Y-42832500D01*
X80572989Y-42786745D01*
X80642147Y-42776801D01*
X80674932Y-42786258D01*
X80735733Y-42813329D01*
X80910609Y-42850500D01*
X80910610Y-42850500D01*
X81089389Y-42850500D01*
X81089391Y-42850500D01*
X81264267Y-42813329D01*
X81427593Y-42740612D01*
X81572230Y-42635526D01*
X81601841Y-42602640D01*
X90191487Y-42602640D01*
X90209790Y-42765092D01*
X90263788Y-42919411D01*
X90263789Y-42919412D01*
X90350770Y-43057841D01*
X90466374Y-43173445D01*
X90604803Y-43260426D01*
X90759117Y-43314423D01*
X90759120Y-43314423D01*
X90759122Y-43314424D01*
X90921574Y-43332728D01*
X90921578Y-43332728D01*
X90921582Y-43332728D01*
X91084033Y-43314424D01*
X91084034Y-43314423D01*
X91084039Y-43314423D01*
X91238353Y-43260426D01*
X91376782Y-43173445D01*
X91492386Y-43057841D01*
X91579367Y-42919412D01*
X91633364Y-42765098D01*
X91642010Y-42688367D01*
X91651669Y-42602640D01*
X91651669Y-42602633D01*
X91633365Y-42440181D01*
X91633364Y-42440179D01*
X91633364Y-42440176D01*
X91579367Y-42285862D01*
X91492386Y-42147433D01*
X91376782Y-42031829D01*
X91326125Y-41999999D01*
X91238352Y-41944847D01*
X91084033Y-41890849D01*
X90921582Y-41872546D01*
X90921574Y-41872546D01*
X90759122Y-41890849D01*
X90604803Y-41944847D01*
X90466373Y-42031829D01*
X90350770Y-42147432D01*
X90263788Y-42285862D01*
X90209790Y-42440181D01*
X90191487Y-42602633D01*
X90191487Y-42602640D01*
X81601841Y-42602640D01*
X81691859Y-42502665D01*
X81781250Y-42347835D01*
X81836497Y-42177803D01*
X81855185Y-42000000D01*
X81836497Y-41822197D01*
X81789581Y-41677805D01*
X81781252Y-41652170D01*
X81781249Y-41652164D01*
X81693397Y-41499999D01*
X86944815Y-41499999D01*
X86963503Y-41677805D01*
X86963504Y-41677807D01*
X87018747Y-41847829D01*
X87018750Y-41847835D01*
X87108141Y-42002665D01*
X87149812Y-42048946D01*
X87227764Y-42135521D01*
X87227767Y-42135523D01*
X87227770Y-42135526D01*
X87372407Y-42240612D01*
X87535733Y-42313329D01*
X87710609Y-42350500D01*
X87710610Y-42350500D01*
X87889389Y-42350500D01*
X87889391Y-42350500D01*
X88064267Y-42313329D01*
X88227593Y-42240612D01*
X88372230Y-42135526D01*
X88491859Y-42002665D01*
X88581250Y-41847835D01*
X88636497Y-41677803D01*
X88655185Y-41500000D01*
X88636497Y-41322197D01*
X88592462Y-41186671D01*
X88581252Y-41152170D01*
X88581249Y-41152164D01*
X88579711Y-41149500D01*
X88491859Y-40997335D01*
X88445003Y-40945296D01*
X88372235Y-40864478D01*
X88372232Y-40864476D01*
X88372231Y-40864475D01*
X88372230Y-40864474D01*
X88227593Y-40759388D01*
X88064267Y-40686671D01*
X88064265Y-40686670D01*
X87936594Y-40659533D01*
X87889391Y-40649500D01*
X87710609Y-40649500D01*
X87679954Y-40656015D01*
X87535733Y-40686670D01*
X87535728Y-40686672D01*
X87372408Y-40759387D01*
X87227768Y-40864475D01*
X87108140Y-40997336D01*
X87018750Y-41152164D01*
X87018747Y-41152170D01*
X86963504Y-41322192D01*
X86963503Y-41322194D01*
X86944815Y-41499999D01*
X81693397Y-41499999D01*
X81691859Y-41497335D01*
X81645003Y-41445296D01*
X81572235Y-41364478D01*
X81572232Y-41364476D01*
X81572231Y-41364475D01*
X81572230Y-41364474D01*
X81427593Y-41259388D01*
X81264267Y-41186671D01*
X81264265Y-41186670D01*
X81101952Y-41152170D01*
X81089391Y-41149500D01*
X80910609Y-41149500D01*
X80898048Y-41152170D01*
X80735733Y-41186670D01*
X80674935Y-41213740D01*
X80605685Y-41223024D01*
X80542409Y-41193396D01*
X80505196Y-41134261D01*
X80500500Y-41100460D01*
X80500500Y-40000000D01*
X81644341Y-40000000D01*
X81664936Y-40235403D01*
X81664938Y-40235413D01*
X81726094Y-40463655D01*
X81726096Y-40463659D01*
X81726097Y-40463663D01*
X81776031Y-40570745D01*
X81825964Y-40677828D01*
X81825965Y-40677830D01*
X81961505Y-40871402D01*
X82128597Y-41038494D01*
X82322169Y-41174034D01*
X82322171Y-41174035D01*
X82536337Y-41273903D01*
X82764592Y-41335063D01*
X82941032Y-41350499D01*
X82941033Y-41350500D01*
X82941034Y-41350500D01*
X83058967Y-41350500D01*
X83058967Y-41350499D01*
X83235408Y-41335063D01*
X83463663Y-41273903D01*
X83677829Y-41174035D01*
X83871401Y-41038495D01*
X84038495Y-40871401D01*
X84174035Y-40677830D01*
X84273903Y-40463663D01*
X84335063Y-40235408D01*
X84355659Y-40000000D01*
X84335063Y-39764592D01*
X84273903Y-39536337D01*
X84174035Y-39322171D01*
X84174034Y-39322169D01*
X84038494Y-39128597D01*
X83871402Y-38961505D01*
X83677830Y-38825965D01*
X83677828Y-38825964D01*
X83570746Y-38776031D01*
X83463663Y-38726097D01*
X83463659Y-38726096D01*
X83463655Y-38726094D01*
X83235413Y-38664938D01*
X83235403Y-38664936D01*
X83058967Y-38649500D01*
X83058966Y-38649500D01*
X82941034Y-38649500D01*
X82941033Y-38649500D01*
X82764596Y-38664936D01*
X82764586Y-38664938D01*
X82536344Y-38726094D01*
X82536335Y-38726098D01*
X82322171Y-38825964D01*
X82322169Y-38825965D01*
X82128597Y-38961505D01*
X81961506Y-39128597D01*
X81961501Y-39128604D01*
X81825967Y-39322165D01*
X81825965Y-39322169D01*
X81726098Y-39536335D01*
X81726094Y-39536344D01*
X81664938Y-39764586D01*
X81664936Y-39764596D01*
X81644341Y-39999999D01*
X81644341Y-40000000D01*
X80500500Y-40000000D01*
X80500500Y-38899539D01*
X80520185Y-38832500D01*
X80572989Y-38786745D01*
X80642147Y-38776801D01*
X80674932Y-38786258D01*
X80735733Y-38813329D01*
X80910609Y-38850500D01*
X80910610Y-38850500D01*
X81089389Y-38850500D01*
X81089391Y-38850500D01*
X81264267Y-38813329D01*
X81427593Y-38740612D01*
X81572230Y-38635526D01*
X81691859Y-38502665D01*
X81781250Y-38347835D01*
X81836497Y-38177803D01*
X81855185Y-38000000D01*
X81836497Y-37822197D01*
X81816858Y-37761756D01*
X81784712Y-37662818D01*
X81782717Y-37592977D01*
X81818798Y-37533144D01*
X81881499Y-37502316D01*
X81902643Y-37500500D01*
X84097357Y-37500500D01*
X84164396Y-37520185D01*
G37*
%TD.AperFunction*%
%TD*%
M02*
