M48
; DRILL file {KiCad 7.0.5} date Sun Mar 10 15:58:10 2024
; FORMAT={-:-/ absolute / metric / decimal}
; #@! TF.CreationDate,2024-03-10T15:58:10+09:00
; #@! TF.GenerationSoftware,Kicad,Pcbnew,7.0.5
; #@! TF.FileFunction,MixedPlating,1,4
FMAT,2
METRIC
; #@! TA.AperFunction,Plated,PTH,ViaDrill
T1C0.300
; #@! TA.AperFunction,Plated,PTH,ViaDrill
T2C0.350
; #@! TA.AperFunction,Plated,PTH,ComponentDrill
T3C1.000
; #@! TA.AperFunction,NonPlated,NPTH,ComponentDrill
T4C2.200
%
G90
G05
T1
X85.41Y-55.48
X87.31Y-46.59
X88.7Y-46.59
X89.37Y-46.11
X90.17Y-54.09
X90.52Y-55.17
X90.83Y-43.78
X90.922Y-42.603
X91.15Y-48.36
X93.05Y-44.19
X93.75Y-45.72
X93.91Y-47.91
X94.27Y-44.17
X95.0Y-44.23
T2
X81.0Y-38.0
X81.0Y-42.0
X81.0Y-59.0
X81.0Y-61.0
X81.434Y-50.2
X81.5Y-47.5
X81.9Y-54.7
X83.5Y-47.5
X83.8Y-54.2
X84.202Y-50.798
X84.3Y-45.5
X85.0Y-38.0
X85.3Y-44.8
X85.8Y-39.2
X87.8Y-41.5
X89.3Y-42.3
X90.4Y-40.45
X91.0Y-38.0
X91.0Y-53.0
X92.511Y-43.571
X92.728Y-48.522
X93.5Y-39.3
X94.52Y-48.57
X96.2Y-47.25
X96.5Y-48.33
X96.7Y-43.87
X97.0Y-38.0
X100.0Y-38.0
X100.0Y-42.0
X100.0Y-45.0
X100.0Y-48.0
X100.08Y-51.49
X101.6Y-55.8
X103.8Y-55.8
X104.0Y-38.0
X104.0Y-42.0
X104.0Y-45.0
X104.0Y-48.0
X104.0Y-52.0
T3
X82.3Y-57.56
X82.3Y-60.1
X84.84Y-57.56
X84.84Y-60.1
X87.38Y-57.56
X87.38Y-60.1
X89.92Y-57.56
X89.92Y-60.1
X92.46Y-57.56
X92.46Y-60.1
X95.0Y-57.56
X95.0Y-60.1
X97.54Y-57.56
X97.54Y-60.1
X100.08Y-57.56
X100.08Y-60.1
X102.62Y-57.56
X102.62Y-60.1
T4
X83.0Y-40.0
X83.0Y-52.0
X102.0Y-40.0
X102.0Y-52.0
T0
M30
