%TF.GenerationSoftware,KiCad,Pcbnew,8.0.2*%
%TF.CreationDate,2024-05-05T17:49:43+09:00*%
%TF.ProjectId,ikafly_rev1_p,696b6166-6c79-45f7-9265-76315f702e6b,rev?*%
%TF.SameCoordinates,Original*%
%TF.FileFunction,Paste,Bot*%
%TF.FilePolarity,Positive*%
%FSLAX46Y46*%
G04 Gerber Fmt 4.6, Leading zero omitted, Abs format (unit mm)*
G04 Created by KiCad (PCBNEW 8.0.2) date 2024-05-05 17:49:43*
%MOMM*%
%LPD*%
G01*
G04 APERTURE LIST*
G04 Aperture macros list*
%AMRoundRect*
0 Rectangle with rounded corners*
0 $1 Rounding radius*
0 $2 $3 $4 $5 $6 $7 $8 $9 X,Y pos of 4 corners*
0 Add a 4 corners polygon primitive as box body*
4,1,4,$2,$3,$4,$5,$6,$7,$8,$9,$2,$3,0*
0 Add four circle primitives for the rounded corners*
1,1,$1+$1,$2,$3*
1,1,$1+$1,$4,$5*
1,1,$1+$1,$6,$7*
1,1,$1+$1,$8,$9*
0 Add four rect primitives between the rounded corners*
20,1,$1+$1,$2,$3,$4,$5,0*
20,1,$1+$1,$4,$5,$6,$7,0*
20,1,$1+$1,$6,$7,$8,$9,0*
20,1,$1+$1,$8,$9,$2,$3,0*%
G04 Aperture macros list end*
%ADD10RoundRect,0.140000X0.170000X-0.140000X0.170000X0.140000X-0.170000X0.140000X-0.170000X-0.140000X0*%
%ADD11RoundRect,0.225000X0.225000X0.250000X-0.225000X0.250000X-0.225000X-0.250000X0.225000X-0.250000X0*%
%ADD12RoundRect,0.135000X0.185000X-0.135000X0.185000X0.135000X-0.185000X0.135000X-0.185000X-0.135000X0*%
%ADD13RoundRect,0.135000X-0.185000X0.135000X-0.185000X-0.135000X0.185000X-0.135000X0.185000X0.135000X0*%
%ADD14R,0.600000X1.200000*%
%ADD15RoundRect,0.225000X-0.225000X-0.250000X0.225000X-0.250000X0.225000X0.250000X-0.225000X0.250000X0*%
%ADD16RoundRect,0.140000X-0.140000X-0.170000X0.140000X-0.170000X0.140000X0.170000X-0.140000X0.170000X0*%
%ADD17RoundRect,0.225000X0.250000X-0.225000X0.250000X0.225000X-0.250000X0.225000X-0.250000X-0.225000X0*%
%ADD18RoundRect,0.135000X-0.135000X-0.185000X0.135000X-0.185000X0.135000X0.185000X-0.135000X0.185000X0*%
%ADD19RoundRect,0.135000X0.135000X0.185000X-0.135000X0.185000X-0.135000X-0.185000X0.135000X-0.185000X0*%
%ADD20R,1.200000X0.600000*%
%ADD21RoundRect,0.218750X0.218750X0.256250X-0.218750X0.256250X-0.218750X-0.256250X0.218750X-0.256250X0*%
%ADD22RoundRect,0.225000X-0.250000X0.225000X-0.250000X-0.225000X0.250000X-0.225000X0.250000X0.225000X0*%
%ADD23R,1.000000X1.500000*%
%ADD24R,1.000000X0.750000*%
G04 APERTURE END LIST*
D10*
%TO.C,C45*%
X169850000Y-105480000D03*
X169850000Y-104520000D03*
%TD*%
%TO.C,C47*%
X170150000Y-98080000D03*
X170150000Y-97120000D03*
%TD*%
D11*
%TO.C,C20*%
X155750000Y-79100000D03*
X154200000Y-79100000D03*
%TD*%
D12*
%TO.C,R17*%
X171550000Y-75720000D03*
X171550000Y-74700000D03*
%TD*%
D13*
%TO.C,R18*%
X171550000Y-76700000D03*
X171550000Y-77720000D03*
%TD*%
D12*
%TO.C,R7*%
X157450000Y-91300000D03*
X157450000Y-90280000D03*
%TD*%
D14*
%TO.C,IC6*%
X156100000Y-83300000D03*
X155150000Y-83300000D03*
X154200000Y-83300000D03*
X154200000Y-80700000D03*
X156100000Y-80700000D03*
%TD*%
D15*
%TO.C,C21*%
X154375000Y-75560000D03*
X155925000Y-75560000D03*
%TD*%
D14*
%TO.C,IC5*%
X154165000Y-69810000D03*
X155115000Y-69810000D03*
X156065000Y-69810000D03*
X156065000Y-72410000D03*
X154165000Y-72410000D03*
%TD*%
D11*
%TO.C,C22*%
X155750000Y-77600000D03*
X154200000Y-77600000D03*
%TD*%
D15*
%TO.C,C18*%
X154375000Y-68100000D03*
X155925000Y-68100000D03*
%TD*%
D12*
%TO.C,R6*%
X157450000Y-93310000D03*
X157450000Y-92290000D03*
%TD*%
D15*
%TO.C,C19*%
X154375000Y-74060000D03*
X155925000Y-74060000D03*
%TD*%
%TO.C,C17*%
X154395000Y-85100000D03*
X155945000Y-85100000D03*
%TD*%
D16*
%TO.C,C45*%
X96770000Y-116200000D03*
X97730000Y-116200000D03*
%TD*%
%TO.C,C47*%
X104170000Y-116500000D03*
X105130000Y-116500000D03*
%TD*%
D17*
%TO.C,C20*%
X123150000Y-102100000D03*
X123150000Y-100550000D03*
%TD*%
D18*
%TO.C,R17*%
X126530000Y-117900000D03*
X127550000Y-117900000D03*
%TD*%
D19*
%TO.C,R18*%
X125550000Y-117900000D03*
X124530000Y-117900000D03*
%TD*%
D18*
%TO.C,R7*%
X110950000Y-103800000D03*
X111970000Y-103800000D03*
%TD*%
D20*
%TO.C,IC6*%
X118950000Y-102450000D03*
X118950000Y-101500000D03*
X118950000Y-100550000D03*
X121550000Y-100550000D03*
X121550000Y-102450000D03*
%TD*%
D21*
%TO.C,D2*%
X100625000Y-128850000D03*
X99050000Y-128850000D03*
%TD*%
D22*
%TO.C,C21*%
X126690000Y-100725000D03*
X126690000Y-102275000D03*
%TD*%
D20*
%TO.C,IC5*%
X132440000Y-100515000D03*
X132440000Y-101465000D03*
X132440000Y-102415000D03*
X129840000Y-102415000D03*
X129840000Y-100515000D03*
%TD*%
D17*
%TO.C,C22*%
X124650000Y-102100000D03*
X124650000Y-100550000D03*
%TD*%
D22*
%TO.C,C18*%
X134150000Y-100725000D03*
X134150000Y-102275000D03*
%TD*%
D23*
%TO.C,S2*%
X101550000Y-141850000D03*
X99050000Y-141850000D03*
X96550000Y-141850000D03*
X96550000Y-135850000D03*
X99050000Y-135850000D03*
X101550000Y-135850000D03*
%TD*%
D21*
%TO.C,D1*%
X100550000Y-132350000D03*
X98975000Y-132350000D03*
%TD*%
D18*
%TO.C,R14*%
X96077500Y-128850000D03*
X97097500Y-128850000D03*
%TD*%
D24*
%TO.C,S1*%
X115800000Y-136725000D03*
X109800000Y-136725000D03*
X115800000Y-140475000D03*
X109800000Y-140475000D03*
%TD*%
D18*
%TO.C,R6*%
X108940000Y-103800000D03*
X109960000Y-103800000D03*
%TD*%
D22*
%TO.C,C19*%
X128190000Y-100725000D03*
X128190000Y-102275000D03*
%TD*%
%TO.C,C17*%
X117150000Y-100745000D03*
X117150000Y-102295000D03*
%TD*%
D18*
%TO.C,R13*%
X96002500Y-132350000D03*
X97022500Y-132350000D03*
%TD*%
D23*
%TO.C,S2*%
X101550000Y-93450000D03*
X99050000Y-93450000D03*
X96550000Y-93450000D03*
X96550000Y-87450000D03*
X99050000Y-87450000D03*
X101550000Y-87450000D03*
%TD*%
D21*
%TO.C,D1*%
X100550000Y-83950000D03*
X98975000Y-83950000D03*
%TD*%
D20*
%TO.C,IC6*%
X118950000Y-54050000D03*
X118950000Y-53100000D03*
X118950000Y-52150000D03*
X121550000Y-52150000D03*
X121550000Y-54050000D03*
%TD*%
D16*
%TO.C,C45*%
X96770000Y-67800000D03*
X97730000Y-67800000D03*
%TD*%
%TO.C,C47*%
X104170000Y-68100000D03*
X105130000Y-68100000D03*
%TD*%
D21*
%TO.C,D2*%
X100625000Y-80450000D03*
X99050000Y-80450000D03*
%TD*%
D18*
%TO.C,R7*%
X110950000Y-55400000D03*
X111970000Y-55400000D03*
%TD*%
D17*
%TO.C,C20*%
X123150000Y-53700000D03*
X123150000Y-52150000D03*
%TD*%
D18*
%TO.C,R17*%
X126530000Y-69500000D03*
X127550000Y-69500000D03*
%TD*%
D22*
%TO.C,C21*%
X126690000Y-52325000D03*
X126690000Y-53875000D03*
%TD*%
D19*
%TO.C,R18*%
X125550000Y-69500000D03*
X124530000Y-69500000D03*
%TD*%
D17*
%TO.C,C22*%
X124650000Y-53700000D03*
X124650000Y-52150000D03*
%TD*%
D22*
%TO.C,C18*%
X134150000Y-52325000D03*
X134150000Y-53875000D03*
%TD*%
D20*
%TO.C,IC5*%
X132440000Y-52115000D03*
X132440000Y-53065000D03*
X132440000Y-54015000D03*
X129840000Y-54015000D03*
X129840000Y-52115000D03*
%TD*%
D22*
%TO.C,C19*%
X128190000Y-52325000D03*
X128190000Y-53875000D03*
%TD*%
%TO.C,C17*%
X117150000Y-52345000D03*
X117150000Y-53895000D03*
%TD*%
D18*
%TO.C,R13*%
X96002500Y-83950000D03*
X97022500Y-83950000D03*
%TD*%
D24*
%TO.C,S1*%
X115800000Y-88325000D03*
X109800000Y-88325000D03*
X115800000Y-92075000D03*
X109800000Y-92075000D03*
%TD*%
D18*
%TO.C,R6*%
X108940000Y-55400000D03*
X109960000Y-55400000D03*
%TD*%
%TO.C,R14*%
X96077500Y-80450000D03*
X97097500Y-80450000D03*
%TD*%
M02*
