M48
; DRILL file {KiCad 8.0.2} date 2024-05-05T17:49:47+0900
; FORMAT={-:-/ absolute / metric / decimal}
; #@! TF.CreationDate,2024-05-05T17:49:47+09:00
; #@! TF.GenerationSoftware,Kicad,Pcbnew,8.0.2
; #@! TF.FileFunction,MixedPlating,1,4
FMAT,2
METRIC
; #@! TA.AperFunction,Plated,PTH,ViaDrill
T1C0.300
; #@! TA.AperFunction,Plated,PTH,ViaDrill
T2C0.350
; #@! TA.AperFunction,Plated,PTH,ViaDrill
T3C0.400
; #@! TA.AperFunction,Plated,PTH,ComponentDrill
T4C0.600
; #@! TA.AperFunction,Plated,PTH,ComponentDrill
T5C0.730
; #@! TA.AperFunction,Plated,PTH,ComponentDrill
T6C0.900
; #@! TA.AperFunction,Plated,PTH,ComponentDrill
T7C1.000
; #@! TA.AperFunction,Plated,PTH,ComponentDrill
T8C1.200
; #@! TA.AperFunction,Plated,PTH,ComponentDrill
T9C2.000
; #@! TA.AperFunction,NonPlated,NPTH,ComponentDrill
T10C0.650
; #@! TA.AperFunction,NonPlated,NPTH,ComponentDrill
T11C2.200
%
G90
G05
T1
X120.55Y-54.9
X120.55Y-103.3
X121.55Y-54.9
X121.55Y-103.3
X123.05Y-57.5
X123.05Y-59.194
X123.05Y-105.9
X123.05Y-107.594
X124.55Y-57.9
X124.55Y-106.3
X125.55Y-70.1
X125.55Y-118.5
X125.81Y-54.641
X125.81Y-103.041
X126.05Y-57.562
X126.05Y-105.962
X127.05Y-55.0
X127.05Y-103.4
X129.05Y-55.0
X129.05Y-103.4
X129.223Y-59.395
X129.223Y-107.795
X129.85Y-59.01
X129.85Y-107.41
X129.87Y-58.3
X129.87Y-106.7
X130.05Y-55.0
X130.05Y-103.4
X156.691Y-76.44
X156.95Y-80.7
X156.95Y-81.7
X157.05Y-72.2
X157.05Y-73.2
X157.05Y-75.2
X159.55Y-79.2
X159.612Y-76.2
X159.95Y-77.7
X160.35Y-72.38
X161.06Y-72.4
X161.244Y-79.2
X161.445Y-73.027
X172.15Y-76.7
T2
X90.45Y-56.9
X90.45Y-60.5
X90.45Y-63.0
X90.45Y-105.3
X90.45Y-108.9
X90.45Y-111.4
X91.05Y-70.5
X91.05Y-118.9
X91.65Y-58.65
X91.65Y-107.05
X92.55Y-95.7
X92.55Y-144.1
X93.57Y-55.2
X93.57Y-103.6
X95.337Y-80.52
X95.337Y-128.92
X96.05Y-85.4
X96.05Y-133.8
X96.85Y-89.6
X96.85Y-138.0
X97.05Y-95.7
X97.05Y-144.1
X97.12Y-57.72
X97.12Y-106.12
X97.85Y-67.5
X97.85Y-115.9
X98.15Y-69.01
X98.15Y-117.41
X98.182Y-60.0
X98.182Y-108.4
X98.2Y-60.9
X98.2Y-109.3
X98.813Y-59.224
X98.813Y-107.624
X99.0Y-60.2
X99.0Y-108.6
X99.95Y-63.65
X99.95Y-70.8
X99.95Y-71.6
X99.95Y-112.05
X99.95Y-119.2
X99.95Y-120.0
X100.55Y-95.7
X100.55Y-144.1
X101.438Y-80.42
X101.438Y-128.82
X101.462Y-83.92
X101.462Y-132.32
X101.75Y-90.3
X101.75Y-138.7
X102.97Y-55.54
X102.97Y-103.94
X102.99Y-54.67
X102.99Y-103.07
X103.75Y-60.2
X103.75Y-108.6
X104.587Y-95.662
X104.587Y-144.062
X105.55Y-77.5
X105.55Y-125.9
X106.56Y-58.79
X106.56Y-107.19
X106.65Y-60.7
X106.65Y-109.1
X107.421Y-69.571
X107.421Y-117.971
X107.65Y-54.3
X107.65Y-102.7
X107.85Y-78.2
X107.85Y-126.6
X108.05Y-72.55
X108.05Y-120.95
X108.55Y-95.7
X108.55Y-144.1
X109.123Y-69.584
X109.123Y-117.984
X109.65Y-70.186
X109.65Y-118.586
X110.05Y-54.0
X110.05Y-57.1
X110.05Y-102.4
X110.05Y-105.5
X110.25Y-61.259
X110.25Y-62.1
X110.25Y-109.659
X110.25Y-110.5
X110.3Y-80.95
X110.3Y-93.45
X110.3Y-129.35
X110.3Y-141.85
X110.35Y-71.3
X110.35Y-119.7
X110.42Y-60.477
X110.42Y-108.877
X110.45Y-68.53
X110.45Y-116.93
X111.8Y-91.575
X111.8Y-139.975
X111.95Y-53.7
X111.95Y-55.9
X111.95Y-102.1
X111.95Y-104.3
X112.25Y-57.45
X112.25Y-105.85
X112.3Y-58.43
X112.3Y-106.83
X113.05Y-95.7
X113.05Y-144.1
X113.081Y-60.619
X113.081Y-109.019
X113.45Y-52.05
X113.45Y-100.45
X113.55Y-80.7
X113.55Y-83.45
X113.55Y-86.2
X113.55Y-93.7
X113.55Y-129.1
X113.55Y-131.85
X113.55Y-134.6
X113.55Y-142.1
X113.838Y-54.789
X113.838Y-103.189
X114.05Y-56.05
X114.05Y-104.45
X114.34Y-69.329
X114.34Y-117.73
X114.65Y-54.75
X114.65Y-103.15
X114.872Y-71.525
X114.872Y-119.925
X115.328Y-58.555
X115.328Y-106.955
X115.5Y-71.03
X115.5Y-119.43
X115.8Y-91.825
X115.8Y-140.225
X115.834Y-56.5
X115.834Y-104.9
X115.85Y-57.95
X115.85Y-106.35
X116.05Y-80.7
X116.05Y-83.45
X116.05Y-86.2
X116.05Y-93.7
X116.05Y-129.1
X116.05Y-131.85
X116.05Y-134.6
X116.05Y-142.1
X116.65Y-59.3
X116.65Y-107.7
X117.45Y-58.4
X117.45Y-59.8
X117.45Y-106.8
X117.45Y-108.2
X118.46Y-70.92
X118.46Y-119.32
X118.55Y-80.7
X118.55Y-83.45
X118.55Y-86.2
X118.55Y-93.7
X118.55Y-129.1
X118.55Y-131.85
X118.55Y-134.6
X118.55Y-142.1
X119.45Y-58.4
X119.45Y-106.8
X119.95Y-62.02
X119.95Y-110.42
X120.37Y-65.78
X120.37Y-114.18
X120.41Y-59.36
X120.41Y-107.76
X120.901Y-70.412
X120.901Y-118.812
X121.05Y-79.2
X121.05Y-82.2
X121.05Y-84.7
X121.05Y-87.2
X121.05Y-88.95
X121.05Y-91.45
X121.05Y-93.95
X121.05Y-95.7
X121.05Y-127.6
X121.05Y-130.6
X121.05Y-133.1
X121.05Y-135.6
X121.05Y-137.35
X121.05Y-139.85
X121.05Y-142.35
X121.05Y-144.1
X121.35Y-67.18
X121.35Y-115.58
X121.36Y-60.883
X121.36Y-109.282
X121.4Y-64.55
X121.4Y-112.95
X121.598Y-66.02
X121.598Y-114.42
X121.95Y-60.302
X121.95Y-108.703
X122.15Y-58.95
X122.15Y-107.35
X122.6Y-67.417
X122.6Y-115.817
X123.123Y-68.022
X123.123Y-116.422
X123.863Y-68.386
X123.863Y-116.786
X124.0Y-63.85
X124.0Y-112.25
X124.05Y-82.2
X124.05Y-84.7
X124.05Y-87.2
X124.05Y-130.6
X124.05Y-133.1
X124.05Y-135.6
X124.2Y-71.35
X124.2Y-119.75
X124.55Y-95.7
X124.55Y-144.1
X124.921Y-68.022
X124.921Y-116.422
X125.05Y-91.7
X125.05Y-140.1
X125.72Y-67.99
X125.72Y-116.39
X126.05Y-71.062
X126.05Y-119.462
X126.129Y-68.709
X126.129Y-117.109
X126.55Y-78.2
X126.55Y-126.6
X127.05Y-95.7
X127.05Y-144.1
X127.54Y-67.83
X127.54Y-116.23
X127.85Y-69.55
X127.85Y-117.95
X128.37Y-86.95
X128.37Y-135.35
X128.45Y-64.75
X128.45Y-113.15
X128.6Y-85.25
X128.6Y-133.65
X128.66Y-68.08
X128.66Y-116.48
X128.79Y-87.97
X128.79Y-136.37
X129.0Y-78.3
X129.0Y-80.5
X129.0Y-126.7
X129.0Y-128.9
X129.05Y-79.35
X129.05Y-81.35
X129.05Y-127.75
X129.05Y-129.75
X129.1Y-82.35
X129.1Y-83.3
X129.1Y-130.75
X129.1Y-131.7
X129.15Y-84.4
X129.15Y-132.8
X129.55Y-91.7
X129.55Y-95.7
X129.55Y-140.1
X129.55Y-144.1
X129.567Y-88.654
X129.567Y-137.054
X130.05Y-78.05
X130.05Y-126.45
X130.45Y-67.0
X130.45Y-115.4
X130.5Y-63.242
X130.5Y-111.642
X130.8Y-81.7
X130.8Y-82.55
X130.8Y-130.1
X130.8Y-130.95
X130.81Y-89.06
X130.81Y-137.46
X130.82Y-80.91
X130.82Y-129.31
X130.85Y-83.55
X130.85Y-131.95
X131.1Y-78.05
X131.1Y-126.45
X131.175Y-80.175
X131.175Y-128.575
X131.59Y-83.99
X131.59Y-132.39
X131.65Y-58.4
X131.65Y-82.5
X131.65Y-106.8
X131.65Y-130.9
X131.69Y-67.1
X131.69Y-115.5
X131.89Y-79.68
X131.89Y-128.08
X131.95Y-88.93
X131.95Y-137.33
X132.05Y-95.7
X132.05Y-144.1
X132.3Y-78.15
X132.3Y-126.55
X132.375Y-70.1
X132.375Y-118.5
X132.5Y-80.25
X132.5Y-83.1
X132.5Y-83.919
X132.5Y-128.65
X132.5Y-131.5
X132.5Y-132.319
X132.55Y-81.2
X132.55Y-82.2
X132.55Y-91.7
X132.55Y-129.6
X132.55Y-130.6
X132.55Y-140.1
X132.65Y-66.0
X132.65Y-67.15
X132.65Y-114.4
X132.65Y-115.55
X132.75Y-88.38
X132.75Y-136.78
X132.873Y-84.727
X132.873Y-133.127
X133.05Y-62.95
X133.05Y-111.35
X133.32Y-87.36
X133.32Y-135.76
X133.45Y-78.65
X133.45Y-127.05
X134.03Y-79.81
X134.03Y-80.86
X134.03Y-81.96
X134.03Y-128.21
X134.03Y-129.26
X134.03Y-130.36
X134.55Y-95.7
X134.55Y-144.1
X134.65Y-70.09
X134.65Y-118.49
X134.675Y-69.41
X134.675Y-117.81
X135.55Y-78.2
X135.55Y-80.2
X135.55Y-126.6
X135.55Y-128.6
X137.05Y-87.7
X137.05Y-90.2
X137.05Y-92.7
X137.05Y-95.7
X137.05Y-136.1
X137.05Y-138.6
X137.05Y-141.1
X137.05Y-144.1
X137.76Y-69.94
X137.76Y-118.34
X138.05Y-82.7
X138.05Y-131.1
X138.23Y-66.15
X138.23Y-114.55
X138.3Y-58.42
X138.3Y-106.82
X139.55Y-58.4
X139.55Y-86.7
X139.55Y-89.2
X139.55Y-91.7
X139.55Y-95.7
X139.55Y-106.8
X139.55Y-135.1
X139.55Y-137.6
X139.55Y-140.1
X139.55Y-144.1
X140.55Y-62.09
X140.55Y-110.49
X141.95Y-57.3
X141.95Y-105.7
X142.0Y-54.95
X142.0Y-103.35
X142.05Y-95.7
X142.05Y-144.1
X142.14Y-67.45
X142.14Y-115.85
X143.03Y-66.15
X143.03Y-114.55
X144.55Y-95.7
X144.55Y-144.1
X145.65Y-84.35
X145.65Y-132.75
X146.45Y-68.9
X146.45Y-117.3
X146.85Y-58.9
X146.85Y-61.5
X146.85Y-64.5
X146.85Y-107.3
X146.85Y-109.9
X146.85Y-112.9
X148.65Y-55.9
X148.65Y-68.3
X148.65Y-104.3
X148.65Y-116.7
X154.1Y-88.8
X155.75Y-90.3
X156.05Y-92.2
X156.35Y-94.6
X156.72Y-99.26
X156.8Y-87.6
X156.839Y-88.412
X157.0Y-60.25
X157.25Y-108.68
X157.59Y-99.28
X157.95Y-53.6
X157.95Y-90.3
X158.1Y-88.2
X158.55Y-86.415
X158.95Y-111.8
X159.15Y-92.2
X159.35Y-60.3
X159.5Y-90.0
X159.77Y-105.13
X160.0Y-86.4
X160.45Y-62.7
X160.45Y-70.6
X160.45Y-82.8
X160.45Y-84.8
X160.47Y-63.95
X160.48Y-89.95
X160.605Y-86.922
X160.7Y-110.6
X160.84Y-95.69
X160.95Y-55.4
X161.0Y-80.1
X161.274Y-103.437
X161.35Y-85.6
X161.41Y-81.84
X161.85Y-84.8
X162.05Y-104.068
X162.25Y-98.5
X162.25Y-103.25
X162.352Y-80.3
X162.527Y-91.83
X162.55Y-111.8
X162.669Y-89.169
X162.75Y-95.6
X162.933Y-80.89
X162.95Y-104.05
X163.309Y-92.0
X163.55Y-55.4
X164.07Y-82.3
X164.14Y-61.7
X164.15Y-92.0
X165.0Y-69.2
X165.05Y-111.8
X165.292Y-71.75
X165.7Y-102.3
X165.9Y-78.25
X166.55Y-55.4
X166.6Y-80.85
X166.8Y-73.8
X167.83Y-81.88
X168.05Y-69.6
X168.07Y-80.652
X168.2Y-59.22
X168.2Y-64.02
X169.05Y-71.8
X169.15Y-70.56
X169.2Y-69.6
X169.23Y-80.9
X169.467Y-79.65
X169.5Y-60.11
X169.55Y-104.4
X169.88Y-74.71
X170.04Y-76.53
X170.072Y-77.329
X170.072Y-79.127
X170.13Y-73.59
X170.35Y-53.6
X170.436Y-78.387
X170.58Y-91.8
X170.759Y-76.121
X170.95Y-55.8
X171.06Y-104.1
X171.379Y-87.909
X171.46Y-67.575
X171.6Y-74.4
X171.621Y-94.829
X171.634Y-93.127
X171.99Y-64.49
X172.14Y-67.6
X172.15Y-69.875
X172.236Y-92.6
X172.462Y-81.349
X172.55Y-111.2
X172.85Y-102.3
X172.97Y-83.79
X173.08Y-86.75
X173.112Y-76.2
X173.35Y-91.9
X173.4Y-78.05
X173.575Y-87.378
X173.65Y-102.3
X174.6Y-94.2
T3
X91.25Y-65.0
X91.25Y-113.4
X94.552Y-67.009
X94.552Y-115.409
X96.45Y-68.0
X96.45Y-68.9
X96.45Y-116.4
X96.45Y-117.3
X96.7Y-72.15
X96.7Y-120.55
X97.65Y-70.4
X97.65Y-71.25
X97.65Y-118.8
X97.65Y-119.65
X98.678Y-64.553
X98.678Y-112.953
X99.05Y-95.45
X99.05Y-143.85
X100.05Y-58.6
X100.05Y-107.0
X103.0Y-58.6
X103.0Y-107.0
X103.95Y-67.7
X103.95Y-116.1
X104.092Y-68.642
X104.092Y-117.042
X104.85Y-58.6
X104.85Y-107.0
X104.95Y-72.05
X104.95Y-120.45
X105.254Y-65.499
X105.254Y-113.899
X105.65Y-68.1
X105.65Y-116.5
X105.85Y-70.45
X105.85Y-71.3
X105.85Y-118.85
X105.85Y-119.7
X107.85Y-58.5
X107.85Y-106.9
X109.25Y-68.63
X109.25Y-117.03
X113.05Y-63.9
X113.05Y-112.3
X114.5Y-64.25
X114.5Y-112.65
X116.25Y-53.1
X116.25Y-101.5
X116.465Y-64.47
X116.465Y-112.87
X118.05Y-52.1
X118.05Y-100.5
X119.87Y-64.3
X119.87Y-112.7
X123.95Y-52.15
X123.95Y-53.7
X123.95Y-100.55
X123.95Y-102.1
X124.95Y-62.1
X124.95Y-63.25
X124.95Y-64.4
X124.95Y-110.5
X124.95Y-111.65
X124.95Y-112.8
X126.1Y-62.1
X126.1Y-63.25
X126.1Y-64.4
X126.1Y-110.5
X126.1Y-111.65
X126.1Y-112.8
X127.25Y-62.1
X127.25Y-63.25
X127.25Y-64.4
X127.25Y-110.5
X127.25Y-111.65
X127.25Y-112.8
X127.45Y-52.115
X127.45Y-53.675
X127.45Y-100.515
X127.45Y-102.075
X131.85Y-71.5
X131.85Y-119.9
X133.45Y-52.1
X133.45Y-100.5
X133.5Y-85.5
X133.5Y-133.9
X134.75Y-82.55
X134.75Y-130.95
X135.35Y-53.8
X135.35Y-102.2
X140.05Y-77.45
X140.05Y-125.85
X141.57Y-81.7
X141.57Y-82.92
X141.57Y-130.1
X141.57Y-131.32
X144.3Y-77.95
X144.3Y-126.35
X145.75Y-92.05
X145.75Y-140.45
X154.15Y-68.8
X154.15Y-84.2
X154.165Y-74.8
X154.2Y-78.3
X155.15Y-86.0
X155.725Y-74.8
X155.75Y-78.3
X155.85Y-66.9
X160.55Y-94.4
X160.65Y-97.4
X160.65Y-99.25
X160.65Y-102.2
X164.15Y-75.0
X164.15Y-76.15
X164.15Y-77.3
X165.3Y-75.0
X165.3Y-76.15
X165.3Y-77.3
X165.95Y-89.2
X166.3Y-87.75
X166.35Y-82.38
X166.45Y-75.0
X166.45Y-76.15
X166.45Y-77.3
X166.52Y-85.785
X166.603Y-103.572
X167.05Y-111.0
X167.549Y-96.996
X169.059Y-107.698
X169.75Y-98.3
X170.05Y-105.8
X170.15Y-96.6
X170.68Y-93.0
X170.692Y-98.158
X170.95Y-105.8
X172.45Y-104.6
X172.5Y-96.4
X173.3Y-104.6
X173.35Y-96.4
X173.55Y-70.4
X174.1Y-97.3
X174.2Y-105.55
T5
X92.897Y-68.7
X92.897Y-117.1
X94.397Y-68.7
X94.397Y-117.1
X96.35Y-55.6
X96.35Y-104.0
X97.85Y-55.6
X97.85Y-104.0
X100.968Y-68.7
X100.968Y-117.1
X102.468Y-68.7
X102.468Y-117.1
X104.762Y-55.6
X104.762Y-104.0
X106.262Y-55.6
X106.262Y-104.0
X157.65Y-95.987
X157.65Y-97.487
X157.65Y-104.4
X157.65Y-105.9
X170.75Y-99.782
X170.75Y-101.282
X170.75Y-107.852
X170.75Y-109.352
T6
X87.75Y-59.065
X87.75Y-61.605
X87.75Y-64.145
X87.75Y-66.685
X87.75Y-107.465
X87.75Y-110.005
X87.75Y-112.545
X87.75Y-115.085
X88.05Y-81.9
X88.05Y-84.44
X88.05Y-86.98
X88.05Y-89.52
X88.05Y-130.3
X88.05Y-132.84
X88.05Y-135.38
X88.05Y-137.92
X148.75Y-57.795
X148.75Y-60.335
X148.75Y-62.875
X148.75Y-65.415
X148.75Y-106.195
X148.75Y-108.735
X148.75Y-111.275
X148.75Y-113.815
X149.05Y-83.17
X149.05Y-85.71
X149.05Y-88.25
X149.05Y-90.79
X149.05Y-131.57
X149.05Y-134.11
X149.05Y-136.65
X149.05Y-139.19
X159.845Y-53.5
X161.115Y-114.5
X162.385Y-53.5
X163.655Y-114.5
X164.925Y-53.5
X166.195Y-114.5
X167.465Y-53.5
X168.735Y-114.5
T7
X109.95Y-64.95
X109.95Y-113.35
X129.45Y-70.4
X129.45Y-118.8
X167.0Y-92.3
X172.45Y-72.8
T8
X130.9Y-86.48
X130.9Y-134.88
T9
X93.45Y-61.6
X93.45Y-110.0
X101.1Y-61.6
X101.1Y-110.0
X136.1Y-61.6
X136.1Y-110.0
X143.75Y-61.6
X143.75Y-110.0
X163.65Y-58.5
X163.65Y-66.15
X163.65Y-101.15
X163.65Y-108.8
T10
X137.74Y-67.22
X137.74Y-115.62
X143.52Y-67.22
X143.52Y-115.62
X169.27Y-58.73
X169.27Y-64.51
T11
X88.55Y-53.7
X88.55Y-70.7
X88.55Y-77.9
X88.55Y-95.0
X88.55Y-102.1
X88.55Y-119.1
X88.55Y-126.3
X88.55Y-143.4
X148.55Y-53.7
X148.55Y-70.7
X148.55Y-77.9
X148.55Y-94.9
X148.55Y-102.1
X148.55Y-119.1
X148.55Y-126.3
X148.55Y-143.3
X155.75Y-53.7
X155.75Y-113.7
X172.75Y-53.7
X172.75Y-113.7
T4
G00X136.31Y-67.27
M15
G01X136.31Y-66.17
M16
G05
G00X136.31Y-71.3
M15
G01X136.31Y-70.5
M16
G05
G00X136.31Y-115.67
M15
G01X136.31Y-114.57
M16
G05
G00X136.31Y-119.7
M15
G01X136.31Y-118.9
M16
G05
G00X144.95Y-67.27
M15
G01X144.95Y-66.17
M16
G05
G00X144.95Y-71.3
M15
G01X144.95Y-70.5
M16
G05
G00X144.95Y-115.67
M15
G01X144.95Y-114.57
M16
G05
G00X144.95Y-119.7
M15
G01X144.95Y-118.9
M16
G05
G00X169.32Y-57.3
M15
G01X168.22Y-57.3
M16
G05
G00X169.32Y-65.94
M15
G01X168.22Y-65.94
M16
G05
G00X173.35Y-57.3
M15
G01X172.55Y-57.3
M16
G05
G00X173.35Y-65.94
M15
G01X172.55Y-65.94
M16
G05
M30
