%TF.GenerationSoftware,KiCad,Pcbnew,7.0.5*%
%TF.CreationDate,2024-04-05T19:39:44+09:00*%
%TF.ProjectId,ikafly_rev0a_p_cut,696b6166-6c79-45f7-9265-7630615f705f,rev?*%
%TF.SameCoordinates,Original*%
%TF.FileFunction,Profile,NP*%
%FSLAX46Y46*%
G04 Gerber Fmt 4.6, Leading zero omitted, Abs format (unit mm)*
G04 Created by KiCad (PCBNEW 7.0.5) date 2024-04-05 19:39:44*
%MOMM*%
%LPD*%
G01*
G04 APERTURE LIST*
%TA.AperFunction,Profile*%
%ADD10C,0.100000*%
%TD*%
G04 APERTURE END LIST*
D10*
X141300000Y-67800000D02*
X141300000Y-65600000D01*
X133800000Y-67800000D02*
X133800000Y-65600000D01*
X133900000Y-91850000D02*
X133800000Y-89800000D01*
X141400000Y-91800000D02*
X141400000Y-89800000D01*
X133900000Y-116000000D02*
X133900000Y-113850000D01*
X141400000Y-116000000D02*
X141400000Y-113800000D01*
X133900000Y-91850000D02*
G75*
G03*
X131400000Y-94350000I0J-2500000D01*
G01*
X131400000Y-111350000D02*
X131400000Y-94350000D01*
X131400000Y-111350000D02*
G75*
G03*
X133900000Y-113850000I2500000J0D01*
G01*
X193800000Y-43600000D02*
X133800000Y-43600000D01*
X133800000Y-43600000D02*
G75*
G03*
X131300000Y-46100000I0J-2500000D01*
G01*
X131300000Y-63100000D02*
G75*
G03*
X133800000Y-65600000I2500000J0D01*
G01*
X131300000Y-63100000D02*
X131300000Y-46100000D01*
X133800000Y-67800000D02*
G75*
G03*
X131300000Y-70300000I0J-2500000D01*
G01*
X131300000Y-87300000D02*
G75*
G03*
X133800000Y-89800000I2500000J0D01*
G01*
X131300000Y-87300000D02*
X131300000Y-70300000D01*
X133900000Y-116000000D02*
G75*
G03*
X131400000Y-118500000I0J-2500000D01*
G01*
X193900000Y-138000000D02*
X136800000Y-138000001D01*
X133900000Y-138000000D02*
X136800000Y-138000001D01*
X131400000Y-135500000D02*
X131400000Y-118500000D01*
X131400000Y-135500000D02*
G75*
G03*
X133900000Y-138000000I2500000J0D01*
G01*
X193900000Y-138000000D02*
G75*
G03*
X196400000Y-135500000I0J2500000D01*
G01*
X196300000Y-49850000D02*
X196300000Y-46100000D01*
X196382233Y-118517767D02*
G75*
G03*
X193882233Y-116017767I-2500000J0D01*
G01*
X196400000Y-94300000D02*
G75*
G03*
X193900000Y-91800000I-2500000J0D01*
G01*
X193900000Y-113800000D02*
G75*
G03*
X196400000Y-111300000I0J2500000D01*
G01*
X193800000Y-65599998D02*
G75*
G03*
X196300000Y-63100000I2J2499998D01*
G01*
X196300000Y-70300000D02*
G75*
G03*
X193800000Y-67800000I-2500000J0D01*
G01*
X193800000Y-89800000D02*
G75*
G03*
X196300000Y-87300000I0J2500000D01*
G01*
X196300000Y-46100000D02*
G75*
G03*
X193800000Y-43600000I-2500000J0D01*
G01*
X196382233Y-118517767D02*
X196400000Y-135500000D01*
X193882233Y-116017767D02*
X141400000Y-116000000D01*
X141400000Y-113800000D02*
X193900000Y-113800000D01*
X193900000Y-91800000D02*
X141400000Y-91800000D01*
X141400000Y-89800000D02*
X193800000Y-89800000D01*
X193800000Y-67800000D02*
X141300000Y-67800000D01*
X193800000Y-65600000D02*
X141300000Y-65600000D01*
X196400000Y-111300000D02*
X196400000Y-94300000D01*
X196300000Y-87300000D02*
X196300000Y-70300000D01*
X196300000Y-63100000D02*
X196300000Y-49850000D01*
M02*
